G04*
G04 #@! TF.GenerationSoftware,Altium Limited,Altium Designer,22.8.2 (66)*
G04*
G04 Layer_Color=32768*
%FSLAX25Y25*%
%MOIN*%
G70*
G04*
G04 #@! TF.SameCoordinates,E27F80D8-943B-43E4-A2F4-46A55102C9C5*
G04*
G04*
G04 #@! TF.FilePolarity,Positive*
G04*
G01*
G75*
%ADD25C,0.00600*%
D25*
X1773248Y1064587D02*
X1773248Y1521281D01*
X749627D02*
X749627Y1064587D01*
X757501Y1056713D02*
X1765374D01*
X1771530Y1059677D02*
X1772468Y1061170D01*
X1770283Y1058430D02*
X1771530Y1059677D01*
X1768790Y1057492D02*
X1770283Y1058430D01*
X1767126Y1056910D02*
X1768790Y1057492D01*
X1765374Y1056713D02*
X1767126Y1056910D01*
X1772468Y1061170D02*
X1773051Y1062834D01*
X1773248Y1064587D01*
X1765374Y1529155D02*
X1767126Y1528957D01*
X1768790Y1528375D01*
X1770283Y1527437D01*
X1771530Y1526190D01*
X1772468Y1524697D01*
X1773051Y1523033D01*
X1773248Y1521281D01*
X757501Y1529155D02*
X1765374D01*
X749627Y1064587D02*
X749825Y1062834D01*
X750407Y1061170D01*
X755749Y1056910D02*
X757501Y1056713D01*
X754085Y1057492D02*
X755749Y1056910D01*
X752592Y1058430D02*
X754085Y1057492D01*
X751345Y1059677D02*
X752592Y1058430D01*
X750407Y1061170D02*
X751345Y1059677D01*
X755749Y1528957D02*
X757501Y1529155D01*
X754085Y1528375D02*
X755749Y1528957D01*
X752592Y1527437D02*
X754085Y1528375D01*
X751345Y1526190D02*
X752592Y1527437D01*
X750407Y1524697D02*
X751345Y1526190D01*
X749825Y1523033D02*
X750407Y1524697D01*
X749627Y1521281D02*
X749825Y1523033D01*
M02*
