G04*
G04 #@! TF.GenerationSoftware,Altium Limited,Altium Designer,22.9.1 (49)*
G04*
G04 Layer_Color=32768*
%FSLAX25Y25*%
%MOIN*%
G70*
G04*
G04 #@! TF.SameCoordinates,1352E451-E4B0-43B6-A2DF-F84851EB9EC6*
G04*
G04*
G04 #@! TF.FilePolarity,Positive*
G04*
G01*
G75*
%ADD104C,0.01500*%
%ADD105C,0.00197*%
D104*
X116516Y388169D02*
G03*
X112579Y392106I-3937J0D01*
G01*
X112579Y148012D02*
G03*
X116516Y151949I0J3937D01*
G01*
X685039Y-0D02*
G03*
X688976Y3937I0J3937D01*
G01*
X688976Y685039D02*
G03*
X685039Y688976I-3937J0D01*
G01*
X3937D02*
G03*
X0Y685039I0J-3937D01*
G01*
X0Y396043D02*
G03*
X3937Y392106I3937J0D01*
G01*
X3937Y148012D02*
G03*
X0Y144075I0J-3937D01*
G01*
X0Y3937D02*
G03*
X3937Y-0I3937J0D01*
G01*
X685039D01*
X688976Y3937D02*
Y685039D01*
X3937Y688976D02*
X685039D01*
X-0Y685039D02*
X0D01*
X-0Y396043D02*
Y685039D01*
X3937Y392106D02*
X112579D01*
X3937Y148012D02*
X7874D01*
X0Y3937D02*
Y144075D01*
X116516Y388169D02*
X116516Y151949D01*
X7874Y148012D02*
X112579D01*
D105*
X450469Y97709D02*
Y124678D01*
Y97709D02*
X479446D01*
Y124678D01*
X450469D02*
X479446D01*
M02*
