G04*
G04 #@! TF.GenerationSoftware,Altium Limited,Altium Designer,22.9.1 (49)*
G04*
G04 Layer_Color=16711935*
%FSLAX25Y25*%
%MOIN*%
G70*
G04*
G04 #@! TF.SameCoordinates,1352E451-E4B0-43B6-A2DF-F84851EB9EC6*
G04*
G04*
G04 #@! TF.FilePolarity,Negative*
G04*
G01*
G75*
%ADD54R,0.07060X0.07060*%
%ADD55C,0.07060*%
%ADD56C,0.12611*%
G04:AMPARAMS|DCode=57|XSize=250.13mil|YSize=86.74mil|CornerRadius=43.37mil|HoleSize=0mil|Usage=FLASHONLY|Rotation=0.000|XOffset=0mil|YOffset=0mil|HoleType=Round|Shape=RoundedRectangle|*
%AMROUNDEDRECTD57*
21,1,0.25013,0.00000,0,0,0.0*
21,1,0.16339,0.08674,0,0,0.0*
1,1,0.08674,0.08169,0.00000*
1,1,0.08674,-0.08169,0.00000*
1,1,0.08674,-0.08169,0.00000*
1,1,0.08674,0.08169,0.00000*
%
%ADD57ROUNDEDRECTD57*%
%ADD58C,0.11811*%
%ADD59C,0.07800*%
%ADD60C,0.10800*%
%ADD61C,0.00800*%
%ADD62C,0.16548*%
%ADD63C,0.08674*%
%ADD64C,0.25210*%
%ADD65R,0.23635X0.24422*%
%ADD66R,0.06064X0.06064*%
%ADD67C,0.06064*%
%ADD68C,0.07887*%
%ADD69R,0.07060X0.07060*%
%ADD70C,0.05524*%
%ADD71C,0.07690*%
%ADD72C,0.09646*%
%ADD73C,0.13398*%
D54*
X57461Y65118D02*
D03*
X139413Y206240D02*
D03*
D55*
X57461Y55118D02*
D03*
X139413Y196240D02*
D03*
Y186240D02*
D03*
Y176240D02*
D03*
Y166240D02*
D03*
Y156240D02*
D03*
X494468Y16261D02*
D03*
X484469Y26261D02*
D03*
Y16261D02*
D03*
X474469Y26261D02*
D03*
Y16261D02*
D03*
X464468Y26261D02*
D03*
Y16261D02*
D03*
X454468Y26261D02*
D03*
Y16261D02*
D03*
X444468Y26261D02*
D03*
Y16261D02*
D03*
X284284D02*
D03*
X274284Y26261D02*
D03*
Y16261D02*
D03*
X264284Y26261D02*
D03*
Y16261D02*
D03*
X254284Y26261D02*
D03*
Y16261D02*
D03*
X244284Y26261D02*
D03*
Y16261D02*
D03*
X234284Y26261D02*
D03*
Y16261D02*
D03*
D56*
X539994Y158330D02*
D03*
Y144944D02*
D03*
X593144D02*
D03*
Y158330D02*
D03*
Y367031D02*
D03*
Y353645D02*
D03*
X539994D02*
D03*
Y367031D02*
D03*
X593144Y262680D02*
D03*
Y249295D02*
D03*
X539994D02*
D03*
Y262680D02*
D03*
X593144Y471382D02*
D03*
Y457996D02*
D03*
X539994D02*
D03*
Y471382D02*
D03*
X593144Y575732D02*
D03*
Y562346D02*
D03*
X539994D02*
D03*
Y575732D02*
D03*
X75886Y615531D02*
D03*
X89272D02*
D03*
Y562382D02*
D03*
X75886D02*
D03*
X539994Y680083D02*
D03*
Y666697D02*
D03*
X593144D02*
D03*
Y680083D02*
D03*
D57*
X664363Y346972D02*
D03*
Y317484D02*
D03*
Y451323D02*
D03*
Y421834D02*
D03*
Y242621D02*
D03*
Y213133D02*
D03*
Y138271D02*
D03*
Y108783D02*
D03*
Y555673D02*
D03*
Y526185D02*
D03*
X29901Y606220D02*
D03*
Y576732D02*
D03*
X664363Y630535D02*
D03*
Y660023D02*
D03*
D58*
X657257Y365869D02*
D03*
Y298586D02*
D03*
Y470220D02*
D03*
Y402937D02*
D03*
Y261519D02*
D03*
Y194236D02*
D03*
Y157168D02*
D03*
Y89885D02*
D03*
Y574571D02*
D03*
Y507287D02*
D03*
X22795Y625118D02*
D03*
Y557835D02*
D03*
X657257Y611638D02*
D03*
Y678921D02*
D03*
D59*
X544773Y68022D02*
D03*
X549773Y78022D02*
D03*
X554773Y68022D02*
D03*
X559773Y78022D02*
D03*
X564773Y68022D02*
D03*
X569773Y78022D02*
D03*
X574773Y68022D02*
D03*
X579773Y78022D02*
D03*
D60*
X531781Y31014D02*
D03*
X592765D02*
D03*
D61*
X584773Y43022D02*
D03*
X539773D02*
D03*
D62*
X123996Y588071D02*
D03*
Y558149D02*
D03*
X194075Y597913D02*
D03*
D63*
X138957Y648307D02*
D03*
X179114D02*
D03*
D64*
X278493Y513106D02*
D03*
Y485036D02*
D03*
Y430036D02*
D03*
X378848D02*
D03*
Y485036D02*
D03*
Y513106D02*
D03*
X479008Y430036D02*
D03*
Y485036D02*
D03*
Y513106D02*
D03*
D65*
X278493Y401965D02*
D03*
X378848D02*
D03*
X479008D02*
D03*
D66*
X18090Y404512D02*
D03*
D67*
Y414354D02*
D03*
Y424197D02*
D03*
Y443882D02*
D03*
Y453724D02*
D03*
Y463567D02*
D03*
Y473409D02*
D03*
D68*
X183445Y161791D02*
D03*
Y175571D02*
D03*
Y189350D02*
D03*
Y203130D02*
D03*
Y216909D02*
D03*
Y230689D02*
D03*
D69*
X494468Y26261D02*
D03*
X284284D02*
D03*
D70*
X627718Y14153D02*
D03*
X619844D02*
D03*
X396043D02*
D03*
X403917D02*
D03*
X672419D02*
D03*
X664545D02*
D03*
X25964D02*
D03*
X18090D02*
D03*
D71*
X456280Y592673D02*
D03*
Y606453D02*
D03*
X465138Y592673D02*
D03*
Y606453D02*
D03*
X473996Y592673D02*
D03*
Y606453D02*
D03*
X482854Y592673D02*
D03*
Y606453D02*
D03*
X491713Y592673D02*
D03*
Y606453D02*
D03*
X500571Y592673D02*
D03*
Y606453D02*
D03*
X456280Y635980D02*
D03*
Y649760D02*
D03*
X465138Y635980D02*
D03*
Y649760D02*
D03*
X473996Y635980D02*
D03*
Y649760D02*
D03*
X482854Y635980D02*
D03*
Y649760D02*
D03*
X491713Y635980D02*
D03*
Y649760D02*
D03*
X500571Y635980D02*
D03*
Y649760D02*
D03*
X356053Y592673D02*
D03*
Y606453D02*
D03*
X364911Y592673D02*
D03*
Y606453D02*
D03*
X373770Y592673D02*
D03*
Y606453D02*
D03*
X382628Y592673D02*
D03*
Y606453D02*
D03*
X391486Y592673D02*
D03*
Y606453D02*
D03*
X400345Y592673D02*
D03*
Y606453D02*
D03*
X356053Y635980D02*
D03*
Y649760D02*
D03*
X364911Y635980D02*
D03*
Y649760D02*
D03*
X373770Y635980D02*
D03*
Y649760D02*
D03*
X382628Y635980D02*
D03*
Y649760D02*
D03*
X391486Y635980D02*
D03*
Y649760D02*
D03*
X400345Y635980D02*
D03*
Y649760D02*
D03*
X300118D02*
D03*
Y635980D02*
D03*
X291260Y649760D02*
D03*
Y635980D02*
D03*
X282401Y649760D02*
D03*
Y635980D02*
D03*
X273543Y649760D02*
D03*
Y635980D02*
D03*
X264685Y649760D02*
D03*
Y635980D02*
D03*
X255827Y649760D02*
D03*
Y635980D02*
D03*
X300118Y606453D02*
D03*
Y592673D02*
D03*
X291260Y606453D02*
D03*
Y592673D02*
D03*
X282401Y606453D02*
D03*
Y592673D02*
D03*
X273543Y606453D02*
D03*
Y592673D02*
D03*
X264685Y606453D02*
D03*
Y592673D02*
D03*
X255827Y606453D02*
D03*
Y592673D02*
D03*
D72*
X496909Y565705D02*
D03*
Y676728D02*
D03*
X432815Y621216D02*
D03*
X396683Y565705D02*
D03*
Y676728D02*
D03*
X332589Y621216D02*
D03*
X232362D02*
D03*
X296457Y676728D02*
D03*
Y565705D02*
D03*
D73*
X91932Y90611D02*
D03*
X102955D02*
D03*
X113979D02*
D03*
X125003D02*
D03*
X136026D02*
D03*
Y79588D02*
D03*
Y68564D02*
D03*
Y57540D02*
D03*
Y46517D02*
D03*
X125003D02*
D03*
X113979D02*
D03*
X102955D02*
D03*
X91932D02*
D03*
Y57540D02*
D03*
Y68564D02*
D03*
Y79588D02*
D03*
X97539Y490551D02*
D03*
X108563D02*
D03*
X119587D02*
D03*
X130610D02*
D03*
X141634D02*
D03*
Y479528D02*
D03*
Y468504D02*
D03*
Y457480D02*
D03*
Y446457D02*
D03*
X130610D02*
D03*
X119587D02*
D03*
X108563D02*
D03*
X97539D02*
D03*
Y457480D02*
D03*
Y468504D02*
D03*
Y479528D02*
D03*
M02*
