M48
;Layer_Color=9474304
;FILE_FORMAT=2:5
INCH,LZ
;TYPE=PLATED
T1F00S00C0.01200
T2F00S00C0.03071
T3F00S00C0.03150
T4F00S00C0.03937
T6F00S00C0.04016
T7F00S00C0.04173
T8F00S00C0.04331
T9F00S00C0.04724
T10F00S00C0.06496
T11F00S00C0.07087
T12F00S00C0.07480
T13F00S00C0.08268
T14F00S00C0.16929
;TYPE=NON_PLATED
T15F00S00C0.09646
T16F00S00C0.11811
T17F00S00C0.12598
T18F00S00C0.13110
%
T01
X0014402Y0017492
X0039402Y0042492
Y0067492
X0064402Y0017492
X0194191Y0037086
X0197294
X0189402Y0042492
Y0067492
X0204033Y0065594
X0207137
X0239402Y0067492
Y0042492
X0314402Y0017492
X0324859Y003128
X0329134
X0330961Y0028327
X0335236
X0346039Y0069836
X0362088Y0059652
X0381476Y0061356
X0384784
X0381476Y0064664
Y0067971
Y0071279
X0377353Y0069298
X0394626Y0061356
X0397524Y0062991
X0400022Y0065728
X0405886Y0051853
X0489402Y0042492
Y0067492
X0514402Y0017492
X0564402
X0567239Y0026688
Y0030624
X0589402Y0067492
X0607461Y0070354
X0614402Y0017492
X0645669Y0018782
X0642953Y0031309
X0639402Y0067492
X0607461Y0074291
X0614402Y0092492
Y0117492
X0564402
Y0092492
X0514402
X051063Y0075285
X0494055
X0484469Y0083272
X0479481Y0081343
X0494055Y0115947
X051063
X0514402Y0117492
X0489402Y0142492
X0484469Y0155196
X0478031Y0159331
X0539402Y0167492
X0564402Y0192492
X0614402
Y0217492
X0464402
Y0192492
X0464055Y0183445
X0466614Y0177736
X0469449Y0171843
X0472969Y0165827
X0439402Y0142492
X0450042Y0121205
X0421689Y0122731
X042163Y0117917
Y0113939
X0424335Y0109486
X0425537Y0105313
X0420671Y0106237
X0420167Y0102764
X0419627Y0099813
X0417381Y0097815
X0423033Y0093987
Y0090159
X0425131Y0086351
X0422329Y0083504
X0419349Y0080706
X0416379Y0077391
X0401949Y0076945
X0398183Y0075827
X0390439Y0077808
X0386673Y0077835
Y0081181
X0377142Y0081411
X0371864Y0078611
X0381476Y0074586
X0382419Y010667
X0385931Y0110966
X0388272Y0118834
X0382198Y0120651
X0396189Y0120934
Y0123951
Y0117917
X0399206
X0402223
X0411274
X0414291
X0408795Y0129616
X0405886Y0127099
X0401635Y0130802
X0400965Y0102166
Y0096831
Y0091496
X04063Y0096831
X039563
X0444468Y0083272
X0449481Y0081343
X0454468Y0083272
X0459481Y0081343
X0464445Y0083296
X0469449Y0081343
X0474445Y0083296
X0472969Y0096831
X0413563Y015687
X0396189Y0162579
X039624Y0168484
Y0174488
X0391965
X0399206Y0180381
X0402223Y018609
X0414402Y0192492
X0431636Y0191909
X0428819Y020185
X0425768Y0210118
X0414402Y0217492
X0364402
Y0192492
X0339402Y0167492
X0378403Y0151404
X0382731Y0151457
X0333722Y0095968
Y0091693
X0346039Y0075862
X0314402Y0092492
X0314467Y0099236
X0318742
X0314402Y0117492
X0290308Y0095968
Y0092146
X0275328Y0099236
X0272224
X0264402Y0092492
X0214402
X0164402
X0189402Y0142492
X0239402
Y0167492
X0249095Y0169114
X0253369
X025336Y018684
X0249085
X0264402Y0192492
Y0217492
X0314402
Y0192492
X0289402Y0167492
Y0142492
X0224153Y0178524
Y0182799
Y019624
Y0200515
X0089402Y0142492
X0039402
X0064402Y0117492
Y0092492
X0014402Y0117492
X0139402Y0342492
X0149429Y037617
X0152434
Y0379464
X0149429
Y0382757
X0152434
X0155728
X0159022
X0162315
Y0379464
X0159022
X0155728
Y037617
X0159022
X0162315
X0162604Y0386051
X015931
X0156017
X0152723
X0149429
X0165754
X0168903
X0172197
X0175491
X0178785
Y0382757
X0175491
X0172197
X0168903
X0165609
Y0379464
X0168903
X0172197
X0175491
X0178785
Y037617
X0175491
X0172197
X0168903
X0165609
X0182078
Y0379464
Y0382757
Y0386051
X0200973Y0386051
X0204267
X0207561
X0210855
X0214149
X0217298
X0220448
X0223741
X0227035
X0230329
Y0382757
X0227035
X0223741
X0220448
X0217154
X021386
X0210566
X0207272
X0203978
X0200973
Y0379464
X0203978
X0207272
X0210566
X021386
X0217154
X0220448
X0223741
X0227035
X0230329
Y037617
X0227035
X0223741
X0220448
X0217154
X021386
X0210566
X0207272
X0203978
X0200973
X0233623
Y0379464
Y0382757
Y0386051
X0239402Y0342492
X0289402
Y0367492
X0314402Y0317492
Y0292492
X0264402
Y0317492
X0214402
Y0292492
X0239402Y0267492
Y0242492
X0289402
Y0267492
X0189402
X0164402Y0317492
X0339402Y0342492
Y0367492
X0389402
Y0342492
X0439402
Y0367492
X0464402Y0317492
Y0292492
X0414402
Y0317492
X0364402
Y0292492
X0389402Y0267492
Y0242492
X0439402
Y0267492
X0339402
Y0242492
X0489402
Y0267492
Y0342492
Y0367492
X0539402Y0342492
X0564402Y0317492
Y0292492
X0614402
Y0317492
X0664402Y0392492
Y0492492
X0614402
Y0517492
X0564402
Y0492492
X0539402Y0442492
X0489402
X0514402Y0392492
X0564402
Y0417492
X0614402
Y0392492
X0464402
Y0417492
X0414402
Y0392492
X0364402
Y0417492
X0389402Y0442492
X0233623Y0442834
X0230329
Y043954
Y0436247
Y0432953
X0227035
X0223741
X0220448
X0217298
X0214149
X0210855
X0207561
X0204267
X0200973
Y0436247
X0203978
X0207272
X0210566
X021386
X0217154
X0220448
X0223741
X0227035
Y043954
X0223741
X0220448
X0217154
X021386
X0210566
X0207272
X0203978
X0200973
Y0442834
X0203978
X0207272
X0210566
X021386
X0217154
X0220448
X0223741
X0227035
X0233623Y043954
Y0436247
Y0432953
X0234712Y0429134
X0231419
Y0425841
Y0422547
X0234712
Y0425841
X0233696Y0418728
X0230402
X0227108
X0223814
X0220521
X0217371Y0416685
X0214222Y0418728
X0210928
X0207634
X020434
X0201046
Y0415435
X020434
X0207634
X0210928
Y0403569
Y0400276
X0207634
X020434
X0201046
Y0403569
X020434
X0207634
X0214222Y0400276
X0217371Y0402319
X0220521Y0400276
X0223814
X0227108
X0230402
X0233696
Y0403569
X0230402
X0227108
X0223814
Y0415435
X0227108
X0230402
X0233696
X0234712Y0396457
X0231419
Y0393163
Y038987
X0234712
Y0393163
X0203251
Y038987
X0199957
Y0393163
Y0396457
X0203251
X0183168Y0396457
X0179874
Y0393163
Y0389869
X0183168
Y0393163
X0182151Y0400276
X0178858
X0175564
X017227
X0168976
X0165827Y0402319
X017227Y0403569
X0175564
X0178858
X0182151
X0187382Y0406968
X0190852Y0416685
X0182151Y0415435
X0178858
X0175564
X017227
Y0418728
X0168976
X0165827Y0416685
X0175564Y0418728
X0178858
X0182151
X0183168Y0422547
Y0425841
Y0429134
X0179874
Y0425841
Y0422547
X0178785Y0432953
X0182078
Y0436246
Y043954
Y0442834
X0178785
X0175491
X0172197
X0168903
X0165609
Y043954
X0168903
X0172197
X0175491
X0178785
Y0436246
X0175491
X0172197
X0168903
X0165609
X0165754Y0432953
X0168903
X0172197
X0175491
X0199957Y0429134
X0203251
Y0425841
Y0422547
X0199957
Y0425841
X0214402Y0492492
Y0517492
X0239402Y0467492
X0162315Y0442834
X0159022
X0155728
X0152434
X0149429
Y043954
X0152434
X0155728
X0159022
X0162315
Y0436246
X0159022
X0155728
X0152434
X0149429
Y0432953
X0152723
X0156017
X015931
X0162604
X0162677Y0418728
X0159383
Y0415435
X0156089
X0152796
X0149502
Y0418728
X0152796
X0156089
X0151706Y0422547
X0148412
Y0425841
Y0429134
X0151706
Y0425841
X0152796Y0403569
X0149502
Y0400276
X0152796
X0156089
X0159383
X0162677
X0159383Y0403569
X0156089
X0151706Y0396457
Y0393163
Y0389869
X0148412
Y0393163
Y0396457
X0114402Y0417492
X0064402
X0039402Y0442492
Y0467492
X0014402Y0517492
Y0417492
X0039402Y0542492
Y0567492
X0114402Y0617492
X0058095Y0677956
X0060916Y0681351
X0189402Y0642492
X0239402
X0289402
X0214402Y0617492
Y0592492
X0164402
X0239402Y0567492
Y0542492
X0339402
Y0567492
Y0642492
X0389402
X0439402
Y0567492
Y0542492
X0539402
X0564402Y0592492
Y0617492
X0614402
Y0592492
X0489402Y0642492
X0664402Y0592492
T02
X001809Y0404512
Y0414354
Y0424197
Y0443882
Y0453724
Y0463567
Y0473409
T03
X001809Y0014153
X0025964
X0396043
X0403917
X0619844
X0627718
X0664545
X0672419
T04
X0544773Y0068022
X0554773
X0564773
X0574773
X0569773Y0078022
X0559773
X0549773
X0579773
T06
X0255827Y0592673
X0264685
X0273543
X0282401
X029126
X0300118
Y0606453
X029126
X0282401
X0273543
X0264685
X0255827
Y063598
X0264685
X0273543
X0282401
X029126
X0300118
Y064976
X029126
X0282401
X0273543
X0264685
X0255827
X0356053
X0364911
X037377
X0382628
X0391486
X0400345
Y063598
X0391486
X0382628
X037377
X0364911
X0356053
Y0606453
X0364911
X037377
X0382628
X0391486
X0400345
Y0592673
X0391486
X0382628
X037377
X0364911
X0356053
X045628
X0465138
X0473996
Y0606453
X0465138
X045628
Y063598
X0465138
X0473996
Y064976
X0465138
X045628
X0482854
X0491713
X0500571
Y063598
X0491713
X0482854
Y0606453
X0491713
X0500571
Y0592673
X0491713
X0482854
T07
X0057461Y0055118
Y0065118
X0234284Y0026261
X0244284
X0254284
X0264284
X0274284
X0284284
Y0016261
X0274284
X0264284
X0254284
X0244284
X0234284
X0444468
X0454468
X0464468
X0474469
Y0026261
X0464468
X0454468
X0444468
X0484469
X0494468
Y0016261
X0484469
X0139413Y015624
Y016624
Y017624
Y018624
Y019624
Y020624
T08
X0138957Y0648307
X0179114
T09
X0183445Y0161791
Y0175571
Y018935
Y020313
Y0216909
Y0230689
T10
X0531781Y0031014
X0592765
T11
X0539994Y0144944
Y015833
X0593144
Y0144944
Y0249295
Y026268
X0539994
Y0249295
Y0353645
Y0367031
X0593144
Y0353645
Y0457996
Y0471382
X0539994
Y0457996
X0089272Y0562382
X0075886
Y0615531
X0089272
X0539994Y0575732
Y0562346
X0593144
Y0575732
Y0666697
Y0680083
X0539994
Y0666697
T12
X0091932Y0046517
X0102955
X0113979
X0125003
X0136026
Y005754
Y0068564
X0091932
Y005754
Y0079588
Y0090611
X0102955
X0113979
X0125003
X0136026
Y0079588
X013061Y0446457
X0141634
Y045748
Y0468504
Y0479528
Y0490551
X013061
X0119587
X0108563
X0097539
Y0479528
Y0468504
Y045748
Y0446457
X0108563
X0119587
T13
X0123996Y0558149
Y0588071
X0194075Y0597913
T14
X0479008Y0401965
Y0430036
Y0485036
Y0513106
X0378848
Y0485036
Y0430036
Y0401965
X0278493
Y0430036
Y0485036
Y0513106
T15
X0232362Y0621216
X0296457Y0676728
Y0565705
X0332589Y0621216
X0432815
X0396683Y0565705
Y0676728
X0496909
Y0565705
T16
X0657257Y0089885
Y0157168
Y0194236
Y0261519
Y0298586
Y0365869
Y0402937
Y047022
Y0507287
X0022795Y0557835
Y0625118
X0657257Y0611638
Y0574571
Y0678921
T17
X0114173Y0023622
X0362831Y0020212
X0673228Y0051181
X0244094Y0106299
X0011811Y0133858
X0346457Y0299213
X0622047Y0385827
X0200787Y046063
X0011811Y0527559
Y0678127
X0328043
X0622047Y0677165
T18
X0539773Y0043022
X0584773
M30
