M48
;Layer_Color=9474304
;FILE_FORMAT=2:5
INCH,LZ
;TYPE=PLATED
T1F00S00C0.03937
;TYPE=NON_PLATED
%
G90
G05
T01
G00X1323997Y1480623
M15
G01Y1496961
M16
G00X1378859Y1480623
M15
G01Y1496961
M16
G00X1408348Y1480623
M15
G01Y1496961
M16
G00X1294509Y1480623
M15
G01Y1496961
M16
G00X1239647Y1480623
M15
G01Y1496961
M16
G00X1210158Y1480623
M15
G01Y1496961
M16
G00X1155296Y1480623
M15
G01Y1496961
M16
G00X1125808Y1480623
M15
G01Y1496961
M16
G00X1070945Y1480623
M15
G01Y1496961
M16
G00X1041457Y1480623
M15
G01Y1496961
M16
G00X0986595Y1480623
M15
G01Y1496961
M16
G00X0957107Y1480623
M15
G01Y1496961
M16
G00X0902244Y1480623
M15
G01Y1496961
M16
G00X0872756Y1480623
M15
G01Y1496961
M16
G00X0817894Y1480623
M15
G01Y1496961
M16
G00X0788406Y1480623
M15
G01Y1496961
M16
M17
M30
