G04*
G04 #@! TF.GenerationSoftware,Altium Limited,Altium Designer,22.8.2 (66)*
G04*
G04 Layer_Physical_Order=2*
G04 Layer_Color=36540*
%FSLAX25Y25*%
%MOIN*%
G70*
G04*
G04 #@! TF.SameCoordinates,E27F80D8-943B-43E4-A2F4-46A55102C9C5*
G04*
G04*
G04 #@! TF.FilePolarity,Positive*
G04*
G01*
G75*
%ADD19C,0.12598*%
%ADD22C,0.06890*%
G04:AMPARAMS|DCode=24|XSize=242.13mil|YSize=78.74mil|CornerRadius=39.37mil|HoleSize=0mil|Usage=FLASHONLY|Rotation=90.000|XOffset=0mil|YOffset=0mil|HoleType=Round|Shape=RoundedRectangle|*
%AMROUNDEDRECTD24*
21,1,0.24213,0.00000,0,0,90.0*
21,1,0.16339,0.07874,0,0,90.0*
1,1,0.07874,0.00000,0.08169*
1,1,0.07874,0.00000,-0.08169*
1,1,0.07874,0.00000,-0.08169*
1,1,0.07874,0.00000,0.08169*
%
%ADD24ROUNDEDRECTD24*%
G36*
X1766898Y1527957D02*
X1768345Y1527451D01*
X1769644Y1526635D01*
X1770728Y1525550D01*
X1771544Y1524252D01*
X1772050Y1522805D01*
X1772228Y1521224D01*
X1772228Y1064644D01*
X1772050Y1063063D01*
X1771544Y1061615D01*
X1770728Y1060317D01*
X1769644Y1059233D01*
X1768345Y1058417D01*
X1766898Y1057910D01*
X1765317Y1057732D01*
X757559D01*
X755977Y1057910D01*
X754530Y1058417D01*
X753232Y1059233D01*
X752147Y1060317D01*
X751331Y1061615D01*
X750825Y1063063D01*
X750647Y1064644D01*
X750647Y1521224D01*
X750825Y1522805D01*
X751331Y1524252D01*
X752147Y1525550D01*
X753232Y1526635D01*
X754530Y1527451D01*
X755977Y1527957D01*
X757559Y1528135D01*
X1765317D01*
X1766898Y1527957D01*
D02*
G37*
%LPC*%
G36*
X821831Y1499940D02*
Y1492729D01*
X822873D01*
Y1496961D01*
X822704Y1498250D01*
X822206Y1499451D01*
X821831Y1499940D01*
D02*
G37*
G36*
X813957Y1499940D02*
X813581Y1499451D01*
X813084Y1498250D01*
X812914Y1496961D01*
Y1492729D01*
X813957D01*
Y1499940D01*
D02*
G37*
G36*
X906181Y1499940D02*
Y1492729D01*
X907224D01*
Y1496961D01*
X907054Y1498250D01*
X906557Y1499451D01*
X906181Y1499940D01*
D02*
G37*
G36*
X898307Y1499940D02*
X897932Y1499451D01*
X897434Y1498250D01*
X897265Y1496961D01*
Y1492729D01*
X898307D01*
Y1499940D01*
D02*
G37*
G36*
X990532Y1499940D02*
Y1492729D01*
X991574D01*
Y1496961D01*
X991405Y1498250D01*
X990907Y1499451D01*
X990532Y1499940D01*
D02*
G37*
G36*
X982658Y1499940D02*
X982282Y1499451D01*
X981785Y1498250D01*
X981615Y1496961D01*
Y1492729D01*
X982658D01*
Y1499940D01*
D02*
G37*
G36*
X1074882Y1499940D02*
Y1492729D01*
X1075925D01*
Y1496961D01*
X1075755Y1498250D01*
X1075258Y1499451D01*
X1074882Y1499940D01*
D02*
G37*
G36*
X1067008Y1499940D02*
X1066633Y1499451D01*
X1066135Y1498250D01*
X1065966Y1496961D01*
Y1492729D01*
X1067008D01*
Y1499940D01*
D02*
G37*
G36*
X1159233Y1499940D02*
Y1492729D01*
X1160275D01*
Y1496961D01*
X1160106Y1498250D01*
X1159608Y1499451D01*
X1159233Y1499940D01*
D02*
G37*
G36*
X1151359D02*
X1150983Y1499451D01*
X1150486Y1498250D01*
X1150316Y1496961D01*
Y1492729D01*
X1151359D01*
Y1499940D01*
D02*
G37*
G36*
X1243583Y1499940D02*
Y1492729D01*
X1244626D01*
Y1496961D01*
X1244456Y1498250D01*
X1243959Y1499451D01*
X1243583Y1499940D01*
D02*
G37*
G36*
X1235709Y1499940D02*
X1235334Y1499451D01*
X1234836Y1498250D01*
X1234667Y1496961D01*
Y1492729D01*
X1235709D01*
Y1499940D01*
D02*
G37*
G36*
X1327934Y1499940D02*
Y1492729D01*
X1328977D01*
Y1496961D01*
X1328807Y1498250D01*
X1328310Y1499451D01*
X1327934Y1499940D01*
D02*
G37*
G36*
X1320060Y1499940D02*
X1319685Y1499451D01*
X1319187Y1498250D01*
X1319017Y1496961D01*
Y1492729D01*
X1320060D01*
Y1499940D01*
D02*
G37*
G36*
X1412285Y1499940D02*
Y1492729D01*
X1413327D01*
Y1496961D01*
X1413157Y1498250D01*
X1412660Y1499451D01*
X1412285Y1499940D01*
D02*
G37*
G36*
X1404411Y1499940D02*
X1404035Y1499451D01*
X1403538Y1498250D01*
X1403368Y1496961D01*
Y1492729D01*
X1404411D01*
Y1499940D01*
D02*
G37*
G36*
X1746673Y1508173D02*
X1745156Y1508024D01*
X1743696Y1507581D01*
X1742351Y1506862D01*
X1741172Y1505895D01*
X1740205Y1504716D01*
X1739486Y1503371D01*
X1739043Y1501911D01*
X1738894Y1500394D01*
X1739043Y1498876D01*
X1739486Y1497417D01*
X1740205Y1496072D01*
X1741172Y1494893D01*
X1742351Y1493925D01*
X1743696Y1493206D01*
X1745156Y1492764D01*
X1746673Y1492614D01*
X1748191Y1492764D01*
X1749650Y1493206D01*
X1750995Y1493925D01*
X1752174Y1494893D01*
X1753142Y1496072D01*
X1753861Y1497417D01*
X1754303Y1498876D01*
X1754453Y1500394D01*
X1754303Y1501911D01*
X1753861Y1503371D01*
X1753142Y1504716D01*
X1752174Y1505895D01*
X1750995Y1506862D01*
X1749650Y1507581D01*
X1748191Y1508024D01*
X1746673Y1508173D01*
D02*
G37*
G36*
X1640699D02*
X1639181Y1508024D01*
X1637722Y1507581D01*
X1636377Y1506862D01*
X1635198Y1505895D01*
X1634230Y1504716D01*
X1633511Y1503371D01*
X1633069Y1501911D01*
X1632919Y1500394D01*
X1633069Y1498876D01*
X1633511Y1497417D01*
X1634230Y1496072D01*
X1635198Y1494893D01*
X1636377Y1493925D01*
X1637722Y1493206D01*
X1639181Y1492764D01*
X1640699Y1492614D01*
X1642216Y1492764D01*
X1643676Y1493206D01*
X1645021Y1493925D01*
X1646200Y1494893D01*
X1647167Y1496072D01*
X1647886Y1497417D01*
X1648329Y1498876D01*
X1648478Y1500394D01*
X1648329Y1501911D01*
X1647886Y1503371D01*
X1647167Y1504716D01*
X1646200Y1505895D01*
X1645021Y1506862D01*
X1643676Y1507581D01*
X1642216Y1508024D01*
X1640699Y1508173D01*
D02*
G37*
G36*
X1534724D02*
X1533207Y1508024D01*
X1531747Y1507581D01*
X1530402Y1506862D01*
X1529223Y1505895D01*
X1528256Y1504716D01*
X1527537Y1503371D01*
X1527094Y1501911D01*
X1526945Y1500394D01*
X1527094Y1498876D01*
X1527537Y1497417D01*
X1528256Y1496072D01*
X1529223Y1494893D01*
X1530402Y1493925D01*
X1531747Y1493206D01*
X1533207Y1492764D01*
X1534724Y1492614D01*
X1536242Y1492764D01*
X1537702Y1493206D01*
X1539046Y1493925D01*
X1540225Y1494893D01*
X1541193Y1496072D01*
X1541912Y1497417D01*
X1542354Y1498876D01*
X1542504Y1500394D01*
X1542354Y1501911D01*
X1541912Y1503371D01*
X1541193Y1504716D01*
X1540225Y1505895D01*
X1539046Y1506862D01*
X1537702Y1507581D01*
X1536242Y1508024D01*
X1534724Y1508173D01*
D02*
G37*
G36*
X1359962Y1490652D02*
X1358212Y1490480D01*
X1356530Y1489970D01*
X1354980Y1489141D01*
X1353621Y1488026D01*
X1352506Y1486667D01*
X1351693Y1485145D01*
X1351575Y1485117D01*
X1351281D01*
X1351164Y1485145D01*
X1350350Y1486667D01*
X1349235Y1488026D01*
X1347876Y1489141D01*
X1346326Y1489970D01*
X1344644Y1490480D01*
X1342895Y1490652D01*
X1341145Y1490480D01*
X1339463Y1489970D01*
X1337913Y1489141D01*
X1336554Y1488026D01*
X1335439Y1486667D01*
X1334611Y1485117D01*
X1334101Y1483435D01*
X1333928Y1481686D01*
X1334101Y1479936D01*
X1334611Y1478254D01*
X1335439Y1476704D01*
X1336554Y1475345D01*
X1337913Y1474230D01*
X1339463Y1473402D01*
X1341145Y1472892D01*
X1342895Y1472719D01*
X1344644Y1472892D01*
X1346326Y1473402D01*
X1347876Y1474230D01*
X1349235Y1475345D01*
X1350350Y1476704D01*
X1351164Y1478227D01*
X1351281Y1478254D01*
X1351575D01*
X1351693Y1478227D01*
X1352506Y1476704D01*
X1353621Y1475345D01*
X1354980Y1474230D01*
X1356530Y1473402D01*
X1358212Y1472892D01*
X1359962Y1472719D01*
X1361711Y1472892D01*
X1363393Y1473402D01*
X1364943Y1474230D01*
X1366302Y1475345D01*
X1367417Y1476704D01*
X1368246Y1478254D01*
X1368756Y1479936D01*
X1368928Y1481686D01*
X1368756Y1483435D01*
X1368246Y1485117D01*
X1367417Y1486667D01*
X1366302Y1488026D01*
X1364943Y1489141D01*
X1363393Y1489970D01*
X1361711Y1490480D01*
X1359962Y1490652D01*
D02*
G37*
G36*
X1275611D02*
X1273862Y1490480D01*
X1272180Y1489970D01*
X1270630Y1489141D01*
X1269271Y1488026D01*
X1268156Y1486667D01*
X1267342Y1485145D01*
X1267225Y1485117D01*
X1266930D01*
X1266813Y1485145D01*
X1265999Y1486667D01*
X1264884Y1488026D01*
X1263526Y1489141D01*
X1261975Y1489970D01*
X1260293Y1490480D01*
X1258544Y1490652D01*
X1256795Y1490480D01*
X1255113Y1489970D01*
X1253563Y1489141D01*
X1252204Y1488026D01*
X1251089Y1486667D01*
X1250260Y1485117D01*
X1249750Y1483435D01*
X1249578Y1481686D01*
X1249750Y1479936D01*
X1250260Y1478254D01*
X1251089Y1476704D01*
X1252204Y1475345D01*
X1253563Y1474230D01*
X1255113Y1473402D01*
X1256795Y1472892D01*
X1258544Y1472719D01*
X1260293Y1472892D01*
X1261975Y1473402D01*
X1263526Y1474230D01*
X1264884Y1475345D01*
X1265999Y1476704D01*
X1266813Y1478227D01*
X1266930Y1478254D01*
X1267225D01*
X1267342Y1478227D01*
X1268156Y1476704D01*
X1269271Y1475345D01*
X1270630Y1474230D01*
X1272180Y1473402D01*
X1273862Y1472892D01*
X1275611Y1472719D01*
X1277360Y1472892D01*
X1279043Y1473402D01*
X1280593Y1474230D01*
X1281951Y1475345D01*
X1283066Y1476704D01*
X1283895Y1478254D01*
X1284405Y1479936D01*
X1284578Y1481686D01*
X1284405Y1483435D01*
X1283895Y1485117D01*
X1283066Y1486667D01*
X1281951Y1488026D01*
X1280593Y1489141D01*
X1279043Y1489970D01*
X1277360Y1490480D01*
X1275611Y1490652D01*
D02*
G37*
G36*
X1191261D02*
X1189511Y1490480D01*
X1187829Y1489970D01*
X1186279Y1489141D01*
X1184920Y1488026D01*
X1183805Y1486667D01*
X1182992Y1485145D01*
X1182874Y1485117D01*
X1182580D01*
X1182463Y1485145D01*
X1181649Y1486667D01*
X1180534Y1488026D01*
X1179175Y1489141D01*
X1177625Y1489970D01*
X1175943Y1490480D01*
X1174193Y1490652D01*
X1172444Y1490480D01*
X1170762Y1489970D01*
X1169212Y1489141D01*
X1167853Y1488026D01*
X1166738Y1486667D01*
X1165910Y1485117D01*
X1165399Y1483435D01*
X1165227Y1481686D01*
X1165399Y1479936D01*
X1165910Y1478254D01*
X1166738Y1476704D01*
X1167853Y1475345D01*
X1169212Y1474230D01*
X1170762Y1473402D01*
X1172444Y1472892D01*
X1174193Y1472719D01*
X1175943Y1472892D01*
X1177625Y1473402D01*
X1179175Y1474230D01*
X1180534Y1475345D01*
X1181649Y1476704D01*
X1182463Y1478227D01*
X1182580Y1478254D01*
X1182874D01*
X1182992Y1478227D01*
X1183805Y1476704D01*
X1184920Y1475345D01*
X1186279Y1474230D01*
X1187829Y1473402D01*
X1189511Y1472892D01*
X1191261Y1472719D01*
X1193010Y1472892D01*
X1194692Y1473402D01*
X1196242Y1474230D01*
X1197601Y1475345D01*
X1198716Y1476704D01*
X1199545Y1478254D01*
X1200055Y1479936D01*
X1200227Y1481686D01*
X1200055Y1483435D01*
X1199545Y1485117D01*
X1198716Y1486667D01*
X1197601Y1488026D01*
X1196242Y1489141D01*
X1194692Y1489970D01*
X1193010Y1490480D01*
X1191261Y1490652D01*
D02*
G37*
G36*
X1106910D02*
X1105161Y1490480D01*
X1103479Y1489970D01*
X1101929Y1489141D01*
X1100570Y1488026D01*
X1099455Y1486667D01*
X1098641Y1485145D01*
X1098524Y1485117D01*
X1098229D01*
X1098112Y1485145D01*
X1097298Y1486667D01*
X1096183Y1488026D01*
X1094825Y1489141D01*
X1093274Y1489970D01*
X1091592Y1490480D01*
X1089843Y1490652D01*
X1088094Y1490480D01*
X1086412Y1489970D01*
X1084861Y1489141D01*
X1083503Y1488026D01*
X1082388Y1486667D01*
X1081559Y1485117D01*
X1081049Y1483435D01*
X1080877Y1481686D01*
X1081049Y1479936D01*
X1081559Y1478254D01*
X1082388Y1476704D01*
X1083503Y1475345D01*
X1084861Y1474230D01*
X1086412Y1473402D01*
X1088094Y1472892D01*
X1089843Y1472719D01*
X1091592Y1472892D01*
X1093274Y1473402D01*
X1094825Y1474230D01*
X1096183Y1475345D01*
X1097298Y1476704D01*
X1098112Y1478227D01*
X1098229Y1478254D01*
X1098524D01*
X1098641Y1478227D01*
X1099455Y1476704D01*
X1100570Y1475345D01*
X1101929Y1474230D01*
X1103479Y1473402D01*
X1105161Y1472892D01*
X1106910Y1472719D01*
X1108659Y1472892D01*
X1110341Y1473402D01*
X1111891Y1474230D01*
X1113250Y1475345D01*
X1114365Y1476704D01*
X1115194Y1478254D01*
X1115704Y1479936D01*
X1115876Y1481686D01*
X1115704Y1483435D01*
X1115194Y1485117D01*
X1114365Y1486667D01*
X1113250Y1488026D01*
X1111891Y1489141D01*
X1110341Y1489970D01*
X1108659Y1490480D01*
X1106910Y1490652D01*
D02*
G37*
G36*
X1022560D02*
X1020810Y1490480D01*
X1019128Y1489970D01*
X1017578Y1489141D01*
X1016219Y1488026D01*
X1015104Y1486667D01*
X1014290Y1485145D01*
X1014173Y1485117D01*
X1013879D01*
X1013762Y1485145D01*
X1012948Y1486667D01*
X1011833Y1488026D01*
X1010474Y1489141D01*
X1008924Y1489970D01*
X1007242Y1490480D01*
X1005492Y1490652D01*
X1003743Y1490480D01*
X1002061Y1489970D01*
X1000511Y1489141D01*
X999152Y1488026D01*
X998037Y1486667D01*
X997209Y1485117D01*
X996698Y1483435D01*
X996526Y1481686D01*
X996698Y1479936D01*
X997209Y1478254D01*
X998037Y1476704D01*
X999152Y1475345D01*
X1000511Y1474230D01*
X1002061Y1473402D01*
X1003743Y1472892D01*
X1005492Y1472719D01*
X1007242Y1472892D01*
X1008924Y1473402D01*
X1010474Y1474230D01*
X1011833Y1475345D01*
X1012948Y1476704D01*
X1013762Y1478227D01*
X1013879Y1478254D01*
X1014173D01*
X1014290Y1478227D01*
X1015104Y1476704D01*
X1016219Y1475345D01*
X1017578Y1474230D01*
X1019128Y1473402D01*
X1020810Y1472892D01*
X1022560Y1472719D01*
X1024309Y1472892D01*
X1025991Y1473402D01*
X1027541Y1474230D01*
X1028900Y1475345D01*
X1030015Y1476704D01*
X1030843Y1478254D01*
X1031354Y1479936D01*
X1031526Y1481686D01*
X1031354Y1483435D01*
X1030843Y1485117D01*
X1030015Y1486667D01*
X1028900Y1488026D01*
X1027541Y1489141D01*
X1025991Y1489970D01*
X1024309Y1490480D01*
X1022560Y1490652D01*
D02*
G37*
G36*
X938209D02*
X936460Y1490480D01*
X934778Y1489970D01*
X933228Y1489141D01*
X931869Y1488026D01*
X930754Y1486667D01*
X929940Y1485145D01*
X929823Y1485117D01*
X929528D01*
X929411Y1485145D01*
X928597Y1486667D01*
X927482Y1488026D01*
X926123Y1489141D01*
X924573Y1489970D01*
X922891Y1490480D01*
X921142Y1490652D01*
X919393Y1490480D01*
X917711Y1489970D01*
X916160Y1489141D01*
X914802Y1488026D01*
X913687Y1486667D01*
X912858Y1485117D01*
X912348Y1483435D01*
X912175Y1481686D01*
X912348Y1479936D01*
X912858Y1478254D01*
X913687Y1476704D01*
X914802Y1475345D01*
X916160Y1474230D01*
X917711Y1473402D01*
X919393Y1472892D01*
X921142Y1472719D01*
X922891Y1472892D01*
X924573Y1473402D01*
X926123Y1474230D01*
X927482Y1475345D01*
X928597Y1476704D01*
X929411Y1478227D01*
X929528Y1478254D01*
X929823D01*
X929940Y1478227D01*
X930754Y1476704D01*
X931869Y1475345D01*
X933228Y1474230D01*
X934778Y1473402D01*
X936460Y1472892D01*
X938209Y1472719D01*
X939958Y1472892D01*
X941640Y1473402D01*
X943190Y1474230D01*
X944549Y1475345D01*
X945664Y1476704D01*
X946493Y1478254D01*
X947003Y1479936D01*
X947175Y1481686D01*
X947003Y1483435D01*
X946493Y1485117D01*
X945664Y1486667D01*
X944549Y1488026D01*
X943190Y1489141D01*
X941640Y1489970D01*
X939958Y1490480D01*
X938209Y1490652D01*
D02*
G37*
G36*
X853858D02*
X852109Y1490480D01*
X850427Y1489970D01*
X848877Y1489141D01*
X847518Y1488026D01*
X846403Y1486667D01*
X845589Y1485145D01*
X845472Y1485117D01*
X845177D01*
X845060Y1485145D01*
X844247Y1486667D01*
X843132Y1488026D01*
X841773Y1489141D01*
X840223Y1489970D01*
X838541Y1490480D01*
X836791Y1490652D01*
X835042Y1490480D01*
X833360Y1489970D01*
X831810Y1489141D01*
X830451Y1488026D01*
X829336Y1486667D01*
X828508Y1485117D01*
X827997Y1483435D01*
X827825Y1481686D01*
X827997Y1479936D01*
X828508Y1478254D01*
X829336Y1476704D01*
X830451Y1475345D01*
X831810Y1474230D01*
X833360Y1473402D01*
X835042Y1472892D01*
X836791Y1472719D01*
X838541Y1472892D01*
X840223Y1473402D01*
X841773Y1474230D01*
X843132Y1475345D01*
X844247Y1476704D01*
X845060Y1478227D01*
X845177Y1478254D01*
X845472D01*
X845589Y1478227D01*
X846403Y1476704D01*
X847518Y1475345D01*
X848877Y1474230D01*
X850427Y1473402D01*
X852109Y1472892D01*
X853858Y1472719D01*
X855608Y1472892D01*
X857290Y1473402D01*
X858840Y1474230D01*
X860199Y1475345D01*
X861314Y1476704D01*
X862142Y1478254D01*
X862652Y1479936D01*
X862825Y1481686D01*
X862652Y1483435D01*
X862142Y1485117D01*
X861314Y1486667D01*
X860199Y1488026D01*
X858840Y1489141D01*
X857290Y1489970D01*
X855608Y1490480D01*
X853858Y1490652D01*
D02*
G37*
G36*
X813957Y1484855D02*
X812914D01*
Y1480623D01*
X813084Y1479334D01*
X813581Y1478133D01*
X813957Y1477644D01*
Y1484855D01*
D02*
G37*
G36*
X1413327Y1484855D02*
X1412285D01*
Y1477644D01*
X1412660Y1478133D01*
X1413157Y1479334D01*
X1413327Y1480623D01*
Y1484855D01*
D02*
G37*
G36*
X898307Y1484855D02*
X897265D01*
Y1480623D01*
X897434Y1479334D01*
X897932Y1478133D01*
X898307Y1477644D01*
Y1484855D01*
D02*
G37*
G36*
X1328977Y1484855D02*
X1327934D01*
Y1477644D01*
X1328310Y1478133D01*
X1328807Y1479334D01*
X1328977Y1480623D01*
Y1484855D01*
D02*
G37*
G36*
X982658Y1484855D02*
X981615D01*
Y1480623D01*
X981785Y1479334D01*
X982282Y1478133D01*
X982658Y1477644D01*
Y1484855D01*
D02*
G37*
G36*
X1244626Y1484855D02*
X1243583D01*
Y1477643D01*
X1243959Y1478133D01*
X1244456Y1479334D01*
X1244626Y1480623D01*
Y1484855D01*
D02*
G37*
G36*
X1067008Y1484855D02*
X1065966D01*
Y1480623D01*
X1066135Y1479334D01*
X1066633Y1478133D01*
X1067008Y1477643D01*
Y1484855D01*
D02*
G37*
G36*
X1160275Y1484855D02*
X1159233D01*
Y1477643D01*
X1159608Y1478133D01*
X1160106Y1479334D01*
X1160275Y1480623D01*
Y1484855D01*
D02*
G37*
G36*
X1151359D02*
X1150316D01*
Y1480623D01*
X1150486Y1479334D01*
X1150983Y1478133D01*
X1151359Y1477643D01*
Y1484855D01*
D02*
G37*
G36*
X1075925Y1484855D02*
X1074882D01*
Y1477643D01*
X1075258Y1478133D01*
X1075755Y1479334D01*
X1075925Y1480623D01*
Y1484855D01*
D02*
G37*
G36*
X1235709Y1484855D02*
X1234667D01*
Y1480623D01*
X1234836Y1479334D01*
X1235334Y1478133D01*
X1235709Y1477643D01*
Y1484855D01*
D02*
G37*
G36*
X991574Y1484855D02*
X990532D01*
Y1477643D01*
X990907Y1478133D01*
X991405Y1479334D01*
X991574Y1480623D01*
Y1484855D01*
D02*
G37*
G36*
X1320060Y1484855D02*
X1319017D01*
Y1480623D01*
X1319187Y1479334D01*
X1319685Y1478133D01*
X1320060Y1477643D01*
Y1484855D01*
D02*
G37*
G36*
X907224Y1484855D02*
X906181D01*
Y1477643D01*
X906557Y1478133D01*
X907054Y1479334D01*
X907224Y1480623D01*
Y1484855D01*
D02*
G37*
G36*
X1404411Y1484855D02*
X1403368D01*
Y1480623D01*
X1403538Y1479334D01*
X1404035Y1478133D01*
X1404411Y1477643D01*
Y1484855D01*
D02*
G37*
G36*
X822873Y1484855D02*
X821831D01*
Y1477643D01*
X822206Y1478133D01*
X822704Y1479334D01*
X822873Y1480623D01*
Y1484855D01*
D02*
G37*
G36*
X1731142Y1477631D02*
X1730902Y1477567D01*
X1729889Y1476982D01*
X1729061Y1476154D01*
X1728476Y1475141D01*
X1728439Y1475002D01*
X1727939D01*
X1727902Y1475141D01*
X1727317Y1476154D01*
X1726489Y1476982D01*
X1725476Y1477567D01*
X1725236Y1477631D01*
Y1473425D01*
Y1469219D01*
X1725476Y1469283D01*
X1726489Y1469868D01*
X1727317Y1470696D01*
X1727902Y1471710D01*
X1727939Y1471848D01*
X1728439D01*
X1728476Y1471710D01*
X1729061Y1470696D01*
X1729889Y1469868D01*
X1730902Y1469283D01*
X1731142Y1469219D01*
Y1473425D01*
Y1477631D01*
D02*
G37*
G36*
X1625167D02*
X1624928Y1477567D01*
X1623915Y1476982D01*
X1623087Y1476154D01*
X1622502Y1475141D01*
X1622465Y1475002D01*
X1621965D01*
X1621927Y1475141D01*
X1621342Y1476154D01*
X1620515Y1476982D01*
X1619501Y1477567D01*
X1619262Y1477631D01*
Y1473425D01*
Y1469219D01*
X1619501Y1469283D01*
X1620515Y1469868D01*
X1621342Y1470696D01*
X1621927Y1471710D01*
X1621965Y1471848D01*
X1622465D01*
X1622502Y1471710D01*
X1623087Y1470696D01*
X1623915Y1469868D01*
X1624928Y1469283D01*
X1625167Y1469219D01*
Y1473425D01*
Y1477631D01*
D02*
G37*
G36*
X1519193D02*
X1518954Y1477567D01*
X1517940Y1476982D01*
X1517113Y1476154D01*
X1516527Y1475141D01*
X1516490Y1475002D01*
X1515990D01*
X1515953Y1475141D01*
X1515368Y1476154D01*
X1514540Y1476982D01*
X1513527Y1477567D01*
X1513287Y1477631D01*
Y1473425D01*
Y1469219D01*
X1513527Y1469283D01*
X1514540Y1469868D01*
X1515368Y1470696D01*
X1515953Y1471710D01*
X1515990Y1471848D01*
X1516490D01*
X1516527Y1471710D01*
X1517113Y1470696D01*
X1517940Y1469868D01*
X1518954Y1469283D01*
X1519193Y1469219D01*
Y1473425D01*
Y1477631D01*
D02*
G37*
G36*
X1748858Y1477631D02*
X1748619Y1477567D01*
X1747605Y1476982D01*
X1746778Y1476154D01*
X1746193Y1475141D01*
X1746156Y1475002D01*
X1745655D01*
X1745618Y1475141D01*
X1745033Y1476154D01*
X1744206Y1476982D01*
X1743192Y1477567D01*
X1742953Y1477631D01*
Y1473425D01*
Y1469219D01*
X1743192Y1469283D01*
X1744206Y1469868D01*
X1745033Y1470696D01*
X1745618Y1471710D01*
X1745655Y1471848D01*
X1746156D01*
X1746193Y1471710D01*
X1746778Y1470696D01*
X1747605Y1469868D01*
X1748619Y1469283D01*
X1748858Y1469219D01*
Y1473425D01*
Y1477631D01*
D02*
G37*
G36*
X1740000Y1477631D02*
X1739761Y1477567D01*
X1738747Y1476982D01*
X1737920Y1476154D01*
X1737334Y1475141D01*
X1737297Y1475002D01*
X1736797D01*
X1736760Y1475141D01*
X1736175Y1476154D01*
X1735347Y1476982D01*
X1734334Y1477567D01*
X1734095Y1477631D01*
Y1473425D01*
Y1469219D01*
X1734334Y1469283D01*
X1735347Y1469868D01*
X1736175Y1470696D01*
X1736760Y1471710D01*
X1736797Y1471848D01*
X1737297D01*
X1737334Y1471710D01*
X1737920Y1470696D01*
X1738747Y1469868D01*
X1739761Y1469283D01*
X1740000Y1469219D01*
Y1473425D01*
Y1477631D01*
D02*
G37*
G36*
X1722284Y1477631D02*
X1722044Y1477567D01*
X1721031Y1476982D01*
X1720203Y1476154D01*
X1719618Y1475141D01*
X1719581Y1475002D01*
X1719081D01*
X1719044Y1475141D01*
X1718458Y1476154D01*
X1717631Y1476982D01*
X1716617Y1477567D01*
X1716378Y1477631D01*
Y1473425D01*
Y1469219D01*
X1716617Y1469283D01*
X1717631Y1469868D01*
X1718458Y1470696D01*
X1719044Y1471710D01*
X1719081Y1471848D01*
X1719581D01*
X1719618Y1471710D01*
X1720203Y1470696D01*
X1721031Y1469868D01*
X1722044Y1469283D01*
X1722284Y1469219D01*
Y1473425D01*
Y1477631D01*
D02*
G37*
G36*
X1642884Y1477631D02*
X1642645Y1477567D01*
X1641631Y1476982D01*
X1640803Y1476154D01*
X1640218Y1475141D01*
X1640181Y1475002D01*
X1639681D01*
X1639644Y1475141D01*
X1639059Y1476154D01*
X1638231Y1476982D01*
X1637218Y1477567D01*
X1636978Y1477631D01*
Y1473425D01*
Y1469219D01*
X1637218Y1469283D01*
X1638231Y1469868D01*
X1639059Y1470696D01*
X1639644Y1471710D01*
X1639681Y1471848D01*
X1640181D01*
X1640218Y1471710D01*
X1640803Y1470696D01*
X1641631Y1469868D01*
X1642645Y1469283D01*
X1642884Y1469219D01*
Y1473425D01*
Y1477631D01*
D02*
G37*
G36*
X1634026Y1477631D02*
X1633786Y1477567D01*
X1632773Y1476982D01*
X1631945Y1476154D01*
X1631360Y1475141D01*
X1631323Y1475002D01*
X1630823D01*
X1630786Y1475141D01*
X1630201Y1476154D01*
X1629373Y1476982D01*
X1628359Y1477567D01*
X1628120Y1477631D01*
Y1473425D01*
Y1469219D01*
X1628359Y1469283D01*
X1629373Y1469868D01*
X1630201Y1470696D01*
X1630786Y1471710D01*
X1630823Y1471848D01*
X1631323D01*
X1631360Y1471710D01*
X1631945Y1470696D01*
X1632773Y1469868D01*
X1633786Y1469283D01*
X1634026Y1469219D01*
Y1473425D01*
Y1477631D01*
D02*
G37*
G36*
X1616309Y1477631D02*
X1616070Y1477567D01*
X1615056Y1476982D01*
X1614229Y1476154D01*
X1613643Y1475141D01*
X1613606Y1475002D01*
X1613106D01*
X1613069Y1475141D01*
X1612484Y1476154D01*
X1611656Y1476982D01*
X1610643Y1477567D01*
X1610403Y1477631D01*
Y1473425D01*
Y1469219D01*
X1610643Y1469283D01*
X1611656Y1469868D01*
X1612484Y1470696D01*
X1613069Y1471710D01*
X1613106Y1471848D01*
X1613606D01*
X1613643Y1471710D01*
X1614229Y1470696D01*
X1615056Y1469868D01*
X1616070Y1469283D01*
X1616309Y1469219D01*
Y1473425D01*
Y1477631D01*
D02*
G37*
G36*
X1536909Y1477631D02*
X1536670Y1477567D01*
X1535657Y1476982D01*
X1534829Y1476154D01*
X1534244Y1475141D01*
X1534207Y1475002D01*
X1533707D01*
X1533669Y1475141D01*
X1533084Y1476154D01*
X1532257Y1476982D01*
X1531243Y1477567D01*
X1531004Y1477631D01*
Y1473425D01*
Y1469219D01*
X1531243Y1469283D01*
X1532257Y1469868D01*
X1533084Y1470696D01*
X1533669Y1471710D01*
X1533707Y1471848D01*
X1534207D01*
X1534244Y1471710D01*
X1534829Y1470696D01*
X1535657Y1469868D01*
X1536670Y1469283D01*
X1536909Y1469219D01*
Y1473425D01*
Y1477631D01*
D02*
G37*
G36*
X1528051Y1477631D02*
X1527812Y1477567D01*
X1526798Y1476982D01*
X1525971Y1476154D01*
X1525386Y1475141D01*
X1525348Y1475002D01*
X1524848D01*
X1524811Y1475141D01*
X1524226Y1476154D01*
X1523398Y1476982D01*
X1522385Y1477567D01*
X1522146Y1477631D01*
Y1473425D01*
Y1469219D01*
X1522385Y1469283D01*
X1523398Y1469868D01*
X1524226Y1470696D01*
X1524811Y1471710D01*
X1524848Y1471848D01*
X1525348D01*
X1525386Y1471710D01*
X1525971Y1470696D01*
X1526798Y1469868D01*
X1527812Y1469283D01*
X1528051Y1469219D01*
Y1473425D01*
Y1477631D01*
D02*
G37*
G36*
X1704567Y1477631D02*
X1704328Y1477567D01*
X1703314Y1476982D01*
X1702486Y1476154D01*
X1701901Y1475141D01*
X1701837Y1474902D01*
X1704567D01*
Y1477631D01*
D02*
G37*
G36*
X1598592Y1477631D02*
X1598353Y1477567D01*
X1597340Y1476982D01*
X1596512Y1476154D01*
X1595927Y1475141D01*
X1595863Y1474902D01*
X1598592D01*
Y1477631D01*
D02*
G37*
G36*
X1751811Y1477631D02*
Y1474902D01*
X1754541D01*
X1754477Y1475141D01*
X1753891Y1476154D01*
X1753064Y1476982D01*
X1752050Y1477567D01*
X1751811Y1477631D01*
D02*
G37*
G36*
X1492618Y1477631D02*
X1492379Y1477567D01*
X1491365Y1476982D01*
X1490538Y1476154D01*
X1489952Y1475141D01*
X1489888Y1474902D01*
X1492618D01*
Y1477631D01*
D02*
G37*
G36*
X1645837Y1477631D02*
Y1474902D01*
X1648566D01*
X1648502Y1475141D01*
X1647917Y1476154D01*
X1647089Y1476982D01*
X1646076Y1477567D01*
X1645837Y1477631D01*
D02*
G37*
G36*
X1539862D02*
Y1474902D01*
X1542592D01*
X1542528Y1475141D01*
X1541943Y1476154D01*
X1541115Y1476982D01*
X1540102Y1477567D01*
X1539862Y1477631D01*
D02*
G37*
G36*
X1378859Y1502927D02*
X1377695Y1502812D01*
X1376576Y1502473D01*
X1375545Y1501922D01*
X1374641Y1501180D01*
X1373899Y1500276D01*
X1373348Y1499244D01*
X1373008Y1498125D01*
X1372894Y1496961D01*
Y1480623D01*
X1373008Y1479459D01*
X1373348Y1478340D01*
X1373899Y1477308D01*
X1374641Y1476404D01*
X1375545Y1475662D01*
X1376576Y1475111D01*
X1377695Y1474771D01*
X1378859Y1474657D01*
X1380023Y1474771D01*
X1381142Y1475111D01*
X1382174Y1475662D01*
X1383078Y1476404D01*
X1383820Y1477308D01*
X1384371Y1478340D01*
X1384711Y1479459D01*
X1384825Y1480623D01*
Y1496961D01*
X1384711Y1498125D01*
X1384371Y1499244D01*
X1383820Y1500276D01*
X1383078Y1501180D01*
X1382174Y1501922D01*
X1381142Y1502473D01*
X1380023Y1502812D01*
X1378859Y1502927D01*
D02*
G37*
G36*
X1294509D02*
X1293345Y1502812D01*
X1292226Y1502473D01*
X1291194Y1501922D01*
X1290290Y1501180D01*
X1289548Y1500276D01*
X1288997Y1499244D01*
X1288658Y1498125D01*
X1288543Y1496961D01*
Y1480623D01*
X1288658Y1479459D01*
X1288997Y1478340D01*
X1289548Y1477308D01*
X1290290Y1476404D01*
X1291194Y1475662D01*
X1292226Y1475111D01*
X1293345Y1474771D01*
X1294509Y1474657D01*
X1295673Y1474771D01*
X1296792Y1475111D01*
X1297823Y1475662D01*
X1298727Y1476404D01*
X1299469Y1477308D01*
X1300020Y1478340D01*
X1300360Y1479459D01*
X1300475Y1480623D01*
Y1496961D01*
X1300360Y1498125D01*
X1300020Y1499244D01*
X1299469Y1500276D01*
X1298727Y1501180D01*
X1297823Y1501922D01*
X1296792Y1502473D01*
X1295673Y1502812D01*
X1294509Y1502927D01*
D02*
G37*
G36*
X1210158D02*
X1208994Y1502812D01*
X1207875Y1502473D01*
X1206844Y1501922D01*
X1205940Y1501180D01*
X1205198Y1500276D01*
X1204647Y1499244D01*
X1204307Y1498125D01*
X1204193Y1496961D01*
Y1480623D01*
X1204307Y1479459D01*
X1204647Y1478340D01*
X1205198Y1477308D01*
X1205940Y1476404D01*
X1206844Y1475662D01*
X1207875Y1475111D01*
X1208994Y1474771D01*
X1210158Y1474657D01*
X1211322Y1474771D01*
X1212441Y1475111D01*
X1213473Y1475662D01*
X1214377Y1476404D01*
X1215119Y1477308D01*
X1215670Y1478340D01*
X1216009Y1479459D01*
X1216124Y1480623D01*
Y1496961D01*
X1216009Y1498125D01*
X1215670Y1499244D01*
X1215119Y1500276D01*
X1214377Y1501180D01*
X1213473Y1501922D01*
X1212441Y1502473D01*
X1211322Y1502812D01*
X1210158Y1502927D01*
D02*
G37*
G36*
X1125808D02*
X1124644Y1502812D01*
X1123525Y1502473D01*
X1122493Y1501922D01*
X1121589Y1501180D01*
X1120847Y1500276D01*
X1120296Y1499244D01*
X1119957Y1498125D01*
X1119842Y1496961D01*
Y1480623D01*
X1119957Y1479459D01*
X1120296Y1478340D01*
X1120847Y1477308D01*
X1121589Y1476404D01*
X1122493Y1475662D01*
X1123525Y1475111D01*
X1124644Y1474771D01*
X1125808Y1474657D01*
X1126972Y1474771D01*
X1128091Y1475111D01*
X1129122Y1475662D01*
X1130026Y1476404D01*
X1130768Y1477308D01*
X1131319Y1478340D01*
X1131659Y1479459D01*
X1131773Y1480623D01*
Y1496961D01*
X1131659Y1498125D01*
X1131319Y1499244D01*
X1130768Y1500276D01*
X1130026Y1501180D01*
X1129122Y1501922D01*
X1128091Y1502473D01*
X1126972Y1502812D01*
X1125808Y1502927D01*
D02*
G37*
G36*
X1041457D02*
X1040293Y1502812D01*
X1039174Y1502473D01*
X1038143Y1501922D01*
X1037239Y1501180D01*
X1036497Y1500276D01*
X1035946Y1499244D01*
X1035606Y1498125D01*
X1035491Y1496961D01*
Y1480623D01*
X1035606Y1479459D01*
X1035946Y1478340D01*
X1036497Y1477308D01*
X1037239Y1476404D01*
X1038143Y1475662D01*
X1039174Y1475111D01*
X1040293Y1474771D01*
X1041457Y1474657D01*
X1042621Y1474771D01*
X1043740Y1475111D01*
X1044772Y1475662D01*
X1045676Y1476404D01*
X1046418Y1477308D01*
X1046969Y1478340D01*
X1047308Y1479459D01*
X1047423Y1480623D01*
Y1496961D01*
X1047308Y1498125D01*
X1046969Y1499244D01*
X1046418Y1500276D01*
X1045676Y1501180D01*
X1044772Y1501922D01*
X1043740Y1502473D01*
X1042621Y1502812D01*
X1041457Y1502927D01*
D02*
G37*
G36*
X957107D02*
X955943Y1502812D01*
X954824Y1502473D01*
X953792Y1501922D01*
X952888Y1501180D01*
X952146Y1500276D01*
X951595Y1499244D01*
X951256Y1498125D01*
X951141Y1496961D01*
Y1480623D01*
X951256Y1479459D01*
X951595Y1478340D01*
X952146Y1477308D01*
X952888Y1476404D01*
X953792Y1475662D01*
X954824Y1475111D01*
X955943Y1474771D01*
X957107Y1474657D01*
X958270Y1474771D01*
X959390Y1475111D01*
X960421Y1475662D01*
X961325Y1476404D01*
X962067Y1477308D01*
X962618Y1478340D01*
X962958Y1479459D01*
X963072Y1480623D01*
Y1496961D01*
X962958Y1498125D01*
X962618Y1499244D01*
X962067Y1500276D01*
X961325Y1501180D01*
X960421Y1501922D01*
X959390Y1502473D01*
X958270Y1502812D01*
X957107Y1502927D01*
D02*
G37*
G36*
X872756D02*
X871592Y1502812D01*
X870473Y1502473D01*
X869442Y1501922D01*
X868538Y1501180D01*
X867796Y1500276D01*
X867244Y1499244D01*
X866905Y1498125D01*
X866790Y1496961D01*
Y1480623D01*
X866905Y1479459D01*
X867244Y1478340D01*
X867796Y1477308D01*
X868538Y1476404D01*
X869442Y1475662D01*
X870473Y1475111D01*
X871592Y1474771D01*
X872756Y1474657D01*
X873920Y1474771D01*
X875039Y1475111D01*
X876070Y1475662D01*
X876974Y1476404D01*
X877716Y1477308D01*
X878268Y1478340D01*
X878607Y1479459D01*
X878722Y1480623D01*
Y1496961D01*
X878607Y1498125D01*
X878268Y1499244D01*
X877716Y1500276D01*
X876974Y1501180D01*
X876070Y1501922D01*
X875039Y1502473D01*
X873920Y1502812D01*
X872756Y1502927D01*
D02*
G37*
G36*
X788406D02*
X787242Y1502812D01*
X786123Y1502473D01*
X785091Y1501922D01*
X784187Y1501180D01*
X783445Y1500276D01*
X782894Y1499244D01*
X782554Y1498125D01*
X782440Y1496961D01*
Y1480623D01*
X782554Y1479459D01*
X782894Y1478340D01*
X783445Y1477308D01*
X784187Y1476404D01*
X785091Y1475662D01*
X786123Y1475111D01*
X787242Y1474771D01*
X788406Y1474657D01*
X789569Y1474771D01*
X790689Y1475111D01*
X791720Y1475662D01*
X792624Y1476404D01*
X793366Y1477308D01*
X793917Y1478340D01*
X794257Y1479459D01*
X794371Y1480623D01*
Y1496961D01*
X794257Y1498125D01*
X793917Y1499244D01*
X793366Y1500276D01*
X792624Y1501180D01*
X791720Y1501922D01*
X790689Y1502473D01*
X789569Y1502812D01*
X788406Y1502927D01*
D02*
G37*
G36*
X1427245Y1490652D02*
X1425496Y1490480D01*
X1423814Y1489970D01*
X1422264Y1489141D01*
X1420905Y1488026D01*
X1419790Y1486667D01*
X1418961Y1485117D01*
X1418451Y1483435D01*
X1418279Y1481686D01*
X1418451Y1479936D01*
X1418961Y1478254D01*
X1419790Y1476704D01*
X1420905Y1475345D01*
X1422264Y1474230D01*
X1423814Y1473402D01*
X1425496Y1472892D01*
X1427245Y1472719D01*
X1428994Y1472892D01*
X1430676Y1473402D01*
X1432227Y1474230D01*
X1433585Y1475345D01*
X1434700Y1476704D01*
X1435529Y1478254D01*
X1436039Y1479936D01*
X1436212Y1481686D01*
X1436039Y1483435D01*
X1435529Y1485117D01*
X1434700Y1486667D01*
X1433585Y1488026D01*
X1432227Y1489141D01*
X1430676Y1489970D01*
X1428994Y1490480D01*
X1427245Y1490652D01*
D02*
G37*
G36*
X769508D02*
X767759Y1490480D01*
X766077Y1489970D01*
X764526Y1489141D01*
X763168Y1488026D01*
X762053Y1486667D01*
X761224Y1485117D01*
X760714Y1483435D01*
X760541Y1481686D01*
X760714Y1479936D01*
X761224Y1478254D01*
X762053Y1476704D01*
X763168Y1475345D01*
X764526Y1474230D01*
X766077Y1473402D01*
X767759Y1472892D01*
X769508Y1472719D01*
X771257Y1472892D01*
X772939Y1473402D01*
X774489Y1474230D01*
X775848Y1475345D01*
X776963Y1476704D01*
X777792Y1478254D01*
X778302Y1479936D01*
X778474Y1481686D01*
X778302Y1483435D01*
X777792Y1485117D01*
X776963Y1486667D01*
X775848Y1488026D01*
X774489Y1489141D01*
X772939Y1489970D01*
X771257Y1490480D01*
X769508Y1490652D01*
D02*
G37*
G36*
X1504429Y1477631D02*
Y1473425D01*
Y1469219D01*
X1504668Y1469283D01*
X1505682Y1469868D01*
X1506509Y1470696D01*
X1507095Y1471710D01*
X1507132Y1471848D01*
X1507632D01*
X1507669Y1471710D01*
X1508254Y1470696D01*
X1509082Y1469868D01*
X1510095Y1469283D01*
X1510335Y1469219D01*
Y1473425D01*
Y1477631D01*
X1510095Y1477567D01*
X1509082Y1476982D01*
X1508254Y1476154D01*
X1507669Y1475141D01*
X1507632Y1475002D01*
X1507132D01*
X1507095Y1475141D01*
X1506509Y1476154D01*
X1505682Y1476982D01*
X1504668Y1477567D01*
X1504429Y1477631D01*
D02*
G37*
G36*
X1707520D02*
Y1473425D01*
Y1469219D01*
X1707759Y1469283D01*
X1708772Y1469868D01*
X1709600Y1470696D01*
X1710185Y1471710D01*
X1710222Y1471848D01*
X1710722D01*
X1710760Y1471710D01*
X1711345Y1470696D01*
X1712172Y1469868D01*
X1713186Y1469283D01*
X1713425Y1469219D01*
Y1473425D01*
Y1477631D01*
X1713186Y1477567D01*
X1712172Y1476982D01*
X1711345Y1476154D01*
X1710760Y1475141D01*
X1710722Y1475002D01*
X1710222D01*
X1710185Y1475141D01*
X1709600Y1476154D01*
X1708772Y1476982D01*
X1707759Y1477567D01*
X1707520Y1477631D01*
D02*
G37*
G36*
X1542592Y1471949D02*
X1539862D01*
Y1469219D01*
X1540102Y1469283D01*
X1541115Y1469868D01*
X1541943Y1470696D01*
X1542528Y1471710D01*
X1542592Y1471949D01*
D02*
G37*
G36*
X1601545Y1477631D02*
Y1473425D01*
Y1469219D01*
X1601785Y1469283D01*
X1602798Y1469868D01*
X1603626Y1470696D01*
X1604211Y1471710D01*
X1604248Y1471848D01*
X1604748D01*
X1604785Y1471710D01*
X1605370Y1470696D01*
X1606198Y1469868D01*
X1607211Y1469283D01*
X1607451Y1469219D01*
Y1473425D01*
Y1477631D01*
X1607211Y1477567D01*
X1606198Y1476982D01*
X1605370Y1476154D01*
X1604785Y1475141D01*
X1604748Y1475002D01*
X1604248D01*
X1604211Y1475141D01*
X1603626Y1476154D01*
X1602798Y1476982D01*
X1601785Y1477567D01*
X1601545Y1477631D01*
D02*
G37*
G36*
X1648566Y1471949D02*
X1645837D01*
Y1469219D01*
X1646076Y1469283D01*
X1647089Y1469868D01*
X1647917Y1470696D01*
X1648502Y1471710D01*
X1648566Y1471949D01*
D02*
G37*
G36*
X1495571Y1477631D02*
Y1473425D01*
Y1469219D01*
X1495810Y1469283D01*
X1496824Y1469868D01*
X1497651Y1470696D01*
X1498236Y1471710D01*
X1498274Y1471848D01*
X1498774D01*
X1498811Y1471710D01*
X1499396Y1470696D01*
X1500224Y1469868D01*
X1501237Y1469283D01*
X1501476Y1469219D01*
Y1473425D01*
Y1477631D01*
X1501237Y1477567D01*
X1500224Y1476982D01*
X1499396Y1476154D01*
X1498811Y1475141D01*
X1498774Y1475002D01*
X1498274D01*
X1498236Y1475141D01*
X1497651Y1476154D01*
X1496824Y1476982D01*
X1495810Y1477567D01*
X1495571Y1477631D01*
D02*
G37*
G36*
X1754541Y1471949D02*
X1751811D01*
Y1469219D01*
X1752050Y1469283D01*
X1753064Y1469868D01*
X1753891Y1470696D01*
X1754477Y1471710D01*
X1754541Y1471949D01*
D02*
G37*
G36*
X1704567Y1471949D02*
X1701837D01*
X1701901Y1471710D01*
X1702486Y1470696D01*
X1703314Y1469868D01*
X1704328Y1469283D01*
X1704567Y1469219D01*
Y1471949D01*
D02*
G37*
G36*
X1598592Y1471949D02*
X1595863D01*
X1595927Y1471710D01*
X1596512Y1470696D01*
X1597340Y1469868D01*
X1598353Y1469283D01*
X1598592Y1469219D01*
Y1471949D01*
D02*
G37*
G36*
X1492618Y1471949D02*
X1489888D01*
X1489952Y1471710D01*
X1490538Y1470696D01*
X1491365Y1469868D01*
X1492379Y1469283D01*
X1492618Y1469219D01*
Y1471949D01*
D02*
G37*
G36*
X1731142Y1463852D02*
X1730902Y1463788D01*
X1729889Y1463202D01*
X1729061Y1462375D01*
X1728476Y1461361D01*
X1728439Y1461223D01*
X1727939D01*
X1727902Y1461361D01*
X1727317Y1462375D01*
X1726489Y1463202D01*
X1725476Y1463788D01*
X1725236Y1463852D01*
Y1459646D01*
Y1455440D01*
X1725476Y1455504D01*
X1726489Y1456089D01*
X1727317Y1456916D01*
X1727902Y1457930D01*
X1727939Y1458069D01*
X1728439D01*
X1728476Y1457930D01*
X1729061Y1456916D01*
X1729889Y1456089D01*
X1730902Y1455504D01*
X1731142Y1455440D01*
Y1459646D01*
Y1463852D01*
D02*
G37*
G36*
X1625167D02*
X1624928Y1463788D01*
X1623915Y1463202D01*
X1623087Y1462375D01*
X1622502Y1461361D01*
X1622465Y1461223D01*
X1621965D01*
X1621927Y1461361D01*
X1621342Y1462375D01*
X1620515Y1463202D01*
X1619501Y1463788D01*
X1619262Y1463852D01*
Y1459646D01*
Y1455440D01*
X1619501Y1455504D01*
X1620515Y1456089D01*
X1621342Y1456916D01*
X1621927Y1457930D01*
X1621965Y1458069D01*
X1622465D01*
X1622502Y1457930D01*
X1623087Y1456916D01*
X1623915Y1456089D01*
X1624928Y1455504D01*
X1625167Y1455440D01*
Y1459646D01*
Y1463852D01*
D02*
G37*
G36*
X1519193D02*
X1518954Y1463788D01*
X1517940Y1463202D01*
X1517113Y1462375D01*
X1516527Y1461361D01*
X1516490Y1461223D01*
X1515990D01*
X1515953Y1461361D01*
X1515368Y1462375D01*
X1514540Y1463202D01*
X1513527Y1463788D01*
X1513287Y1463852D01*
Y1459646D01*
Y1455440D01*
X1513527Y1455504D01*
X1514540Y1456089D01*
X1515368Y1456916D01*
X1515953Y1457930D01*
X1515990Y1458069D01*
X1516490D01*
X1516527Y1457930D01*
X1517113Y1456916D01*
X1517940Y1456089D01*
X1518954Y1455504D01*
X1519193Y1455440D01*
Y1459646D01*
Y1463852D01*
D02*
G37*
G36*
X1748858Y1463852D02*
X1748619Y1463788D01*
X1747605Y1463202D01*
X1746778Y1462375D01*
X1746193Y1461361D01*
X1746156Y1461223D01*
X1745655D01*
X1745618Y1461361D01*
X1745033Y1462375D01*
X1744206Y1463202D01*
X1743192Y1463788D01*
X1742953Y1463852D01*
Y1459646D01*
Y1455440D01*
X1743192Y1455504D01*
X1744206Y1456089D01*
X1745033Y1456916D01*
X1745618Y1457930D01*
X1745655Y1458069D01*
X1746156D01*
X1746193Y1457930D01*
X1746778Y1456916D01*
X1747605Y1456089D01*
X1748619Y1455504D01*
X1748858Y1455440D01*
Y1459646D01*
Y1463852D01*
D02*
G37*
G36*
X1740000Y1463852D02*
X1739761Y1463788D01*
X1738747Y1463202D01*
X1737920Y1462375D01*
X1737334Y1461361D01*
X1737297Y1461223D01*
X1736797D01*
X1736760Y1461361D01*
X1736175Y1462375D01*
X1735347Y1463202D01*
X1734334Y1463788D01*
X1734095Y1463852D01*
Y1459646D01*
Y1455440D01*
X1734334Y1455504D01*
X1735347Y1456089D01*
X1736175Y1456916D01*
X1736760Y1457930D01*
X1736797Y1458069D01*
X1737297D01*
X1737334Y1457930D01*
X1737920Y1456916D01*
X1738747Y1456089D01*
X1739761Y1455504D01*
X1740000Y1455440D01*
Y1459646D01*
Y1463852D01*
D02*
G37*
G36*
X1722284Y1463852D02*
X1722044Y1463788D01*
X1721031Y1463202D01*
X1720203Y1462375D01*
X1719618Y1461361D01*
X1719581Y1461223D01*
X1719081D01*
X1719044Y1461361D01*
X1718458Y1462375D01*
X1717631Y1463202D01*
X1716617Y1463788D01*
X1716378Y1463852D01*
Y1459646D01*
Y1455440D01*
X1716617Y1455504D01*
X1717631Y1456089D01*
X1718458Y1456916D01*
X1719044Y1457930D01*
X1719081Y1458069D01*
X1719581D01*
X1719618Y1457930D01*
X1720203Y1456916D01*
X1721031Y1456089D01*
X1722044Y1455504D01*
X1722284Y1455440D01*
Y1459646D01*
Y1463852D01*
D02*
G37*
G36*
X1642884Y1463852D02*
X1642645Y1463788D01*
X1641631Y1463202D01*
X1640803Y1462375D01*
X1640218Y1461361D01*
X1640181Y1461223D01*
X1639681D01*
X1639644Y1461361D01*
X1639059Y1462375D01*
X1638231Y1463202D01*
X1637218Y1463788D01*
X1636978Y1463852D01*
Y1459646D01*
Y1455440D01*
X1637218Y1455504D01*
X1638231Y1456089D01*
X1639059Y1456916D01*
X1639644Y1457930D01*
X1639681Y1458069D01*
X1640181D01*
X1640218Y1457930D01*
X1640803Y1456916D01*
X1641631Y1456089D01*
X1642645Y1455504D01*
X1642884Y1455440D01*
Y1459646D01*
Y1463852D01*
D02*
G37*
G36*
X1634026Y1463852D02*
X1633786Y1463788D01*
X1632773Y1463202D01*
X1631945Y1462375D01*
X1631360Y1461361D01*
X1631323Y1461223D01*
X1630823D01*
X1630786Y1461361D01*
X1630201Y1462375D01*
X1629373Y1463202D01*
X1628359Y1463788D01*
X1628120Y1463852D01*
Y1459646D01*
Y1455440D01*
X1628359Y1455504D01*
X1629373Y1456089D01*
X1630201Y1456916D01*
X1630786Y1457930D01*
X1630823Y1458069D01*
X1631323D01*
X1631360Y1457930D01*
X1631945Y1456916D01*
X1632773Y1456089D01*
X1633786Y1455504D01*
X1634026Y1455440D01*
Y1459646D01*
Y1463852D01*
D02*
G37*
G36*
X1616309Y1463852D02*
X1616070Y1463788D01*
X1615056Y1463202D01*
X1614229Y1462375D01*
X1613643Y1461361D01*
X1613606Y1461223D01*
X1613106D01*
X1613069Y1461361D01*
X1612484Y1462375D01*
X1611656Y1463202D01*
X1610643Y1463788D01*
X1610403Y1463852D01*
Y1459646D01*
Y1455440D01*
X1610643Y1455504D01*
X1611656Y1456089D01*
X1612484Y1456916D01*
X1613069Y1457930D01*
X1613106Y1458069D01*
X1613606D01*
X1613643Y1457930D01*
X1614229Y1456916D01*
X1615056Y1456089D01*
X1616070Y1455504D01*
X1616309Y1455440D01*
Y1459646D01*
Y1463852D01*
D02*
G37*
G36*
X1536909Y1463852D02*
X1536670Y1463788D01*
X1535657Y1463202D01*
X1534829Y1462375D01*
X1534244Y1461361D01*
X1534207Y1461223D01*
X1533707D01*
X1533669Y1461361D01*
X1533084Y1462375D01*
X1532257Y1463202D01*
X1531243Y1463788D01*
X1531004Y1463852D01*
Y1459646D01*
Y1455440D01*
X1531243Y1455504D01*
X1532257Y1456089D01*
X1533084Y1456916D01*
X1533669Y1457930D01*
X1533707Y1458069D01*
X1534207D01*
X1534244Y1457930D01*
X1534829Y1456916D01*
X1535657Y1456089D01*
X1536670Y1455504D01*
X1536909Y1455440D01*
Y1459646D01*
Y1463852D01*
D02*
G37*
G36*
X1528051Y1463852D02*
X1527812Y1463788D01*
X1526798Y1463202D01*
X1525971Y1462375D01*
X1525386Y1461361D01*
X1525348Y1461223D01*
X1524848D01*
X1524811Y1461361D01*
X1524226Y1462375D01*
X1523398Y1463202D01*
X1522385Y1463788D01*
X1522146Y1463852D01*
Y1459646D01*
Y1455440D01*
X1522385Y1455504D01*
X1523398Y1456089D01*
X1524226Y1456916D01*
X1524811Y1457930D01*
X1524848Y1458069D01*
X1525348D01*
X1525386Y1457930D01*
X1525971Y1456916D01*
X1526798Y1456089D01*
X1527812Y1455504D01*
X1528051Y1455440D01*
Y1459646D01*
Y1463852D01*
D02*
G37*
G36*
X1501476Y1463852D02*
X1501237Y1463788D01*
X1500224Y1463202D01*
X1499396Y1462375D01*
X1498811Y1461361D01*
X1498774Y1461223D01*
X1498274D01*
X1498236Y1461361D01*
X1497651Y1462375D01*
X1496824Y1463202D01*
X1495810Y1463788D01*
X1495571Y1463852D01*
Y1459646D01*
Y1455440D01*
X1495810Y1455504D01*
X1496824Y1456089D01*
X1497651Y1456916D01*
X1498236Y1457930D01*
X1498274Y1458069D01*
X1498774D01*
X1498811Y1457930D01*
X1499396Y1456916D01*
X1500224Y1456089D01*
X1501237Y1455504D01*
X1501476Y1455440D01*
Y1459646D01*
Y1463852D01*
D02*
G37*
G36*
X1704567Y1463852D02*
X1704328Y1463788D01*
X1703314Y1463202D01*
X1702486Y1462375D01*
X1701901Y1461361D01*
X1701837Y1461122D01*
X1704567D01*
Y1463852D01*
D02*
G37*
G36*
X1598592D02*
X1598353Y1463788D01*
X1597340Y1463202D01*
X1596512Y1462375D01*
X1595927Y1461361D01*
X1595863Y1461122D01*
X1598592D01*
Y1463852D01*
D02*
G37*
G36*
X1751811Y1463852D02*
Y1461122D01*
X1754541D01*
X1754477Y1461361D01*
X1753891Y1462375D01*
X1753064Y1463202D01*
X1752050Y1463788D01*
X1751811Y1463852D01*
D02*
G37*
G36*
X1492618Y1463852D02*
X1492379Y1463788D01*
X1491365Y1463202D01*
X1490538Y1462375D01*
X1489952Y1461361D01*
X1489888Y1461122D01*
X1492618D01*
Y1463852D01*
D02*
G37*
G36*
X1645837Y1463852D02*
Y1461122D01*
X1648566D01*
X1648502Y1461361D01*
X1647917Y1462375D01*
X1647089Y1463202D01*
X1646076Y1463788D01*
X1645837Y1463852D01*
D02*
G37*
G36*
X1539862D02*
Y1461122D01*
X1542592D01*
X1542528Y1461361D01*
X1541943Y1462375D01*
X1541115Y1463202D01*
X1540102Y1463788D01*
X1539862Y1463852D01*
D02*
G37*
G36*
X1542592Y1458169D02*
X1539862D01*
Y1455440D01*
X1540102Y1455504D01*
X1541115Y1456089D01*
X1541943Y1456916D01*
X1542528Y1457930D01*
X1542592Y1458169D01*
D02*
G37*
G36*
X1504429Y1463852D02*
Y1459646D01*
Y1455440D01*
X1504668Y1455504D01*
X1505682Y1456089D01*
X1506509Y1456916D01*
X1507095Y1457930D01*
X1507132Y1458069D01*
X1507632D01*
X1507669Y1457930D01*
X1508254Y1456916D01*
X1509082Y1456089D01*
X1510095Y1455504D01*
X1510335Y1455440D01*
Y1459646D01*
Y1463852D01*
X1510095Y1463788D01*
X1509082Y1463202D01*
X1508254Y1462375D01*
X1507669Y1461361D01*
X1507632Y1461223D01*
X1507132D01*
X1507095Y1461361D01*
X1506509Y1462375D01*
X1505682Y1463202D01*
X1504668Y1463788D01*
X1504429Y1463852D01*
D02*
G37*
G36*
X1648566Y1458169D02*
X1645837D01*
Y1455440D01*
X1646076Y1455504D01*
X1647089Y1456089D01*
X1647917Y1456916D01*
X1648502Y1457930D01*
X1648566Y1458169D01*
D02*
G37*
G36*
X1707520Y1463852D02*
Y1459646D01*
Y1455440D01*
X1707759Y1455504D01*
X1708772Y1456089D01*
X1709600Y1456916D01*
X1710185Y1457930D01*
X1710222Y1458069D01*
X1710722D01*
X1710760Y1457930D01*
X1711345Y1456916D01*
X1712172Y1456089D01*
X1713186Y1455504D01*
X1713425Y1455440D01*
Y1459646D01*
Y1463852D01*
X1713186Y1463788D01*
X1712172Y1463202D01*
X1711345Y1462375D01*
X1710760Y1461361D01*
X1710722Y1461223D01*
X1710222D01*
X1710185Y1461361D01*
X1709600Y1462375D01*
X1708772Y1463202D01*
X1707759Y1463788D01*
X1707520Y1463852D01*
D02*
G37*
G36*
X1754541Y1458169D02*
X1751811D01*
Y1455440D01*
X1752050Y1455504D01*
X1753064Y1456089D01*
X1753891Y1456916D01*
X1754477Y1457930D01*
X1754541Y1458169D01*
D02*
G37*
G36*
X1601545Y1463852D02*
Y1459646D01*
Y1455440D01*
X1601785Y1455504D01*
X1602798Y1456089D01*
X1603626Y1456916D01*
X1604211Y1457930D01*
X1604248Y1458069D01*
X1604748D01*
X1604785Y1457930D01*
X1605370Y1456916D01*
X1606198Y1456089D01*
X1607211Y1455504D01*
X1607451Y1455440D01*
Y1459646D01*
Y1463852D01*
X1607211Y1463788D01*
X1606198Y1463202D01*
X1605370Y1462375D01*
X1604785Y1461361D01*
X1604748Y1461223D01*
X1604248D01*
X1604211Y1461361D01*
X1603626Y1462375D01*
X1602798Y1463202D01*
X1601785Y1463788D01*
X1601545Y1463852D01*
D02*
G37*
G36*
X1704567Y1458169D02*
X1701837D01*
X1701901Y1457930D01*
X1702486Y1456916D01*
X1703314Y1456089D01*
X1704328Y1455504D01*
X1704567Y1455440D01*
Y1458169D01*
D02*
G37*
G36*
X1598592Y1458169D02*
X1595863D01*
X1595927Y1457930D01*
X1596512Y1456916D01*
X1597340Y1456089D01*
X1598353Y1455504D01*
X1598592Y1455440D01*
Y1458169D01*
D02*
G37*
G36*
X1492618Y1458169D02*
X1489888D01*
X1489952Y1457930D01*
X1490538Y1456916D01*
X1491365Y1456089D01*
X1492379Y1455504D01*
X1492618Y1455440D01*
Y1458169D01*
D02*
G37*
G36*
X1682579Y1452662D02*
X1681061Y1452512D01*
X1679602Y1452069D01*
X1678257Y1451350D01*
X1677078Y1450383D01*
X1676110Y1449204D01*
X1675391Y1447859D01*
X1674949Y1446400D01*
X1674799Y1444882D01*
X1674949Y1443364D01*
X1675391Y1441905D01*
X1676110Y1440560D01*
X1677078Y1439381D01*
X1678257Y1438413D01*
X1679602Y1437694D01*
X1681061Y1437252D01*
X1682579Y1437102D01*
X1684096Y1437252D01*
X1685556Y1437694D01*
X1686901Y1438413D01*
X1688080Y1439381D01*
X1689047Y1440560D01*
X1689766Y1441905D01*
X1690209Y1443364D01*
X1690358Y1444882D01*
X1690209Y1446400D01*
X1689766Y1447859D01*
X1689047Y1449204D01*
X1688080Y1450383D01*
X1686901Y1451350D01*
X1685556Y1452069D01*
X1684096Y1452512D01*
X1682579Y1452662D01*
D02*
G37*
G36*
X1576604D02*
X1575087Y1452512D01*
X1573627Y1452069D01*
X1572282Y1451350D01*
X1571103Y1450383D01*
X1570136Y1449204D01*
X1569417Y1447859D01*
X1568974Y1446400D01*
X1568825Y1444882D01*
X1568974Y1443364D01*
X1569417Y1441905D01*
X1570136Y1440560D01*
X1571103Y1439381D01*
X1572282Y1438413D01*
X1573627Y1437694D01*
X1575087Y1437252D01*
X1576604Y1437102D01*
X1578122Y1437252D01*
X1579581Y1437694D01*
X1580926Y1438413D01*
X1582105Y1439381D01*
X1583073Y1440560D01*
X1583792Y1441905D01*
X1584234Y1443364D01*
X1584384Y1444882D01*
X1584234Y1446400D01*
X1583792Y1447859D01*
X1583073Y1449204D01*
X1582105Y1450383D01*
X1580926Y1451350D01*
X1579581Y1452069D01*
X1578122Y1452512D01*
X1576604Y1452662D01*
D02*
G37*
G36*
X1470630D02*
X1469112Y1452512D01*
X1467653Y1452069D01*
X1466308Y1451350D01*
X1465129Y1450383D01*
X1464161Y1449204D01*
X1463443Y1447859D01*
X1463000Y1446400D01*
X1462850Y1444882D01*
X1463000Y1443364D01*
X1463443Y1441905D01*
X1464161Y1440560D01*
X1465129Y1439381D01*
X1466308Y1438413D01*
X1467653Y1437694D01*
X1469112Y1437252D01*
X1470630Y1437102D01*
X1472148Y1437252D01*
X1473607Y1437694D01*
X1474952Y1438413D01*
X1476131Y1439381D01*
X1477098Y1440560D01*
X1477817Y1441905D01*
X1478260Y1443364D01*
X1478409Y1444882D01*
X1478260Y1446400D01*
X1477817Y1447859D01*
X1477098Y1449204D01*
X1476131Y1450383D01*
X1474952Y1451350D01*
X1473607Y1452069D01*
X1472148Y1452512D01*
X1470630Y1452662D01*
D02*
G37*
G36*
X1751052Y1435563D02*
X1749618D01*
X1748233Y1435192D01*
X1746991Y1434475D01*
X1746244Y1433728D01*
X1745905Y1433508D01*
X1745567Y1433728D01*
X1744820Y1434475D01*
X1743578Y1435192D01*
X1742193Y1435563D01*
X1740759D01*
X1739375Y1435192D01*
X1738133Y1434475D01*
X1737386Y1433728D01*
X1737047Y1433508D01*
X1736708Y1433728D01*
X1735961Y1434475D01*
X1734720Y1435192D01*
X1733335Y1435563D01*
X1731901D01*
X1730516Y1435192D01*
X1729275Y1434475D01*
X1728528Y1433728D01*
X1728189Y1433508D01*
X1727850Y1433728D01*
X1727103Y1434475D01*
X1725862Y1435192D01*
X1724477Y1435563D01*
X1723043D01*
X1721658Y1435192D01*
X1720417Y1434475D01*
X1719670Y1433728D01*
X1719331Y1433508D01*
X1718992Y1433728D01*
X1718245Y1434475D01*
X1717003Y1435192D01*
X1715618Y1435563D01*
X1714185D01*
X1712800Y1435192D01*
X1711558Y1434475D01*
X1710811Y1433728D01*
X1710472Y1433508D01*
X1710134Y1433728D01*
X1709386Y1434475D01*
X1708145Y1435192D01*
X1706760Y1435563D01*
X1705326D01*
X1703942Y1435192D01*
X1702700Y1434475D01*
X1701686Y1433461D01*
X1700970Y1432220D01*
X1700598Y1430835D01*
Y1429401D01*
X1700970Y1428016D01*
X1701686Y1426775D01*
X1702700Y1425761D01*
X1703942Y1425044D01*
X1705326Y1424673D01*
X1706760D01*
X1708145Y1425044D01*
X1709386Y1425761D01*
X1710134Y1426508D01*
X1710472Y1426728D01*
X1710811Y1426508D01*
X1711558Y1425761D01*
X1712800Y1425044D01*
X1714185Y1424673D01*
X1715618D01*
X1717003Y1425044D01*
X1718245Y1425761D01*
X1718992Y1426508D01*
X1719331Y1426728D01*
X1719670Y1426508D01*
X1720417Y1425761D01*
X1721658Y1425044D01*
X1723043Y1424673D01*
X1724477D01*
X1725862Y1425044D01*
X1727103Y1425761D01*
X1727850Y1426508D01*
X1728189Y1426728D01*
X1728528Y1426508D01*
X1729275Y1425761D01*
X1730516Y1425044D01*
X1731901Y1424673D01*
X1733335D01*
X1734720Y1425044D01*
X1735961Y1425761D01*
X1736708Y1426508D01*
X1737047Y1426728D01*
X1737386Y1426508D01*
X1738133Y1425761D01*
X1739375Y1425044D01*
X1740759Y1424673D01*
X1742193D01*
X1743578Y1425044D01*
X1744820Y1425761D01*
X1745567Y1426508D01*
X1745905Y1426728D01*
X1746244Y1426508D01*
X1746991Y1425761D01*
X1748233Y1425044D01*
X1749618Y1424673D01*
X1751052D01*
X1752436Y1425044D01*
X1753678Y1425761D01*
X1754692Y1426775D01*
X1755408Y1428016D01*
X1755779Y1429401D01*
Y1430835D01*
X1755408Y1432220D01*
X1754692Y1433461D01*
X1753678Y1434475D01*
X1752436Y1435192D01*
X1751052Y1435563D01*
D02*
G37*
G36*
X1645077D02*
X1643643D01*
X1642259Y1435192D01*
X1641017Y1434475D01*
X1640270Y1433728D01*
X1639931Y1433508D01*
X1639592Y1433728D01*
X1638845Y1434475D01*
X1637604Y1435192D01*
X1636219Y1435563D01*
X1634785D01*
X1633400Y1435192D01*
X1632159Y1434475D01*
X1631412Y1433728D01*
X1631073Y1433508D01*
X1630734Y1433728D01*
X1629987Y1434475D01*
X1628745Y1435192D01*
X1627361Y1435563D01*
X1625927D01*
X1624542Y1435192D01*
X1623301Y1434475D01*
X1622553Y1433728D01*
X1622215Y1433508D01*
X1621876Y1433728D01*
X1621129Y1434475D01*
X1619887Y1435192D01*
X1618502Y1435563D01*
X1617069D01*
X1615684Y1435192D01*
X1614442Y1434475D01*
X1613695Y1433728D01*
X1613356Y1433508D01*
X1613017Y1433728D01*
X1612270Y1434475D01*
X1611029Y1435192D01*
X1609644Y1435563D01*
X1608210D01*
X1606825Y1435192D01*
X1605584Y1434475D01*
X1604837Y1433728D01*
X1604498Y1433508D01*
X1604159Y1433728D01*
X1603412Y1434475D01*
X1602171Y1435192D01*
X1600786Y1435563D01*
X1599352D01*
X1597967Y1435192D01*
X1596726Y1434475D01*
X1595712Y1433461D01*
X1594995Y1432220D01*
X1594624Y1430835D01*
Y1429401D01*
X1594995Y1428016D01*
X1595712Y1426775D01*
X1596726Y1425761D01*
X1597967Y1425044D01*
X1599352Y1424673D01*
X1600786D01*
X1602171Y1425044D01*
X1603412Y1425761D01*
X1604159Y1426508D01*
X1604498Y1426728D01*
X1604837Y1426508D01*
X1605584Y1425761D01*
X1606825Y1425044D01*
X1608210Y1424673D01*
X1609644D01*
X1611029Y1425044D01*
X1612270Y1425761D01*
X1613017Y1426508D01*
X1613356Y1426728D01*
X1613695Y1426508D01*
X1614442Y1425761D01*
X1615684Y1425044D01*
X1617069Y1424673D01*
X1618502D01*
X1619887Y1425044D01*
X1621129Y1425761D01*
X1621876Y1426508D01*
X1622215Y1426728D01*
X1622553Y1426508D01*
X1623301Y1425761D01*
X1624542Y1425044D01*
X1625927Y1424673D01*
X1627361D01*
X1628745Y1425044D01*
X1629987Y1425761D01*
X1630734Y1426508D01*
X1631073Y1426728D01*
X1631412Y1426508D01*
X1632159Y1425761D01*
X1633400Y1425044D01*
X1634785Y1424673D01*
X1636219D01*
X1637604Y1425044D01*
X1638845Y1425761D01*
X1639592Y1426508D01*
X1639931Y1426728D01*
X1640270Y1426508D01*
X1641017Y1425761D01*
X1642259Y1425044D01*
X1643643Y1424673D01*
X1645077D01*
X1646462Y1425044D01*
X1647704Y1425761D01*
X1648717Y1426775D01*
X1649434Y1428016D01*
X1649805Y1429401D01*
Y1430835D01*
X1649434Y1432220D01*
X1648717Y1433461D01*
X1647704Y1434475D01*
X1646462Y1435192D01*
X1645077Y1435563D01*
D02*
G37*
G36*
X1539103D02*
X1537669D01*
X1536284Y1435192D01*
X1535043Y1434475D01*
X1534296Y1433728D01*
X1533957Y1433508D01*
X1533618Y1433728D01*
X1532871Y1434475D01*
X1531629Y1435192D01*
X1530244Y1435563D01*
X1528811D01*
X1527426Y1435192D01*
X1526184Y1434475D01*
X1525437Y1433728D01*
X1525098Y1433508D01*
X1524759Y1433728D01*
X1524012Y1434475D01*
X1522771Y1435192D01*
X1521386Y1435563D01*
X1519952D01*
X1518568Y1435192D01*
X1517326Y1434475D01*
X1516579Y1433728D01*
X1516240Y1433508D01*
X1515901Y1433728D01*
X1515154Y1434475D01*
X1513913Y1435192D01*
X1512528Y1435563D01*
X1511094D01*
X1509709Y1435192D01*
X1508468Y1434475D01*
X1507721Y1433728D01*
X1507382Y1433508D01*
X1507043Y1433728D01*
X1506296Y1434475D01*
X1505054Y1435192D01*
X1503670Y1435563D01*
X1502236D01*
X1500851Y1435192D01*
X1499609Y1434475D01*
X1498863Y1433728D01*
X1498524Y1433508D01*
X1498185Y1433728D01*
X1497438Y1434475D01*
X1496196Y1435192D01*
X1494811Y1435563D01*
X1493378D01*
X1491993Y1435192D01*
X1490751Y1434475D01*
X1489738Y1433461D01*
X1489021Y1432220D01*
X1488650Y1430835D01*
Y1429401D01*
X1489021Y1428016D01*
X1489738Y1426775D01*
X1490751Y1425761D01*
X1491993Y1425044D01*
X1493378Y1424673D01*
X1494811D01*
X1496196Y1425044D01*
X1497438Y1425761D01*
X1498185Y1426508D01*
X1498524Y1426728D01*
X1498863Y1426508D01*
X1499609Y1425761D01*
X1500851Y1425044D01*
X1502236Y1424673D01*
X1503670D01*
X1505054Y1425044D01*
X1506296Y1425761D01*
X1507043Y1426508D01*
X1507382Y1426728D01*
X1507721Y1426508D01*
X1508468Y1425761D01*
X1509709Y1425044D01*
X1511094Y1424673D01*
X1512528D01*
X1513913Y1425044D01*
X1515154Y1425761D01*
X1515901Y1426508D01*
X1516240Y1426728D01*
X1516579Y1426508D01*
X1517326Y1425761D01*
X1518568Y1425044D01*
X1519952Y1424673D01*
X1521386D01*
X1522771Y1425044D01*
X1524012Y1425761D01*
X1524759Y1426508D01*
X1525098Y1426728D01*
X1525437Y1426508D01*
X1526184Y1425761D01*
X1527426Y1425044D01*
X1528811Y1424673D01*
X1530244D01*
X1531629Y1425044D01*
X1532871Y1425761D01*
X1533618Y1426508D01*
X1533957Y1426728D01*
X1534296Y1426508D01*
X1535043Y1425761D01*
X1536284Y1425044D01*
X1537669Y1424673D01*
X1539103D01*
X1540487Y1425044D01*
X1541729Y1425761D01*
X1542743Y1426775D01*
X1543460Y1428016D01*
X1543831Y1429401D01*
Y1430835D01*
X1543460Y1432220D01*
X1542743Y1433461D01*
X1541729Y1434475D01*
X1540487Y1435192D01*
X1539103Y1435563D01*
D02*
G37*
G36*
X1751052Y1421784D02*
X1749618D01*
X1748233Y1421412D01*
X1746991Y1420696D01*
X1746244Y1419949D01*
X1745905Y1419729D01*
X1745567Y1419949D01*
X1744820Y1420696D01*
X1743578Y1421412D01*
X1742193Y1421784D01*
X1740759D01*
X1739375Y1421412D01*
X1738133Y1420696D01*
X1737386Y1419949D01*
X1737047Y1419729D01*
X1736708Y1419949D01*
X1735961Y1420696D01*
X1734720Y1421412D01*
X1733335Y1421784D01*
X1731901D01*
X1730516Y1421412D01*
X1729275Y1420696D01*
X1728528Y1419949D01*
X1728189Y1419729D01*
X1727850Y1419949D01*
X1727103Y1420696D01*
X1725862Y1421412D01*
X1724477Y1421784D01*
X1723043D01*
X1721658Y1421412D01*
X1720417Y1420696D01*
X1719670Y1419949D01*
X1719331Y1419729D01*
X1718992Y1419949D01*
X1718245Y1420696D01*
X1717003Y1421412D01*
X1715618Y1421784D01*
X1714185D01*
X1712800Y1421412D01*
X1711558Y1420696D01*
X1710811Y1419949D01*
X1710472Y1419729D01*
X1710134Y1419949D01*
X1709386Y1420696D01*
X1708145Y1421412D01*
X1706760Y1421784D01*
X1705326D01*
X1703942Y1421412D01*
X1702700Y1420696D01*
X1701686Y1419682D01*
X1700970Y1418440D01*
X1700598Y1417055D01*
Y1415622D01*
X1700970Y1414237D01*
X1701686Y1412995D01*
X1702700Y1411982D01*
X1703942Y1411265D01*
X1705326Y1410894D01*
X1706760D01*
X1708145Y1411265D01*
X1709386Y1411982D01*
X1710134Y1412729D01*
X1710472Y1412949D01*
X1710811Y1412729D01*
X1711558Y1411982D01*
X1712800Y1411265D01*
X1714185Y1410894D01*
X1715618D01*
X1717003Y1411265D01*
X1718245Y1411982D01*
X1718992Y1412729D01*
X1719331Y1412949D01*
X1719670Y1412729D01*
X1720417Y1411982D01*
X1721658Y1411265D01*
X1723043Y1410894D01*
X1724477D01*
X1725862Y1411265D01*
X1727103Y1411982D01*
X1727850Y1412729D01*
X1728189Y1412949D01*
X1728528Y1412729D01*
X1729275Y1411982D01*
X1730516Y1411265D01*
X1731901Y1410894D01*
X1733335D01*
X1734720Y1411265D01*
X1735961Y1411982D01*
X1736708Y1412729D01*
X1737047Y1412949D01*
X1737386Y1412729D01*
X1738133Y1411982D01*
X1739375Y1411265D01*
X1740759Y1410894D01*
X1742193D01*
X1743578Y1411265D01*
X1744820Y1411982D01*
X1745567Y1412729D01*
X1745905Y1412949D01*
X1746244Y1412729D01*
X1746991Y1411982D01*
X1748233Y1411265D01*
X1749618Y1410894D01*
X1751052D01*
X1752436Y1411265D01*
X1753678Y1411982D01*
X1754692Y1412995D01*
X1755408Y1414237D01*
X1755779Y1415622D01*
Y1417055D01*
X1755408Y1418440D01*
X1754692Y1419682D01*
X1753678Y1420696D01*
X1752436Y1421412D01*
X1751052Y1421784D01*
D02*
G37*
G36*
X1645077D02*
X1643643D01*
X1642259Y1421412D01*
X1641017Y1420696D01*
X1640270Y1419949D01*
X1639931Y1419729D01*
X1639592Y1419949D01*
X1638845Y1420696D01*
X1637604Y1421412D01*
X1636219Y1421784D01*
X1634785D01*
X1633400Y1421412D01*
X1632159Y1420696D01*
X1631412Y1419949D01*
X1631073Y1419729D01*
X1630734Y1419949D01*
X1629987Y1420696D01*
X1628745Y1421412D01*
X1627361Y1421784D01*
X1625927D01*
X1624542Y1421412D01*
X1623301Y1420696D01*
X1622553Y1419949D01*
X1622215Y1419729D01*
X1621876Y1419949D01*
X1621129Y1420696D01*
X1619887Y1421412D01*
X1618502Y1421784D01*
X1617069D01*
X1615684Y1421412D01*
X1614442Y1420696D01*
X1613695Y1419949D01*
X1613356Y1419729D01*
X1613017Y1419949D01*
X1612270Y1420696D01*
X1611029Y1421412D01*
X1609644Y1421784D01*
X1608210D01*
X1606825Y1421412D01*
X1605584Y1420696D01*
X1604837Y1419949D01*
X1604498Y1419729D01*
X1604159Y1419949D01*
X1603412Y1420696D01*
X1602171Y1421412D01*
X1600786Y1421784D01*
X1599352D01*
X1597967Y1421412D01*
X1596726Y1420696D01*
X1595712Y1419682D01*
X1594995Y1418440D01*
X1594624Y1417055D01*
Y1415622D01*
X1594995Y1414237D01*
X1595712Y1412995D01*
X1596726Y1411982D01*
X1597967Y1411265D01*
X1599352Y1410894D01*
X1600786D01*
X1602171Y1411265D01*
X1603412Y1411982D01*
X1604159Y1412729D01*
X1604498Y1412949D01*
X1604837Y1412729D01*
X1605584Y1411982D01*
X1606825Y1411265D01*
X1608210Y1410894D01*
X1609644D01*
X1611029Y1411265D01*
X1612270Y1411982D01*
X1613017Y1412729D01*
X1613356Y1412949D01*
X1613695Y1412729D01*
X1614442Y1411982D01*
X1615684Y1411265D01*
X1617069Y1410894D01*
X1618502D01*
X1619887Y1411265D01*
X1621129Y1411982D01*
X1621876Y1412729D01*
X1622215Y1412949D01*
X1622553Y1412729D01*
X1623301Y1411982D01*
X1624542Y1411265D01*
X1625927Y1410894D01*
X1627361D01*
X1628745Y1411265D01*
X1629987Y1411982D01*
X1630734Y1412729D01*
X1631073Y1412949D01*
X1631412Y1412729D01*
X1632159Y1411982D01*
X1633400Y1411265D01*
X1634785Y1410894D01*
X1636219D01*
X1637604Y1411265D01*
X1638845Y1411982D01*
X1639592Y1412729D01*
X1639931Y1412949D01*
X1640270Y1412729D01*
X1641017Y1411982D01*
X1642259Y1411265D01*
X1643643Y1410894D01*
X1645077D01*
X1646462Y1411265D01*
X1647704Y1411982D01*
X1648717Y1412995D01*
X1649434Y1414237D01*
X1649805Y1415622D01*
Y1417055D01*
X1649434Y1418440D01*
X1648717Y1419682D01*
X1647704Y1420696D01*
X1646462Y1421412D01*
X1645077Y1421784D01*
D02*
G37*
G36*
X1539103D02*
X1537669D01*
X1536284Y1421412D01*
X1535043Y1420696D01*
X1534296Y1419949D01*
X1533957Y1419729D01*
X1533618Y1419949D01*
X1532871Y1420696D01*
X1531629Y1421412D01*
X1530244Y1421784D01*
X1528811D01*
X1527426Y1421412D01*
X1526184Y1420696D01*
X1525437Y1419949D01*
X1525098Y1419729D01*
X1524759Y1419949D01*
X1524012Y1420696D01*
X1522771Y1421412D01*
X1521386Y1421784D01*
X1519952D01*
X1518568Y1421412D01*
X1517326Y1420696D01*
X1516579Y1419949D01*
X1516240Y1419729D01*
X1515901Y1419949D01*
X1515154Y1420696D01*
X1513913Y1421412D01*
X1512528Y1421784D01*
X1511094D01*
X1509709Y1421412D01*
X1508468Y1420696D01*
X1507721Y1419949D01*
X1507382Y1419729D01*
X1507043Y1419949D01*
X1506296Y1420696D01*
X1505054Y1421412D01*
X1503670Y1421784D01*
X1502236D01*
X1500851Y1421412D01*
X1499609Y1420696D01*
X1498863Y1419949D01*
X1498524Y1419729D01*
X1498185Y1419949D01*
X1497438Y1420696D01*
X1496196Y1421412D01*
X1494811Y1421784D01*
X1493378D01*
X1491993Y1421412D01*
X1490751Y1420696D01*
X1489738Y1419682D01*
X1489021Y1418440D01*
X1488650Y1417055D01*
Y1415622D01*
X1489021Y1414237D01*
X1489738Y1412995D01*
X1490751Y1411982D01*
X1491993Y1411265D01*
X1493378Y1410894D01*
X1494811D01*
X1496196Y1411265D01*
X1497438Y1411982D01*
X1498185Y1412729D01*
X1498524Y1412949D01*
X1498863Y1412729D01*
X1499609Y1411982D01*
X1500851Y1411265D01*
X1502236Y1410894D01*
X1503670D01*
X1505054Y1411265D01*
X1506296Y1411982D01*
X1507043Y1412729D01*
X1507382Y1412949D01*
X1507721Y1412729D01*
X1508468Y1411982D01*
X1509709Y1411265D01*
X1511094Y1410894D01*
X1512528D01*
X1513913Y1411265D01*
X1515154Y1411982D01*
X1515901Y1412729D01*
X1516240Y1412949D01*
X1516579Y1412729D01*
X1517326Y1411982D01*
X1518568Y1411265D01*
X1519952Y1410894D01*
X1521386D01*
X1522771Y1411265D01*
X1524012Y1411982D01*
X1524759Y1412729D01*
X1525098Y1412949D01*
X1525437Y1412729D01*
X1526184Y1411982D01*
X1527426Y1411265D01*
X1528811Y1410894D01*
X1530244D01*
X1531629Y1411265D01*
X1532871Y1411982D01*
X1533618Y1412729D01*
X1533957Y1412949D01*
X1534296Y1412729D01*
X1535043Y1411982D01*
X1536284Y1411265D01*
X1537669Y1410894D01*
X1539103D01*
X1540487Y1411265D01*
X1541729Y1411982D01*
X1542743Y1412995D01*
X1543460Y1414237D01*
X1543831Y1415622D01*
Y1417055D01*
X1543460Y1418440D01*
X1542743Y1419682D01*
X1541729Y1420696D01*
X1540487Y1421412D01*
X1539103Y1421784D01*
D02*
G37*
G36*
X1746673Y1397150D02*
X1745156Y1397000D01*
X1743696Y1396558D01*
X1742351Y1395839D01*
X1741172Y1394871D01*
X1740205Y1393692D01*
X1739486Y1392347D01*
X1739043Y1390888D01*
X1738894Y1389370D01*
X1739043Y1387852D01*
X1739486Y1386393D01*
X1740205Y1385048D01*
X1741172Y1383869D01*
X1742351Y1382902D01*
X1743696Y1382183D01*
X1745156Y1381740D01*
X1746673Y1381590D01*
X1748191Y1381740D01*
X1749650Y1382183D01*
X1750995Y1382902D01*
X1752174Y1383869D01*
X1753142Y1385048D01*
X1753861Y1386393D01*
X1754303Y1387852D01*
X1754453Y1389370D01*
X1754303Y1390888D01*
X1753861Y1392347D01*
X1753142Y1393692D01*
X1752174Y1394871D01*
X1750995Y1395839D01*
X1749650Y1396558D01*
X1748191Y1397000D01*
X1746673Y1397150D01*
D02*
G37*
G36*
X1640699D02*
X1639181Y1397000D01*
X1637722Y1396558D01*
X1636377Y1395839D01*
X1635198Y1394871D01*
X1634230Y1393692D01*
X1633511Y1392347D01*
X1633069Y1390888D01*
X1632919Y1389370D01*
X1633069Y1387852D01*
X1633511Y1386393D01*
X1634230Y1385048D01*
X1635198Y1383869D01*
X1636377Y1382902D01*
X1637722Y1382183D01*
X1639181Y1381740D01*
X1640699Y1381590D01*
X1642216Y1381740D01*
X1643676Y1382183D01*
X1645021Y1382902D01*
X1646200Y1383869D01*
X1647167Y1385048D01*
X1647886Y1386393D01*
X1648329Y1387852D01*
X1648478Y1389370D01*
X1648329Y1390888D01*
X1647886Y1392347D01*
X1647167Y1393692D01*
X1646200Y1394871D01*
X1645021Y1395839D01*
X1643676Y1396558D01*
X1642216Y1397000D01*
X1640699Y1397150D01*
D02*
G37*
G36*
X1534724D02*
X1533207Y1397000D01*
X1531747Y1396558D01*
X1530402Y1395839D01*
X1529223Y1394871D01*
X1528256Y1393692D01*
X1527537Y1392347D01*
X1527094Y1390888D01*
X1526945Y1389370D01*
X1527094Y1387852D01*
X1527537Y1386393D01*
X1528256Y1385048D01*
X1529223Y1383869D01*
X1530402Y1382902D01*
X1531747Y1382183D01*
X1533207Y1381740D01*
X1534724Y1381590D01*
X1536242Y1381740D01*
X1537702Y1382183D01*
X1539046Y1382902D01*
X1540225Y1383869D01*
X1541193Y1385048D01*
X1541912Y1386393D01*
X1542354Y1387852D01*
X1542504Y1389370D01*
X1542354Y1390888D01*
X1541912Y1392347D01*
X1541193Y1393692D01*
X1540225Y1394871D01*
X1539046Y1395839D01*
X1537702Y1396558D01*
X1536242Y1397000D01*
X1534724Y1397150D01*
D02*
G37*
G36*
X1380249Y1379934D02*
X1378013D01*
X1375805Y1379584D01*
X1373678Y1378893D01*
X1371686Y1377878D01*
X1369877Y1376564D01*
X1368296Y1374983D01*
X1366982Y1373174D01*
X1365967Y1371182D01*
X1365276Y1369055D01*
X1364926Y1366847D01*
Y1364611D01*
X1365276Y1362403D01*
X1365967Y1360276D01*
X1366982Y1358284D01*
X1368296Y1356475D01*
X1369877Y1354894D01*
X1371686Y1353580D01*
X1373678Y1352565D01*
X1375551Y1351956D01*
Y1351431D01*
X1373678Y1350822D01*
X1371686Y1349807D01*
X1369877Y1348493D01*
X1368296Y1346912D01*
X1366982Y1345103D01*
X1365967Y1343111D01*
X1365276Y1340984D01*
X1364926Y1338776D01*
Y1336540D01*
X1365276Y1334332D01*
X1365967Y1332205D01*
X1366982Y1330213D01*
X1368296Y1328404D01*
X1369877Y1326823D01*
X1371686Y1325509D01*
X1373678Y1324494D01*
X1375805Y1323803D01*
X1378013Y1323453D01*
X1380249D01*
X1382457Y1323803D01*
X1384583Y1324494D01*
X1386576Y1325509D01*
X1388385Y1326823D01*
X1389966Y1328404D01*
X1391280Y1330213D01*
X1392295Y1332205D01*
X1392986Y1334332D01*
X1393336Y1336540D01*
Y1338776D01*
X1392986Y1340984D01*
X1392295Y1343111D01*
X1391280Y1345103D01*
X1389966Y1346912D01*
X1388385Y1348493D01*
X1386576Y1349807D01*
X1384583Y1350822D01*
X1382711Y1351431D01*
Y1351956D01*
X1384583Y1352565D01*
X1386576Y1353580D01*
X1388385Y1354894D01*
X1389966Y1356475D01*
X1391280Y1358284D01*
X1392295Y1360276D01*
X1392986Y1362403D01*
X1393336Y1364611D01*
Y1366847D01*
X1392986Y1369055D01*
X1392295Y1371182D01*
X1391280Y1373174D01*
X1389966Y1374983D01*
X1388385Y1376564D01*
X1386576Y1377878D01*
X1384583Y1378893D01*
X1382457Y1379584D01*
X1380249Y1379934D01*
D02*
G37*
G36*
X1295770D02*
X1293534D01*
X1291325Y1379584D01*
X1289199Y1378893D01*
X1287207Y1377878D01*
X1285398Y1376564D01*
X1283817Y1374983D01*
X1282503Y1373174D01*
X1281488Y1371182D01*
X1280797Y1369055D01*
X1280447Y1366847D01*
Y1364611D01*
X1280797Y1362403D01*
X1281488Y1360276D01*
X1282503Y1358284D01*
X1283817Y1356475D01*
X1285398Y1354894D01*
X1287207Y1353580D01*
X1289199Y1352565D01*
X1291072Y1351956D01*
Y1351431D01*
X1289199Y1350822D01*
X1287207Y1349807D01*
X1285398Y1348493D01*
X1283817Y1346912D01*
X1282503Y1345103D01*
X1281488Y1343111D01*
X1280797Y1340984D01*
X1280447Y1338776D01*
Y1336540D01*
X1280797Y1334332D01*
X1281488Y1332205D01*
X1282503Y1330213D01*
X1283817Y1328404D01*
X1285398Y1326823D01*
X1287207Y1325509D01*
X1289199Y1324494D01*
X1291325Y1323803D01*
X1293534Y1323453D01*
X1295770D01*
X1297978Y1323803D01*
X1300105Y1324494D01*
X1302097Y1325509D01*
X1303905Y1326823D01*
X1305486Y1328404D01*
X1306801Y1330213D01*
X1307816Y1332205D01*
X1308507Y1334332D01*
X1308856Y1336540D01*
Y1338776D01*
X1308507Y1340984D01*
X1307816Y1343111D01*
X1306801Y1345103D01*
X1305486Y1346912D01*
X1303905Y1348493D01*
X1302097Y1349807D01*
X1300105Y1350822D01*
X1298232Y1351431D01*
Y1351956D01*
X1300105Y1352565D01*
X1302097Y1353580D01*
X1303905Y1354894D01*
X1305486Y1356475D01*
X1306801Y1358284D01*
X1307816Y1360276D01*
X1308507Y1362403D01*
X1308856Y1364611D01*
Y1366847D01*
X1308507Y1369055D01*
X1307816Y1371182D01*
X1306801Y1373174D01*
X1305486Y1374983D01*
X1303905Y1376564D01*
X1302097Y1377878D01*
X1300105Y1378893D01*
X1297978Y1379584D01*
X1295770Y1379934D01*
D02*
G37*
G36*
X1211084D02*
X1208848D01*
X1206639Y1379584D01*
X1204513Y1378893D01*
X1202521Y1377878D01*
X1200712Y1376564D01*
X1199131Y1374983D01*
X1197817Y1373174D01*
X1196802Y1371182D01*
X1196111Y1369055D01*
X1195761Y1366847D01*
Y1364611D01*
X1196111Y1362403D01*
X1196802Y1360276D01*
X1197817Y1358284D01*
X1199131Y1356475D01*
X1200712Y1354894D01*
X1202521Y1353580D01*
X1204513Y1352565D01*
X1206386Y1351956D01*
Y1351431D01*
X1204513Y1350822D01*
X1202521Y1349807D01*
X1200712Y1348493D01*
X1199131Y1346912D01*
X1197817Y1345103D01*
X1196802Y1343111D01*
X1196111Y1340984D01*
X1195761Y1338776D01*
Y1336540D01*
X1196111Y1334332D01*
X1196802Y1332205D01*
X1197817Y1330213D01*
X1199131Y1328404D01*
X1200712Y1326823D01*
X1202521Y1325509D01*
X1204513Y1324494D01*
X1206639Y1323803D01*
X1208848Y1323453D01*
X1211084D01*
X1213292Y1323803D01*
X1215419Y1324494D01*
X1217411Y1325509D01*
X1219220Y1326823D01*
X1220801Y1328404D01*
X1222115Y1330213D01*
X1223130Y1332205D01*
X1223821Y1334332D01*
X1224170Y1336540D01*
Y1338776D01*
X1223821Y1340984D01*
X1223130Y1343111D01*
X1222115Y1345103D01*
X1220801Y1346912D01*
X1219220Y1348493D01*
X1217411Y1349807D01*
X1215419Y1350822D01*
X1213546Y1351431D01*
Y1351956D01*
X1215419Y1352565D01*
X1217411Y1353580D01*
X1219220Y1354894D01*
X1220801Y1356475D01*
X1222115Y1358284D01*
X1223130Y1360276D01*
X1223821Y1362403D01*
X1224170Y1364611D01*
Y1366847D01*
X1223821Y1369055D01*
X1223130Y1371182D01*
X1222115Y1373174D01*
X1220801Y1374983D01*
X1219220Y1376564D01*
X1217411Y1377878D01*
X1215419Y1378893D01*
X1213292Y1379584D01*
X1211084Y1379934D01*
D02*
G37*
G36*
X1126812D02*
X1124576D01*
X1122368Y1379584D01*
X1120241Y1378893D01*
X1118249Y1377878D01*
X1116440Y1376564D01*
X1114859Y1374983D01*
X1113545Y1373174D01*
X1112530Y1371182D01*
X1111839Y1369055D01*
X1111489Y1366847D01*
Y1364611D01*
X1111839Y1362403D01*
X1112530Y1360276D01*
X1113545Y1358284D01*
X1114859Y1356475D01*
X1116440Y1354894D01*
X1118249Y1353580D01*
X1120241Y1352565D01*
X1122114Y1351956D01*
Y1351431D01*
X1120241Y1350822D01*
X1118249Y1349807D01*
X1116440Y1348493D01*
X1114859Y1346912D01*
X1113545Y1345103D01*
X1112530Y1343111D01*
X1111839Y1340984D01*
X1111489Y1338776D01*
Y1336540D01*
X1111839Y1334332D01*
X1112530Y1332205D01*
X1113545Y1330213D01*
X1114859Y1328404D01*
X1116440Y1326823D01*
X1118249Y1325509D01*
X1120241Y1324494D01*
X1122368Y1323803D01*
X1124576Y1323453D01*
X1126812D01*
X1129020Y1323803D01*
X1131147Y1324494D01*
X1133139Y1325509D01*
X1134948Y1326823D01*
X1136529Y1328404D01*
X1137843Y1330213D01*
X1138858Y1332205D01*
X1139549Y1334332D01*
X1139899Y1336540D01*
Y1338776D01*
X1139549Y1340984D01*
X1138858Y1343111D01*
X1137843Y1345103D01*
X1136529Y1346912D01*
X1134948Y1348493D01*
X1133139Y1349807D01*
X1131147Y1350822D01*
X1129274Y1351431D01*
Y1351956D01*
X1131147Y1352565D01*
X1133139Y1353580D01*
X1134948Y1354894D01*
X1136529Y1356475D01*
X1137843Y1358284D01*
X1138858Y1360276D01*
X1139549Y1362403D01*
X1139899Y1364611D01*
Y1366847D01*
X1139549Y1369055D01*
X1138858Y1371182D01*
X1137843Y1373174D01*
X1136529Y1374983D01*
X1134948Y1376564D01*
X1133139Y1377878D01*
X1131147Y1378893D01*
X1129020Y1379584D01*
X1126812Y1379934D01*
D02*
G37*
G36*
X1042954D02*
X1040718D01*
X1038510Y1379584D01*
X1036383Y1378893D01*
X1034391Y1377878D01*
X1032582Y1376564D01*
X1031001Y1374983D01*
X1029687Y1373174D01*
X1028672Y1371182D01*
X1027981Y1369055D01*
X1027631Y1366847D01*
Y1364611D01*
X1027981Y1362403D01*
X1028672Y1360276D01*
X1029687Y1358284D01*
X1031001Y1356475D01*
X1032582Y1354894D01*
X1034391Y1353580D01*
X1036383Y1352565D01*
X1038256Y1351956D01*
Y1351431D01*
X1036383Y1350822D01*
X1034391Y1349807D01*
X1032582Y1348493D01*
X1031001Y1346912D01*
X1029687Y1345103D01*
X1028672Y1343111D01*
X1027981Y1340984D01*
X1027631Y1338776D01*
Y1336540D01*
X1027981Y1334332D01*
X1028672Y1332205D01*
X1029687Y1330213D01*
X1031001Y1328404D01*
X1032582Y1326823D01*
X1034391Y1325509D01*
X1036383Y1324494D01*
X1038510Y1323803D01*
X1040718Y1323453D01*
X1042954D01*
X1045162Y1323803D01*
X1047289Y1324494D01*
X1049281Y1325509D01*
X1051090Y1326823D01*
X1052671Y1328404D01*
X1053985Y1330213D01*
X1055000Y1332205D01*
X1055691Y1334332D01*
X1056041Y1336540D01*
Y1338776D01*
X1055691Y1340984D01*
X1055000Y1343111D01*
X1053985Y1345103D01*
X1052671Y1346912D01*
X1051090Y1348493D01*
X1049281Y1349807D01*
X1047289Y1350822D01*
X1045416Y1351431D01*
Y1351956D01*
X1047289Y1352565D01*
X1049281Y1353580D01*
X1051090Y1354894D01*
X1052671Y1356475D01*
X1053985Y1358284D01*
X1055000Y1360276D01*
X1055691Y1362403D01*
X1056041Y1364611D01*
Y1366847D01*
X1055691Y1369055D01*
X1055000Y1371182D01*
X1053985Y1373174D01*
X1052671Y1374983D01*
X1051090Y1376564D01*
X1049281Y1377878D01*
X1047289Y1378893D01*
X1045162Y1379584D01*
X1042954Y1379934D01*
D02*
G37*
G36*
X958475D02*
X956239D01*
X954031Y1379584D01*
X951904Y1378893D01*
X949912Y1377878D01*
X948103Y1376564D01*
X946522Y1374983D01*
X945208Y1373174D01*
X944193Y1371182D01*
X943502Y1369055D01*
X943152Y1366847D01*
Y1364611D01*
X943502Y1362403D01*
X944193Y1360276D01*
X945208Y1358284D01*
X946522Y1356475D01*
X948103Y1354894D01*
X949912Y1353580D01*
X951904Y1352565D01*
X953777Y1351956D01*
Y1351431D01*
X951904Y1350822D01*
X949912Y1349807D01*
X948103Y1348493D01*
X946522Y1346912D01*
X945208Y1345103D01*
X944193Y1343111D01*
X943502Y1340984D01*
X943152Y1338776D01*
Y1336540D01*
X943502Y1334332D01*
X944193Y1332205D01*
X945208Y1330213D01*
X946522Y1328404D01*
X948103Y1326823D01*
X949912Y1325509D01*
X951904Y1324494D01*
X954031Y1323803D01*
X956239Y1323453D01*
X958475D01*
X960683Y1323803D01*
X962810Y1324494D01*
X964802Y1325509D01*
X966611Y1326823D01*
X968192Y1328404D01*
X969506Y1330213D01*
X970521Y1332205D01*
X971212Y1334332D01*
X971562Y1336540D01*
Y1338776D01*
X971212Y1340984D01*
X970521Y1343111D01*
X969506Y1345103D01*
X968192Y1346912D01*
X966611Y1348493D01*
X964802Y1349807D01*
X962810Y1350822D01*
X960937Y1351431D01*
Y1351956D01*
X962810Y1352565D01*
X964802Y1353580D01*
X966611Y1354894D01*
X968192Y1356475D01*
X969506Y1358284D01*
X970521Y1360276D01*
X971212Y1362403D01*
X971562Y1364611D01*
Y1366847D01*
X971212Y1369055D01*
X970521Y1371182D01*
X969506Y1373174D01*
X968192Y1374983D01*
X966611Y1376564D01*
X964802Y1377878D01*
X962810Y1378893D01*
X960683Y1379584D01*
X958475Y1379934D01*
D02*
G37*
G36*
X873996D02*
X871760D01*
X869552Y1379584D01*
X867426Y1378893D01*
X865433Y1377878D01*
X863624Y1376564D01*
X862043Y1374983D01*
X860729Y1373174D01*
X859714Y1371182D01*
X859023Y1369055D01*
X858673Y1366847D01*
Y1364611D01*
X859023Y1362403D01*
X859714Y1360276D01*
X860729Y1358284D01*
X862043Y1356475D01*
X863624Y1354894D01*
X865433Y1353580D01*
X867426Y1352565D01*
X869298Y1351956D01*
Y1351431D01*
X867426Y1350822D01*
X865433Y1349807D01*
X863624Y1348493D01*
X862043Y1346912D01*
X860729Y1345103D01*
X859714Y1343111D01*
X859023Y1340984D01*
X858673Y1338776D01*
Y1336540D01*
X859023Y1334332D01*
X859714Y1332205D01*
X860729Y1330213D01*
X862043Y1328404D01*
X863624Y1326823D01*
X865433Y1325509D01*
X867426Y1324494D01*
X869552Y1323803D01*
X871760Y1323453D01*
X873996D01*
X876204Y1323803D01*
X878331Y1324494D01*
X880323Y1325509D01*
X882132Y1326823D01*
X883713Y1328404D01*
X885027Y1330213D01*
X886042Y1332205D01*
X886733Y1334332D01*
X887083Y1336540D01*
Y1338776D01*
X886733Y1340984D01*
X886042Y1343111D01*
X885027Y1345103D01*
X883713Y1346912D01*
X882132Y1348493D01*
X880323Y1349807D01*
X878331Y1350822D01*
X876458Y1351431D01*
Y1351956D01*
X878331Y1352565D01*
X880323Y1353580D01*
X882132Y1354894D01*
X883713Y1356475D01*
X885027Y1358284D01*
X886042Y1360276D01*
X886733Y1362403D01*
X887083Y1364611D01*
Y1366847D01*
X886733Y1369055D01*
X886042Y1371182D01*
X885027Y1373174D01*
X883713Y1374983D01*
X882132Y1376564D01*
X880323Y1377878D01*
X878331Y1378893D01*
X876204Y1379584D01*
X873996Y1379934D01*
D02*
G37*
G36*
X790437D02*
X788201D01*
X785993Y1379584D01*
X783867Y1378893D01*
X781874Y1377878D01*
X780066Y1376564D01*
X778485Y1374983D01*
X777170Y1373174D01*
X776155Y1371182D01*
X775464Y1369055D01*
X775115Y1366847D01*
Y1364611D01*
X775464Y1362403D01*
X776155Y1360276D01*
X777170Y1358284D01*
X778485Y1356475D01*
X780066Y1354894D01*
X781874Y1353580D01*
X783867Y1352565D01*
X785740Y1351956D01*
Y1351431D01*
X783867Y1350822D01*
X781874Y1349807D01*
X780066Y1348493D01*
X778485Y1346912D01*
X777170Y1345103D01*
X776155Y1343111D01*
X775464Y1340984D01*
X775115Y1338776D01*
Y1336540D01*
X775464Y1334332D01*
X776155Y1332205D01*
X777170Y1330213D01*
X778485Y1328404D01*
X780066Y1326823D01*
X781874Y1325509D01*
X783867Y1324494D01*
X785993Y1323803D01*
X788201Y1323453D01*
X790437D01*
X792646Y1323803D01*
X794772Y1324494D01*
X796764Y1325509D01*
X798573Y1326823D01*
X800154Y1328404D01*
X801468Y1330213D01*
X802483Y1332205D01*
X803174Y1334332D01*
X803524Y1336540D01*
Y1338776D01*
X803174Y1340984D01*
X802483Y1343111D01*
X801468Y1345103D01*
X800154Y1346912D01*
X798573Y1348493D01*
X796764Y1349807D01*
X794772Y1350822D01*
X792899Y1351431D01*
Y1351956D01*
X794772Y1352565D01*
X796764Y1353580D01*
X798573Y1354894D01*
X800154Y1356475D01*
X801468Y1358284D01*
X802483Y1360276D01*
X803174Y1362403D01*
X803524Y1364611D01*
Y1366847D01*
X803174Y1369055D01*
X802483Y1371182D01*
X801468Y1373174D01*
X800154Y1374983D01*
X798573Y1376564D01*
X796764Y1377878D01*
X794772Y1378893D01*
X792646Y1379584D01*
X790437Y1379934D01*
D02*
G37*
G36*
X1729464Y1309480D02*
X1727229D01*
X1725020Y1309130D01*
X1722894Y1308440D01*
X1720902Y1307425D01*
X1719093Y1306110D01*
X1717512Y1304529D01*
X1716198Y1302721D01*
X1715182Y1300728D01*
X1714491Y1298602D01*
X1714142Y1296393D01*
Y1294158D01*
X1714491Y1291949D01*
X1715182Y1289823D01*
X1716198Y1287831D01*
X1717512Y1286022D01*
X1719093Y1284441D01*
X1720902Y1283127D01*
X1722894Y1282112D01*
X1724767Y1281503D01*
Y1280977D01*
X1722894Y1280369D01*
X1720902Y1279354D01*
X1719093Y1278039D01*
X1717512Y1276458D01*
X1716198Y1274650D01*
X1715182Y1272657D01*
X1714491Y1270531D01*
X1714142Y1268323D01*
Y1266087D01*
X1714491Y1263878D01*
X1715182Y1261752D01*
X1716198Y1259760D01*
X1717512Y1257951D01*
X1719093Y1256370D01*
X1720902Y1255056D01*
X1722894Y1254041D01*
X1725020Y1253350D01*
X1727229Y1253000D01*
X1729464D01*
X1731673Y1253350D01*
X1733799Y1254041D01*
X1735791Y1255056D01*
X1737600Y1256370D01*
X1739181Y1257951D01*
X1740495Y1259760D01*
X1741511Y1261752D01*
X1742201Y1263878D01*
X1742551Y1266087D01*
Y1268323D01*
X1742201Y1270531D01*
X1741511Y1272657D01*
X1740495Y1274650D01*
X1739181Y1276458D01*
X1737600Y1278039D01*
X1735791Y1279354D01*
X1733799Y1280369D01*
X1731926Y1280977D01*
Y1281503D01*
X1733799Y1282112D01*
X1735791Y1283127D01*
X1737600Y1284441D01*
X1739181Y1286022D01*
X1740495Y1287831D01*
X1741511Y1289823D01*
X1742201Y1291949D01*
X1742551Y1294158D01*
Y1296393D01*
X1742201Y1298602D01*
X1741511Y1300728D01*
X1740495Y1302721D01*
X1739181Y1304529D01*
X1737600Y1306110D01*
X1735791Y1307425D01*
X1733799Y1308440D01*
X1731673Y1309130D01*
X1729464Y1309480D01*
D02*
G37*
G36*
X1623165D02*
X1620929D01*
X1618721Y1309130D01*
X1616595Y1308440D01*
X1614602Y1307425D01*
X1612794Y1306110D01*
X1611213Y1304529D01*
X1609898Y1302721D01*
X1608883Y1300728D01*
X1608192Y1298602D01*
X1607842Y1296393D01*
Y1294158D01*
X1608192Y1291949D01*
X1608883Y1289823D01*
X1609898Y1287831D01*
X1611213Y1286022D01*
X1612794Y1284441D01*
X1614602Y1283127D01*
X1616595Y1282112D01*
X1618467Y1281503D01*
Y1280977D01*
X1616595Y1280369D01*
X1614602Y1279354D01*
X1612794Y1278039D01*
X1611213Y1276458D01*
X1609898Y1274650D01*
X1608883Y1272657D01*
X1608192Y1270531D01*
X1607842Y1268323D01*
Y1266087D01*
X1608192Y1263878D01*
X1608883Y1261752D01*
X1609898Y1259760D01*
X1611213Y1257951D01*
X1612794Y1256370D01*
X1614602Y1255056D01*
X1616595Y1254041D01*
X1618721Y1253350D01*
X1620929Y1253000D01*
X1623165D01*
X1625373Y1253350D01*
X1627500Y1254041D01*
X1629492Y1255056D01*
X1631301Y1256370D01*
X1632882Y1257951D01*
X1634196Y1259760D01*
X1635211Y1261752D01*
X1635902Y1263878D01*
X1636252Y1266087D01*
Y1268323D01*
X1635902Y1270531D01*
X1635211Y1272657D01*
X1634196Y1274650D01*
X1632882Y1276458D01*
X1631301Y1278039D01*
X1629492Y1279354D01*
X1627500Y1280369D01*
X1625627Y1280977D01*
Y1281503D01*
X1627500Y1282112D01*
X1629492Y1283127D01*
X1631301Y1284441D01*
X1632882Y1286022D01*
X1634196Y1287831D01*
X1635211Y1289823D01*
X1635902Y1291949D01*
X1636252Y1294158D01*
Y1296393D01*
X1635902Y1298602D01*
X1635211Y1300728D01*
X1634196Y1302721D01*
X1632882Y1304529D01*
X1631301Y1306110D01*
X1629492Y1307425D01*
X1627500Y1308440D01*
X1625373Y1309130D01*
X1623165Y1309480D01*
D02*
G37*
G36*
X1516866D02*
X1514630D01*
X1512422Y1309130D01*
X1510295Y1308440D01*
X1508303Y1307425D01*
X1506494Y1306110D01*
X1504913Y1304529D01*
X1503599Y1302721D01*
X1502584Y1300728D01*
X1501893Y1298602D01*
X1501543Y1296393D01*
Y1294158D01*
X1501893Y1291949D01*
X1502584Y1289823D01*
X1503599Y1287831D01*
X1504913Y1286022D01*
X1506494Y1284441D01*
X1508303Y1283127D01*
X1510295Y1282112D01*
X1512168Y1281503D01*
Y1280977D01*
X1510295Y1280369D01*
X1508303Y1279354D01*
X1506494Y1278039D01*
X1504913Y1276458D01*
X1503599Y1274650D01*
X1502584Y1272657D01*
X1501893Y1270531D01*
X1501543Y1268323D01*
Y1266087D01*
X1501893Y1263878D01*
X1502584Y1261752D01*
X1503599Y1259760D01*
X1504913Y1257951D01*
X1506494Y1256370D01*
X1508303Y1255056D01*
X1510295Y1254041D01*
X1512422Y1253350D01*
X1514630Y1253000D01*
X1516866D01*
X1519074Y1253350D01*
X1521201Y1254041D01*
X1523193Y1255056D01*
X1525002Y1256370D01*
X1526583Y1257951D01*
X1527897Y1259760D01*
X1528912Y1261752D01*
X1529603Y1263878D01*
X1529953Y1266087D01*
Y1268323D01*
X1529603Y1270531D01*
X1528912Y1272657D01*
X1527897Y1274650D01*
X1526583Y1276458D01*
X1525002Y1278039D01*
X1523193Y1279354D01*
X1521201Y1280369D01*
X1519328Y1280977D01*
Y1281503D01*
X1521201Y1282112D01*
X1523193Y1283127D01*
X1525002Y1284441D01*
X1526583Y1286022D01*
X1527897Y1287831D01*
X1528912Y1289823D01*
X1529603Y1291949D01*
X1529953Y1294158D01*
Y1296393D01*
X1529603Y1298602D01*
X1528912Y1300728D01*
X1527897Y1302721D01*
X1526583Y1304529D01*
X1525002Y1306110D01*
X1523193Y1307425D01*
X1521201Y1308440D01*
X1519074Y1309130D01*
X1516866Y1309480D01*
D02*
G37*
G36*
X1380249Y1296863D02*
X1378013D01*
X1375805Y1296513D01*
X1373678Y1295822D01*
X1371686Y1294807D01*
X1369877Y1293493D01*
X1368296Y1291912D01*
X1366982Y1290103D01*
X1365967Y1288111D01*
X1365276Y1285984D01*
X1364926Y1283776D01*
Y1281540D01*
X1365276Y1279332D01*
X1365967Y1277205D01*
X1366982Y1275213D01*
X1368296Y1273404D01*
X1369877Y1271823D01*
X1371686Y1270509D01*
X1373678Y1269494D01*
X1375512Y1268898D01*
X1375433Y1268398D01*
X1365714D01*
Y1240776D01*
X1392548D01*
Y1268398D01*
X1382829D01*
X1382750Y1268898D01*
X1384583Y1269494D01*
X1386576Y1270509D01*
X1388385Y1271823D01*
X1389966Y1273404D01*
X1391280Y1275213D01*
X1392295Y1277205D01*
X1392986Y1279332D01*
X1393336Y1281540D01*
Y1283776D01*
X1392986Y1285984D01*
X1392295Y1288111D01*
X1391280Y1290103D01*
X1389966Y1291912D01*
X1388385Y1293493D01*
X1386576Y1294807D01*
X1384583Y1295822D01*
X1382457Y1296513D01*
X1380249Y1296863D01*
D02*
G37*
G36*
X1295770D02*
X1293534D01*
X1291325Y1296513D01*
X1289199Y1295822D01*
X1287207Y1294807D01*
X1285398Y1293493D01*
X1283817Y1291912D01*
X1282503Y1290103D01*
X1281488Y1288111D01*
X1280797Y1285984D01*
X1280447Y1283776D01*
Y1281540D01*
X1280797Y1279332D01*
X1281488Y1277205D01*
X1282503Y1275213D01*
X1283817Y1273404D01*
X1285398Y1271823D01*
X1287207Y1270509D01*
X1289199Y1269494D01*
X1291033Y1268898D01*
X1290954Y1268398D01*
X1281234D01*
Y1240776D01*
X1308069D01*
Y1268398D01*
X1298350D01*
X1298271Y1268898D01*
X1300105Y1269494D01*
X1302097Y1270509D01*
X1303905Y1271823D01*
X1305486Y1273404D01*
X1306801Y1275213D01*
X1307816Y1277205D01*
X1308507Y1279332D01*
X1308856Y1281540D01*
Y1283776D01*
X1308507Y1285984D01*
X1307816Y1288111D01*
X1306801Y1290103D01*
X1305486Y1291912D01*
X1303905Y1293493D01*
X1302097Y1294807D01*
X1300105Y1295822D01*
X1297978Y1296513D01*
X1295770Y1296863D01*
D02*
G37*
G36*
X1211084D02*
X1208848D01*
X1206639Y1296513D01*
X1204513Y1295822D01*
X1202521Y1294807D01*
X1200712Y1293493D01*
X1199131Y1291912D01*
X1197817Y1290103D01*
X1196802Y1288111D01*
X1196111Y1285984D01*
X1195761Y1283776D01*
Y1281540D01*
X1196111Y1279332D01*
X1196802Y1277205D01*
X1197817Y1275213D01*
X1199131Y1273404D01*
X1200712Y1271823D01*
X1202521Y1270509D01*
X1204513Y1269494D01*
X1206347Y1268898D01*
X1206268Y1268398D01*
X1196548D01*
Y1240776D01*
X1223383D01*
Y1268398D01*
X1213664D01*
X1213585Y1268898D01*
X1215419Y1269494D01*
X1217411Y1270509D01*
X1219220Y1271823D01*
X1220801Y1273404D01*
X1222115Y1275213D01*
X1223130Y1277205D01*
X1223821Y1279332D01*
X1224170Y1281540D01*
Y1283776D01*
X1223821Y1285984D01*
X1223130Y1288111D01*
X1222115Y1290103D01*
X1220801Y1291912D01*
X1219220Y1293493D01*
X1217411Y1294807D01*
X1215419Y1295822D01*
X1213292Y1296513D01*
X1211084Y1296863D01*
D02*
G37*
G36*
X1126812D02*
X1124576D01*
X1122368Y1296513D01*
X1120241Y1295822D01*
X1118249Y1294807D01*
X1116440Y1293493D01*
X1114859Y1291912D01*
X1113545Y1290103D01*
X1112530Y1288111D01*
X1111839Y1285984D01*
X1111489Y1283776D01*
Y1281540D01*
X1111839Y1279332D01*
X1112530Y1277205D01*
X1113545Y1275213D01*
X1114859Y1273404D01*
X1116440Y1271823D01*
X1118249Y1270509D01*
X1120241Y1269494D01*
X1122075Y1268898D01*
X1121996Y1268398D01*
X1112277D01*
Y1240776D01*
X1139111D01*
Y1268398D01*
X1129392D01*
X1129313Y1268898D01*
X1131147Y1269494D01*
X1133139Y1270509D01*
X1134948Y1271823D01*
X1136529Y1273404D01*
X1137843Y1275213D01*
X1138858Y1277205D01*
X1139549Y1279332D01*
X1139899Y1281540D01*
Y1283776D01*
X1139549Y1285984D01*
X1138858Y1288111D01*
X1137843Y1290103D01*
X1136529Y1291912D01*
X1134948Y1293493D01*
X1133139Y1294807D01*
X1131147Y1295822D01*
X1129020Y1296513D01*
X1126812Y1296863D01*
D02*
G37*
G36*
X1042954D02*
X1040718D01*
X1038510Y1296513D01*
X1036383Y1295822D01*
X1034391Y1294807D01*
X1032582Y1293493D01*
X1031001Y1291912D01*
X1029687Y1290103D01*
X1028672Y1288111D01*
X1027981Y1285984D01*
X1027631Y1283776D01*
Y1281540D01*
X1027981Y1279332D01*
X1028672Y1277205D01*
X1029687Y1275213D01*
X1031001Y1273404D01*
X1032582Y1271823D01*
X1034391Y1270509D01*
X1036383Y1269494D01*
X1038217Y1268898D01*
X1038138Y1268398D01*
X1028419D01*
Y1240776D01*
X1055253D01*
Y1268398D01*
X1045534D01*
X1045455Y1268898D01*
X1047289Y1269494D01*
X1049281Y1270509D01*
X1051090Y1271823D01*
X1052671Y1273404D01*
X1053985Y1275213D01*
X1055000Y1277205D01*
X1055691Y1279332D01*
X1056041Y1281540D01*
Y1283776D01*
X1055691Y1285984D01*
X1055000Y1288111D01*
X1053985Y1290103D01*
X1052671Y1291912D01*
X1051090Y1293493D01*
X1049281Y1294807D01*
X1047289Y1295822D01*
X1045162Y1296513D01*
X1042954Y1296863D01*
D02*
G37*
G36*
X958475D02*
X956239D01*
X954031Y1296513D01*
X951904Y1295822D01*
X949912Y1294807D01*
X948103Y1293493D01*
X946522Y1291912D01*
X945208Y1290103D01*
X944193Y1288111D01*
X943502Y1285984D01*
X943152Y1283776D01*
Y1281540D01*
X943502Y1279332D01*
X944193Y1277205D01*
X945208Y1275213D01*
X946522Y1273404D01*
X948103Y1271823D01*
X949912Y1270509D01*
X951904Y1269494D01*
X953738Y1268898D01*
X953659Y1268398D01*
X943940D01*
Y1240776D01*
X970774D01*
Y1268398D01*
X961055D01*
X960976Y1268898D01*
X962810Y1269494D01*
X964802Y1270509D01*
X966611Y1271823D01*
X968192Y1273404D01*
X969506Y1275213D01*
X970521Y1277205D01*
X971212Y1279332D01*
X971562Y1281540D01*
Y1283776D01*
X971212Y1285984D01*
X970521Y1288111D01*
X969506Y1290103D01*
X968192Y1291912D01*
X966611Y1293493D01*
X964802Y1294807D01*
X962810Y1295822D01*
X960683Y1296513D01*
X958475Y1296863D01*
D02*
G37*
G36*
X873996D02*
X871760D01*
X869552Y1296513D01*
X867426Y1295822D01*
X865433Y1294807D01*
X863624Y1293493D01*
X862043Y1291912D01*
X860729Y1290103D01*
X859714Y1288111D01*
X859023Y1285984D01*
X858673Y1283776D01*
Y1281540D01*
X859023Y1279332D01*
X859714Y1277205D01*
X860729Y1275213D01*
X862043Y1273404D01*
X863624Y1271823D01*
X865433Y1270509D01*
X867426Y1269494D01*
X869259Y1268898D01*
X869180Y1268398D01*
X859461D01*
Y1240776D01*
X886296D01*
Y1268398D01*
X876576D01*
X876497Y1268898D01*
X878331Y1269494D01*
X880323Y1270509D01*
X882132Y1271823D01*
X883713Y1273404D01*
X885027Y1275213D01*
X886042Y1277205D01*
X886733Y1279332D01*
X887083Y1281540D01*
Y1283776D01*
X886733Y1285984D01*
X886042Y1288111D01*
X885027Y1290103D01*
X883713Y1291912D01*
X882132Y1293493D01*
X880323Y1294807D01*
X878331Y1295822D01*
X876204Y1296513D01*
X873996Y1296863D01*
D02*
G37*
G36*
X790437D02*
X788201D01*
X785993Y1296513D01*
X783867Y1295822D01*
X781874Y1294807D01*
X780066Y1293493D01*
X778485Y1291912D01*
X777170Y1290103D01*
X776155Y1288111D01*
X775464Y1285984D01*
X775115Y1283776D01*
Y1281540D01*
X775464Y1279332D01*
X776155Y1277205D01*
X777170Y1275213D01*
X778485Y1273404D01*
X780066Y1271823D01*
X781874Y1270509D01*
X783867Y1269494D01*
X785700Y1268898D01*
X785621Y1268398D01*
X775902D01*
Y1240776D01*
X802737D01*
Y1268398D01*
X793017D01*
X792938Y1268898D01*
X794772Y1269494D01*
X796764Y1270509D01*
X798573Y1271823D01*
X800154Y1273404D01*
X801468Y1275213D01*
X802483Y1277205D01*
X803174Y1279332D01*
X803524Y1281540D01*
Y1283776D01*
X803174Y1285984D01*
X802483Y1288111D01*
X801468Y1290103D01*
X800154Y1291912D01*
X798573Y1293493D01*
X796764Y1294807D01*
X794772Y1295822D01*
X792646Y1296513D01*
X790437Y1296863D01*
D02*
G37*
G36*
X1729464Y1226409D02*
X1727229D01*
X1725020Y1226060D01*
X1722894Y1225369D01*
X1720902Y1224354D01*
X1719093Y1223040D01*
X1717512Y1221459D01*
X1716198Y1219650D01*
X1715182Y1217657D01*
X1714491Y1215531D01*
X1714142Y1213323D01*
Y1211087D01*
X1714491Y1208878D01*
X1715182Y1206752D01*
X1716198Y1204760D01*
X1717512Y1202951D01*
X1719093Y1201370D01*
X1720902Y1200056D01*
X1722894Y1199041D01*
X1724727Y1198445D01*
X1724648Y1197945D01*
X1714929D01*
Y1170323D01*
X1741764D01*
Y1197945D01*
X1732045D01*
X1731965Y1198445D01*
X1733799Y1199041D01*
X1735791Y1200056D01*
X1737600Y1201370D01*
X1739181Y1202951D01*
X1740495Y1204760D01*
X1741511Y1206752D01*
X1742201Y1208878D01*
X1742551Y1211087D01*
Y1213323D01*
X1742201Y1215531D01*
X1741511Y1217657D01*
X1740495Y1219650D01*
X1739181Y1221459D01*
X1737600Y1223040D01*
X1735791Y1224354D01*
X1733799Y1225369D01*
X1731673Y1226060D01*
X1729464Y1226409D01*
D02*
G37*
G36*
X1623165D02*
X1620929D01*
X1618721Y1226060D01*
X1616595Y1225369D01*
X1614602Y1224354D01*
X1612794Y1223040D01*
X1611213Y1221459D01*
X1609898Y1219650D01*
X1608883Y1217657D01*
X1608192Y1215531D01*
X1607842Y1213323D01*
Y1211087D01*
X1608192Y1208878D01*
X1608883Y1206752D01*
X1609898Y1204760D01*
X1611213Y1202951D01*
X1612794Y1201370D01*
X1614602Y1200056D01*
X1616595Y1199041D01*
X1618428Y1198445D01*
X1618349Y1197945D01*
X1608630D01*
Y1170323D01*
X1635465D01*
Y1197945D01*
X1625745D01*
X1625666Y1198445D01*
X1627500Y1199041D01*
X1629492Y1200056D01*
X1631301Y1201370D01*
X1632882Y1202951D01*
X1634196Y1204760D01*
X1635211Y1206752D01*
X1635902Y1208878D01*
X1636252Y1211087D01*
Y1213323D01*
X1635902Y1215531D01*
X1635211Y1217657D01*
X1634196Y1219650D01*
X1632882Y1221459D01*
X1631301Y1223040D01*
X1629492Y1224354D01*
X1627500Y1225369D01*
X1625373Y1226060D01*
X1623165Y1226409D01*
D02*
G37*
G36*
X1516866D02*
X1514630D01*
X1512422Y1226060D01*
X1510295Y1225369D01*
X1508303Y1224354D01*
X1506494Y1223040D01*
X1504913Y1221459D01*
X1503599Y1219650D01*
X1502584Y1217657D01*
X1501893Y1215531D01*
X1501543Y1213323D01*
Y1211087D01*
X1501893Y1208878D01*
X1502584Y1206752D01*
X1503599Y1204760D01*
X1504913Y1202951D01*
X1506494Y1201370D01*
X1508303Y1200056D01*
X1510295Y1199041D01*
X1512129Y1198445D01*
X1512050Y1197945D01*
X1502331D01*
Y1170323D01*
X1529165D01*
Y1197945D01*
X1519446D01*
X1519367Y1198445D01*
X1521201Y1199041D01*
X1523193Y1200056D01*
X1525002Y1201370D01*
X1526583Y1202951D01*
X1527897Y1204760D01*
X1528912Y1206752D01*
X1529603Y1208878D01*
X1529953Y1211087D01*
Y1213323D01*
X1529603Y1215531D01*
X1528912Y1217657D01*
X1527897Y1219650D01*
X1526583Y1221459D01*
X1525002Y1223040D01*
X1523193Y1224354D01*
X1521201Y1225369D01*
X1519074Y1226060D01*
X1516866Y1226409D01*
D02*
G37*
G36*
X1183416Y1126429D02*
X1181781D01*
X1180178Y1126110D01*
X1178667Y1125485D01*
X1177308Y1124576D01*
X1177087Y1124355D01*
X1176865Y1124576D01*
X1175506Y1125485D01*
X1173996Y1126110D01*
X1172392Y1126429D01*
X1170757D01*
X1169154Y1126110D01*
X1167644Y1125485D01*
X1166284Y1124576D01*
X1166063Y1124355D01*
X1165842Y1124576D01*
X1164482Y1125485D01*
X1162972Y1126110D01*
X1161369Y1126429D01*
X1159734D01*
X1158130Y1126110D01*
X1156620Y1125485D01*
X1155261Y1124576D01*
X1155039Y1124355D01*
X1154818Y1124576D01*
X1153459Y1125485D01*
X1151948Y1126110D01*
X1150345Y1126429D01*
X1148710D01*
X1147107Y1126110D01*
X1145596Y1125485D01*
X1144237Y1124576D01*
X1144016Y1124355D01*
X1143794Y1124576D01*
X1142435Y1125485D01*
X1140925Y1126110D01*
X1139321Y1126429D01*
X1137687D01*
X1136083Y1126110D01*
X1134573Y1125485D01*
X1133214Y1124576D01*
X1132057Y1123420D01*
X1131149Y1122061D01*
X1130524Y1120551D01*
X1130205Y1118947D01*
Y1117313D01*
X1130524Y1115709D01*
X1131149Y1114199D01*
X1132057Y1112840D01*
X1132279Y1112618D01*
X1132057Y1112397D01*
X1131149Y1111037D01*
X1130524Y1109527D01*
X1130205Y1107924D01*
Y1106289D01*
X1130524Y1104685D01*
X1131149Y1103175D01*
X1132057Y1101816D01*
X1132279Y1101595D01*
X1132057Y1101373D01*
X1131149Y1100014D01*
X1130524Y1098503D01*
X1130205Y1096900D01*
Y1095265D01*
X1130524Y1093662D01*
X1131149Y1092152D01*
X1132057Y1090792D01*
X1132279Y1090571D01*
X1132057Y1090349D01*
X1131149Y1088990D01*
X1130524Y1087480D01*
X1130205Y1085876D01*
Y1084242D01*
X1130524Y1082638D01*
X1131149Y1081128D01*
X1132057Y1079769D01*
X1132279Y1079547D01*
X1132057Y1079326D01*
X1131149Y1077967D01*
X1130524Y1076456D01*
X1130205Y1074853D01*
Y1073218D01*
X1130524Y1071615D01*
X1131149Y1070104D01*
X1132057Y1068745D01*
X1133214Y1067589D01*
X1134573Y1066681D01*
X1136083Y1066055D01*
X1137687Y1065736D01*
X1139321D01*
X1140925Y1066055D01*
X1142435Y1066681D01*
X1143794Y1067589D01*
X1144016Y1067810D01*
X1144237Y1067589D01*
X1145596Y1066681D01*
X1147107Y1066055D01*
X1148710Y1065736D01*
X1150345D01*
X1151948Y1066055D01*
X1153459Y1066681D01*
X1154818Y1067589D01*
X1155039Y1067810D01*
X1155261Y1067589D01*
X1156620Y1066681D01*
X1158130Y1066055D01*
X1159734Y1065736D01*
X1161369D01*
X1162972Y1066055D01*
X1164482Y1066681D01*
X1165842Y1067589D01*
X1166063Y1067810D01*
X1166284Y1067589D01*
X1167644Y1066681D01*
X1169154Y1066055D01*
X1170757Y1065736D01*
X1172392D01*
X1173996Y1066055D01*
X1175506Y1066681D01*
X1176865Y1067589D01*
X1177087Y1067810D01*
X1177308Y1067589D01*
X1178667Y1066681D01*
X1180178Y1066055D01*
X1181781Y1065736D01*
X1183416D01*
X1185019Y1066055D01*
X1186530Y1066681D01*
X1187889Y1067589D01*
X1189045Y1068745D01*
X1189953Y1070104D01*
X1190579Y1071615D01*
X1190898Y1073218D01*
Y1074853D01*
X1190579Y1076456D01*
X1189953Y1077967D01*
X1189045Y1079326D01*
X1188824Y1079547D01*
X1189045Y1079769D01*
X1189953Y1081128D01*
X1190579Y1082638D01*
X1190898Y1084242D01*
Y1085876D01*
X1190579Y1087480D01*
X1189953Y1088990D01*
X1189045Y1090349D01*
X1188824Y1090571D01*
X1189045Y1090792D01*
X1189953Y1092152D01*
X1190579Y1093662D01*
X1190898Y1095265D01*
Y1096900D01*
X1190579Y1098503D01*
X1189953Y1100014D01*
X1189045Y1101373D01*
X1188824Y1101595D01*
X1189045Y1101816D01*
X1189953Y1103175D01*
X1190579Y1104685D01*
X1190898Y1106289D01*
Y1107924D01*
X1190579Y1109527D01*
X1189953Y1111037D01*
X1189045Y1112397D01*
X1188824Y1112618D01*
X1189045Y1112840D01*
X1189953Y1114199D01*
X1190579Y1115709D01*
X1190898Y1117313D01*
Y1118947D01*
X1190579Y1120551D01*
X1189953Y1122061D01*
X1189045Y1123420D01*
X1187889Y1124576D01*
X1186530Y1125485D01*
X1185019Y1126110D01*
X1183416Y1126429D01*
D02*
G37*
G36*
X1380433Y1124278D02*
X1379717Y1123800D01*
X1378858Y1122941D01*
X1377999Y1123800D01*
X1377283Y1124278D01*
Y1118130D01*
Y1111982D01*
X1377999Y1112460D01*
X1378858Y1113319D01*
X1379559Y1112618D01*
X1378700Y1111759D01*
X1378222Y1111043D01*
X1390518D01*
X1390040Y1111759D01*
X1389181Y1112618D01*
X1390040Y1113477D01*
X1390518Y1114193D01*
X1384370D01*
Y1118130D01*
X1380433D01*
Y1124278D01*
D02*
G37*
G36*
X1369409D02*
X1368694Y1123800D01*
X1367835Y1122941D01*
X1366976Y1123800D01*
X1366260Y1124278D01*
Y1118130D01*
Y1111982D01*
X1366976Y1112460D01*
X1367835Y1113319D01*
X1368694Y1112460D01*
X1369409Y1111982D01*
Y1118130D01*
Y1124278D01*
D02*
G37*
G36*
X1358386D02*
X1357670Y1123800D01*
X1356811Y1122941D01*
X1355952Y1123800D01*
X1355236Y1124278D01*
Y1118130D01*
Y1111982D01*
X1355952Y1112460D01*
X1356811Y1113319D01*
X1357670Y1112460D01*
X1358386Y1111982D01*
Y1118130D01*
Y1124278D01*
D02*
G37*
G36*
X1347362D02*
X1346646Y1123800D01*
X1345787Y1122941D01*
X1344929Y1123800D01*
X1344213Y1124278D01*
Y1118130D01*
X1340276D01*
Y1114193D01*
X1334128D01*
X1334606Y1113477D01*
X1335465Y1112618D01*
X1334606Y1111759D01*
X1334128Y1111043D01*
X1346424D01*
X1345945Y1111759D01*
X1345086Y1112618D01*
X1345787Y1113319D01*
X1346646Y1112460D01*
X1347362Y1111982D01*
Y1118130D01*
Y1124278D01*
D02*
G37*
G36*
X1388307D02*
Y1122067D01*
X1390518D01*
X1390040Y1122783D01*
X1389023Y1123800D01*
X1388307Y1124278D01*
D02*
G37*
G36*
X1336339D02*
X1335623Y1123800D01*
X1334606Y1122783D01*
X1334128Y1122067D01*
X1336339D01*
Y1124278D01*
D02*
G37*
G36*
X1390518Y1103169D02*
X1378222D01*
X1378700Y1102453D01*
X1379559Y1101595D01*
X1378700Y1100736D01*
X1378222Y1100020D01*
X1390518D01*
X1390040Y1100736D01*
X1389181Y1101595D01*
X1390040Y1102453D01*
X1390518Y1103169D01*
D02*
G37*
G36*
X1346424D02*
X1334128D01*
X1334606Y1102453D01*
X1335465Y1101595D01*
X1334606Y1100736D01*
X1334128Y1100020D01*
X1346424D01*
X1345945Y1100736D01*
X1345086Y1101595D01*
X1345945Y1102453D01*
X1346424Y1103169D01*
D02*
G37*
G36*
X1390518Y1092146D02*
X1378222D01*
X1378700Y1091430D01*
X1379559Y1090571D01*
X1378700Y1089712D01*
X1378222Y1088996D01*
X1390518D01*
X1390040Y1089712D01*
X1389181Y1090571D01*
X1390040Y1091430D01*
X1390518Y1092146D01*
D02*
G37*
G36*
X1346424D02*
X1334128D01*
X1334606Y1091430D01*
X1335465Y1090571D01*
X1334606Y1089712D01*
X1334128Y1088996D01*
X1346424D01*
X1345945Y1089712D01*
X1345086Y1090571D01*
X1345945Y1091430D01*
X1346424Y1092146D01*
D02*
G37*
G36*
X1390518Y1081122D02*
X1378222D01*
X1378700Y1080406D01*
X1379559Y1079547D01*
X1378858Y1078846D01*
X1377999Y1079705D01*
X1377283Y1080184D01*
Y1074035D01*
Y1067887D01*
X1377999Y1068366D01*
X1378858Y1069225D01*
X1379717Y1068366D01*
X1380433Y1067887D01*
Y1074035D01*
X1384370D01*
Y1077972D01*
X1390518D01*
X1390040Y1078688D01*
X1389181Y1079547D01*
X1390040Y1080406D01*
X1390518Y1081122D01*
D02*
G37*
G36*
X1369409Y1080184D02*
X1368694Y1079705D01*
X1367835Y1078846D01*
X1366976Y1079705D01*
X1366260Y1080184D01*
Y1074035D01*
Y1067887D01*
X1366976Y1068366D01*
X1367835Y1069225D01*
X1368694Y1068366D01*
X1369409Y1067887D01*
Y1074035D01*
Y1080184D01*
D02*
G37*
G36*
X1358386D02*
X1357670Y1079705D01*
X1356811Y1078846D01*
X1355952Y1079705D01*
X1355236Y1080184D01*
Y1074035D01*
Y1067887D01*
X1355952Y1068366D01*
X1356811Y1069225D01*
X1357670Y1068366D01*
X1358386Y1067887D01*
Y1074035D01*
Y1080184D01*
D02*
G37*
G36*
X1390518Y1070098D02*
X1388307D01*
Y1067887D01*
X1389023Y1068366D01*
X1390040Y1069382D01*
X1390518Y1070098D01*
D02*
G37*
G36*
X1346424Y1081122D02*
X1334128D01*
X1334606Y1080406D01*
X1335465Y1079547D01*
X1334606Y1078688D01*
X1334128Y1077972D01*
X1340276D01*
Y1074035D01*
X1344213D01*
Y1067887D01*
X1344929Y1068366D01*
X1345787Y1069225D01*
X1346646Y1068366D01*
X1347362Y1067887D01*
Y1074035D01*
Y1080184D01*
X1346646Y1079705D01*
X1345787Y1078846D01*
X1345086Y1079547D01*
X1345945Y1080406D01*
X1346424Y1081122D01*
D02*
G37*
G36*
X1336339Y1070098D02*
X1334128D01*
X1334606Y1069382D01*
X1335623Y1068366D01*
X1336339Y1067887D01*
Y1070098D01*
D02*
G37*
%LPD*%
G36*
X1166284Y1111683D02*
X1167644Y1110775D01*
X1169154Y1110150D01*
X1170757Y1109831D01*
X1172392D01*
X1173996Y1110150D01*
X1174455Y1110340D01*
X1174808Y1109986D01*
X1174618Y1109527D01*
X1174299Y1107924D01*
Y1106289D01*
X1174618Y1104685D01*
X1175244Y1103175D01*
X1176152Y1101816D01*
X1176373Y1101595D01*
X1176152Y1101373D01*
X1175244Y1100014D01*
X1174618Y1098503D01*
X1174299Y1096900D01*
Y1095265D01*
X1174618Y1093662D01*
X1175244Y1092152D01*
X1176152Y1090792D01*
X1176373Y1090571D01*
X1176152Y1090349D01*
X1175244Y1088990D01*
X1174618Y1087480D01*
X1174299Y1085876D01*
Y1084242D01*
X1174618Y1082638D01*
X1174808Y1082179D01*
X1174455Y1081826D01*
X1173996Y1082016D01*
X1172392Y1082335D01*
X1170757D01*
X1169154Y1082016D01*
X1167644Y1081390D01*
X1166284Y1080482D01*
X1166063Y1080260D01*
X1165842Y1080482D01*
X1164482Y1081390D01*
X1162972Y1082016D01*
X1161369Y1082335D01*
X1159734D01*
X1158130Y1082016D01*
X1156620Y1081390D01*
X1155261Y1080482D01*
X1155039Y1080260D01*
X1154818Y1080482D01*
X1153459Y1081390D01*
X1151948Y1082016D01*
X1150345Y1082335D01*
X1148710D01*
X1147107Y1082016D01*
X1146648Y1081826D01*
X1146294Y1082179D01*
X1146484Y1082638D01*
X1146803Y1084242D01*
Y1085876D01*
X1146484Y1087480D01*
X1145859Y1088990D01*
X1144950Y1090349D01*
X1144729Y1090571D01*
X1144950Y1090792D01*
X1145859Y1092152D01*
X1146484Y1093662D01*
X1146803Y1095265D01*
Y1096900D01*
X1146484Y1098503D01*
X1145859Y1100014D01*
X1144950Y1101373D01*
X1144729Y1101595D01*
X1144950Y1101816D01*
X1145859Y1103175D01*
X1146484Y1104685D01*
X1146803Y1106289D01*
Y1107924D01*
X1146484Y1109527D01*
X1146294Y1109986D01*
X1146648Y1110340D01*
X1147107Y1110150D01*
X1148710Y1109831D01*
X1150345D01*
X1151948Y1110150D01*
X1153459Y1110775D01*
X1154818Y1111683D01*
X1155039Y1111905D01*
X1155261Y1111683D01*
X1156620Y1110775D01*
X1158130Y1110150D01*
X1159734Y1109831D01*
X1161369D01*
X1162972Y1110150D01*
X1164482Y1110775D01*
X1165842Y1111683D01*
X1166063Y1111905D01*
X1166284Y1111683D01*
D02*
G37*
D19*
X1340276Y1118130D02*
D03*
X1351299D02*
D03*
X1362323D02*
D03*
X1373347D02*
D03*
X1384370D02*
D03*
Y1107106D02*
D03*
Y1096083D02*
D03*
Y1085059D02*
D03*
Y1074035D02*
D03*
X1373347D02*
D03*
X1362323D02*
D03*
X1351299D02*
D03*
X1340276D02*
D03*
Y1085059D02*
D03*
Y1096083D02*
D03*
Y1107106D02*
D03*
D22*
X1706043Y1459646D02*
D03*
Y1473425D02*
D03*
X1714902Y1459646D02*
D03*
Y1473425D02*
D03*
X1723760Y1459646D02*
D03*
Y1473425D02*
D03*
X1732618Y1459646D02*
D03*
Y1473425D02*
D03*
X1741476Y1459646D02*
D03*
Y1473425D02*
D03*
X1750335Y1459646D02*
D03*
Y1473425D02*
D03*
X1600069Y1459646D02*
D03*
Y1473425D02*
D03*
X1608927Y1459646D02*
D03*
Y1473425D02*
D03*
X1617785Y1459646D02*
D03*
Y1473425D02*
D03*
X1626644Y1459646D02*
D03*
Y1473425D02*
D03*
X1635502Y1459646D02*
D03*
Y1473425D02*
D03*
X1644360Y1459646D02*
D03*
Y1473425D02*
D03*
X1494094Y1459646D02*
D03*
Y1473425D02*
D03*
X1502953Y1459646D02*
D03*
Y1473425D02*
D03*
X1511811Y1459646D02*
D03*
Y1473425D02*
D03*
X1520669Y1459646D02*
D03*
Y1473425D02*
D03*
X1529527Y1459646D02*
D03*
Y1473425D02*
D03*
X1538386Y1459646D02*
D03*
Y1473425D02*
D03*
D24*
X902244Y1488792D02*
D03*
X817894D02*
D03*
X1070945D02*
D03*
X986595D02*
D03*
X1239647D02*
D03*
X1155296D02*
D03*
X1408348D02*
D03*
X1323997D02*
D03*
M02*
