G04*
G04 #@! TF.GenerationSoftware,Altium Limited,Altium Designer,22.9.1 (49)*
G04*
G04 Layer_Physical_Order=2*
G04 Layer_Color=36540*
%FSLAX25Y25*%
%MOIN*%
G70*
G04*
G04 #@! TF.SameCoordinates,1352E451-E4B0-43B6-A2DF-F84851EB9EC6*
G04*
G04*
G04 #@! TF.FilePolarity,Positive*
G04*
G01*
G75*
%ADD81R,0.06260X0.06260*%
%ADD82C,0.06260*%
%ADD83C,0.11811*%
G04:AMPARAMS|DCode=84|XSize=242.13mil|YSize=78.74mil|CornerRadius=39.37mil|HoleSize=0mil|Usage=FLASHONLY|Rotation=0.000|XOffset=0mil|YOffset=0mil|HoleType=Round|Shape=RoundedRectangle|*
%AMROUNDEDRECTD84*
21,1,0.24213,0.00000,0,0,0.0*
21,1,0.16339,0.07874,0,0,0.0*
1,1,0.07874,0.08169,0.00000*
1,1,0.07874,-0.08169,0.00000*
1,1,0.07874,-0.08169,0.00000*
1,1,0.07874,0.08169,0.00000*
%
%ADD84ROUNDEDRECTD84*%
%ADD87C,0.10000*%
%ADD88C,0.15748*%
%ADD89C,0.07874*%
%ADD90C,0.24410*%
%ADD91R,0.22835X0.23622*%
%ADD92R,0.05264X0.05264*%
%ADD93C,0.05264*%
%ADD94C,0.07087*%
%ADD97C,0.06890*%
%ADD98C,0.12598*%
%ADD99C,0.02400*%
%ADD100C,0.02500*%
G36*
X685742Y687355D02*
X686180Y687173D01*
X686574Y686909D01*
X686909Y686574D01*
X687173Y686180D01*
X687355Y685742D01*
X687447Y685276D01*
X687447Y685039D01*
Y644862D01*
X631354D01*
X626752Y648799D01*
X572299D01*
Y687447D01*
X592208D01*
X592257Y686947D01*
X591129Y686723D01*
X589873Y686202D01*
X588742Y685447D01*
X587780Y684485D01*
X587024Y683354D01*
X586705Y682583D01*
X599583D01*
X599263Y683354D01*
X598508Y684485D01*
X597546Y685447D01*
X596415Y686202D01*
X595158Y686723D01*
X594031Y686947D01*
X594080Y687447D01*
X652400Y687447D01*
X652522Y686962D01*
X652052Y686711D01*
X650632Y685546D01*
X649467Y684126D01*
X648601Y682506D01*
X648068Y680749D01*
X647888Y678921D01*
X648068Y677094D01*
X648601Y675336D01*
X649467Y673716D01*
X650632Y672297D01*
X652052Y671132D01*
X653671Y670266D01*
X655429Y669733D01*
X657257Y669553D01*
X659084Y669733D01*
X660842Y670266D01*
X662461Y671132D01*
X663881Y672297D01*
X665046Y673716D01*
X665912Y675336D01*
X666445Y677094D01*
X666625Y678921D01*
X666445Y680749D01*
X665912Y682506D01*
X665046Y684126D01*
X663881Y685546D01*
X662461Y686711D01*
X661991Y686962D01*
X662113Y687447D01*
X685276D01*
X685742Y687355D01*
D02*
G37*
G36*
X100768Y592894D02*
X1529D01*
X1529Y640138D01*
X100768D01*
Y592894D01*
D02*
G37*
G36*
X570871Y687447D02*
Y648799D01*
X570980Y648253D01*
X571289Y647790D01*
X571753Y647480D01*
X572299Y647372D01*
X626225D01*
X630426Y643778D01*
X630621Y643668D01*
X630808Y643543D01*
X630863Y643532D01*
X630912Y643505D01*
X631134Y643478D01*
X631354Y643435D01*
X687447D01*
X687447Y585746D01*
X687447Y585246D01*
X660610D01*
X660438Y585212D01*
X660263Y585203D01*
X660167Y585158D01*
X660064Y585137D01*
X659918Y585040D01*
X659759Y584965D01*
X659688Y584887D01*
X659600Y584828D01*
X659503Y584682D01*
X659385Y584552D01*
X659350Y584453D01*
X659291Y584365D01*
X659264Y584227D01*
X659084Y583759D01*
X657257Y583939D01*
X655429Y583759D01*
X655249Y584227D01*
X655222Y584365D01*
X655163Y584453D01*
X655127Y584552D01*
X655010Y584682D01*
X654913Y584828D01*
X654824Y584887D01*
X654753Y584965D01*
X654595Y585040D01*
X654449Y585137D01*
X654346Y585158D01*
X654250Y585203D01*
X654075Y585212D01*
X653903Y585246D01*
X572299D01*
X571753Y585137D01*
X571289Y584828D01*
X570980Y584365D01*
X570871Y583819D01*
Y544449D01*
X570980Y543902D01*
X571289Y543439D01*
X571753Y543130D01*
X572299Y543021D01*
X626225D01*
X630426Y539427D01*
X630621Y539317D01*
X630808Y539193D01*
X630863Y539182D01*
X630912Y539154D01*
X631134Y539128D01*
X631354Y539084D01*
X687447D01*
X687447Y481396D01*
X687447Y480896D01*
X660610D01*
X660438Y480861D01*
X660263Y480853D01*
X660167Y480807D01*
X660064Y480787D01*
X659918Y480690D01*
X659759Y480615D01*
X659688Y480536D01*
X659600Y480478D01*
X659503Y480332D01*
X659385Y480202D01*
X659350Y480102D01*
X659291Y480014D01*
X659264Y479877D01*
X659084Y479408D01*
X657257Y479588D01*
X655429Y479408D01*
X655249Y479877D01*
X655222Y480014D01*
X655163Y480102D01*
X655127Y480202D01*
X655010Y480332D01*
X654913Y480478D01*
X654824Y480536D01*
X654753Y480615D01*
X654595Y480690D01*
X654449Y480787D01*
X654346Y480807D01*
X654250Y480853D01*
X654075Y480861D01*
X653903Y480896D01*
X572299D01*
X571753Y480787D01*
X571289Y480478D01*
X570980Y480014D01*
X570871Y479468D01*
Y440098D01*
X570980Y439552D01*
X571289Y439089D01*
X571753Y438779D01*
X572299Y438671D01*
X626225D01*
X630426Y435076D01*
X630621Y434967D01*
X630808Y434842D01*
X630863Y434831D01*
X630912Y434804D01*
X631134Y434777D01*
X631354Y434734D01*
X687447D01*
X687447Y377045D01*
X687447Y376545D01*
X660610D01*
X660438Y376511D01*
X660263Y376502D01*
X660167Y376457D01*
X660064Y376436D01*
X659918Y376339D01*
X659759Y376264D01*
X659688Y376186D01*
X659600Y376127D01*
X659503Y375981D01*
X659385Y375851D01*
X659350Y375752D01*
X659291Y375664D01*
X659264Y375526D01*
X659084Y375058D01*
X657257Y375238D01*
X655429Y375058D01*
X655249Y375526D01*
X655222Y375664D01*
X655163Y375752D01*
X655127Y375851D01*
X655010Y375981D01*
X654913Y376127D01*
X654824Y376186D01*
X654753Y376264D01*
X654595Y376339D01*
X654449Y376436D01*
X654346Y376457D01*
X654250Y376502D01*
X654075Y376511D01*
X653903Y376545D01*
X572299D01*
X571753Y376436D01*
X571289Y376127D01*
X570980Y375664D01*
X570871Y375118D01*
Y335748D01*
X570980Y335201D01*
X571289Y334738D01*
X571753Y334429D01*
X572299Y334320D01*
X626225D01*
X630426Y330726D01*
X630621Y330616D01*
X630808Y330492D01*
X630863Y330481D01*
X630912Y330453D01*
X631134Y330427D01*
X631354Y330383D01*
X687447D01*
X687447Y272694D01*
X687447Y272195D01*
X660610D01*
X660438Y272160D01*
X660263Y272152D01*
X660167Y272106D01*
X660064Y272086D01*
X659918Y271989D01*
X659759Y271914D01*
X659688Y271835D01*
X659600Y271776D01*
X659503Y271631D01*
X659385Y271501D01*
X659350Y271401D01*
X659291Y271313D01*
X659264Y271175D01*
X659084Y270707D01*
X657257Y270887D01*
X655429Y270707D01*
X655249Y271175D01*
X655222Y271313D01*
X655163Y271401D01*
X655127Y271501D01*
X655010Y271631D01*
X654913Y271776D01*
X654824Y271835D01*
X654753Y271914D01*
X654595Y271989D01*
X654449Y272086D01*
X654346Y272106D01*
X654250Y272152D01*
X654075Y272160D01*
X653903Y272195D01*
X572299D01*
X571753Y272086D01*
X571289Y271776D01*
X570980Y271313D01*
X570871Y270767D01*
Y231397D01*
X570980Y230851D01*
X571289Y230388D01*
X571753Y230078D01*
X572299Y229970D01*
X626225D01*
X630426Y226375D01*
X630621Y226266D01*
X630808Y226141D01*
X630863Y226130D01*
X630912Y226103D01*
X631134Y226076D01*
X631354Y226032D01*
X687447D01*
X687447Y168315D01*
X687447Y167844D01*
X660610D01*
X660438Y167810D01*
X660263Y167801D01*
X660167Y167756D01*
X660064Y167735D01*
X659918Y167638D01*
X659759Y167563D01*
X659688Y167485D01*
X659600Y167426D01*
X659503Y167280D01*
X659385Y167150D01*
X659350Y167051D01*
X659291Y166963D01*
X659264Y166825D01*
X659084Y166357D01*
X657257Y166537D01*
X655429Y166357D01*
X655249Y166825D01*
X655222Y166963D01*
X655163Y167051D01*
X655127Y167150D01*
X655010Y167280D01*
X654913Y167426D01*
X654824Y167485D01*
X654753Y167563D01*
X654595Y167638D01*
X654449Y167735D01*
X654346Y167756D01*
X654250Y167801D01*
X654075Y167810D01*
X653903Y167844D01*
X572299D01*
X571753Y167735D01*
X571289Y167426D01*
X570980Y166963D01*
X570871Y166417D01*
Y127046D01*
X570980Y126500D01*
X571289Y126037D01*
X571753Y125728D01*
X572299Y125619D01*
X626225D01*
X630426Y122025D01*
X630621Y121915D01*
X630808Y121791D01*
X630863Y121780D01*
X630912Y121752D01*
X631134Y121726D01*
X631354Y121682D01*
X687447D01*
X687447Y121182D01*
X687447Y3937D01*
Y3700D01*
X687355Y3235D01*
X687173Y2796D01*
X686909Y2402D01*
X686574Y2067D01*
X686180Y1803D01*
X685742Y1622D01*
X685276Y1529D01*
X685039Y1529D01*
X3937Y1529D01*
X3700D01*
X3235Y1622D01*
X2797Y1803D01*
X2402Y2067D01*
X2067Y2402D01*
X1803Y2796D01*
X1622Y3235D01*
X1529Y3700D01*
X1529Y3937D01*
X1529Y144075D01*
Y144312D01*
X1622Y144777D01*
X1803Y145215D01*
X2067Y145609D01*
X2402Y145945D01*
X2797Y146208D01*
X3235Y146390D01*
X3700Y146482D01*
X3937Y146482D01*
X112579D01*
X112616Y146490D01*
X112654Y146484D01*
X113040Y146503D01*
X113149Y146531D01*
X113263D01*
X114020Y146681D01*
X114159Y146739D01*
X114307Y146768D01*
X115020Y147064D01*
X115145Y147147D01*
X115284Y147205D01*
X115926Y147634D01*
X116032Y147740D01*
X116158Y147824D01*
X116345Y148012D01*
X116516D01*
Y148182D01*
X116703Y148370D01*
X116787Y148495D01*
X116894Y148601D01*
X117322Y149243D01*
X117380Y149382D01*
X117464Y149508D01*
X117759Y150221D01*
X117788Y150368D01*
X117846Y150508D01*
X117997Y151265D01*
Y151378D01*
X118024Y151488D01*
X118043Y151874D01*
X118038Y151911D01*
X118045Y151949D01*
X118045Y388169D01*
X118038Y388206D01*
X118043Y388244D01*
X118024Y388630D01*
X117997Y388740D01*
Y388853D01*
X117846Y389610D01*
X117789Y389750D01*
X117759Y389897D01*
X117464Y390610D01*
X117380Y390736D01*
X117322Y390875D01*
X116894Y391516D01*
X116787Y391623D01*
X116703Y391748D01*
X116516Y391936D01*
Y392106D01*
X116345D01*
X116158Y392294D01*
X116033Y392378D01*
X115926Y392484D01*
X115284Y392913D01*
X115145Y392970D01*
X115020Y393054D01*
X114307Y393350D01*
X114159Y393379D01*
X114020Y393437D01*
X113263Y393587D01*
X113150D01*
X113040Y393615D01*
X112654Y393634D01*
X112616Y393628D01*
X112579Y393636D01*
X3937Y393636D01*
X3700D01*
X3235Y393728D01*
X2797Y393910D01*
X2402Y394173D01*
X2067Y394509D01*
X1803Y394903D01*
X1622Y395341D01*
X1529Y395806D01*
X1529Y396043D01*
X1529Y590966D01*
X1529Y591466D01*
X100768D01*
X101314Y591575D01*
X101777Y591884D01*
X102086Y592347D01*
X102195Y592894D01*
Y640138D01*
X102086Y640684D01*
X101777Y641147D01*
X101314Y641457D01*
X100768Y641565D01*
X1529D01*
X1529Y642065D01*
X1529Y685039D01*
X1529Y685276D01*
X1622Y685742D01*
X1803Y686180D01*
X2067Y686574D01*
X2402Y686909D01*
X2797Y687173D01*
X3235Y687354D01*
X3700Y687447D01*
X3937D01*
X570371Y687447D01*
X570871Y687447D01*
D02*
G37*
G36*
X687447Y540512D02*
X631354D01*
X626752Y544449D01*
X572299D01*
Y583819D01*
X653903D01*
X653977Y583319D01*
X653671Y583226D01*
X652052Y582360D01*
X650632Y581195D01*
X649467Y579775D01*
X648601Y578156D01*
X648068Y576398D01*
X647888Y574571D01*
X648068Y572743D01*
X648601Y570986D01*
X649467Y569366D01*
X650632Y567946D01*
X652052Y566781D01*
X653671Y565915D01*
X655429Y565382D01*
X657257Y565202D01*
X659084Y565382D01*
X660842Y565915D01*
X662461Y566781D01*
X663881Y567946D01*
X665046Y569366D01*
X665912Y570986D01*
X666445Y572743D01*
X666625Y574571D01*
X666445Y576398D01*
X665912Y578156D01*
X665046Y579775D01*
X663881Y581195D01*
X662461Y582360D01*
X660842Y583226D01*
X660536Y583319D01*
X660610Y583819D01*
X687447D01*
Y540512D01*
D02*
G37*
G36*
X687447Y436161D02*
X631354D01*
X626752Y440098D01*
X572299D01*
Y479468D01*
X653903D01*
X653977Y478968D01*
X653671Y478875D01*
X652052Y478010D01*
X650632Y476845D01*
X649467Y475425D01*
X648601Y473805D01*
X648068Y472048D01*
X647888Y470220D01*
X648068Y468392D01*
X648601Y466635D01*
X649467Y465015D01*
X650632Y463596D01*
X652052Y462431D01*
X653671Y461565D01*
X655429Y461032D01*
X657257Y460852D01*
X659084Y461032D01*
X660842Y461565D01*
X662461Y462431D01*
X663881Y463596D01*
X665046Y465015D01*
X665912Y466635D01*
X666445Y468392D01*
X666625Y470220D01*
X666445Y472048D01*
X665912Y473805D01*
X665046Y475425D01*
X663881Y476845D01*
X662461Y478010D01*
X660842Y478875D01*
X660536Y478968D01*
X660610Y479468D01*
X687447D01*
Y436161D01*
D02*
G37*
G36*
X687447Y331810D02*
X631354D01*
X626752Y335748D01*
X572299D01*
Y375118D01*
X653903D01*
X653977Y374618D01*
X653671Y374525D01*
X652052Y373659D01*
X650632Y372494D01*
X649467Y371074D01*
X648601Y369455D01*
X648068Y367697D01*
X647888Y365869D01*
X648068Y364042D01*
X648601Y362284D01*
X649467Y360665D01*
X650632Y359245D01*
X652052Y358080D01*
X653671Y357214D01*
X655429Y356681D01*
X657257Y356501D01*
X659084Y356681D01*
X660842Y357214D01*
X662461Y358080D01*
X663881Y359245D01*
X665046Y360665D01*
X665912Y362284D01*
X666445Y364042D01*
X666625Y365869D01*
X666445Y367697D01*
X665912Y369455D01*
X665046Y371074D01*
X663881Y372494D01*
X662461Y373659D01*
X660842Y374525D01*
X660536Y374618D01*
X660610Y375118D01*
X687447D01*
Y331810D01*
D02*
G37*
G36*
X687447Y227460D02*
X631354D01*
X626752Y231397D01*
X572299D01*
Y270767D01*
X653903D01*
X653977Y270267D01*
X653671Y270174D01*
X652052Y269308D01*
X650632Y268143D01*
X649467Y266724D01*
X648601Y265104D01*
X648068Y263347D01*
X647888Y261519D01*
X648068Y259691D01*
X648601Y257934D01*
X649467Y256314D01*
X650632Y254895D01*
X652052Y253730D01*
X653671Y252864D01*
X655429Y252331D01*
X657257Y252151D01*
X659084Y252331D01*
X660842Y252864D01*
X662461Y253730D01*
X663881Y254895D01*
X665046Y256314D01*
X665912Y257934D01*
X666445Y259691D01*
X666625Y261519D01*
X666445Y263347D01*
X665912Y265104D01*
X665046Y266724D01*
X663881Y268143D01*
X662461Y269308D01*
X660842Y270174D01*
X660536Y270267D01*
X660610Y270767D01*
X687447D01*
Y227460D01*
D02*
G37*
G36*
X687447Y123109D02*
X631354D01*
X626752Y127046D01*
X572299D01*
Y166417D01*
X653903D01*
X653977Y165917D01*
X653671Y165824D01*
X652052Y164958D01*
X650632Y163793D01*
X649467Y162373D01*
X648601Y160754D01*
X648068Y158996D01*
X647888Y157168D01*
X648068Y155341D01*
X648601Y153583D01*
X649467Y151964D01*
X650632Y150544D01*
X652052Y149379D01*
X653671Y148513D01*
X655429Y147980D01*
X657257Y147800D01*
X659084Y147980D01*
X660842Y148513D01*
X662461Y149379D01*
X663881Y150544D01*
X665046Y151964D01*
X665912Y153583D01*
X666445Y155341D01*
X666625Y157168D01*
X666445Y158996D01*
X665912Y160754D01*
X665046Y162373D01*
X663881Y163793D01*
X662461Y164958D01*
X660842Y165824D01*
X660536Y165917D01*
X660610Y166417D01*
X687447D01*
Y123109D01*
D02*
G37*
%LPC*%
G36*
X622806Y684865D02*
X621289D01*
X619802Y684569D01*
X618400Y683988D01*
X617139Y683146D01*
X616067Y682073D01*
X615224Y680812D01*
X614644Y679411D01*
X614348Y677924D01*
Y676407D01*
X614644Y674920D01*
X615224Y673518D01*
X616067Y672257D01*
X617139Y671185D01*
X618400Y670342D01*
X619802Y669762D01*
X621289Y669466D01*
X622806D01*
X624293Y669762D01*
X625694Y670342D01*
X626955Y671185D01*
X628028Y672257D01*
X628870Y673518D01*
X629451Y674920D01*
X629746Y676407D01*
Y677924D01*
X629451Y679411D01*
X628870Y680812D01*
X628028Y682073D01*
X626955Y683146D01*
X625694Y683988D01*
X624293Y684569D01*
X622806Y684865D01*
D02*
G37*
G36*
X599583Y677583D02*
X586705D01*
X587024Y676812D01*
X587780Y675681D01*
X588742Y674719D01*
X589873Y673963D01*
X590604Y673660D01*
Y673119D01*
X589873Y672816D01*
X588742Y672061D01*
X587780Y671099D01*
X587024Y669968D01*
X586705Y669197D01*
X599583D01*
X599263Y669968D01*
X598508Y671099D01*
X597546Y672061D01*
X596415Y672816D01*
X595684Y673119D01*
Y673660D01*
X596415Y673963D01*
X597546Y674719D01*
X598508Y675681D01*
X599263Y676812D01*
X599583Y677583D01*
D02*
G37*
G36*
X672532Y665003D02*
X668300D01*
Y663961D01*
X675511D01*
X675022Y664336D01*
X673821Y664833D01*
X672532Y665003D01*
D02*
G37*
G36*
X660426D02*
X656193D01*
X654905Y664833D01*
X653704Y664336D01*
X653214Y663961D01*
X660426D01*
Y665003D01*
D02*
G37*
G36*
X599583Y664197D02*
X595644D01*
Y660258D01*
X596415Y660577D01*
X597546Y661333D01*
X598508Y662295D01*
X599263Y663426D01*
X599583Y664197D01*
D02*
G37*
G36*
X590644D02*
X586705D01*
X587024Y663426D01*
X587780Y662295D01*
X588742Y661333D01*
X589873Y660577D01*
X590644Y660258D01*
Y664197D01*
D02*
G37*
G36*
X675511Y656086D02*
X668300D01*
Y655044D01*
X672532D01*
X673821Y655214D01*
X675022Y655711D01*
X675511Y656086D01*
D02*
G37*
G36*
X660426D02*
X653214D01*
X653704Y655711D01*
X654905Y655214D01*
X656193Y655044D01*
X660426D01*
Y656086D01*
D02*
G37*
G36*
X86772Y621970D02*
X86001Y621651D01*
X84870Y620895D01*
X83908Y619933D01*
X83152Y618802D01*
X82849Y618072D01*
X82308D01*
X82005Y618802D01*
X81250Y619933D01*
X80288Y620895D01*
X79157Y621651D01*
X78386Y621970D01*
Y615531D01*
Y609093D01*
X79157Y609412D01*
X80288Y610168D01*
X81250Y611129D01*
X82005Y612260D01*
X82308Y612991D01*
X82849D01*
X83152Y612260D01*
X83908Y611129D01*
X84870Y610168D01*
X86001Y609412D01*
X86772Y609093D01*
Y615531D01*
Y621970D01*
D02*
G37*
G36*
X73386Y621970D02*
X72615Y621651D01*
X71484Y620895D01*
X70522Y619933D01*
X69766Y618802D01*
X69447Y618031D01*
X73386D01*
Y621970D01*
D02*
G37*
G36*
X91772Y621970D02*
Y618031D01*
X95711D01*
X95391Y618802D01*
X94635Y619933D01*
X93674Y620895D01*
X92543Y621651D01*
X91772Y621970D01*
D02*
G37*
G36*
X22795Y634486D02*
X20968Y634306D01*
X19210Y633773D01*
X17591Y632907D01*
X16171Y631742D01*
X15006Y630323D01*
X14140Y628703D01*
X13607Y626946D01*
X13427Y625118D01*
X13607Y623290D01*
X14140Y621533D01*
X15006Y619913D01*
X16171Y618494D01*
X17591Y617329D01*
X19210Y616463D01*
X20968Y615930D01*
X22795Y615750D01*
X24623Y615930D01*
X26380Y616463D01*
X28000Y617329D01*
X29420Y618494D01*
X30585Y619913D01*
X31451Y621533D01*
X31984Y623290D01*
X32164Y625118D01*
X31984Y626946D01*
X31451Y628703D01*
X30585Y630323D01*
X29420Y631742D01*
X28000Y632907D01*
X26380Y633773D01*
X24623Y634306D01*
X22795Y634486D01*
D02*
G37*
G36*
X38071Y611200D02*
X33838D01*
Y610157D01*
X41050D01*
X40561Y610533D01*
X39360Y611030D01*
X38071Y611200D01*
D02*
G37*
G36*
X25964D02*
X21732D01*
X20443Y611030D01*
X19242Y610533D01*
X18753Y610157D01*
X25964D01*
Y611200D01*
D02*
G37*
G36*
X95711Y613031D02*
X91772D01*
Y609093D01*
X92543Y609412D01*
X93674Y610168D01*
X94635Y611129D01*
X95391Y612260D01*
X95711Y613031D01*
D02*
G37*
G36*
X73386Y613031D02*
X69447D01*
X69766Y612260D01*
X70522Y611129D01*
X71484Y610168D01*
X72615Y609412D01*
X73386Y609093D01*
Y613031D01*
D02*
G37*
G36*
X41050Y602283D02*
X33838D01*
Y601241D01*
X38071D01*
X39360Y601410D01*
X40561Y601908D01*
X41050Y602283D01*
D02*
G37*
G36*
X25964D02*
X18753D01*
X19242Y601908D01*
X20443Y601410D01*
X21732Y601241D01*
X25964D01*
Y602283D01*
D02*
G37*
G36*
X58493Y679956D02*
X57697D01*
X56962Y679651D01*
X56399Y679089D01*
X56095Y678354D01*
Y677558D01*
X56399Y676823D01*
X56962Y676260D01*
X57697Y675956D01*
X58493D01*
X59228Y676260D01*
X59790Y676823D01*
X60095Y677558D01*
Y678354D01*
X59790Y679089D01*
X59228Y679651D01*
X58493Y679956D01*
D02*
G37*
G36*
X540645Y685026D02*
X539343D01*
X538086Y684689D01*
X536959Y684038D01*
X536039Y683118D01*
X535388Y681991D01*
X535051Y680733D01*
Y679432D01*
X535388Y678175D01*
X536039Y677047D01*
X536959Y676127D01*
X538086Y675476D01*
X539343Y675139D01*
X540645D01*
X541902Y675476D01*
X543029Y676127D01*
X543950Y677047D01*
X544601Y678175D01*
X544938Y679432D01*
Y680733D01*
X544601Y681991D01*
X543950Y683118D01*
X543029Y684038D01*
X541902Y684689D01*
X540645Y685026D01*
D02*
G37*
G36*
X328801Y685827D02*
X327285D01*
X325797Y685531D01*
X324396Y684950D01*
X323135Y684108D01*
X322063Y683036D01*
X321220Y681774D01*
X320640Y680373D01*
X320344Y678886D01*
Y677369D01*
X320640Y675882D01*
X321220Y674481D01*
X322063Y673219D01*
X323135Y672147D01*
X324396Y671305D01*
X325797Y670724D01*
X327285Y670428D01*
X328801D01*
X330289Y670724D01*
X331690Y671305D01*
X332951Y672147D01*
X334023Y673219D01*
X334866Y674481D01*
X335447Y675882D01*
X335742Y677369D01*
Y678886D01*
X335447Y680373D01*
X334866Y681774D01*
X334023Y683036D01*
X332951Y684108D01*
X331690Y684950D01*
X330289Y685531D01*
X328801Y685827D01*
D02*
G37*
G36*
X12569D02*
X11053D01*
X9565Y685531D01*
X8164Y684950D01*
X6903Y684108D01*
X5831Y683036D01*
X4988Y681774D01*
X4408Y680373D01*
X4112Y678886D01*
Y677369D01*
X4408Y675882D01*
X4988Y674481D01*
X5831Y673219D01*
X6903Y672147D01*
X8164Y671305D01*
X9565Y670724D01*
X11053Y670428D01*
X12569D01*
X14057Y670724D01*
X15458Y671305D01*
X16719Y672147D01*
X17791Y673219D01*
X18634Y674481D01*
X19214Y675882D01*
X19510Y677369D01*
Y678886D01*
X19214Y680373D01*
X18634Y681774D01*
X17791Y683036D01*
X16719Y684108D01*
X15458Y684950D01*
X14057Y685531D01*
X12569Y685827D01*
D02*
G37*
G36*
X496909Y684910D02*
X495313Y684753D01*
X493779Y684287D01*
X492364Y683531D01*
X491124Y682514D01*
X490107Y681274D01*
X489351Y679859D01*
X488885Y678324D01*
X488728Y676728D01*
X488885Y675132D01*
X489351Y673597D01*
X490107Y672183D01*
X491124Y670943D01*
X492364Y669926D01*
X493779Y669170D01*
X495313Y668704D01*
X496909Y668547D01*
X498506Y668704D01*
X500040Y669170D01*
X501455Y669926D01*
X502695Y670943D01*
X503712Y672183D01*
X504468Y673597D01*
X504934Y675132D01*
X505091Y676728D01*
X504934Y678324D01*
X504468Y679859D01*
X503712Y681274D01*
X502695Y682514D01*
X501455Y683531D01*
X500040Y684287D01*
X498506Y684753D01*
X496909Y684910D01*
D02*
G37*
G36*
X396683D02*
X395087Y684753D01*
X393552Y684287D01*
X392138Y683531D01*
X390898Y682514D01*
X389880Y681274D01*
X389124Y679859D01*
X388659Y678324D01*
X388502Y676728D01*
X388659Y675132D01*
X389124Y673597D01*
X389880Y672183D01*
X390898Y670943D01*
X392138Y669926D01*
X393552Y669170D01*
X395087Y668704D01*
X396683Y668547D01*
X398279Y668704D01*
X399814Y669170D01*
X401229Y669926D01*
X402468Y670943D01*
X403486Y672183D01*
X404242Y673597D01*
X404707Y675132D01*
X404865Y676728D01*
X404707Y678324D01*
X404242Y679859D01*
X403486Y681274D01*
X402468Y682514D01*
X401229Y683531D01*
X399814Y684287D01*
X398279Y684753D01*
X396683Y684910D01*
D02*
G37*
G36*
X296457D02*
X294861Y684753D01*
X293326Y684287D01*
X291911Y683531D01*
X290671Y682514D01*
X289654Y681274D01*
X288898Y679859D01*
X288432Y678324D01*
X288275Y676728D01*
X288432Y675132D01*
X288898Y673597D01*
X289654Y672183D01*
X290671Y670943D01*
X291911Y669926D01*
X293326Y669170D01*
X294861Y668704D01*
X296457Y668547D01*
X298053Y668704D01*
X299588Y669170D01*
X301002Y669926D01*
X302242Y670943D01*
X303259Y672183D01*
X304015Y673597D01*
X304481Y675132D01*
X304638Y676728D01*
X304481Y678324D01*
X304015Y679859D01*
X303259Y681274D01*
X302242Y682514D01*
X301002Y683531D01*
X299588Y684287D01*
X298053Y684753D01*
X296457Y684910D01*
D02*
G37*
G36*
X540645Y671640D02*
X539343D01*
X538086Y671303D01*
X536959Y670652D01*
X536039Y669732D01*
X535388Y668605D01*
X535051Y667348D01*
Y666046D01*
X535388Y664789D01*
X536039Y663661D01*
X536959Y662741D01*
X538086Y662090D01*
X539343Y661754D01*
X540645D01*
X541902Y662090D01*
X543029Y662741D01*
X543950Y663661D01*
X544601Y664789D01*
X544938Y666046D01*
Y667348D01*
X544601Y668605D01*
X543950Y669732D01*
X543029Y670652D01*
X541902Y671303D01*
X540645Y671640D01*
D02*
G37*
G36*
X472520Y653966D02*
X472280Y653902D01*
X471267Y653317D01*
X470439Y652489D01*
X469854Y651475D01*
X469817Y651337D01*
X469317D01*
X469280Y651475D01*
X468695Y652489D01*
X467867Y653317D01*
X466853Y653902D01*
X466614Y653966D01*
Y649760D01*
Y645554D01*
X466853Y645618D01*
X467867Y646203D01*
X468695Y647031D01*
X469280Y648044D01*
X469317Y648183D01*
X469817D01*
X469854Y648044D01*
X470439Y647031D01*
X471267Y646203D01*
X472280Y645618D01*
X472520Y645554D01*
Y649760D01*
Y653966D01*
D02*
G37*
G36*
X372293Y653966D02*
X372054Y653902D01*
X371040Y653317D01*
X370213Y652489D01*
X369628Y651475D01*
X369590Y651337D01*
X369091D01*
X369053Y651475D01*
X368468Y652489D01*
X367641Y653317D01*
X366627Y653902D01*
X366388Y653966D01*
Y649760D01*
Y645554D01*
X366627Y645618D01*
X367641Y646203D01*
X368468Y647031D01*
X369053Y648044D01*
X369091Y648183D01*
X369590D01*
X369628Y648044D01*
X370213Y647031D01*
X371040Y646203D01*
X372054Y645618D01*
X372293Y645554D01*
Y649760D01*
Y653966D01*
D02*
G37*
G36*
X363435Y653966D02*
X363196Y653902D01*
X362182Y653317D01*
X361355Y652489D01*
X360769Y651475D01*
X360732Y651337D01*
X360232D01*
X360195Y651475D01*
X359610Y652489D01*
X358782Y653317D01*
X357769Y653902D01*
X357530Y653966D01*
Y649760D01*
Y645554D01*
X357769Y645618D01*
X358782Y646203D01*
X359610Y647031D01*
X360195Y648044D01*
X360232Y648183D01*
X360732D01*
X360769Y648044D01*
X361355Y647031D01*
X362182Y646203D01*
X363196Y645618D01*
X363435Y645554D01*
Y649760D01*
Y653966D01*
D02*
G37*
G36*
X263209D02*
X262969Y653902D01*
X261956Y653317D01*
X261128Y652489D01*
X260543Y651475D01*
X260506Y651337D01*
X260006D01*
X259969Y651475D01*
X259384Y652489D01*
X258556Y653317D01*
X257542Y653902D01*
X257303Y653966D01*
Y649760D01*
Y645554D01*
X257542Y645618D01*
X258556Y646203D01*
X259384Y647031D01*
X259969Y648044D01*
X260006Y648183D01*
X260506D01*
X260543Y648044D01*
X261128Y647031D01*
X261956Y646203D01*
X262969Y645618D01*
X263209Y645554D01*
Y649760D01*
Y653966D01*
D02*
G37*
G36*
X401821Y653966D02*
Y651236D01*
X404551D01*
X404486Y651475D01*
X403901Y652489D01*
X403074Y653317D01*
X402060Y653902D01*
X401821Y653966D01*
D02*
G37*
G36*
X454803Y653966D02*
X454564Y653902D01*
X453550Y653317D01*
X452723Y652489D01*
X452138Y651475D01*
X452073Y651236D01*
X454803D01*
Y653966D01*
D02*
G37*
G36*
X502047Y653966D02*
Y651236D01*
X504777D01*
X504713Y651475D01*
X504128Y652489D01*
X503300Y653317D01*
X502286Y653902D01*
X502047Y653966D01*
D02*
G37*
G36*
X254350Y653966D02*
X254111Y653902D01*
X253098Y653317D01*
X252270Y652489D01*
X251685Y651475D01*
X251621Y651236D01*
X254350D01*
Y653966D01*
D02*
G37*
G36*
X301594Y653966D02*
Y651236D01*
X304324D01*
X304260Y651475D01*
X303675Y652489D01*
X302847Y653317D01*
X301834Y653902D01*
X301594Y653966D01*
D02*
G37*
G36*
X354577Y653966D02*
X354338Y653902D01*
X353324Y653317D01*
X352496Y652489D01*
X351911Y651475D01*
X351847Y651236D01*
X354577D01*
Y653966D01*
D02*
G37*
G36*
X454803Y648283D02*
X452073D01*
X452138Y648044D01*
X452723Y647031D01*
X453550Y646203D01*
X454564Y645618D01*
X454803Y645554D01*
Y648283D01*
D02*
G37*
G36*
X392963Y653966D02*
Y649760D01*
Y645554D01*
X393202Y645618D01*
X394215Y646203D01*
X395043Y647031D01*
X395628Y648044D01*
X395665Y648183D01*
X396165D01*
X396202Y648044D01*
X396788Y647031D01*
X397615Y646203D01*
X398629Y645618D01*
X398868Y645554D01*
Y649760D01*
Y653966D01*
X398629Y653902D01*
X397615Y653317D01*
X396788Y652489D01*
X396202Y651475D01*
X396165Y651337D01*
X395665D01*
X395628Y651475D01*
X395043Y652489D01*
X394215Y653317D01*
X393202Y653902D01*
X392963Y653966D01*
D02*
G37*
G36*
X283878D02*
Y649760D01*
Y645554D01*
X284117Y645618D01*
X285131Y646203D01*
X285958Y647031D01*
X286543Y648044D01*
X286581Y648183D01*
X287081D01*
X287118Y648044D01*
X287703Y647031D01*
X288531Y646203D01*
X289544Y645618D01*
X289783Y645554D01*
Y649760D01*
Y653966D01*
X289544Y653902D01*
X288531Y653317D01*
X287703Y652489D01*
X287118Y651475D01*
X287081Y651337D01*
X286581D01*
X286543Y651475D01*
X285958Y652489D01*
X285131Y653317D01*
X284117Y653902D01*
X283878Y653966D01*
D02*
G37*
G36*
X493189D02*
Y649760D01*
Y645554D01*
X493428Y645618D01*
X494442Y646203D01*
X495269Y647031D01*
X495855Y648044D01*
X495892Y648183D01*
X496392D01*
X496429Y648044D01*
X497014Y647031D01*
X497842Y646203D01*
X498855Y645618D01*
X499094Y645554D01*
Y649760D01*
Y653966D01*
X498855Y653902D01*
X497842Y653317D01*
X497014Y652489D01*
X496429Y651475D01*
X496392Y651337D01*
X495892D01*
X495855Y651475D01*
X495269Y652489D01*
X494442Y653317D01*
X493428Y653902D01*
X493189Y653966D01*
D02*
G37*
G36*
X384104Y653966D02*
Y649760D01*
Y645554D01*
X384344Y645618D01*
X385357Y646203D01*
X386185Y647031D01*
X386770Y648044D01*
X386807Y648183D01*
X387307D01*
X387344Y648044D01*
X387929Y647031D01*
X388757Y646203D01*
X389771Y645618D01*
X390010Y645554D01*
Y649760D01*
Y653966D01*
X389771Y653902D01*
X388757Y653317D01*
X387929Y652489D01*
X387344Y651475D01*
X387307Y651337D01*
X386807D01*
X386770Y651475D01*
X386185Y652489D01*
X385357Y653317D01*
X384344Y653902D01*
X384104Y653966D01*
D02*
G37*
G36*
X304324Y648283D02*
X301594D01*
Y645554D01*
X301834Y645618D01*
X302847Y646203D01*
X303675Y647031D01*
X304260Y648044D01*
X304324Y648283D01*
D02*
G37*
G36*
X275020Y653966D02*
Y649760D01*
Y645554D01*
X275259Y645618D01*
X276273Y646203D01*
X277100Y647031D01*
X277685Y648044D01*
X277722Y648183D01*
X278222D01*
X278260Y648044D01*
X278845Y647031D01*
X279672Y646203D01*
X280686Y645618D01*
X280925Y645554D01*
Y649760D01*
Y653966D01*
X280686Y653902D01*
X279672Y653317D01*
X278845Y652489D01*
X278260Y651475D01*
X278222Y651337D01*
X277722D01*
X277685Y651475D01*
X277100Y652489D01*
X276273Y653317D01*
X275259Y653902D01*
X275020Y653966D01*
D02*
G37*
G36*
X484331D02*
Y649760D01*
Y645554D01*
X484570Y645618D01*
X485583Y646203D01*
X486411Y647031D01*
X486996Y648044D01*
X487033Y648183D01*
X487533D01*
X487571Y648044D01*
X488156Y647031D01*
X488983Y646203D01*
X489997Y645618D01*
X490236Y645554D01*
Y649760D01*
Y653966D01*
X489997Y653902D01*
X488983Y653317D01*
X488156Y652489D01*
X487571Y651475D01*
X487533Y651337D01*
X487033D01*
X486996Y651475D01*
X486411Y652489D01*
X485583Y653317D01*
X484570Y653902D01*
X484331Y653966D01*
D02*
G37*
G36*
X375246D02*
Y649760D01*
Y645554D01*
X375485Y645618D01*
X376499Y646203D01*
X377326Y647031D01*
X377912Y648044D01*
X377949Y648183D01*
X378449D01*
X378486Y648044D01*
X379071Y647031D01*
X379899Y646203D01*
X380912Y645618D01*
X381152Y645554D01*
Y649760D01*
Y653966D01*
X380912Y653902D01*
X379899Y653317D01*
X379071Y652489D01*
X378486Y651475D01*
X378449Y651337D01*
X377949D01*
X377912Y651475D01*
X377326Y652489D01*
X376499Y653317D01*
X375485Y653902D01*
X375246Y653966D01*
D02*
G37*
G36*
X266161D02*
Y649760D01*
Y645554D01*
X266401Y645618D01*
X267414Y646203D01*
X268242Y647031D01*
X268827Y648044D01*
X268864Y648183D01*
X269364D01*
X269401Y648044D01*
X269987Y647031D01*
X270814Y646203D01*
X271828Y645618D01*
X272067Y645554D01*
Y649760D01*
Y653966D01*
X271828Y653902D01*
X270814Y653317D01*
X269987Y652489D01*
X269401Y651475D01*
X269364Y651337D01*
X268864D01*
X268827Y651475D01*
X268242Y652489D01*
X267414Y653317D01*
X266401Y653902D01*
X266161Y653966D01*
D02*
G37*
G36*
X475472Y653966D02*
Y649760D01*
Y645554D01*
X475712Y645618D01*
X476725Y646203D01*
X477553Y647031D01*
X478138Y648044D01*
X478175Y648183D01*
X478675D01*
X478712Y648044D01*
X479297Y647031D01*
X480125Y646203D01*
X481139Y645618D01*
X481378Y645554D01*
Y649760D01*
Y653966D01*
X481139Y653902D01*
X480125Y653317D01*
X479297Y652489D01*
X478712Y651475D01*
X478675Y651337D01*
X478175D01*
X478138Y651475D01*
X477553Y652489D01*
X476725Y653317D01*
X475712Y653902D01*
X475472Y653966D01*
D02*
G37*
G36*
X254350Y648283D02*
X251621D01*
X251685Y648044D01*
X252270Y647031D01*
X253098Y646203D01*
X254111Y645618D01*
X254350Y645554D01*
Y648283D01*
D02*
G37*
G36*
X457756Y653966D02*
Y649760D01*
Y645554D01*
X457995Y645618D01*
X459009Y646203D01*
X459836Y647031D01*
X460422Y648044D01*
X460459Y648183D01*
X460959D01*
X460996Y648044D01*
X461581Y647031D01*
X462409Y646203D01*
X463422Y645618D01*
X463661Y645554D01*
Y649760D01*
Y653966D01*
X463422Y653902D01*
X462409Y653317D01*
X461581Y652489D01*
X460996Y651475D01*
X460959Y651337D01*
X460459D01*
X460422Y651475D01*
X459836Y652489D01*
X459009Y653317D01*
X457995Y653902D01*
X457756Y653966D01*
D02*
G37*
G36*
X354577Y648283D02*
X351847D01*
X351911Y648044D01*
X352496Y647031D01*
X353324Y646203D01*
X354338Y645618D01*
X354577Y645554D01*
Y648283D01*
D02*
G37*
G36*
X292736Y653966D02*
Y649760D01*
Y645554D01*
X292975Y645618D01*
X293989Y646203D01*
X294817Y647031D01*
X295402Y648044D01*
X295439Y648183D01*
X295939D01*
X295976Y648044D01*
X296561Y647031D01*
X297389Y646203D01*
X298402Y645618D01*
X298642Y645554D01*
Y649760D01*
Y653966D01*
X298402Y653902D01*
X297389Y653317D01*
X296561Y652489D01*
X295976Y651475D01*
X295939Y651337D01*
X295439D01*
X295402Y651475D01*
X294817Y652489D01*
X293989Y653317D01*
X292975Y653902D01*
X292736Y653966D01*
D02*
G37*
G36*
X504777Y648283D02*
X502047D01*
Y645554D01*
X502286Y645618D01*
X503300Y646203D01*
X504128Y647031D01*
X504713Y648044D01*
X504777Y648283D01*
D02*
G37*
G36*
X404551Y648283D02*
X401821D01*
Y645554D01*
X402060Y645618D01*
X403074Y646203D01*
X403901Y647031D01*
X404486Y648044D01*
X404551Y648283D01*
D02*
G37*
G36*
X139426Y651872D02*
X138487D01*
X137581Y651629D01*
X136767Y651160D01*
X136104Y650496D01*
X135634Y649683D01*
X135391Y648776D01*
Y647838D01*
X135634Y646931D01*
X136104Y646118D01*
X136767Y645454D01*
X137581Y644985D01*
X138487Y644742D01*
X139426D01*
X140333Y644985D01*
X141146Y645454D01*
X141810Y646118D01*
X142279Y646931D01*
X142522Y647838D01*
Y648776D01*
X142279Y649683D01*
X141810Y650496D01*
X141146Y651160D01*
X140333Y651629D01*
X139426Y651872D01*
D02*
G37*
G36*
X439799Y644492D02*
X439004D01*
X438269Y644188D01*
X437706Y643625D01*
X437402Y642890D01*
Y642094D01*
X437706Y641359D01*
X438269Y640797D01*
X439004Y640492D01*
X439799D01*
X440535Y640797D01*
X441097Y641359D01*
X441402Y642094D01*
Y642890D01*
X441097Y643625D01*
X440535Y644188D01*
X439799Y644492D01*
D02*
G37*
G36*
X339799D02*
X339004D01*
X338269Y644188D01*
X337706Y643625D01*
X337402Y642890D01*
Y642094D01*
X337706Y641359D01*
X338269Y640797D01*
X339004Y640492D01*
X339799D01*
X340535Y640797D01*
X341097Y641359D01*
X341402Y642094D01*
Y642890D01*
X341097Y643625D01*
X340535Y644188D01*
X339799Y644492D01*
D02*
G37*
G36*
X239799D02*
X239004D01*
X238269Y644188D01*
X237706Y643625D01*
X237402Y642890D01*
Y642094D01*
X237706Y641359D01*
X238269Y640797D01*
X239004Y640492D01*
X239799D01*
X240535Y640797D01*
X241097Y641359D01*
X241402Y642094D01*
Y642890D01*
X241097Y643625D01*
X240535Y644188D01*
X239799Y644492D01*
D02*
G37*
G36*
X481378Y640186D02*
X481139Y640122D01*
X480125Y639537D01*
X479297Y638709D01*
X478712Y637696D01*
X478675Y637557D01*
X478175D01*
X478138Y637696D01*
X477553Y638709D01*
X476725Y639537D01*
X475712Y640122D01*
X475472Y640186D01*
Y635980D01*
Y631774D01*
X475712Y631838D01*
X476725Y632423D01*
X477553Y633251D01*
X478138Y634265D01*
X478175Y634403D01*
X478675D01*
X478712Y634265D01*
X479297Y633251D01*
X480125Y632423D01*
X481139Y631838D01*
X481378Y631774D01*
Y635980D01*
Y640186D01*
D02*
G37*
G36*
X489799Y644492D02*
X489004D01*
X488269Y644188D01*
X487706Y643625D01*
X487402Y642890D01*
Y642094D01*
X487706Y641359D01*
X488269Y640797D01*
X489004Y640492D01*
X489638D01*
X489772Y639992D01*
X488983Y639537D01*
X488156Y638709D01*
X487571Y637696D01*
X487533Y637557D01*
X487033D01*
X486996Y637696D01*
X486411Y638709D01*
X485583Y639537D01*
X484570Y640122D01*
X484331Y640186D01*
Y635980D01*
Y631774D01*
X484570Y631838D01*
X485583Y632423D01*
X486411Y633251D01*
X486996Y634265D01*
X487033Y634403D01*
X487533D01*
X487571Y634265D01*
X488156Y633251D01*
X488983Y632423D01*
X489997Y631838D01*
X490236Y631774D01*
Y635980D01*
X493189D01*
Y631774D01*
X493428Y631838D01*
X494442Y632423D01*
X495269Y633251D01*
X495855Y634265D01*
X495892Y634403D01*
X496392D01*
X496429Y634265D01*
X497014Y633251D01*
X497842Y632423D01*
X498855Y631838D01*
X499094Y631774D01*
Y635980D01*
Y640186D01*
X498855Y640122D01*
X497842Y639537D01*
X497014Y638709D01*
X496429Y637696D01*
X496392Y637557D01*
X495892D01*
X495855Y637696D01*
X495269Y638709D01*
X494442Y639537D01*
X493428Y640122D01*
X492298Y640425D01*
X491127D01*
X490609Y640286D01*
X490448Y640761D01*
X490535Y640797D01*
X491097Y641359D01*
X491402Y642094D01*
Y642890D01*
X491097Y643625D01*
X490535Y644188D01*
X489799Y644492D01*
D02*
G37*
G36*
X472520Y640186D02*
X472280Y640122D01*
X471267Y639537D01*
X470439Y638709D01*
X469854Y637696D01*
X469817Y637557D01*
X469317D01*
X469280Y637696D01*
X468695Y638709D01*
X467867Y639537D01*
X466853Y640122D01*
X466614Y640186D01*
Y635980D01*
Y631774D01*
X466853Y631838D01*
X467867Y632423D01*
X468695Y633251D01*
X469280Y634265D01*
X469317Y634403D01*
X469817D01*
X469854Y634265D01*
X470439Y633251D01*
X471267Y632423D01*
X472280Y631838D01*
X472520Y631774D01*
Y635980D01*
Y640186D01*
D02*
G37*
G36*
X389799Y644492D02*
X389004D01*
X388269Y644188D01*
X387706Y643625D01*
X387402Y642890D01*
Y642094D01*
X387706Y641359D01*
X388269Y640797D01*
X389004Y640492D01*
X389411D01*
X389545Y639992D01*
X388757Y639537D01*
X387929Y638709D01*
X387344Y637696D01*
X387307Y637557D01*
X386807D01*
X386770Y637696D01*
X386185Y638709D01*
X385357Y639537D01*
X384344Y640122D01*
X384104Y640186D01*
Y635980D01*
Y631774D01*
X384344Y631838D01*
X385357Y632423D01*
X386185Y633251D01*
X386770Y634265D01*
X386807Y634403D01*
X387307D01*
X387344Y634265D01*
X387929Y633251D01*
X388757Y632423D01*
X389771Y631838D01*
X390010Y631774D01*
Y635980D01*
X392963D01*
Y631774D01*
X393202Y631838D01*
X394215Y632423D01*
X395043Y633251D01*
X395628Y634265D01*
X395665Y634403D01*
X396165D01*
X396202Y634265D01*
X396788Y633251D01*
X397615Y632423D01*
X398629Y631838D01*
X398868Y631774D01*
Y635980D01*
Y640186D01*
X398629Y640122D01*
X397615Y639537D01*
X396788Y638709D01*
X396202Y637696D01*
X396165Y637557D01*
X395665D01*
X395628Y637696D01*
X395043Y638709D01*
X394215Y639537D01*
X393202Y640122D01*
X392071Y640425D01*
X390901D01*
X390785Y640394D01*
X390697Y640537D01*
X390600Y640862D01*
X391097Y641359D01*
X391402Y642094D01*
Y642890D01*
X391097Y643625D01*
X390535Y644188D01*
X389799Y644492D01*
D02*
G37*
G36*
X372293Y640186D02*
X372054Y640122D01*
X371040Y639537D01*
X370213Y638709D01*
X369628Y637696D01*
X369590Y637557D01*
X369091D01*
X369053Y637696D01*
X368468Y638709D01*
X367641Y639537D01*
X366627Y640122D01*
X366388Y640186D01*
Y635980D01*
Y631774D01*
X366627Y631838D01*
X367641Y632423D01*
X368468Y633251D01*
X369053Y634265D01*
X369091Y634403D01*
X369590D01*
X369628Y634265D01*
X370213Y633251D01*
X371040Y632423D01*
X372054Y631838D01*
X372293Y631774D01*
Y635980D01*
Y640186D01*
D02*
G37*
G36*
X363435D02*
X363196Y640122D01*
X362182Y639537D01*
X361355Y638709D01*
X360769Y637696D01*
X360732Y637557D01*
X360232D01*
X360195Y637696D01*
X359610Y638709D01*
X358782Y639537D01*
X357769Y640122D01*
X357530Y640186D01*
Y635980D01*
Y631774D01*
X357769Y631838D01*
X358782Y632423D01*
X359610Y633251D01*
X360195Y634265D01*
X360232Y634403D01*
X360732D01*
X360769Y634265D01*
X361355Y633251D01*
X362182Y632423D01*
X363196Y631838D01*
X363435Y631774D01*
Y635980D01*
Y640186D01*
D02*
G37*
G36*
X289799Y644492D02*
X289004D01*
X288269Y644188D01*
X287706Y643625D01*
X287402Y642890D01*
Y642094D01*
X287706Y641359D01*
X288269Y640797D01*
X289004Y640492D01*
X289185D01*
X289319Y639992D01*
X288531Y639537D01*
X287703Y638709D01*
X287118Y637696D01*
X287081Y637557D01*
X286581D01*
X286543Y637696D01*
X285958Y638709D01*
X285131Y639537D01*
X284117Y640122D01*
X283878Y640186D01*
Y635980D01*
Y631774D01*
X284117Y631838D01*
X285131Y632423D01*
X285958Y633251D01*
X286543Y634265D01*
X286581Y634403D01*
X287081D01*
X287118Y634265D01*
X287703Y633251D01*
X288531Y632423D01*
X289544Y631838D01*
X289783Y631774D01*
Y635980D01*
X292736D01*
Y631774D01*
X292975Y631838D01*
X293989Y632423D01*
X294817Y633251D01*
X295402Y634265D01*
X295439Y634403D01*
X295939D01*
X295976Y634265D01*
X296561Y633251D01*
X297389Y632423D01*
X298402Y631838D01*
X298642Y631774D01*
Y635980D01*
Y640186D01*
X298402Y640122D01*
X297389Y639537D01*
X296561Y638709D01*
X295976Y637696D01*
X295939Y637557D01*
X295439D01*
X295402Y637696D01*
X294817Y638709D01*
X293989Y639537D01*
X292975Y640122D01*
X291845Y640425D01*
X290845D01*
X290655Y640917D01*
X291097Y641359D01*
X291402Y642094D01*
Y642890D01*
X291097Y643625D01*
X290535Y644188D01*
X289799Y644492D01*
D02*
G37*
G36*
X263209Y640186D02*
X262969Y640122D01*
X261956Y639537D01*
X261128Y638709D01*
X260543Y637696D01*
X260506Y637557D01*
X260006D01*
X259969Y637696D01*
X259384Y638709D01*
X258556Y639537D01*
X257542Y640122D01*
X257303Y640186D01*
Y635980D01*
Y631774D01*
X257542Y631838D01*
X258556Y632423D01*
X259384Y633251D01*
X259969Y634265D01*
X260006Y634403D01*
X260506D01*
X260543Y634265D01*
X261128Y633251D01*
X261956Y632423D01*
X262969Y631838D01*
X263209Y631774D01*
Y635980D01*
Y640186D01*
D02*
G37*
G36*
X401821Y640186D02*
Y637457D01*
X404551D01*
X404486Y637696D01*
X403901Y638709D01*
X403074Y639537D01*
X402060Y640122D01*
X401821Y640186D01*
D02*
G37*
G36*
X454803Y640186D02*
X454564Y640122D01*
X453550Y639537D01*
X452723Y638709D01*
X452138Y637696D01*
X452073Y637457D01*
X454803D01*
Y640186D01*
D02*
G37*
G36*
X502047Y640186D02*
Y637457D01*
X504777D01*
X504713Y637696D01*
X504128Y638709D01*
X503300Y639537D01*
X502286Y640122D01*
X502047Y640186D01*
D02*
G37*
G36*
X254350D02*
X254111Y640122D01*
X253098Y639537D01*
X252270Y638709D01*
X251685Y637696D01*
X251621Y637457D01*
X254350D01*
Y640186D01*
D02*
G37*
G36*
X301594Y640186D02*
Y637457D01*
X304324D01*
X304260Y637696D01*
X303675Y638709D01*
X302847Y639537D01*
X301834Y640122D01*
X301594Y640186D01*
D02*
G37*
G36*
X354577Y640186D02*
X354338Y640122D01*
X353324Y639537D01*
X352496Y638709D01*
X351911Y637696D01*
X351847Y637457D01*
X354577D01*
Y640186D01*
D02*
G37*
G36*
X672532Y635515D02*
X668300D01*
Y634472D01*
X675511D01*
X675022Y634848D01*
X673821Y635345D01*
X672532Y635515D01*
D02*
G37*
G36*
X660426D02*
X656193D01*
X654905Y635345D01*
X653704Y634848D01*
X653214Y634472D01*
X660426D01*
Y635515D01*
D02*
G37*
G36*
X454803Y634504D02*
X452073D01*
X452138Y634265D01*
X452723Y633251D01*
X453550Y632423D01*
X454564Y631838D01*
X454803Y631774D01*
Y634504D01*
D02*
G37*
G36*
X304324Y634504D02*
X301594D01*
Y631774D01*
X301834Y631838D01*
X302847Y632423D01*
X303675Y633251D01*
X304260Y634265D01*
X304324Y634504D01*
D02*
G37*
G36*
X275020Y640186D02*
Y635980D01*
Y631774D01*
X275259Y631838D01*
X276273Y632423D01*
X277100Y633251D01*
X277685Y634265D01*
X277722Y634403D01*
X278222D01*
X278260Y634265D01*
X278845Y633251D01*
X279672Y632423D01*
X280686Y631838D01*
X280925Y631774D01*
Y635980D01*
Y640186D01*
X280686Y640122D01*
X279672Y639537D01*
X278845Y638709D01*
X278260Y637696D01*
X278222Y637557D01*
X277722D01*
X277685Y637696D01*
X277100Y638709D01*
X276273Y639537D01*
X275259Y640122D01*
X275020Y640186D01*
D02*
G37*
G36*
X375246D02*
Y635980D01*
Y631774D01*
X375485Y631838D01*
X376499Y632423D01*
X377326Y633251D01*
X377912Y634265D01*
X377949Y634403D01*
X378449D01*
X378486Y634265D01*
X379071Y633251D01*
X379899Y632423D01*
X380912Y631838D01*
X381152Y631774D01*
Y635980D01*
Y640186D01*
X380912Y640122D01*
X379899Y639537D01*
X379071Y638709D01*
X378486Y637696D01*
X378449Y637557D01*
X377949D01*
X377912Y637696D01*
X377326Y638709D01*
X376499Y639537D01*
X375485Y640122D01*
X375246Y640186D01*
D02*
G37*
G36*
X266161Y640186D02*
Y635980D01*
Y631774D01*
X266401Y631838D01*
X267414Y632423D01*
X268242Y633251D01*
X268827Y634265D01*
X268864Y634403D01*
X269364D01*
X269401Y634265D01*
X269987Y633251D01*
X270814Y632423D01*
X271828Y631838D01*
X272067Y631774D01*
Y635980D01*
Y640186D01*
X271828Y640122D01*
X270814Y639537D01*
X269987Y638709D01*
X269401Y637696D01*
X269364Y637557D01*
X268864D01*
X268827Y637696D01*
X268242Y638709D01*
X267414Y639537D01*
X266401Y640122D01*
X266161Y640186D01*
D02*
G37*
G36*
X254350Y634504D02*
X251621D01*
X251685Y634265D01*
X252270Y633251D01*
X253098Y632423D01*
X254111Y631838D01*
X254350Y631774D01*
Y634504D01*
D02*
G37*
G36*
X457756Y640186D02*
Y635980D01*
Y631774D01*
X457995Y631838D01*
X459009Y632423D01*
X459836Y633251D01*
X460422Y634265D01*
X460459Y634403D01*
X460959D01*
X460996Y634265D01*
X461581Y633251D01*
X462409Y632423D01*
X463422Y631838D01*
X463661Y631774D01*
Y635980D01*
Y640186D01*
X463422Y640122D01*
X462409Y639537D01*
X461581Y638709D01*
X460996Y637696D01*
X460959Y637557D01*
X460459D01*
X460422Y637696D01*
X459836Y638709D01*
X459009Y639537D01*
X457995Y640122D01*
X457756Y640186D01*
D02*
G37*
G36*
X504777Y634504D02*
X502047D01*
Y631774D01*
X502286Y631838D01*
X503300Y632423D01*
X504128Y633251D01*
X504713Y634265D01*
X504777Y634504D01*
D02*
G37*
G36*
X354577Y634504D02*
X351847D01*
X351911Y634265D01*
X352496Y633251D01*
X353324Y632423D01*
X354338Y631838D01*
X354577Y631774D01*
Y634504D01*
D02*
G37*
G36*
X404551Y634504D02*
X401821D01*
Y631774D01*
X402060Y631838D01*
X403074Y632423D01*
X403901Y633251D01*
X404486Y634265D01*
X404551Y634504D01*
D02*
G37*
G36*
X675511Y626598D02*
X668300D01*
Y625556D01*
X672532D01*
X673821Y625725D01*
X675022Y626223D01*
X675511Y626598D01*
D02*
G37*
G36*
X660426D02*
X653214D01*
X653704Y626223D01*
X654905Y625725D01*
X656193Y625556D01*
X660426D01*
Y626598D01*
D02*
G37*
G36*
X432815Y629398D02*
X431219Y629241D01*
X429684Y628775D01*
X428269Y628019D01*
X427030Y627002D01*
X426012Y625762D01*
X425256Y624347D01*
X424791Y622813D01*
X424633Y621216D01*
X424791Y619620D01*
X425256Y618085D01*
X426012Y616671D01*
X427030Y615431D01*
X428269Y614414D01*
X429684Y613658D01*
X431219Y613192D01*
X432815Y613035D01*
X434411Y613192D01*
X435946Y613658D01*
X437360Y614414D01*
X438600Y615431D01*
X439618Y616671D01*
X440374Y618085D01*
X440839Y619620D01*
X440997Y621216D01*
X440839Y622813D01*
X440374Y624347D01*
X439618Y625762D01*
X438600Y627002D01*
X437360Y628019D01*
X435946Y628775D01*
X434411Y629241D01*
X432815Y629398D01*
D02*
G37*
G36*
X332589D02*
X330992Y629241D01*
X329458Y628775D01*
X328043Y628019D01*
X326803Y627002D01*
X325786Y625762D01*
X325030Y624347D01*
X324564Y622813D01*
X324407Y621216D01*
X324564Y619620D01*
X325030Y618085D01*
X325786Y616671D01*
X326803Y615431D01*
X328043Y614414D01*
X329458Y613658D01*
X330992Y613192D01*
X332589Y613035D01*
X334185Y613192D01*
X335719Y613658D01*
X337134Y614414D01*
X338374Y615431D01*
X339391Y616671D01*
X340147Y618085D01*
X340613Y619620D01*
X340770Y621216D01*
X340613Y622813D01*
X340147Y624347D01*
X339391Y625762D01*
X338374Y627002D01*
X337134Y628019D01*
X335719Y628775D01*
X334185Y629241D01*
X332589Y629398D01*
D02*
G37*
G36*
X232362D02*
X230766Y629241D01*
X229231Y628775D01*
X227817Y628019D01*
X226577Y627002D01*
X225559Y625762D01*
X224803Y624347D01*
X224338Y622813D01*
X224181Y621216D01*
X224338Y619620D01*
X224803Y618085D01*
X225559Y616671D01*
X226577Y615431D01*
X227817Y614414D01*
X229231Y613658D01*
X230766Y613192D01*
X232362Y613035D01*
X233958Y613192D01*
X235493Y613658D01*
X236908Y614414D01*
X238147Y615431D01*
X239165Y616671D01*
X239921Y618085D01*
X240387Y619620D01*
X240544Y621216D01*
X240387Y622813D01*
X239921Y624347D01*
X239165Y625762D01*
X238147Y627002D01*
X236908Y628019D01*
X235493Y628775D01*
X233958Y629241D01*
X232362Y629398D01*
D02*
G37*
G36*
X657257Y621006D02*
X655429Y620826D01*
X653671Y620293D01*
X652052Y619427D01*
X650632Y618262D01*
X649467Y616843D01*
X648601Y615223D01*
X648068Y613465D01*
X647888Y611638D01*
X648068Y609810D01*
X648601Y608053D01*
X649467Y606433D01*
X650632Y605013D01*
X652052Y603848D01*
X653671Y602983D01*
X655429Y602449D01*
X657257Y602269D01*
X659084Y602449D01*
X660842Y602983D01*
X662461Y603848D01*
X663881Y605013D01*
X665046Y606433D01*
X665912Y608053D01*
X666445Y609810D01*
X666625Y611638D01*
X666445Y613465D01*
X665912Y615223D01*
X665046Y616843D01*
X663881Y618262D01*
X662461Y619427D01*
X660842Y620293D01*
X659084Y620826D01*
X657257Y621006D01*
D02*
G37*
G36*
X664799Y594492D02*
X664004D01*
X663269Y594188D01*
X662706Y593625D01*
X662402Y592890D01*
Y592094D01*
X662706Y591359D01*
X663269Y590797D01*
X664004Y590492D01*
X664799D01*
X665535Y590797D01*
X666097Y591359D01*
X666402Y592094D01*
Y592890D01*
X666097Y593625D01*
X665535Y594188D01*
X664799Y594492D01*
D02*
G37*
G36*
X614799D02*
X614004D01*
X613269Y594188D01*
X612706Y593625D01*
X612402Y592890D01*
Y592094D01*
X612706Y591359D01*
X613269Y590797D01*
X614004Y590492D01*
X614799D01*
X615535Y590797D01*
X616097Y591359D01*
X616402Y592094D01*
Y592890D01*
X616097Y593625D01*
X615535Y594188D01*
X614799Y594492D01*
D02*
G37*
G36*
X564799D02*
X564004D01*
X563269Y594188D01*
X562706Y593625D01*
X562402Y592890D01*
Y592094D01*
X562706Y591359D01*
X563269Y590797D01*
X564004Y590492D01*
X564799D01*
X565535Y590797D01*
X566097Y591359D01*
X566402Y592094D01*
Y592890D01*
X566097Y593625D01*
X565535Y594188D01*
X564799Y594492D01*
D02*
G37*
G36*
X214799D02*
X214004D01*
X213269Y594188D01*
X212706Y593625D01*
X212402Y592890D01*
Y592094D01*
X212706Y591359D01*
X213269Y590797D01*
X214004Y590492D01*
X214799D01*
X215535Y590797D01*
X216097Y591359D01*
X216402Y592094D01*
Y592890D01*
X216097Y593625D01*
X215535Y594188D01*
X214799Y594492D01*
D02*
G37*
G36*
X38071Y581712D02*
X33838D01*
Y580669D01*
X41050D01*
X40561Y581045D01*
X39360Y581542D01*
X38071Y581712D01*
D02*
G37*
G36*
X25964D02*
X21732D01*
X20443Y581542D01*
X19242Y581045D01*
X18753Y580669D01*
X25964D01*
Y581712D01*
D02*
G37*
G36*
X41050Y572795D02*
X33838D01*
Y571753D01*
X38071D01*
X39360Y571922D01*
X40561Y572420D01*
X41050Y572795D01*
D02*
G37*
G36*
X25964D02*
X18753D01*
X19242Y572420D01*
X20443Y571922D01*
X21732Y571753D01*
X25964D01*
Y572795D01*
D02*
G37*
G36*
X540645Y580675D02*
X539343D01*
X538086Y580338D01*
X536959Y579688D01*
X536039Y578767D01*
X535388Y577640D01*
X535051Y576383D01*
Y575081D01*
X535388Y573824D01*
X536039Y572697D01*
X536959Y571776D01*
X538086Y571126D01*
X539343Y570789D01*
X540645D01*
X541902Y571126D01*
X543029Y571776D01*
X543950Y572697D01*
X544601Y573824D01*
X544938Y575081D01*
Y576383D01*
X544601Y577640D01*
X543950Y578767D01*
X543029Y579688D01*
X541902Y580338D01*
X540645Y580675D01*
D02*
G37*
G36*
Y567289D02*
X539343D01*
X538086Y566953D01*
X536959Y566302D01*
X536039Y565381D01*
X535388Y564254D01*
X535051Y562997D01*
Y561695D01*
X535388Y560438D01*
X536039Y559311D01*
X536959Y558391D01*
X538086Y557740D01*
X539343Y557403D01*
X540645D01*
X541902Y557740D01*
X543029Y558391D01*
X543950Y559311D01*
X544601Y560438D01*
X544938Y561695D01*
Y562997D01*
X544601Y564254D01*
X543950Y565381D01*
X543029Y566302D01*
X541902Y566953D01*
X540645Y567289D01*
D02*
G37*
G36*
X22795Y567203D02*
X20968Y567023D01*
X19210Y566490D01*
X17591Y565624D01*
X16171Y564459D01*
X15006Y563039D01*
X14140Y561420D01*
X13607Y559662D01*
X13427Y557835D01*
X13607Y556007D01*
X14140Y554249D01*
X15006Y552630D01*
X16171Y551210D01*
X17591Y550045D01*
X19210Y549179D01*
X20968Y548646D01*
X22795Y548466D01*
X24623Y548646D01*
X26380Y549179D01*
X28000Y550045D01*
X29420Y551210D01*
X30585Y552630D01*
X31451Y554249D01*
X31984Y556007D01*
X32164Y557835D01*
X31984Y559662D01*
X31451Y561420D01*
X30585Y563039D01*
X29420Y564459D01*
X28000Y565624D01*
X26380Y566490D01*
X24623Y567023D01*
X22795Y567203D01*
D02*
G37*
G36*
X313610Y620896D02*
X242744D01*
X242198Y620787D01*
X241735Y620478D01*
X241425Y620015D01*
X241317Y619468D01*
Y544113D01*
X240817Y543905D01*
X240535Y544188D01*
X239799Y544492D01*
X239004D01*
X238269Y544188D01*
X237706Y543625D01*
X237402Y542890D01*
Y542094D01*
X237706Y541359D01*
X238269Y540797D01*
X239004Y540492D01*
X239799D01*
X240535Y540797D01*
X240817Y541079D01*
X241317Y540872D01*
Y462972D01*
X241425Y462426D01*
X241735Y461963D01*
X242198Y461654D01*
X242744Y461545D01*
X313610D01*
X314157Y461654D01*
X314620Y461963D01*
X314929Y462426D01*
X315038Y462972D01*
Y619468D01*
X314929Y620015D01*
X314620Y620478D01*
X314157Y620787D01*
X313610Y620896D01*
D02*
G37*
G36*
X413837D02*
X342970D01*
X342424Y620787D01*
X341961Y620478D01*
X341652Y620015D01*
X341543Y619468D01*
Y543832D01*
X341297Y543718D01*
X341043Y543679D01*
X340535Y544188D01*
X339799Y544492D01*
X339004D01*
X338269Y544188D01*
X337706Y543625D01*
X337402Y542890D01*
Y542094D01*
X337706Y541359D01*
X338269Y540797D01*
X339004Y540492D01*
X339799D01*
X340535Y540797D01*
X341043Y541305D01*
X341297Y541266D01*
X341543Y541152D01*
Y462972D01*
X341652Y462426D01*
X341961Y461963D01*
X342424Y461654D01*
X342970Y461545D01*
X413837D01*
X414383Y461654D01*
X414846Y461963D01*
X415155Y462426D01*
X415264Y462972D01*
Y619468D01*
X415155Y620015D01*
X414846Y620478D01*
X414383Y620787D01*
X413837Y620896D01*
D02*
G37*
G36*
X514063D02*
X443197D01*
X442651Y620787D01*
X442188Y620478D01*
X441878Y620015D01*
X441769Y619468D01*
Y543309D01*
X441269Y543209D01*
X441097Y543625D01*
X440535Y544188D01*
X439799Y544492D01*
X439004D01*
X438269Y544188D01*
X437706Y543625D01*
X437402Y542890D01*
Y542094D01*
X437706Y541359D01*
X438269Y540797D01*
X439004Y540492D01*
X439799D01*
X440535Y540797D01*
X441097Y541359D01*
X441269Y541775D01*
X441769Y541676D01*
Y462972D01*
X441878Y462426D01*
X442188Y461963D01*
X442651Y461654D01*
X443197Y461545D01*
X514063D01*
X514609Y461654D01*
X515072Y461963D01*
X515382Y462426D01*
X515490Y462972D01*
Y619468D01*
X515382Y620015D01*
X515072Y620478D01*
X514609Y620787D01*
X514063Y620896D01*
D02*
G37*
G36*
X209035Y684419D02*
X71367D01*
X71208Y684388D01*
X70821Y684311D01*
X70358Y684001D01*
X70193Y683755D01*
X70049Y683538D01*
X70000Y683421D01*
X69891Y682875D01*
Y659068D01*
X70000Y658522D01*
X70310Y658059D01*
X70773Y657749D01*
X71319Y657641D01*
X152112D01*
X154458Y655295D01*
Y542260D01*
X154567Y541713D01*
X154876Y541250D01*
X155340Y540941D01*
X155886Y540832D01*
X209035D01*
X209582Y540941D01*
X210045Y541250D01*
X210354Y541713D01*
X210463Y542260D01*
X210463Y682992D01*
X210354Y683538D01*
X210045Y684001D01*
X209582Y684311D01*
X209035Y684419D01*
D02*
G37*
G36*
X539799Y544492D02*
X539004D01*
X538269Y544188D01*
X537706Y543625D01*
X537402Y542890D01*
Y542094D01*
X537706Y541359D01*
X538269Y540797D01*
X539004Y540492D01*
X539799D01*
X540535Y540797D01*
X541097Y541359D01*
X541402Y542094D01*
Y542890D01*
X541097Y543625D01*
X540535Y544188D01*
X539799Y544492D01*
D02*
G37*
G36*
X39799D02*
X39004D01*
X38269Y544188D01*
X37706Y543625D01*
X37402Y542890D01*
Y542094D01*
X37706Y541359D01*
X38269Y540797D01*
X39004Y540492D01*
X39799D01*
X40535Y540797D01*
X41097Y541359D01*
X41402Y542094D01*
Y542890D01*
X41097Y543625D01*
X40535Y544188D01*
X39799Y544492D01*
D02*
G37*
G36*
X151949Y606132D02*
X104250D01*
X103704Y606023D01*
X103241Y605714D01*
X102931Y605251D01*
X102823Y604705D01*
Y590384D01*
X58189D01*
X57643Y590275D01*
X57180Y589966D01*
X56870Y589503D01*
X56761Y588957D01*
Y541813D01*
X56761Y541813D01*
X56870Y541267D01*
X57180Y540804D01*
X57180Y540804D01*
X57280Y540703D01*
X57743Y540394D01*
X58289Y540285D01*
X58289Y540285D01*
X151949D01*
X152495Y540394D01*
X152958Y540703D01*
X153268Y541166D01*
X153376Y541713D01*
Y604705D01*
X153268Y605251D01*
X152958Y605714D01*
X152495Y606023D01*
X151949Y606132D01*
D02*
G37*
G36*
X672532Y531164D02*
X668300D01*
Y530122D01*
X675511D01*
X675022Y530497D01*
X673821Y530995D01*
X672532Y531164D01*
D02*
G37*
G36*
X660426D02*
X656193D01*
X654905Y530995D01*
X653704Y530497D01*
X653214Y530122D01*
X660426D01*
Y531164D01*
D02*
G37*
G36*
X675511Y522248D02*
X668300D01*
Y521205D01*
X672532D01*
X673821Y521375D01*
X675022Y521872D01*
X675511Y522248D01*
D02*
G37*
G36*
X660426D02*
X653214D01*
X653704Y521872D01*
X654905Y521375D01*
X656193Y521205D01*
X660426D01*
Y522248D01*
D02*
G37*
G36*
X12569Y535258D02*
X11053D01*
X9565Y534962D01*
X8164Y534382D01*
X6903Y533539D01*
X5831Y532467D01*
X4988Y531206D01*
X4408Y529805D01*
X4112Y528317D01*
Y526801D01*
X4408Y525313D01*
X4988Y523912D01*
X5831Y522651D01*
X6903Y521579D01*
X8164Y520736D01*
X9565Y520156D01*
X11053Y519860D01*
X12569D01*
X14057Y520156D01*
X15458Y520736D01*
X16719Y521579D01*
X17791Y522651D01*
X18634Y523912D01*
X19214Y525313D01*
X19510Y526801D01*
Y528317D01*
X19214Y529805D01*
X18634Y531206D01*
X17791Y532467D01*
X16719Y533539D01*
X15458Y534382D01*
X14057Y534962D01*
X12569Y535258D01*
D02*
G37*
G36*
X657257Y516655D02*
X655429Y516475D01*
X653671Y515942D01*
X652052Y515077D01*
X650632Y513912D01*
X649467Y512492D01*
X648601Y510872D01*
X648068Y509115D01*
X647888Y507287D01*
X648068Y505459D01*
X648601Y503702D01*
X649467Y502082D01*
X650632Y500663D01*
X652052Y499498D01*
X653671Y498632D01*
X655429Y498099D01*
X657257Y497919D01*
X659084Y498099D01*
X660842Y498632D01*
X662461Y499498D01*
X663881Y500663D01*
X665046Y502082D01*
X665912Y503702D01*
X666445Y505459D01*
X666625Y507287D01*
X666445Y509115D01*
X665912Y510872D01*
X665046Y512492D01*
X663881Y513912D01*
X662461Y515077D01*
X660842Y515942D01*
X659084Y516475D01*
X657257Y516655D01*
D02*
G37*
G36*
X664799Y494492D02*
X664004D01*
X663269Y494188D01*
X662706Y493625D01*
X662402Y492890D01*
Y492094D01*
X662706Y491359D01*
X663269Y490797D01*
X664004Y490492D01*
X664799D01*
X665535Y490797D01*
X666097Y491359D01*
X666402Y492094D01*
Y492890D01*
X666097Y493625D01*
X665535Y494188D01*
X664799Y494492D01*
D02*
G37*
G36*
X614799D02*
X614004D01*
X613269Y494188D01*
X612706Y493625D01*
X612402Y492890D01*
Y492094D01*
X612706Y491359D01*
X613269Y490797D01*
X614004Y490492D01*
X614799D01*
X615535Y490797D01*
X616097Y491359D01*
X616402Y492094D01*
Y492890D01*
X616097Y493625D01*
X615535Y494188D01*
X614799Y494492D01*
D02*
G37*
G36*
X564799D02*
X564004D01*
X563269Y494188D01*
X562706Y493625D01*
X562402Y492890D01*
Y492094D01*
X562706Y491359D01*
X563269Y490797D01*
X564004Y490492D01*
X564799D01*
X565535Y490797D01*
X566097Y491359D01*
X566402Y492094D01*
Y492890D01*
X566097Y493625D01*
X565535Y494188D01*
X564799Y494492D01*
D02*
G37*
G36*
X214799D02*
X214004D01*
X213269Y494188D01*
X212706Y493625D01*
X212402Y492890D01*
Y492094D01*
X212706Y491359D01*
X213269Y490797D01*
X214004Y490492D01*
X214799D01*
X215535Y490797D01*
X216097Y491359D01*
X216402Y492094D01*
Y492890D01*
X216097Y493625D01*
X215535Y494188D01*
X214799Y494492D01*
D02*
G37*
G36*
X18477Y476345D02*
X17704D01*
X16958Y476145D01*
X16288Y475758D01*
X15742Y475212D01*
X15355Y474542D01*
X15155Y473796D01*
Y473023D01*
X15355Y472276D01*
X15742Y471607D01*
X16288Y471061D01*
X16958Y470674D01*
X17704Y470474D01*
X18477D01*
X19223Y470674D01*
X19893Y471061D01*
X20439Y471607D01*
X20826Y472276D01*
X21026Y473023D01*
Y473796D01*
X20826Y474542D01*
X20439Y475212D01*
X19893Y475758D01*
X19223Y476145D01*
X18477Y476345D01*
D02*
G37*
G36*
X540645Y476325D02*
X539343D01*
X538086Y475988D01*
X536959Y475337D01*
X536039Y474417D01*
X535388Y473289D01*
X535051Y472032D01*
Y470731D01*
X535388Y469474D01*
X536039Y468346D01*
X536959Y467426D01*
X538086Y466775D01*
X539343Y466438D01*
X540645D01*
X541902Y466775D01*
X543029Y467426D01*
X543950Y468346D01*
X544601Y469474D01*
X544938Y470731D01*
Y472032D01*
X544601Y473289D01*
X543950Y474417D01*
X543029Y475337D01*
X541902Y475988D01*
X540645Y476325D01*
D02*
G37*
G36*
X18590Y467193D02*
Y464067D01*
X21717D01*
X21475Y464969D01*
X20997Y465797D01*
X20321Y466473D01*
X19492Y466951D01*
X18590Y467193D01*
D02*
G37*
G36*
X17591Y467193D02*
X16689Y466951D01*
X15860Y466473D01*
X15184Y465797D01*
X14706Y464969D01*
X14464Y464067D01*
X17591D01*
Y467193D01*
D02*
G37*
G36*
Y463067D02*
X14465D01*
X14706Y462165D01*
X15184Y461337D01*
X15860Y460661D01*
X16689Y460183D01*
X17591Y459941D01*
Y463067D01*
D02*
G37*
G36*
X21716D02*
X18590D01*
Y459941D01*
X19492Y460183D01*
X20321Y460661D01*
X20997Y461337D01*
X21475Y462165D01*
X21716Y463067D01*
D02*
G37*
G36*
X540645Y462939D02*
X539343D01*
X538086Y462602D01*
X536959Y461951D01*
X536039Y461031D01*
X535388Y459904D01*
X535051Y458646D01*
Y457345D01*
X535388Y456088D01*
X536039Y454960D01*
X536959Y454040D01*
X538086Y453389D01*
X539343Y453052D01*
X540645D01*
X541902Y453389D01*
X543029Y454040D01*
X543950Y454960D01*
X544601Y456088D01*
X544938Y457345D01*
Y458646D01*
X544601Y459904D01*
X543950Y461031D01*
X543029Y461951D01*
X541902Y462602D01*
X540645Y462939D01*
D02*
G37*
G36*
X18477Y456660D02*
X17704D01*
X16958Y456460D01*
X16288Y456073D01*
X15742Y455527D01*
X15355Y454857D01*
X15155Y454111D01*
Y453338D01*
X15355Y452591D01*
X15742Y451922D01*
X16288Y451375D01*
X16958Y450989D01*
X17704Y450789D01*
X18477D01*
X19223Y450989D01*
X19893Y451375D01*
X20439Y451922D01*
X20826Y452591D01*
X21026Y453338D01*
Y454111D01*
X20826Y454857D01*
X20439Y455527D01*
X19893Y456073D01*
X19223Y456460D01*
X18477Y456660D01*
D02*
G37*
G36*
Y446817D02*
X17704D01*
X16958Y446617D01*
X16288Y446231D01*
X15742Y445684D01*
X15355Y445015D01*
X15155Y444268D01*
Y443495D01*
X15355Y442749D01*
X15742Y442079D01*
X16288Y441533D01*
X16958Y441146D01*
X17704Y440946D01*
X18477D01*
X19223Y441146D01*
X19893Y441533D01*
X20439Y442079D01*
X20826Y442749D01*
X21026Y443495D01*
Y444268D01*
X20826Y445015D01*
X20439Y445684D01*
X19893Y446231D01*
X19223Y446617D01*
X18477Y446817D01*
D02*
G37*
G36*
X539799Y444492D02*
X539004D01*
X538269Y444188D01*
X537706Y443625D01*
X537402Y442890D01*
Y442094D01*
X537706Y441359D01*
X538269Y440797D01*
X539004Y440492D01*
X539799D01*
X540535Y440797D01*
X541097Y441359D01*
X541402Y442094D01*
Y442890D01*
X541097Y443625D01*
X540535Y444188D01*
X539799Y444492D01*
D02*
G37*
G36*
X489799D02*
X489004D01*
X488269Y444188D01*
X487706Y443625D01*
X487402Y442890D01*
Y442094D01*
X487706Y441359D01*
X488269Y440797D01*
X489004Y440492D01*
X489799D01*
X490535Y440797D01*
X491097Y441359D01*
X491402Y442094D01*
Y442890D01*
X491097Y443625D01*
X490535Y444188D01*
X489799Y444492D01*
D02*
G37*
G36*
X389799D02*
X389004D01*
X388269Y444188D01*
X387706Y443625D01*
X387402Y442890D01*
Y442094D01*
X387706Y441359D01*
X388269Y440797D01*
X389004Y440492D01*
X389799D01*
X390535Y440797D01*
X391097Y441359D01*
X391402Y442094D01*
Y442890D01*
X391097Y443625D01*
X390535Y444188D01*
X389799Y444492D01*
D02*
G37*
G36*
X39799D02*
X39004D01*
X38269Y444188D01*
X37706Y443625D01*
X37402Y442890D01*
Y442094D01*
X37706Y441359D01*
X38269Y440797D01*
X39004Y440492D01*
X39799D01*
X40535Y440797D01*
X41097Y441359D01*
X41402Y442094D01*
Y442890D01*
X41097Y443625D01*
X40535Y444188D01*
X39799Y444492D01*
D02*
G37*
G36*
X672532Y426814D02*
X668300D01*
Y425771D01*
X675511D01*
X675022Y426147D01*
X673821Y426644D01*
X672532Y426814D01*
D02*
G37*
G36*
X660426D02*
X656193D01*
X654905Y426644D01*
X653704Y426147D01*
X653214Y425771D01*
X660426D01*
Y426814D01*
D02*
G37*
G36*
X18477Y427132D02*
X17704D01*
X16958Y426932D01*
X16288Y426546D01*
X15742Y425999D01*
X15355Y425330D01*
X15155Y424583D01*
Y423810D01*
X15355Y423064D01*
X15742Y422394D01*
X16288Y421848D01*
X16958Y421461D01*
X17704Y421261D01*
X18477D01*
X19223Y421461D01*
X19893Y421848D01*
X20439Y422394D01*
X20826Y423064D01*
X21026Y423810D01*
Y424583D01*
X20826Y425330D01*
X20439Y425999D01*
X19893Y426546D01*
X19223Y426932D01*
X18477Y427132D01*
D02*
G37*
G36*
X479980Y439900D02*
X478037D01*
X476131Y439521D01*
X474336Y438777D01*
X472720Y437698D01*
X471346Y436324D01*
X470266Y434708D01*
X469523Y432913D01*
X469144Y431007D01*
Y429064D01*
X469523Y427158D01*
X470266Y425363D01*
X471346Y423747D01*
X472720Y422373D01*
X474336Y421294D01*
X476131Y420550D01*
X478037Y420171D01*
X479980D01*
X481886Y420550D01*
X483681Y421294D01*
X485297Y422373D01*
X486671Y423747D01*
X487750Y425363D01*
X488494Y427158D01*
X488873Y429064D01*
Y431007D01*
X488494Y432913D01*
X487750Y434708D01*
X486671Y436324D01*
X485297Y437698D01*
X483681Y438777D01*
X481886Y439521D01*
X479980Y439900D01*
D02*
G37*
G36*
X379819D02*
X377876D01*
X375970Y439521D01*
X374175Y438777D01*
X372559Y437698D01*
X371185Y436324D01*
X370106Y434708D01*
X369362Y432913D01*
X368983Y431007D01*
Y429064D01*
X369362Y427158D01*
X370106Y425363D01*
X371185Y423747D01*
X372559Y422373D01*
X374175Y421294D01*
X375970Y420550D01*
X377876Y420171D01*
X379819D01*
X381725Y420550D01*
X383520Y421294D01*
X385136Y422373D01*
X386510Y423747D01*
X387590Y425363D01*
X388333Y427158D01*
X388712Y429064D01*
Y431007D01*
X388333Y432913D01*
X387590Y434708D01*
X386510Y436324D01*
X385136Y437698D01*
X383520Y438777D01*
X381725Y439521D01*
X379819Y439900D01*
D02*
G37*
G36*
X675511Y417897D02*
X668300D01*
Y416855D01*
X672532D01*
X673821Y417024D01*
X675022Y417522D01*
X675511Y417897D01*
D02*
G37*
G36*
X660426D02*
X653214D01*
X653704Y417522D01*
X654905Y417024D01*
X656193Y416855D01*
X660426D01*
Y417897D01*
D02*
G37*
G36*
X18477Y417290D02*
X17704D01*
X16958Y417090D01*
X16288Y416703D01*
X15742Y416157D01*
X15355Y415487D01*
X15155Y414741D01*
Y413968D01*
X15355Y413221D01*
X15742Y412552D01*
X16288Y412005D01*
X16958Y411619D01*
X17704Y411419D01*
X18477D01*
X19223Y411619D01*
X19893Y412005D01*
X20439Y412552D01*
X20826Y413221D01*
X21026Y413968D01*
Y414741D01*
X20826Y415487D01*
X20439Y416157D01*
X19893Y416703D01*
X19223Y417090D01*
X18477Y417290D01*
D02*
G37*
G36*
X21722Y408144D02*
X18590D01*
Y405012D01*
X21722D01*
Y408144D01*
D02*
G37*
G36*
X17591D02*
X14459D01*
Y405012D01*
X17591D01*
Y408144D01*
D02*
G37*
G36*
X21722Y404012D02*
X18590D01*
Y400880D01*
X21722D01*
Y404012D01*
D02*
G37*
G36*
X17591D02*
X14459D01*
Y400880D01*
X17591D01*
Y404012D01*
D02*
G37*
G36*
X657257Y412305D02*
X655429Y412125D01*
X653671Y411592D01*
X652052Y410726D01*
X650632Y409561D01*
X649467Y408141D01*
X648601Y406522D01*
X648068Y404764D01*
X647888Y402937D01*
X648068Y401109D01*
X648601Y399352D01*
X649467Y397732D01*
X650632Y396312D01*
X652052Y395147D01*
X653671Y394281D01*
X655429Y393748D01*
X657257Y393568D01*
X659084Y393748D01*
X660842Y394281D01*
X662461Y395147D01*
X663881Y396312D01*
X665046Y397732D01*
X665912Y399352D01*
X666445Y401109D01*
X666625Y402937D01*
X666445Y404764D01*
X665912Y406522D01*
X665046Y408141D01*
X663881Y409561D01*
X662461Y410726D01*
X660842Y411592D01*
X659084Y412125D01*
X657257Y412305D01*
D02*
G37*
G36*
X479980Y411829D02*
X478037D01*
X476131Y411450D01*
X474336Y410707D01*
X472720Y409627D01*
X471346Y408253D01*
X470266Y406637D01*
X469523Y404842D01*
X469144Y402936D01*
Y400993D01*
X469523Y399087D01*
X470266Y397292D01*
X471346Y395676D01*
X472720Y394303D01*
X474336Y393223D01*
X476131Y392479D01*
X478037Y392100D01*
X479980D01*
X481886Y392479D01*
X483681Y393223D01*
X485297Y394303D01*
X486671Y395676D01*
X487750Y397292D01*
X488494Y399087D01*
X488873Y400993D01*
Y402936D01*
X488494Y404842D01*
X487750Y406637D01*
X486671Y408253D01*
X485297Y409627D01*
X483681Y410707D01*
X481886Y411450D01*
X479980Y411829D01*
D02*
G37*
G36*
X379819D02*
X377876D01*
X375970Y411450D01*
X374175Y410707D01*
X372559Y409627D01*
X371185Y408253D01*
X370106Y406637D01*
X369362Y404842D01*
X368983Y402936D01*
Y400993D01*
X369362Y399087D01*
X370106Y397292D01*
X371185Y395676D01*
X372559Y394303D01*
X374175Y393223D01*
X375970Y392479D01*
X377876Y392100D01*
X379819D01*
X381725Y392479D01*
X383520Y393223D01*
X385136Y394303D01*
X386510Y395676D01*
X387590Y397292D01*
X388333Y399087D01*
X388712Y400993D01*
Y402936D01*
X388333Y404842D01*
X387590Y406637D01*
X386510Y408253D01*
X385136Y409627D01*
X383520Y410707D01*
X381725Y411450D01*
X379819Y411829D01*
D02*
G37*
G36*
X664799Y394492D02*
X664004D01*
X663269Y394188D01*
X662706Y393625D01*
X662402Y392890D01*
Y392094D01*
X662706Y391359D01*
X663269Y390797D01*
X664004Y390492D01*
X664799D01*
X665535Y390797D01*
X666097Y391359D01*
X666402Y392094D01*
Y392890D01*
X666097Y393625D01*
X665535Y394188D01*
X664799Y394492D01*
D02*
G37*
G36*
X564799D02*
X564004D01*
X563269Y394188D01*
X562706Y393625D01*
X562402Y392890D01*
Y392094D01*
X562706Y391359D01*
X563269Y390797D01*
X564004Y390492D01*
X564799D01*
X565535Y390797D01*
X566097Y391359D01*
X566402Y392094D01*
Y392890D01*
X566097Y393625D01*
X565535Y394188D01*
X564799Y394492D01*
D02*
G37*
G36*
X514799D02*
X514004D01*
X513269Y394188D01*
X512706Y393625D01*
X512402Y392890D01*
Y392094D01*
X512706Y391359D01*
X513269Y390797D01*
X514004Y390492D01*
X514799D01*
X515535Y390797D01*
X516097Y391359D01*
X516402Y392094D01*
Y392890D01*
X516097Y393625D01*
X515535Y394188D01*
X514799Y394492D01*
D02*
G37*
G36*
X464799D02*
X464004D01*
X463269Y394188D01*
X462706Y393625D01*
X462402Y392890D01*
Y392094D01*
X462706Y391359D01*
X463269Y390797D01*
X464004Y390492D01*
X464799D01*
X465535Y390797D01*
X466097Y391359D01*
X466402Y392094D01*
Y392890D01*
X466097Y393625D01*
X465535Y394188D01*
X464799Y394492D01*
D02*
G37*
G36*
X414799D02*
X414004D01*
X413269Y394188D01*
X412706Y393625D01*
X412402Y392890D01*
Y392094D01*
X412706Y391359D01*
X413269Y390797D01*
X414004Y390492D01*
X414799D01*
X415535Y390797D01*
X416097Y391359D01*
X416402Y392094D01*
Y392890D01*
X416097Y393625D01*
X415535Y394188D01*
X414799Y394492D01*
D02*
G37*
G36*
X364799D02*
X364004D01*
X363269Y394188D01*
X362706Y393625D01*
X362402Y392890D01*
Y392094D01*
X362706Y391359D01*
X363269Y390797D01*
X364004Y390492D01*
X364799D01*
X365535Y390797D01*
X366097Y391359D01*
X366402Y392094D01*
Y392890D01*
X366097Y393625D01*
X365535Y394188D01*
X364799Y394492D01*
D02*
G37*
G36*
X614799D02*
X614004D01*
X613269Y394188D01*
X612706Y393625D01*
X612402Y392890D01*
Y392094D01*
X612706Y391359D01*
X613269Y390797D01*
X614004Y390492D01*
X614799D01*
X615496Y390781D01*
X615529Y390764D01*
X615749Y390259D01*
X615224Y389474D01*
X614644Y388073D01*
X614348Y386585D01*
Y385068D01*
X614644Y383581D01*
X615224Y382180D01*
X616067Y380919D01*
X617139Y379846D01*
X618400Y379004D01*
X619802Y378423D01*
X621289Y378128D01*
X622806D01*
X624293Y378423D01*
X625694Y379004D01*
X626955Y379846D01*
X628028Y380919D01*
X628870Y382180D01*
X629451Y383581D01*
X629746Y385068D01*
Y386585D01*
X629451Y388073D01*
X628870Y389474D01*
X628028Y390735D01*
X626955Y391807D01*
X625694Y392650D01*
X624293Y393230D01*
X622806Y393526D01*
X621289D01*
X619802Y393230D01*
X618400Y392650D01*
X617139Y391807D01*
X616601Y391269D01*
X616177Y391552D01*
X616402Y392094D01*
Y392890D01*
X616097Y393625D01*
X615535Y394188D01*
X614799Y394492D01*
D02*
G37*
G36*
X540645Y371974D02*
X539343D01*
X538086Y371637D01*
X536959Y370987D01*
X536039Y370066D01*
X535388Y368939D01*
X535051Y367682D01*
Y366380D01*
X535388Y365123D01*
X536039Y363996D01*
X536959Y363075D01*
X538086Y362424D01*
X539343Y362088D01*
X540645D01*
X541902Y362424D01*
X543029Y363075D01*
X543950Y363996D01*
X544601Y365123D01*
X544938Y366380D01*
Y367682D01*
X544601Y368939D01*
X543950Y370066D01*
X543029Y370987D01*
X541902Y371637D01*
X540645Y371974D01*
D02*
G37*
G36*
X163760Y527392D02*
X163760Y527392D01*
X65335D01*
X64788Y527283D01*
X64325Y526974D01*
X64016Y526511D01*
X63907Y525964D01*
Y427539D01*
X64016Y426993D01*
X64325Y426530D01*
X64788Y426221D01*
X65335Y426112D01*
X119074D01*
X135527Y409659D01*
X135990Y409350D01*
X136536Y409241D01*
X136536Y409241D01*
X138415D01*
Y351089D01*
X138524Y350543D01*
X138833Y350080D01*
X139296Y349770D01*
X139842Y349661D01*
X248012D01*
X248558Y349770D01*
X249021Y350080D01*
X249330Y350543D01*
X249439Y351089D01*
Y383292D01*
X313610D01*
X314157Y383401D01*
X314620Y383710D01*
X314929Y384173D01*
X315038Y384719D01*
Y451161D01*
X314929Y451708D01*
X314620Y452171D01*
X314157Y452480D01*
X313610Y452589D01*
X202390D01*
X202340Y453089D01*
X203033Y453227D01*
X204434Y453807D01*
X205695Y454650D01*
X206768Y455722D01*
X207610Y456983D01*
X208191Y458384D01*
X208487Y459872D01*
Y461388D01*
X208191Y462876D01*
X207610Y464277D01*
X206768Y465538D01*
X205695Y466610D01*
X204434Y467453D01*
X203033Y468033D01*
X201546Y468329D01*
X200029D01*
X198542Y468033D01*
X197141Y467453D01*
X195879Y466610D01*
X194807Y465538D01*
X193965Y464277D01*
X193384Y462876D01*
X193088Y461388D01*
Y459872D01*
X193384Y458384D01*
X193965Y456983D01*
X194807Y455722D01*
X195879Y454650D01*
X197141Y453807D01*
X198542Y453227D01*
X199234Y453089D01*
X199185Y452589D01*
X190728D01*
X190679Y452629D01*
Y500472D01*
X190571Y501019D01*
X190261Y501482D01*
X190261Y501482D01*
X164769Y526974D01*
X164306Y527283D01*
X163760Y527392D01*
D02*
G37*
G36*
X540645Y358588D02*
X539343D01*
X538086Y358252D01*
X536959Y357601D01*
X536039Y356680D01*
X535388Y355553D01*
X535051Y354296D01*
Y352994D01*
X535388Y351737D01*
X536039Y350610D01*
X536959Y349690D01*
X538086Y349039D01*
X539343Y348702D01*
X540645D01*
X541902Y349039D01*
X543029Y349690D01*
X543950Y350610D01*
X544601Y351737D01*
X544938Y352994D01*
Y354296D01*
X544601Y355553D01*
X543950Y356680D01*
X543029Y357601D01*
X541902Y358252D01*
X540645Y358588D01*
D02*
G37*
G36*
X539799Y344492D02*
X539004D01*
X538269Y344188D01*
X537706Y343625D01*
X537402Y342890D01*
Y342094D01*
X537706Y341359D01*
X538269Y340797D01*
X539004Y340492D01*
X539799D01*
X540535Y340797D01*
X541097Y341359D01*
X541402Y342094D01*
Y342890D01*
X541097Y343625D01*
X540535Y344188D01*
X539799Y344492D01*
D02*
G37*
G36*
X489799D02*
X489004D01*
X488269Y344188D01*
X487706Y343625D01*
X487402Y342890D01*
Y342094D01*
X487706Y341359D01*
X488269Y340797D01*
X489004Y340492D01*
X489799D01*
X490535Y340797D01*
X491097Y341359D01*
X491402Y342094D01*
Y342890D01*
X491097Y343625D01*
X490535Y344188D01*
X489799Y344492D01*
D02*
G37*
G36*
X439799D02*
X439004D01*
X438269Y344188D01*
X437706Y343625D01*
X437402Y342890D01*
Y342094D01*
X437706Y341359D01*
X438269Y340797D01*
X439004Y340492D01*
X439799D01*
X440535Y340797D01*
X441097Y341359D01*
X441402Y342094D01*
Y342890D01*
X441097Y343625D01*
X440535Y344188D01*
X439799Y344492D01*
D02*
G37*
G36*
X389799D02*
X389004D01*
X388269Y344188D01*
X387706Y343625D01*
X387402Y342890D01*
Y342094D01*
X387706Y341359D01*
X388269Y340797D01*
X389004Y340492D01*
X389799D01*
X390535Y340797D01*
X391097Y341359D01*
X391402Y342094D01*
Y342890D01*
X391097Y343625D01*
X390535Y344188D01*
X389799Y344492D01*
D02*
G37*
G36*
X339799D02*
X339004D01*
X338269Y344188D01*
X337706Y343625D01*
X337402Y342890D01*
Y342094D01*
X337706Y341359D01*
X338269Y340797D01*
X339004Y340492D01*
X339799D01*
X340535Y340797D01*
X341097Y341359D01*
X341402Y342094D01*
Y342890D01*
X341097Y343625D01*
X340535Y344188D01*
X339799Y344492D01*
D02*
G37*
G36*
X289799D02*
X289004D01*
X288269Y344188D01*
X287706Y343625D01*
X287402Y342890D01*
Y342094D01*
X287706Y341359D01*
X288269Y340797D01*
X289004Y340492D01*
X289799D01*
X290535Y340797D01*
X291097Y341359D01*
X291402Y342094D01*
Y342890D01*
X291097Y343625D01*
X290535Y344188D01*
X289799Y344492D01*
D02*
G37*
G36*
X239799D02*
X239004D01*
X238269Y344188D01*
X237706Y343625D01*
X237402Y342890D01*
Y342094D01*
X237706Y341359D01*
X238269Y340797D01*
X239004Y340492D01*
X239799D01*
X240535Y340797D01*
X241097Y341359D01*
X241402Y342094D01*
Y342890D01*
X241097Y343625D01*
X240535Y344188D01*
X239799Y344492D01*
D02*
G37*
G36*
X139799D02*
X139004D01*
X138269Y344188D01*
X137706Y343625D01*
X137402Y342890D01*
Y342094D01*
X137706Y341359D01*
X138269Y340797D01*
X139004Y340492D01*
X139799D01*
X140535Y340797D01*
X141097Y341359D01*
X141402Y342094D01*
Y342890D01*
X141097Y343625D01*
X140535Y344188D01*
X139799Y344492D01*
D02*
G37*
G36*
X672532Y322463D02*
X668300D01*
Y321421D01*
X675511D01*
X675022Y321796D01*
X673821Y322294D01*
X672532Y322463D01*
D02*
G37*
G36*
X660426D02*
X656193D01*
X654905Y322294D01*
X653704Y321796D01*
X653214Y321421D01*
X660426D01*
Y322463D01*
D02*
G37*
G36*
X675511Y313547D02*
X668300D01*
Y312504D01*
X672532D01*
X673821Y312674D01*
X675022Y313171D01*
X675511Y313547D01*
D02*
G37*
G36*
X660426D02*
X653214D01*
X653704Y313171D01*
X654905Y312674D01*
X656193Y312504D01*
X660426D01*
Y313547D01*
D02*
G37*
G36*
X347215Y306912D02*
X345698D01*
X344211Y306616D01*
X342810Y306036D01*
X341549Y305193D01*
X340476Y304121D01*
X339634Y302859D01*
X339053Y301458D01*
X338757Y299971D01*
Y298454D01*
X339053Y296967D01*
X339634Y295566D01*
X340476Y294305D01*
X341549Y293232D01*
X342810Y292390D01*
X344211Y291809D01*
X345698Y291513D01*
X347215D01*
X348703Y291809D01*
X350104Y292390D01*
X351365Y293232D01*
X352437Y294305D01*
X353280Y295566D01*
X353860Y296967D01*
X354156Y298454D01*
Y299971D01*
X353860Y301458D01*
X353280Y302859D01*
X352437Y304121D01*
X351365Y305193D01*
X350104Y306036D01*
X348703Y306616D01*
X347215Y306912D01*
D02*
G37*
G36*
X614799Y294492D02*
X614004D01*
X613269Y294188D01*
X612706Y293625D01*
X612402Y292890D01*
Y292094D01*
X612706Y291359D01*
X613269Y290797D01*
X614004Y290492D01*
X614799D01*
X615535Y290797D01*
X616097Y291359D01*
X616402Y292094D01*
Y292890D01*
X616097Y293625D01*
X615535Y294188D01*
X614799Y294492D01*
D02*
G37*
G36*
X564799D02*
X564004D01*
X563269Y294188D01*
X562706Y293625D01*
X562402Y292890D01*
Y292094D01*
X562706Y291359D01*
X563269Y290797D01*
X564004Y290492D01*
X564799D01*
X565535Y290797D01*
X566097Y291359D01*
X566402Y292094D01*
Y292890D01*
X566097Y293625D01*
X565535Y294188D01*
X564799Y294492D01*
D02*
G37*
G36*
X464799D02*
X464004D01*
X463269Y294188D01*
X462706Y293625D01*
X462402Y292890D01*
Y292094D01*
X462706Y291359D01*
X463269Y290797D01*
X464004Y290492D01*
X464799D01*
X465535Y290797D01*
X466097Y291359D01*
X466402Y292094D01*
Y292890D01*
X466097Y293625D01*
X465535Y294188D01*
X464799Y294492D01*
D02*
G37*
G36*
X414799D02*
X414004D01*
X413269Y294188D01*
X412706Y293625D01*
X412402Y292890D01*
Y292094D01*
X412706Y291359D01*
X413269Y290797D01*
X414004Y290492D01*
X414799D01*
X415535Y290797D01*
X416097Y291359D01*
X416402Y292094D01*
Y292890D01*
X416097Y293625D01*
X415535Y294188D01*
X414799Y294492D01*
D02*
G37*
G36*
X364799D02*
X364004D01*
X363269Y294188D01*
X362706Y293625D01*
X362402Y292890D01*
Y292094D01*
X362706Y291359D01*
X363269Y290797D01*
X364004Y290492D01*
X364799D01*
X365535Y290797D01*
X366097Y291359D01*
X366402Y292094D01*
Y292890D01*
X366097Y293625D01*
X365535Y294188D01*
X364799Y294492D01*
D02*
G37*
G36*
X314799D02*
X314004D01*
X313269Y294188D01*
X312706Y293625D01*
X312402Y292890D01*
Y292094D01*
X312706Y291359D01*
X313269Y290797D01*
X314004Y290492D01*
X314799D01*
X315535Y290797D01*
X316097Y291359D01*
X316402Y292094D01*
Y292890D01*
X316097Y293625D01*
X315535Y294188D01*
X314799Y294492D01*
D02*
G37*
G36*
X264799D02*
X264004D01*
X263269Y294188D01*
X262706Y293625D01*
X262402Y292890D01*
Y292094D01*
X262706Y291359D01*
X263269Y290797D01*
X264004Y290492D01*
X264799D01*
X265535Y290797D01*
X266097Y291359D01*
X266402Y292094D01*
Y292890D01*
X266097Y293625D01*
X265535Y294188D01*
X264799Y294492D01*
D02*
G37*
G36*
X214799D02*
X214004D01*
X213269Y294188D01*
X212706Y293625D01*
X212402Y292890D01*
Y292094D01*
X212706Y291359D01*
X213269Y290797D01*
X214004Y290492D01*
X214799D01*
X215535Y290797D01*
X216097Y291359D01*
X216402Y292094D01*
Y292890D01*
X216097Y293625D01*
X215535Y294188D01*
X214799Y294492D01*
D02*
G37*
G36*
X657257Y307954D02*
X655429Y307774D01*
X653671Y307241D01*
X652052Y306376D01*
X650632Y305210D01*
X649467Y303791D01*
X648601Y302171D01*
X648068Y300414D01*
X647888Y298586D01*
X648068Y296758D01*
X648601Y295001D01*
X649467Y293381D01*
X650632Y291962D01*
X652052Y290797D01*
X653671Y289931D01*
X655429Y289398D01*
X657257Y289218D01*
X659084Y289398D01*
X660842Y289931D01*
X662461Y290797D01*
X663881Y291962D01*
X665046Y293381D01*
X665912Y295001D01*
X666445Y296758D01*
X666625Y298586D01*
X666445Y300414D01*
X665912Y302171D01*
X665046Y303791D01*
X663881Y305210D01*
X662461Y306376D01*
X660842Y307241D01*
X659084Y307774D01*
X657257Y307954D01*
D02*
G37*
G36*
X540645Y267624D02*
X539343D01*
X538086Y267287D01*
X536959Y266636D01*
X536039Y265716D01*
X535388Y264588D01*
X535051Y263331D01*
Y262030D01*
X535388Y260772D01*
X536039Y259645D01*
X536959Y258725D01*
X538086Y258074D01*
X539343Y257737D01*
X540645D01*
X541902Y258074D01*
X543029Y258725D01*
X543950Y259645D01*
X544601Y260772D01*
X544938Y262030D01*
Y263331D01*
X544601Y264588D01*
X543950Y265716D01*
X543029Y266636D01*
X541902Y267287D01*
X540645Y267624D01*
D02*
G37*
G36*
Y254238D02*
X539343D01*
X538086Y253901D01*
X536959Y253250D01*
X536039Y252330D01*
X535388Y251203D01*
X535051Y249945D01*
Y248644D01*
X535388Y247387D01*
X536039Y246259D01*
X536959Y245339D01*
X538086Y244688D01*
X539343Y244351D01*
X540645D01*
X541902Y244688D01*
X543029Y245339D01*
X543950Y246259D01*
X544601Y247387D01*
X544938Y248644D01*
Y249945D01*
X544601Y251203D01*
X543950Y252330D01*
X543029Y253250D01*
X541902Y253901D01*
X540645Y254238D01*
D02*
G37*
G36*
X489799Y244492D02*
X489004D01*
X488269Y244188D01*
X487706Y243625D01*
X487402Y242890D01*
Y242094D01*
X487706Y241359D01*
X488269Y240797D01*
X489004Y240492D01*
X489799D01*
X490535Y240797D01*
X491097Y241359D01*
X491402Y242094D01*
Y242890D01*
X491097Y243625D01*
X490535Y244188D01*
X489799Y244492D01*
D02*
G37*
G36*
X439799D02*
X439004D01*
X438269Y244188D01*
X437706Y243625D01*
X437402Y242890D01*
Y242094D01*
X437706Y241359D01*
X438269Y240797D01*
X439004Y240492D01*
X439799D01*
X440535Y240797D01*
X441097Y241359D01*
X441402Y242094D01*
Y242890D01*
X441097Y243625D01*
X440535Y244188D01*
X439799Y244492D01*
D02*
G37*
G36*
X389799D02*
X389004D01*
X388269Y244188D01*
X387706Y243625D01*
X387402Y242890D01*
Y242094D01*
X387706Y241359D01*
X388269Y240797D01*
X389004Y240492D01*
X389799D01*
X390535Y240797D01*
X391097Y241359D01*
X391402Y242094D01*
Y242890D01*
X391097Y243625D01*
X390535Y244188D01*
X389799Y244492D01*
D02*
G37*
G36*
X339799D02*
X339004D01*
X338269Y244188D01*
X337706Y243625D01*
X337402Y242890D01*
Y242094D01*
X337706Y241359D01*
X338269Y240797D01*
X339004Y240492D01*
X339799D01*
X340535Y240797D01*
X341097Y241359D01*
X341402Y242094D01*
Y242890D01*
X341097Y243625D01*
X340535Y244188D01*
X339799Y244492D01*
D02*
G37*
G36*
X289799D02*
X289004D01*
X288269Y244188D01*
X287706Y243625D01*
X287402Y242890D01*
Y242094D01*
X287706Y241359D01*
X288269Y240797D01*
X289004Y240492D01*
X289799D01*
X290535Y240797D01*
X291097Y241359D01*
X291402Y242094D01*
Y242890D01*
X291097Y243625D01*
X290535Y244188D01*
X289799Y244492D01*
D02*
G37*
G36*
X239799D02*
X239004D01*
X238269Y244188D01*
X237706Y243625D01*
X237402Y242890D01*
Y242094D01*
X237706Y241359D01*
X238269Y240797D01*
X239004Y240492D01*
X239799D01*
X240535Y240797D01*
X241097Y241359D01*
X241402Y242094D01*
Y242890D01*
X241097Y243625D01*
X240535Y244188D01*
X239799Y244492D01*
D02*
G37*
G36*
X183940Y234451D02*
X182949D01*
X181993Y234195D01*
X181135Y233699D01*
X180434Y232999D01*
X179939Y232141D01*
X179683Y231184D01*
Y230194D01*
X179939Y229237D01*
X180434Y228379D01*
X181135Y227678D01*
X181993Y227183D01*
X182949Y226927D01*
X183940D01*
X184897Y227183D01*
X185755Y227678D01*
X186455Y228379D01*
X186951Y229237D01*
X187207Y230194D01*
Y231184D01*
X186951Y232141D01*
X186455Y232999D01*
X185755Y233699D01*
X184897Y234195D01*
X183940Y234451D01*
D02*
G37*
G36*
X184043Y221453D02*
X183945D01*
Y217409D01*
X187988D01*
Y217508D01*
X187679Y218663D01*
X187080Y219699D01*
X186234Y220545D01*
X185198Y221143D01*
X184043Y221453D01*
D02*
G37*
G36*
X182945D02*
X182847D01*
X181691Y221143D01*
X180655Y220545D01*
X179809Y219699D01*
X179211Y218663D01*
X178902Y217508D01*
Y217409D01*
X182945D01*
Y221453D01*
D02*
G37*
G36*
X672532Y218113D02*
X668300D01*
Y217070D01*
X675511D01*
X675022Y217446D01*
X673821Y217943D01*
X672532Y218113D01*
D02*
G37*
G36*
X660426D02*
X656193D01*
X654905Y217943D01*
X653704Y217446D01*
X653214Y217070D01*
X660426D01*
Y218113D01*
D02*
G37*
G36*
X187988Y216409D02*
X183945D01*
Y212366D01*
X184043D01*
X185198Y212676D01*
X186234Y213274D01*
X187080Y214120D01*
X187679Y215156D01*
X187988Y216311D01*
Y216409D01*
D02*
G37*
G36*
X182945D02*
X178902D01*
Y216311D01*
X179211Y215156D01*
X179809Y214120D01*
X180655Y213274D01*
X181691Y212676D01*
X182847Y212366D01*
X182945D01*
Y216409D01*
D02*
G37*
G36*
X675511Y209196D02*
X668300D01*
Y208154D01*
X672532D01*
X673821Y208323D01*
X675022Y208821D01*
X675511Y209196D01*
D02*
G37*
G36*
X660426D02*
X653214D01*
X653704Y208821D01*
X654905Y208323D01*
X656193Y208154D01*
X660426D01*
Y209196D01*
D02*
G37*
G36*
X426165Y212118D02*
X425370D01*
X424635Y211814D01*
X424072Y211251D01*
X423768Y210516D01*
Y209720D01*
X424072Y208985D01*
X424635Y208422D01*
X425370Y208118D01*
X426165D01*
X426901Y208422D01*
X427463Y208985D01*
X427768Y209720D01*
Y210516D01*
X427463Y211251D01*
X426901Y211814D01*
X426165Y212118D01*
D02*
G37*
G36*
X143543Y210370D02*
X139913D01*
Y206740D01*
X143543D01*
Y210370D01*
D02*
G37*
G36*
X138913D02*
X135283D01*
Y206740D01*
X138913D01*
Y210370D01*
D02*
G37*
G36*
X143543Y205740D02*
X139913D01*
Y202110D01*
X143543D01*
Y205740D01*
D02*
G37*
G36*
X138913D02*
X135283D01*
Y202110D01*
X138913D01*
Y205740D01*
D02*
G37*
G36*
X429217Y203850D02*
X428421D01*
X427686Y203546D01*
X427123Y202983D01*
X426819Y202248D01*
Y201452D01*
X427123Y200717D01*
X427686Y200155D01*
X428421Y199850D01*
X429217D01*
X429952Y200155D01*
X430514Y200717D01*
X430819Y201452D01*
Y202248D01*
X430514Y202983D01*
X429952Y203546D01*
X429217Y203850D01*
D02*
G37*
G36*
X183940Y206892D02*
X182949D01*
X181993Y206636D01*
X181135Y206140D01*
X180434Y205440D01*
X179939Y204582D01*
X179683Y203625D01*
Y202635D01*
X179939Y201678D01*
X180434Y200820D01*
X181135Y200119D01*
X181993Y199624D01*
X182949Y199368D01*
X183940D01*
X184897Y199624D01*
X185755Y200119D01*
X186455Y200820D01*
X186951Y201678D01*
X187207Y202635D01*
Y203625D01*
X186951Y204582D01*
X186455Y205440D01*
X185755Y206140D01*
X184897Y206636D01*
X183940Y206892D01*
D02*
G37*
G36*
X224551Y198240D02*
X223756D01*
X223021Y197935D01*
X222458Y197373D01*
X222153Y196637D01*
Y195842D01*
X222458Y195107D01*
X223021Y194544D01*
X223756Y194240D01*
X224551D01*
X225286Y194544D01*
X225849Y195107D01*
X226153Y195842D01*
Y196637D01*
X225849Y197373D01*
X225286Y197935D01*
X224551Y198240D01*
D02*
G37*
G36*
X139872Y199726D02*
X138954D01*
X138067Y199489D01*
X137272Y199030D01*
X136623Y198380D01*
X136164Y197585D01*
X135926Y196699D01*
Y195781D01*
X136164Y194894D01*
X136623Y194099D01*
X137272Y193450D01*
X138067Y192991D01*
X138954Y192753D01*
X139872D01*
X140758Y192991D01*
X141553Y193450D01*
X142203Y194099D01*
X142662Y194894D01*
X142899Y195781D01*
Y196699D01*
X142662Y197585D01*
X142203Y198380D01*
X141553Y199030D01*
X140758Y199489D01*
X139872Y199726D01*
D02*
G37*
G36*
X614799Y194492D02*
X614004D01*
X613269Y194188D01*
X612706Y193625D01*
X612402Y192890D01*
Y192094D01*
X612706Y191359D01*
X613269Y190797D01*
X614004Y190492D01*
X614799D01*
X615535Y190797D01*
X616097Y191359D01*
X616402Y192094D01*
Y192890D01*
X616097Y193625D01*
X615535Y194188D01*
X614799Y194492D01*
D02*
G37*
G36*
X564799D02*
X564004D01*
X563269Y194188D01*
X562706Y193625D01*
X562402Y192890D01*
Y192094D01*
X562706Y191359D01*
X563269Y190797D01*
X564004Y190492D01*
X564799D01*
X565535Y190797D01*
X566097Y191359D01*
X566402Y192094D01*
Y192890D01*
X566097Y193625D01*
X565535Y194188D01*
X564799Y194492D01*
D02*
G37*
G36*
X464799D02*
X464004D01*
X463269Y194188D01*
X462706Y193625D01*
X462402Y192890D01*
Y192094D01*
X462706Y191359D01*
X463269Y190797D01*
X464004Y190492D01*
X464799D01*
X465535Y190797D01*
X466097Y191359D01*
X466402Y192094D01*
Y192890D01*
X466097Y193625D01*
X465535Y194188D01*
X464799Y194492D01*
D02*
G37*
G36*
X414799D02*
X414004D01*
X413269Y194188D01*
X412706Y193625D01*
X412402Y192890D01*
Y192094D01*
X412706Y191359D01*
X413269Y190797D01*
X414004Y190492D01*
X414799D01*
X415535Y190797D01*
X416097Y191359D01*
X416402Y192094D01*
Y192890D01*
X416097Y193625D01*
X415535Y194188D01*
X414799Y194492D01*
D02*
G37*
G36*
X364799D02*
X364004D01*
X363269Y194188D01*
X362706Y193625D01*
X362402Y192890D01*
Y192094D01*
X362706Y191359D01*
X363269Y190797D01*
X364004Y190492D01*
X364799D01*
X365535Y190797D01*
X366097Y191359D01*
X366402Y192094D01*
Y192890D01*
X366097Y193625D01*
X365535Y194188D01*
X364799Y194492D01*
D02*
G37*
G36*
X314799D02*
X314004D01*
X313269Y194188D01*
X312706Y193625D01*
X312402Y192890D01*
Y192094D01*
X312706Y191359D01*
X313269Y190797D01*
X314004Y190492D01*
X314799D01*
X315535Y190797D01*
X316097Y191359D01*
X316402Y192094D01*
Y192890D01*
X316097Y193625D01*
X315535Y194188D01*
X314799Y194492D01*
D02*
G37*
G36*
X264799D02*
X264004D01*
X263269Y194188D01*
X262706Y193625D01*
X262402Y192890D01*
Y192094D01*
X262706Y191359D01*
X263269Y190797D01*
X264004Y190492D01*
X264799D01*
X265535Y190797D01*
X266097Y191359D01*
X266402Y192094D01*
Y192890D01*
X266097Y193625D01*
X265535Y194188D01*
X264799Y194492D01*
D02*
G37*
G36*
X432034Y193909D02*
X431239D01*
X430504Y193605D01*
X429941Y193042D01*
X429636Y192307D01*
Y191512D01*
X429941Y190777D01*
X430504Y190214D01*
X431239Y189909D01*
X432034D01*
X432769Y190214D01*
X433332Y190777D01*
X433637Y191512D01*
Y192307D01*
X433332Y193042D01*
X432769Y193605D01*
X432034Y193909D01*
D02*
G37*
G36*
X183940Y193113D02*
X182949D01*
X181993Y192856D01*
X181135Y192361D01*
X180434Y191660D01*
X179939Y190803D01*
X179683Y189846D01*
Y188855D01*
X179939Y187898D01*
X180434Y187040D01*
X181135Y186340D01*
X181993Y185845D01*
X182949Y185588D01*
X183940D01*
X184897Y185845D01*
X185755Y186340D01*
X186455Y187040D01*
X186951Y187898D01*
X187207Y188855D01*
Y189846D01*
X186951Y190803D01*
X186455Y191660D01*
X185755Y192361D01*
X184897Y192856D01*
X183940Y193113D01*
D02*
G37*
G36*
X657257Y203604D02*
X655429Y203424D01*
X653671Y202891D01*
X652052Y202025D01*
X650632Y200860D01*
X649467Y199440D01*
X648601Y197821D01*
X648068Y196063D01*
X647888Y194236D01*
X648068Y192408D01*
X648601Y190650D01*
X649467Y189031D01*
X650632Y187611D01*
X652052Y186446D01*
X653671Y185580D01*
X655429Y185047D01*
X657257Y184867D01*
X659084Y185047D01*
X660842Y185580D01*
X662461Y186446D01*
X663881Y187611D01*
X665046Y189031D01*
X665912Y190650D01*
X666445Y192408D01*
X666625Y194236D01*
X666445Y196063D01*
X665912Y197821D01*
X665046Y199440D01*
X663881Y200860D01*
X662461Y202025D01*
X660842Y202891D01*
X659084Y203424D01*
X657257Y203604D01*
D02*
G37*
G36*
X249482Y188840D02*
X248687D01*
X247952Y188536D01*
X247389Y187973D01*
X247085Y187238D01*
Y186442D01*
X247389Y185707D01*
X247952Y185145D01*
X248687Y184840D01*
X249482D01*
X250218Y185145D01*
X250780Y185707D01*
X251085Y186442D01*
Y187238D01*
X250780Y187973D01*
X250218Y188536D01*
X249482Y188840D01*
D02*
G37*
G36*
X402621Y188090D02*
X401825D01*
X401090Y187785D01*
X400528Y187222D01*
X400223Y186487D01*
Y185692D01*
X400528Y184957D01*
X401090Y184394D01*
X401825Y184090D01*
X402621D01*
X403356Y184394D01*
X403919Y184957D01*
X404223Y185692D01*
Y186487D01*
X403919Y187222D01*
X403356Y187785D01*
X402621Y188090D01*
D02*
G37*
G36*
X139872Y189726D02*
X138954D01*
X138067Y189489D01*
X137272Y189030D01*
X136623Y188381D01*
X136164Y187585D01*
X135926Y186699D01*
Y185781D01*
X136164Y184894D01*
X136623Y184099D01*
X137272Y183450D01*
X138067Y182991D01*
X138954Y182753D01*
X139872D01*
X140758Y182991D01*
X141553Y183450D01*
X142203Y184099D01*
X142662Y184894D01*
X142899Y185781D01*
Y186699D01*
X142662Y187585D01*
X142203Y188381D01*
X141553Y189030D01*
X140758Y189489D01*
X139872Y189726D01*
D02*
G37*
G36*
X464453Y185445D02*
X463657D01*
X462922Y185140D01*
X462360Y184578D01*
X462055Y183843D01*
Y183047D01*
X462360Y182312D01*
X462922Y181749D01*
X463657Y181445D01*
X464453D01*
X465188Y181749D01*
X465751Y182312D01*
X466055Y183047D01*
Y183843D01*
X465751Y184578D01*
X465188Y185140D01*
X464453Y185445D01*
D02*
G37*
G36*
X399604Y182381D02*
X398808D01*
X398073Y182076D01*
X397511Y181514D01*
X397206Y180779D01*
Y179983D01*
X397511Y179248D01*
X398073Y178685D01*
X398808Y178381D01*
X399604D01*
X400339Y178685D01*
X400902Y179248D01*
X401206Y179983D01*
Y180779D01*
X400902Y181514D01*
X400339Y182076D01*
X399604Y182381D01*
D02*
G37*
G36*
X224551Y180524D02*
X223756D01*
X223021Y180219D01*
X222458Y179657D01*
X222153Y178921D01*
Y178126D01*
X222458Y177391D01*
X223021Y176828D01*
X223756Y176524D01*
X224551D01*
X225286Y176828D01*
X225849Y177391D01*
X226153Y178126D01*
Y178921D01*
X225849Y179657D01*
X225286Y180219D01*
X224551Y180524D01*
D02*
G37*
G36*
X467012Y179736D02*
X466216D01*
X465481Y179432D01*
X464919Y178869D01*
X464614Y178134D01*
Y177338D01*
X464919Y176603D01*
X465481Y176041D01*
X466216Y175736D01*
X467012D01*
X467747Y176041D01*
X468310Y176603D01*
X468614Y177338D01*
Y178134D01*
X468310Y178869D01*
X467747Y179432D01*
X467012Y179736D01*
D02*
G37*
G36*
X139872Y179726D02*
X138954D01*
X138067Y179489D01*
X137272Y179030D01*
X136623Y178381D01*
X136164Y177585D01*
X135926Y176699D01*
Y175781D01*
X136164Y174894D01*
X136623Y174099D01*
X137272Y173450D01*
X138067Y172991D01*
X138954Y172753D01*
X139872D01*
X140758Y172991D01*
X141553Y173450D01*
X142203Y174099D01*
X142662Y174894D01*
X142899Y175781D01*
Y176699D01*
X142662Y177585D01*
X142203Y178381D01*
X141553Y179030D01*
X140758Y179489D01*
X139872Y179726D01*
D02*
G37*
G36*
X396638Y176488D02*
X395842D01*
X395107Y176184D01*
X394545Y175621D01*
X394240Y174886D01*
Y174090D01*
X394545Y173355D01*
X395107Y172793D01*
X395842Y172488D01*
X396638D01*
X397373Y172793D01*
X397936Y173355D01*
X398240Y174090D01*
Y174886D01*
X397936Y175621D01*
X397373Y176184D01*
X396638Y176488D01*
D02*
G37*
G36*
X183940Y179333D02*
X182949D01*
X181993Y179077D01*
X181135Y178581D01*
X180434Y177881D01*
X179939Y177023D01*
X179683Y176066D01*
Y175075D01*
X179939Y174119D01*
X180434Y173261D01*
X181135Y172560D01*
X181993Y172065D01*
X182949Y171809D01*
X183940D01*
X184897Y172065D01*
X185755Y172560D01*
X186455Y173261D01*
X186951Y174119D01*
X187207Y175075D01*
Y176066D01*
X186951Y177023D01*
X186455Y177881D01*
X185755Y178581D01*
X184897Y179077D01*
X183940Y179333D01*
D02*
G37*
G36*
X469847Y173843D02*
X469051D01*
X468316Y173539D01*
X467754Y172976D01*
X467449Y172241D01*
Y171446D01*
X467754Y170711D01*
X468316Y170148D01*
X469051Y169843D01*
X469847D01*
X470582Y170148D01*
X471145Y170711D01*
X471449Y171446D01*
Y172241D01*
X471145Y172976D01*
X470582Y173539D01*
X469847Y173843D01*
D02*
G37*
G36*
X249492Y171114D02*
X248697D01*
X247961Y170810D01*
X247399Y170247D01*
X247094Y169512D01*
Y168716D01*
X247399Y167981D01*
X247961Y167419D01*
X248697Y167114D01*
X249492D01*
X250227Y167419D01*
X250790Y167981D01*
X251095Y168716D01*
Y169512D01*
X250790Y170247D01*
X250227Y170810D01*
X249492Y171114D01*
D02*
G37*
G36*
X396638Y170484D02*
X395842D01*
X395107Y170180D01*
X394545Y169617D01*
X394240Y168882D01*
Y168086D01*
X394545Y167351D01*
X395107Y166789D01*
X395842Y166484D01*
X396638D01*
X397373Y166789D01*
X397936Y167351D01*
X398240Y168086D01*
Y168882D01*
X397936Y169617D01*
X397373Y170180D01*
X396638Y170484D01*
D02*
G37*
G36*
X473367Y167827D02*
X472572D01*
X471837Y167522D01*
X471274Y166960D01*
X470969Y166225D01*
Y165429D01*
X471274Y164694D01*
X471837Y164131D01*
X472572Y163827D01*
X473367D01*
X474102Y164131D01*
X474665Y164694D01*
X474969Y165429D01*
Y166225D01*
X474665Y166960D01*
X474102Y167522D01*
X473367Y167827D01*
D02*
G37*
G36*
X139872Y169726D02*
X138954D01*
X138067Y169489D01*
X137272Y169030D01*
X136623Y168380D01*
X136164Y167585D01*
X135926Y166699D01*
Y165781D01*
X136164Y164894D01*
X136623Y164099D01*
X137272Y163450D01*
X138067Y162991D01*
X138954Y162753D01*
X139872D01*
X140758Y162991D01*
X141553Y163450D01*
X142203Y164099D01*
X142662Y164894D01*
X142899Y165781D01*
Y166699D01*
X142662Y167585D01*
X142203Y168380D01*
X141553Y169030D01*
X140758Y169489D01*
X139872Y169726D01*
D02*
G37*
G36*
X396587Y164579D02*
X395791D01*
X395056Y164274D01*
X394494Y163712D01*
X394189Y162977D01*
Y162181D01*
X394494Y161446D01*
X395056Y160883D01*
X395791Y160579D01*
X396587D01*
X397322Y160883D01*
X397885Y161446D01*
X398189Y162181D01*
Y162977D01*
X397885Y163712D01*
X397322Y164274D01*
X396587Y164579D01*
D02*
G37*
G36*
X183940Y165553D02*
X182949D01*
X181993Y165297D01*
X181135Y164802D01*
X180434Y164101D01*
X179939Y163243D01*
X179683Y162287D01*
Y161296D01*
X179939Y160339D01*
X180434Y159481D01*
X181135Y158781D01*
X181993Y158285D01*
X182949Y158029D01*
X183940D01*
X184897Y158285D01*
X185755Y158781D01*
X186455Y159481D01*
X186951Y160339D01*
X187207Y161296D01*
Y162287D01*
X186951Y163243D01*
X186455Y164101D01*
X185755Y164802D01*
X184897Y165297D01*
X183940Y165553D01*
D02*
G37*
G36*
X478429Y161331D02*
X477634D01*
X476898Y161026D01*
X476336Y160464D01*
X476031Y159729D01*
Y158933D01*
X476336Y158198D01*
X476898Y157635D01*
X477634Y157331D01*
X478429D01*
X479164Y157635D01*
X479727Y158198D01*
X480031Y158933D01*
Y159729D01*
X479727Y160464D01*
X479164Y161026D01*
X478429Y161331D01*
D02*
G37*
G36*
X413961Y158870D02*
X413165D01*
X412430Y158565D01*
X411867Y158003D01*
X411563Y157268D01*
Y156472D01*
X411867Y155737D01*
X412430Y155175D01*
X413165Y154870D01*
X413961D01*
X414696Y155175D01*
X415259Y155737D01*
X415563Y156472D01*
Y157268D01*
X415259Y158003D01*
X414696Y158565D01*
X413961Y158870D01*
D02*
G37*
G36*
X540645Y163273D02*
X539343D01*
X538086Y162936D01*
X536959Y162285D01*
X536039Y161365D01*
X535388Y160238D01*
X535051Y158981D01*
Y157679D01*
X535388Y156422D01*
X536039Y155295D01*
X536959Y154374D01*
X538086Y153723D01*
X539343Y153387D01*
X540645D01*
X541902Y153723D01*
X543029Y154374D01*
X543950Y155295D01*
X544601Y156422D01*
X544938Y157679D01*
Y158981D01*
X544601Y160238D01*
X543950Y161365D01*
X543029Y162285D01*
X541902Y162936D01*
X540645Y163273D01*
D02*
G37*
G36*
X484866Y157196D02*
X484071D01*
X483335Y156892D01*
X482773Y156329D01*
X482469Y155594D01*
Y154798D01*
X482773Y154063D01*
X483335Y153501D01*
X484071Y153196D01*
X484866D01*
X485601Y153501D01*
X486164Y154063D01*
X486469Y154798D01*
Y155594D01*
X486164Y156329D01*
X485601Y156892D01*
X484866Y157196D01*
D02*
G37*
G36*
X139872Y159726D02*
X138954D01*
X138067Y159489D01*
X137272Y159030D01*
X136623Y158380D01*
X136164Y157585D01*
X135926Y156699D01*
Y155781D01*
X136164Y154894D01*
X136623Y154099D01*
X137272Y153450D01*
X138067Y152991D01*
X138954Y152753D01*
X139872D01*
X140758Y152991D01*
X141553Y153450D01*
X142203Y154099D01*
X142662Y154894D01*
X142899Y155781D01*
Y156699D01*
X142662Y157585D01*
X142203Y158380D01*
X141553Y159030D01*
X140758Y159489D01*
X139872Y159726D01*
D02*
G37*
G36*
X383129Y153457D02*
X382333D01*
X381598Y153152D01*
X381036Y152589D01*
X380731Y151854D01*
Y151059D01*
X381036Y150324D01*
X381598Y149761D01*
X382333Y149457D01*
X383129D01*
X383864Y149761D01*
X384427Y150324D01*
X384731Y151059D01*
Y151854D01*
X384427Y152589D01*
X383864Y153152D01*
X383129Y153457D01*
D02*
G37*
G36*
X489799Y144492D02*
X489004D01*
X488269Y144188D01*
X487706Y143625D01*
X487402Y142890D01*
Y142094D01*
X487706Y141359D01*
X488269Y140797D01*
X489004Y140492D01*
X489799D01*
X490535Y140797D01*
X491097Y141359D01*
X491402Y142094D01*
Y142890D01*
X491097Y143625D01*
X490535Y144188D01*
X489799Y144492D01*
D02*
G37*
G36*
X439799D02*
X439004D01*
X438269Y144188D01*
X437706Y143625D01*
X437402Y142890D01*
Y142094D01*
X437706Y141359D01*
X438269Y140797D01*
X439004Y140492D01*
X439799D01*
X440535Y140797D01*
X441097Y141359D01*
X441402Y142094D01*
Y142890D01*
X441097Y143625D01*
X440535Y144188D01*
X439799Y144492D01*
D02*
G37*
G36*
X289799D02*
X289004D01*
X288269Y144188D01*
X287706Y143625D01*
X287402Y142890D01*
Y142094D01*
X287706Y141359D01*
X288269Y140797D01*
X289004Y140492D01*
X289799D01*
X290535Y140797D01*
X291097Y141359D01*
X291402Y142094D01*
Y142890D01*
X291097Y143625D01*
X290535Y144188D01*
X289799Y144492D01*
D02*
G37*
G36*
X239799D02*
X239004D01*
X238269Y144188D01*
X237706Y143625D01*
X237402Y142890D01*
Y142094D01*
X237706Y141359D01*
X238269Y140797D01*
X239004Y140492D01*
X239799D01*
X240535Y140797D01*
X241097Y141359D01*
X241402Y142094D01*
Y142890D01*
X241097Y143625D01*
X240535Y144188D01*
X239799Y144492D01*
D02*
G37*
G36*
X189799D02*
X189004D01*
X188269Y144188D01*
X187706Y143625D01*
X187402Y142890D01*
Y142094D01*
X187706Y141359D01*
X188269Y140797D01*
X189004Y140492D01*
X189799D01*
X190535Y140797D01*
X191097Y141359D01*
X191402Y142094D01*
Y142890D01*
X191097Y143625D01*
X190535Y144188D01*
X189799Y144492D01*
D02*
G37*
G36*
X89799D02*
X89004D01*
X88269Y144188D01*
X87706Y143625D01*
X87402Y142890D01*
Y142094D01*
X87706Y141359D01*
X88269Y140797D01*
X89004Y140492D01*
X89799D01*
X90535Y140797D01*
X91097Y141359D01*
X91402Y142094D01*
Y142890D01*
X91097Y143625D01*
X90535Y144188D01*
X89799Y144492D01*
D02*
G37*
G36*
X39799D02*
X39004D01*
X38269Y144188D01*
X37706Y143625D01*
X37402Y142890D01*
Y142094D01*
X37706Y141359D01*
X38269Y140797D01*
X39004Y140492D01*
X39799D01*
X40535Y140797D01*
X41097Y141359D01*
X41402Y142094D01*
Y142890D01*
X41097Y143625D01*
X40535Y144188D01*
X39799Y144492D01*
D02*
G37*
G36*
X540645Y149887D02*
X539343D01*
X538086Y149550D01*
X536959Y148900D01*
X536039Y147979D01*
X535388Y146852D01*
X535051Y145595D01*
Y144293D01*
X535388Y143036D01*
X536039Y141909D01*
X536959Y140988D01*
X538086Y140338D01*
X539343Y140001D01*
X540645D01*
X541902Y140338D01*
X543029Y140988D01*
X543950Y141909D01*
X544601Y143036D01*
X544938Y144293D01*
Y145595D01*
X544601Y146852D01*
X543950Y147979D01*
X543029Y148900D01*
X541902Y149550D01*
X540645Y149887D01*
D02*
G37*
G36*
X409193Y131616D02*
X408398D01*
X407662Y131312D01*
X407100Y130749D01*
X406795Y130014D01*
Y129428D01*
X406358Y129068D01*
X406284Y129099D01*
X405488D01*
X404753Y128794D01*
X404190Y128232D01*
X403886Y127497D01*
Y126701D01*
X404190Y125966D01*
X404753Y125403D01*
X405488Y125099D01*
X406284D01*
X407019Y125403D01*
X407581Y125966D01*
X407886Y126701D01*
Y127287D01*
X408323Y127647D01*
X408398Y127616D01*
X409193D01*
X409928Y127921D01*
X410491Y128483D01*
X410795Y129219D01*
Y130014D01*
X410491Y130749D01*
X409928Y131312D01*
X409193Y131616D01*
D02*
G37*
G36*
X12569Y141558D02*
X11053D01*
X9565Y141262D01*
X8164Y140681D01*
X6903Y139839D01*
X5831Y138766D01*
X4988Y137505D01*
X4408Y136104D01*
X4112Y134617D01*
Y133100D01*
X4408Y131613D01*
X4988Y130211D01*
X5831Y128950D01*
X6903Y127878D01*
X8164Y127035D01*
X9565Y126455D01*
X11053Y126159D01*
X12569D01*
X14057Y126455D01*
X15458Y127035D01*
X16719Y127878D01*
X17791Y128950D01*
X18634Y130211D01*
X19214Y131613D01*
X19510Y133100D01*
Y134617D01*
X19214Y136104D01*
X18634Y137505D01*
X17791Y138766D01*
X16719Y139839D01*
X15458Y140681D01*
X14057Y141262D01*
X12569Y141558D01*
D02*
G37*
G36*
X414689Y119917D02*
X413894D01*
X413158Y119612D01*
X412783Y119237D01*
X412407Y119612D01*
X411672Y119917D01*
X410877D01*
X410141Y119612D01*
X409579Y119050D01*
X409274Y118315D01*
Y117519D01*
X409579Y116784D01*
X410141Y116221D01*
X410877Y115917D01*
X411672D01*
X412407Y116221D01*
X412783Y116597D01*
X413158Y116221D01*
X413894Y115917D01*
X414689D01*
X415424Y116221D01*
X415987Y116784D01*
X416291Y117519D01*
Y118315D01*
X415987Y119050D01*
X415424Y119612D01*
X414689Y119917D01*
D02*
G37*
G36*
X450439Y123205D02*
X449644D01*
X448909Y122901D01*
X448346Y122338D01*
X448042Y121603D01*
Y120807D01*
X448346Y120072D01*
X448909Y119510D01*
X449644Y119205D01*
X450439D01*
X451174Y119510D01*
X451737Y120072D01*
X452042Y120807D01*
Y121603D01*
X451737Y122338D01*
X451174Y122901D01*
X450439Y123205D01*
D02*
G37*
G36*
X388670Y120834D02*
X387874D01*
X387139Y120529D01*
X386576Y119967D01*
X386272Y119232D01*
Y118436D01*
X386576Y117701D01*
X387139Y117138D01*
X387874Y116834D01*
X388670D01*
X389405Y117138D01*
X389967Y117701D01*
X390272Y118436D01*
Y119232D01*
X389967Y119967D01*
X389405Y120529D01*
X388670Y120834D01*
D02*
G37*
G36*
X396587Y125951D02*
X395791D01*
X395056Y125646D01*
X394494Y125084D01*
X394189Y124349D01*
Y123553D01*
X394494Y122818D01*
X394869Y122442D01*
X394494Y122067D01*
X394189Y121332D01*
Y120536D01*
X394494Y119801D01*
X394869Y119425D01*
X394494Y119050D01*
X394189Y118315D01*
Y117519D01*
X394494Y116784D01*
X395056Y116221D01*
X395791Y115917D01*
X396587D01*
X397322Y116221D01*
X397698Y116597D01*
X398073Y116221D01*
X398808Y115917D01*
X399604D01*
X400339Y116221D01*
X400715Y116597D01*
X401090Y116221D01*
X401825Y115917D01*
X402621D01*
X403356Y116221D01*
X403919Y116784D01*
X404223Y117519D01*
Y118315D01*
X403919Y119050D01*
X403356Y119612D01*
X402621Y119917D01*
X401825D01*
X401090Y119612D01*
X400715Y119237D01*
X400339Y119612D01*
X399604Y119917D01*
X398808D01*
X398405Y119750D01*
X398022Y120132D01*
X398189Y120536D01*
Y121332D01*
X397885Y122067D01*
X397509Y122442D01*
X397885Y122818D01*
X398189Y123553D01*
Y124349D01*
X397885Y125084D01*
X397322Y125646D01*
X396587Y125951D01*
D02*
G37*
G36*
X511028Y117947D02*
X510232D01*
X509497Y117642D01*
X508934Y117080D01*
X508630Y116345D01*
Y115549D01*
X508934Y114814D01*
X509497Y114251D01*
X510232Y113947D01*
X511028D01*
X511763Y114251D01*
X512325Y114814D01*
X512630Y115549D01*
Y116345D01*
X512325Y117080D01*
X511763Y117642D01*
X511028Y117947D01*
D02*
G37*
G36*
X494453D02*
X493657D01*
X492922Y117642D01*
X492360Y117080D01*
X492055Y116345D01*
Y115549D01*
X492360Y114814D01*
X492922Y114251D01*
X493657Y113947D01*
X494453D01*
X495188Y114251D01*
X495751Y114814D01*
X496055Y115549D01*
Y116345D01*
X495751Y117080D01*
X495188Y117642D01*
X494453Y117947D01*
D02*
G37*
G36*
X672532Y113762D02*
X668300D01*
Y112720D01*
X675511D01*
X675022Y113095D01*
X673821Y113593D01*
X672532Y113762D01*
D02*
G37*
G36*
X660426D02*
X656193D01*
X654905Y113593D01*
X653704Y113095D01*
X653214Y112720D01*
X660426D01*
Y113762D01*
D02*
G37*
G36*
X422027Y115939D02*
X421232D01*
X420497Y115634D01*
X419934Y115072D01*
X419630Y114337D01*
Y113541D01*
X419934Y112806D01*
X420497Y112243D01*
X421232Y111939D01*
X422027D01*
X422763Y112243D01*
X423325Y112806D01*
X423630Y113541D01*
Y114337D01*
X423325Y115072D01*
X422763Y115634D01*
X422027Y115939D01*
D02*
G37*
G36*
X382817Y108670D02*
X382021D01*
X381286Y108366D01*
X380723Y107803D01*
X380419Y107068D01*
Y106272D01*
X380723Y105537D01*
X381286Y104975D01*
X382021Y104670D01*
X382817D01*
X383552Y104975D01*
X384115Y105537D01*
X384419Y106272D01*
Y107068D01*
X384115Y107803D01*
X383552Y108366D01*
X382817Y108670D01*
D02*
G37*
G36*
X675511Y104846D02*
X668300D01*
Y103803D01*
X672532D01*
X673821Y103973D01*
X675022Y104470D01*
X675511Y104846D01*
D02*
G37*
G36*
X660426D02*
X653214D01*
X653704Y104470D01*
X654905Y103973D01*
X656193Y103803D01*
X660426D01*
Y104846D01*
D02*
G37*
G36*
X424733Y111486D02*
X423937D01*
X423202Y111181D01*
X422639Y110619D01*
X422335Y109884D01*
Y109088D01*
X422639Y108353D01*
X423202Y107791D01*
X423937Y107486D01*
X424252D01*
X424375Y107099D01*
X424382Y106986D01*
X423842Y106446D01*
X423537Y105710D01*
Y104915D01*
X423842Y104180D01*
X424405Y103617D01*
X425140Y103313D01*
X425935D01*
X426670Y103617D01*
X427233Y104180D01*
X427537Y104915D01*
Y105710D01*
X427233Y106446D01*
X426670Y107008D01*
X425935Y107313D01*
X425621D01*
X425497Y107699D01*
X425490Y107813D01*
X426030Y108353D01*
X426335Y109088D01*
Y109884D01*
X426030Y110619D01*
X425468Y111181D01*
X424733Y111486D01*
D02*
G37*
G36*
X244853Y113998D02*
X243336D01*
X241849Y113702D01*
X240448Y113122D01*
X239187Y112280D01*
X238114Y111207D01*
X237271Y109946D01*
X236691Y108545D01*
X236395Y107057D01*
Y105541D01*
X236691Y104053D01*
X237271Y102652D01*
X238114Y101391D01*
X239187Y100319D01*
X240448Y99476D01*
X241849Y98896D01*
X243336Y98600D01*
X244853D01*
X246340Y98896D01*
X247741Y99476D01*
X249002Y100319D01*
X250075Y101391D01*
X250917Y102652D01*
X251498Y104053D01*
X251794Y105541D01*
Y107057D01*
X251498Y108545D01*
X250917Y109946D01*
X250075Y111207D01*
X249002Y112280D01*
X247741Y113122D01*
X246340Y113702D01*
X244853Y113998D01*
D02*
G37*
G36*
X319140Y101236D02*
X318344D01*
X317609Y100931D01*
X317046Y100368D01*
X316742Y99634D01*
Y98838D01*
X317046Y98103D01*
X317609Y97540D01*
X318344Y97236D01*
X319140D01*
X319875Y97540D01*
X320437Y98103D01*
X320742Y98838D01*
Y99634D01*
X320437Y100368D01*
X319875Y100931D01*
X319140Y101236D01*
D02*
G37*
G36*
X275725D02*
X274930D01*
X274195Y100931D01*
X273632Y100368D01*
X273328Y99634D01*
Y98838D01*
X273632Y98103D01*
X274195Y97540D01*
X274930Y97236D01*
X275725D01*
X276461Y97540D01*
X277023Y98103D01*
X277328Y98838D01*
Y99634D01*
X277023Y100368D01*
X276461Y100931D01*
X275725Y101236D01*
D02*
G37*
G36*
X421068Y108237D02*
X420273D01*
X419538Y107933D01*
X418975Y107370D01*
X418671Y106635D01*
Y105839D01*
X418975Y105104D01*
X419131Y104948D01*
X419034Y104460D01*
X418472Y103897D01*
X418167Y103162D01*
Y102366D01*
X418472Y101631D01*
X418511Y101592D01*
X418494Y101509D01*
X417932Y100946D01*
X417627Y100211D01*
Y99815D01*
X416983D01*
X416248Y99510D01*
X415685Y98948D01*
X415381Y98213D01*
Y97417D01*
X415685Y96682D01*
X416248Y96119D01*
X416983Y95815D01*
X417779D01*
X418514Y96119D01*
X419076Y96682D01*
X419381Y97417D01*
Y97813D01*
X420025D01*
X420760Y98118D01*
X421322Y98680D01*
X421627Y99415D01*
Y100211D01*
X421322Y100946D01*
X421283Y100985D01*
X421300Y101068D01*
X421863Y101631D01*
X422167Y102366D01*
Y103162D01*
X421863Y103897D01*
X421706Y104053D01*
X421803Y104542D01*
X422366Y105104D01*
X422671Y105839D01*
Y106635D01*
X422366Y107370D01*
X421803Y107933D01*
X421068Y108237D01*
D02*
G37*
G36*
X132089Y96759D02*
X131373Y96281D01*
X130515Y95422D01*
X129656Y96281D01*
X128940Y96759D01*
Y90611D01*
Y84463D01*
X129656Y84942D01*
X130515Y85800D01*
X131216Y85099D01*
X130357Y84241D01*
X129878Y83525D01*
X142174D01*
X141696Y84241D01*
X140837Y85099D01*
X141696Y85958D01*
X142174Y86674D01*
X136026D01*
Y90611D01*
X132089D01*
Y96759D01*
D02*
G37*
G36*
X121066D02*
X120350Y96281D01*
X119491Y95422D01*
X118632Y96281D01*
X117916Y96759D01*
Y90611D01*
Y84463D01*
X118632Y84942D01*
X119491Y85800D01*
X120350Y84942D01*
X121066Y84463D01*
Y90611D01*
Y96759D01*
D02*
G37*
G36*
X110042D02*
X109326Y96281D01*
X108467Y95422D01*
X107608Y96281D01*
X106893Y96759D01*
Y90611D01*
Y84463D01*
X107608Y84942D01*
X108467Y85800D01*
X109326Y84942D01*
X110042Y84463D01*
Y90611D01*
Y96759D01*
D02*
G37*
G36*
X99019D02*
X98303Y96281D01*
X97444Y95422D01*
X96585Y96281D01*
X95869Y96759D01*
Y90611D01*
X91932D01*
Y86674D01*
X85784D01*
X86262Y85958D01*
X87121Y85099D01*
X86262Y84241D01*
X85784Y83525D01*
X98080D01*
X97601Y84241D01*
X96743Y85099D01*
X97444Y85800D01*
X98303Y84942D01*
X99019Y84463D01*
Y90611D01*
Y96759D01*
D02*
G37*
G36*
X473367Y98831D02*
X472572D01*
X471837Y98526D01*
X471274Y97964D01*
X470969Y97228D01*
Y96433D01*
X471274Y95698D01*
X471837Y95135D01*
X472572Y94831D01*
X473367D01*
X474102Y95135D01*
X474665Y95698D01*
X474969Y96433D01*
Y97228D01*
X474665Y97964D01*
X474102Y98526D01*
X473367Y98831D01*
D02*
G37*
G36*
X139963Y96759D02*
Y94548D01*
X142174D01*
X141696Y95264D01*
X140679Y96281D01*
X139963Y96759D01*
D02*
G37*
G36*
X87995D02*
X87279Y96281D01*
X86262Y95264D01*
X85784Y94548D01*
X87995D01*
Y96759D01*
D02*
G37*
G36*
X334120Y97968D02*
X333324D01*
X332589Y97663D01*
X332027Y97101D01*
X331722Y96366D01*
Y95570D01*
X332027Y94835D01*
X332589Y94272D01*
X333324Y93968D01*
X334120D01*
X334855Y94272D01*
X335418Y94835D01*
X335722Y95570D01*
Y96366D01*
X335418Y97101D01*
X334855Y97663D01*
X334120Y97968D01*
D02*
G37*
G36*
X290706D02*
X289910D01*
X289175Y97663D01*
X288612Y97101D01*
X288308Y96366D01*
Y95570D01*
X288612Y94835D01*
X289175Y94272D01*
X289910Y93968D01*
X290706D01*
X291441Y94272D01*
X292003Y94835D01*
X292308Y95570D01*
Y96366D01*
X292003Y97101D01*
X291441Y97663D01*
X290706Y97968D01*
D02*
G37*
G36*
X614799Y94492D02*
X614004D01*
X613269Y94188D01*
X612706Y93625D01*
X612402Y92890D01*
Y92094D01*
X612706Y91359D01*
X613269Y90797D01*
X614004Y90492D01*
X614799D01*
X615535Y90797D01*
X616097Y91359D01*
X616402Y92094D01*
Y92890D01*
X616097Y93625D01*
X615535Y94188D01*
X614799Y94492D01*
D02*
G37*
G36*
X564799D02*
X564004D01*
X563269Y94188D01*
X562706Y93625D01*
X562402Y92890D01*
Y92094D01*
X562706Y91359D01*
X563269Y90797D01*
X564004Y90492D01*
X564799D01*
X565535Y90797D01*
X566097Y91359D01*
X566402Y92094D01*
Y92890D01*
X566097Y93625D01*
X565535Y94188D01*
X564799Y94492D01*
D02*
G37*
G36*
X514799D02*
X514004D01*
X513269Y94188D01*
X512706Y93625D01*
X512402Y92890D01*
Y92094D01*
X512706Y91359D01*
X513269Y90797D01*
X514004Y90492D01*
X514799D01*
X515535Y90797D01*
X516097Y91359D01*
X516402Y92094D01*
Y92890D01*
X516097Y93625D01*
X515535Y94188D01*
X514799Y94492D01*
D02*
G37*
G36*
X314799D02*
X314004D01*
X313269Y94188D01*
X312706Y93625D01*
X312402Y92890D01*
Y92094D01*
X312706Y91359D01*
X313269Y90797D01*
X314004Y90492D01*
X314799D01*
X315535Y90797D01*
X316097Y91359D01*
X316402Y92094D01*
Y92890D01*
X316097Y93625D01*
X315535Y94188D01*
X314799Y94492D01*
D02*
G37*
G36*
X264799D02*
X264004D01*
X263269Y94188D01*
X262706Y93625D01*
X262402Y92890D01*
Y92094D01*
X262706Y91359D01*
X263269Y90797D01*
X264004Y90492D01*
X264799D01*
X265535Y90797D01*
X266097Y91359D01*
X266402Y92094D01*
Y92890D01*
X266097Y93625D01*
X265535Y94188D01*
X264799Y94492D01*
D02*
G37*
G36*
X214799D02*
X214004D01*
X213269Y94188D01*
X212706Y93625D01*
X212402Y92890D01*
Y92094D01*
X212706Y91359D01*
X213269Y90797D01*
X214004Y90492D01*
X214799D01*
X215535Y90797D01*
X216097Y91359D01*
X216402Y92094D01*
Y92890D01*
X216097Y93625D01*
X215535Y94188D01*
X214799Y94492D01*
D02*
G37*
G36*
X164799D02*
X164004D01*
X163269Y94188D01*
X162706Y93625D01*
X162402Y92890D01*
Y92094D01*
X162706Y91359D01*
X163269Y90797D01*
X164004Y90492D01*
X164799D01*
X165535Y90797D01*
X166097Y91359D01*
X166402Y92094D01*
Y92890D01*
X166097Y93625D01*
X165535Y94188D01*
X164799Y94492D01*
D02*
G37*
G36*
X64799D02*
X64004D01*
X63269Y94188D01*
X62706Y93625D01*
X62402Y92890D01*
Y92094D01*
X62706Y91359D01*
X63269Y90797D01*
X64004Y90492D01*
X64799D01*
X65535Y90797D01*
X66097Y91359D01*
X66402Y92094D01*
Y92890D01*
X66097Y93625D01*
X65535Y94188D01*
X64799Y94492D01*
D02*
G37*
G36*
X423430Y95987D02*
X422635D01*
X421900Y95683D01*
X421337Y95120D01*
X421033Y94385D01*
Y93590D01*
X421337Y92854D01*
X421827Y92365D01*
X421868Y92073D01*
X421827Y91781D01*
X421337Y91292D01*
X421033Y90557D01*
Y89761D01*
X421337Y89026D01*
X421900Y88463D01*
X422635Y88159D01*
X423403D01*
X423471Y88082D01*
X423666Y87715D01*
X423435Y87484D01*
X423131Y86749D01*
Y85953D01*
X423169Y85862D01*
X422786Y85479D01*
X422727Y85504D01*
X421931D01*
X421196Y85199D01*
X420633Y84637D01*
X420329Y83902D01*
Y83106D01*
X420379Y82985D01*
X419996Y82603D01*
X419747Y82706D01*
X418952D01*
X418216Y82401D01*
X417654Y81839D01*
X417349Y81104D01*
Y80308D01*
X417654Y79573D01*
X417661Y79566D01*
X417377Y79142D01*
X416777Y79391D01*
X415982D01*
X415247Y79086D01*
X414684Y78524D01*
X414380Y77789D01*
Y76993D01*
X414684Y76258D01*
X415247Y75695D01*
X415982Y75391D01*
X416777D01*
X417512Y75695D01*
X418075Y76258D01*
X418379Y76993D01*
Y77789D01*
X418075Y78524D01*
X418068Y78530D01*
X418352Y78954D01*
X418952Y78706D01*
X419747D01*
X420482Y79010D01*
X421045Y79573D01*
X421349Y80308D01*
Y81104D01*
X421299Y81224D01*
X421682Y81607D01*
X421931Y81504D01*
X422727D01*
X423462Y81808D01*
X424024Y82371D01*
X424329Y83106D01*
Y83902D01*
X424291Y83993D01*
X424674Y84376D01*
X424733Y84351D01*
X425529D01*
X426264Y84656D01*
X426826Y85218D01*
X427131Y85953D01*
Y86749D01*
X426826Y87484D01*
X426264Y88047D01*
X425529Y88351D01*
X424761D01*
X424692Y88428D01*
X424497Y88795D01*
X424728Y89026D01*
X425033Y89761D01*
Y90557D01*
X424728Y91292D01*
X424239Y91781D01*
X424197Y92073D01*
X424239Y92365D01*
X424728Y92854D01*
X425033Y93590D01*
Y94385D01*
X424728Y95120D01*
X424166Y95683D01*
X423430Y95987D01*
D02*
G37*
G36*
X474843Y85296D02*
X474047D01*
X473312Y84992D01*
X472749Y84429D01*
X472445Y83694D01*
Y82898D01*
X472749Y82163D01*
X473312Y81600D01*
X474047Y81296D01*
X474843D01*
X475578Y81600D01*
X476140Y82163D01*
X476445Y82898D01*
Y83694D01*
X476140Y84429D01*
X475578Y84992D01*
X474843Y85296D01*
D02*
G37*
G36*
X464843D02*
X464047D01*
X463312Y84992D01*
X462749Y84429D01*
X462445Y83694D01*
Y82898D01*
X462749Y82163D01*
X463312Y81600D01*
X464047Y81296D01*
X464843D01*
X465578Y81600D01*
X466140Y82163D01*
X466445Y82898D01*
Y83694D01*
X466140Y84429D01*
X465578Y84992D01*
X464843Y85296D01*
D02*
G37*
G36*
X484866Y85272D02*
X484071D01*
X483335Y84968D01*
X482773Y84405D01*
X482469Y83670D01*
Y82875D01*
X482773Y82139D01*
X483335Y81577D01*
X484071Y81272D01*
X484866D01*
X485601Y81577D01*
X486164Y82139D01*
X486469Y82875D01*
Y83670D01*
X486164Y84405D01*
X485601Y84968D01*
X484866Y85272D01*
D02*
G37*
G36*
X454866D02*
X454071D01*
X453336Y84968D01*
X452773Y84405D01*
X452468Y83670D01*
Y82875D01*
X452773Y82139D01*
X453336Y81577D01*
X454071Y81272D01*
X454866D01*
X455601Y81577D01*
X456164Y82139D01*
X456468Y82875D01*
Y83670D01*
X456164Y84405D01*
X455601Y84968D01*
X454866Y85272D01*
D02*
G37*
G36*
X444866D02*
X444071D01*
X443335Y84968D01*
X442773Y84405D01*
X442469Y83670D01*
Y82875D01*
X442773Y82139D01*
X443335Y81577D01*
X444071Y81272D01*
X444866D01*
X445601Y81577D01*
X446164Y82139D01*
X446468Y82875D01*
Y83670D01*
X446164Y84405D01*
X445601Y84968D01*
X444866Y85272D01*
D02*
G37*
G36*
X657257Y99253D02*
X655429Y99073D01*
X653671Y98540D01*
X652052Y97675D01*
X650632Y96509D01*
X649467Y95090D01*
X648601Y93470D01*
X648068Y91713D01*
X647888Y89885D01*
X648068Y88057D01*
X648601Y86300D01*
X649467Y84680D01*
X650632Y83261D01*
X652052Y82095D01*
X653671Y81230D01*
X655429Y80697D01*
X657257Y80517D01*
X659084Y80697D01*
X660842Y81230D01*
X662461Y82095D01*
X663881Y83261D01*
X665046Y84680D01*
X665912Y86300D01*
X666445Y88057D01*
X666625Y89885D01*
X666445Y91713D01*
X665912Y93470D01*
X665046Y95090D01*
X663881Y96509D01*
X662461Y97675D01*
X660842Y98540D01*
X659084Y99073D01*
X657257Y99253D01*
D02*
G37*
G36*
X479879Y83343D02*
X479083D01*
X478348Y83039D01*
X477785Y82476D01*
X477481Y81741D01*
Y80945D01*
X477785Y80210D01*
X478348Y79648D01*
X479083Y79343D01*
X479879D01*
X480614Y79648D01*
X481177Y80210D01*
X481481Y80945D01*
Y81741D01*
X481177Y82476D01*
X480614Y83039D01*
X479879Y83343D01*
D02*
G37*
G36*
X469847D02*
X469051D01*
X468316Y83039D01*
X467754Y82476D01*
X467449Y81741D01*
Y80945D01*
X467754Y80210D01*
X468316Y79648D01*
X469051Y79343D01*
X469847D01*
X470582Y79648D01*
X471145Y80210D01*
X471449Y80945D01*
Y81741D01*
X471145Y82476D01*
X470582Y83039D01*
X469847Y83343D01*
D02*
G37*
G36*
X459879D02*
X459083D01*
X458348Y83039D01*
X457786Y82476D01*
X457481Y81741D01*
Y80945D01*
X457786Y80210D01*
X458348Y79648D01*
X459083Y79343D01*
X459879D01*
X460614Y79648D01*
X461177Y80210D01*
X461481Y80945D01*
Y81741D01*
X461177Y82476D01*
X460614Y83039D01*
X459879Y83343D01*
D02*
G37*
G36*
X449879D02*
X449083D01*
X448348Y83039D01*
X447786Y82476D01*
X447481Y81741D01*
Y80945D01*
X447786Y80210D01*
X448348Y79648D01*
X449083Y79343D01*
X449879D01*
X450614Y79648D01*
X451177Y80210D01*
X451481Y80945D01*
Y81741D01*
X451177Y82476D01*
X450614Y83039D01*
X449879Y83343D01*
D02*
G37*
G36*
X372262Y80611D02*
X371466D01*
X370731Y80307D01*
X370169Y79744D01*
X369864Y79009D01*
Y78213D01*
X370169Y77478D01*
X370731Y76916D01*
X371466Y76611D01*
X372262D01*
X372997Y76916D01*
X373560Y77478D01*
X373864Y78213D01*
Y79009D01*
X373560Y79744D01*
X372997Y80307D01*
X372262Y80611D01*
D02*
G37*
G36*
X387071Y83181D02*
X386275D01*
X385540Y82877D01*
X384978Y82314D01*
X384673Y81579D01*
Y80783D01*
X384978Y80048D01*
X385518Y79508D01*
X384978Y78967D01*
X384673Y78232D01*
Y77437D01*
X384978Y76702D01*
X385540Y76139D01*
X386275Y75835D01*
X387071D01*
X387806Y76139D01*
X388243Y76576D01*
X388579Y76642D01*
X388853Y76565D01*
X389306Y76112D01*
X390041Y75808D01*
X390837D01*
X391572Y76112D01*
X392134Y76675D01*
X392439Y77410D01*
Y78206D01*
X392134Y78941D01*
X391572Y79503D01*
X390837Y79808D01*
X390041D01*
X389306Y79503D01*
X388869Y79066D01*
X388533Y79000D01*
X388259Y79077D01*
X387828Y79508D01*
X388369Y80048D01*
X388673Y80783D01*
Y81579D01*
X388369Y82314D01*
X387806Y82877D01*
X387071Y83181D01*
D02*
G37*
G36*
X402347Y78945D02*
X401551D01*
X400816Y78640D01*
X400253Y78078D01*
X399949Y77343D01*
Y76547D01*
X400253Y75812D01*
X400816Y75249D01*
X401551Y74945D01*
X402347D01*
X403082Y75249D01*
X403644Y75812D01*
X403949Y76547D01*
Y77343D01*
X403644Y78078D01*
X403082Y78640D01*
X402347Y78945D01*
D02*
G37*
G36*
X580217Y81391D02*
X579330D01*
X578473Y81161D01*
X577705Y80718D01*
X577078Y80091D01*
X576634Y79322D01*
X576405Y78466D01*
Y77579D01*
X576634Y76722D01*
X577078Y75954D01*
X577705Y75327D01*
X578473Y74883D01*
X579330Y74654D01*
X580217D01*
X581074Y74883D01*
X581842Y75327D01*
X582469Y75954D01*
X582912Y76722D01*
X583142Y77579D01*
Y78466D01*
X582912Y79322D01*
X582469Y80091D01*
X581842Y80718D01*
X581074Y81161D01*
X580217Y81391D01*
D02*
G37*
G36*
X570217D02*
X569330D01*
X568473Y81161D01*
X567705Y80718D01*
X567078Y80091D01*
X566634Y79322D01*
X566405Y78466D01*
Y77579D01*
X566634Y76722D01*
X567078Y75954D01*
X567705Y75327D01*
X568473Y74883D01*
X569330Y74654D01*
X570217D01*
X571073Y74883D01*
X571842Y75327D01*
X572469Y75954D01*
X572912Y76722D01*
X573142Y77579D01*
Y78466D01*
X572912Y79322D01*
X572469Y80091D01*
X571842Y80718D01*
X571073Y81161D01*
X570217Y81391D01*
D02*
G37*
G36*
X560217D02*
X559330D01*
X558473Y81161D01*
X557705Y80718D01*
X557078Y80091D01*
X556634Y79322D01*
X556405Y78466D01*
Y77579D01*
X556634Y76722D01*
X557078Y75954D01*
X557705Y75327D01*
X558473Y74883D01*
X559330Y74654D01*
X560217D01*
X561073Y74883D01*
X561842Y75327D01*
X562469Y75954D01*
X562912Y76722D01*
X563142Y77579D01*
Y78466D01*
X562912Y79322D01*
X562469Y80091D01*
X561842Y80718D01*
X561073Y81161D01*
X560217Y81391D01*
D02*
G37*
G36*
X550217D02*
X549330D01*
X548473Y81161D01*
X547705Y80718D01*
X547078Y80091D01*
X546634Y79322D01*
X546405Y78466D01*
Y77579D01*
X546634Y76722D01*
X547078Y75954D01*
X547705Y75327D01*
X548473Y74883D01*
X549330Y74654D01*
X550217D01*
X551074Y74883D01*
X551842Y75327D01*
X552469Y75954D01*
X552912Y76722D01*
X553142Y77579D01*
Y78466D01*
X552912Y79322D01*
X552469Y80091D01*
X551842Y80718D01*
X551074Y81161D01*
X550217Y81391D01*
D02*
G37*
G36*
X346437Y77862D02*
X345641D01*
X344906Y77557D01*
X344344Y76995D01*
X344039Y76260D01*
Y75464D01*
X344344Y74729D01*
X344906Y74166D01*
X345641Y73862D01*
X346437D01*
X347172Y74166D01*
X347735Y74729D01*
X348039Y75464D01*
Y76260D01*
X347735Y76995D01*
X347172Y77557D01*
X346437Y77862D01*
D02*
G37*
G36*
X511028Y77285D02*
X510232D01*
X509497Y76981D01*
X508934Y76418D01*
X508630Y75683D01*
Y74887D01*
X508934Y74152D01*
X509497Y73589D01*
X510232Y73285D01*
X511028D01*
X511763Y73589D01*
X512325Y74152D01*
X512630Y74887D01*
Y75683D01*
X512325Y76418D01*
X511763Y76981D01*
X511028Y77285D01*
D02*
G37*
G36*
X494453D02*
X493657D01*
X492922Y76981D01*
X492360Y76418D01*
X492055Y75683D01*
Y74887D01*
X492360Y74152D01*
X492922Y73589D01*
X493657Y73285D01*
X494453D01*
X495188Y73589D01*
X495751Y74152D01*
X496055Y74887D01*
Y75683D01*
X495751Y76418D01*
X495188Y76981D01*
X494453Y77285D01*
D02*
G37*
G36*
X142174Y75651D02*
X129878D01*
X130357Y74935D01*
X131216Y74076D01*
X130357Y73217D01*
X129878Y72501D01*
X142174D01*
X141696Y73217D01*
X140837Y74076D01*
X141696Y74935D01*
X142174Y75651D01*
D02*
G37*
G36*
X98080D02*
X85784D01*
X86262Y74935D01*
X87121Y74076D01*
X86262Y73217D01*
X85784Y72501D01*
X98080D01*
X97601Y73217D01*
X96743Y74076D01*
X97601Y74935D01*
X98080Y75651D01*
D02*
G37*
G36*
X607858Y76291D02*
X607063D01*
X606328Y75987D01*
X605765Y75424D01*
X605461Y74689D01*
Y73893D01*
X605765Y73158D01*
X606328Y72596D01*
X607063Y72291D01*
X607858D01*
X608594Y72596D01*
X609156Y73158D01*
X609461Y73893D01*
Y74689D01*
X609156Y75424D01*
X608594Y75987D01*
X607858Y76291D01*
D02*
G37*
G36*
X346437Y71836D02*
X345641D01*
X344906Y71532D01*
X344344Y70969D01*
X344039Y70234D01*
Y69438D01*
X344344Y68703D01*
X344906Y68141D01*
X345641Y67836D01*
X346437D01*
X347172Y68141D01*
X347735Y68703D01*
X348039Y69438D01*
Y70234D01*
X347735Y70969D01*
X347172Y71532D01*
X346437Y71836D01*
D02*
G37*
G36*
X377751Y71298D02*
X376956D01*
X376220Y70994D01*
X375658Y70431D01*
X375353Y69696D01*
Y68901D01*
X375658Y68165D01*
X376220Y67603D01*
X376956Y67298D01*
X377751D01*
X378486Y67603D01*
X379049Y68165D01*
X379353Y68901D01*
Y69696D01*
X379049Y70431D01*
X378486Y70994D01*
X377751Y71298D01*
D02*
G37*
G36*
X575217Y71391D02*
X574330D01*
X573473Y71161D01*
X572705Y70718D01*
X572078Y70091D01*
X571634Y69323D01*
X571405Y68466D01*
Y67579D01*
X571634Y66722D01*
X572078Y65954D01*
X572705Y65327D01*
X573473Y64883D01*
X574330Y64654D01*
X575217D01*
X576074Y64883D01*
X576842Y65327D01*
X577469Y65954D01*
X577912Y66722D01*
X578142Y67579D01*
Y68466D01*
X577912Y69323D01*
X577469Y70091D01*
X576842Y70718D01*
X576074Y71161D01*
X575217Y71391D01*
D02*
G37*
G36*
X565217D02*
X564330D01*
X563473Y71161D01*
X562705Y70718D01*
X562078Y70091D01*
X561634Y69323D01*
X561405Y68466D01*
Y67579D01*
X561634Y66722D01*
X562078Y65954D01*
X562705Y65327D01*
X563473Y64883D01*
X564330Y64654D01*
X565217D01*
X566074Y64883D01*
X566842Y65327D01*
X567469Y65954D01*
X567912Y66722D01*
X568142Y67579D01*
Y68466D01*
X567912Y69323D01*
X567469Y70091D01*
X566842Y70718D01*
X566074Y71161D01*
X565217Y71391D01*
D02*
G37*
G36*
X555217D02*
X554330D01*
X553473Y71161D01*
X552705Y70718D01*
X552078Y70091D01*
X551634Y69323D01*
X551405Y68466D01*
Y67579D01*
X551634Y66722D01*
X552078Y65954D01*
X552705Y65327D01*
X553473Y64883D01*
X554330Y64654D01*
X555217D01*
X556074Y64883D01*
X556842Y65327D01*
X557469Y65954D01*
X557912Y66722D01*
X558142Y67579D01*
Y68466D01*
X557912Y69323D01*
X557469Y70091D01*
X556842Y70718D01*
X556074Y71161D01*
X555217Y71391D01*
D02*
G37*
G36*
X545217D02*
X544330D01*
X543473Y71161D01*
X542705Y70718D01*
X542078Y70091D01*
X541634Y69323D01*
X541405Y68466D01*
Y67579D01*
X541634Y66722D01*
X542078Y65954D01*
X542705Y65327D01*
X543473Y64883D01*
X544330Y64654D01*
X545217D01*
X546073Y64883D01*
X546842Y65327D01*
X547469Y65954D01*
X547912Y66722D01*
X548142Y67579D01*
Y68466D01*
X547912Y69323D01*
X547469Y70091D01*
X546842Y70718D01*
X546073Y71161D01*
X545217Y71391D01*
D02*
G37*
G36*
X207534Y67594D02*
X206739D01*
X206004Y67289D01*
X205441Y66727D01*
X205137Y65991D01*
Y65196D01*
X205441Y64461D01*
X206004Y63898D01*
X206739Y63594D01*
X207534D01*
X208270Y63898D01*
X208832Y64461D01*
X209137Y65196D01*
Y65991D01*
X208832Y66727D01*
X208270Y67289D01*
X207534Y67594D01*
D02*
G37*
G36*
X57920Y68605D02*
X57002D01*
X56115Y68367D01*
X55320Y67908D01*
X54671Y67259D01*
X54212Y66464D01*
X53974Y65577D01*
Y64659D01*
X54212Y63772D01*
X54671Y62977D01*
X55320Y62328D01*
X56115Y61869D01*
X57002Y61632D01*
X57920D01*
X58806Y61869D01*
X59601Y62328D01*
X60251Y62977D01*
X60710Y63772D01*
X60947Y64659D01*
Y65577D01*
X60710Y66464D01*
X60251Y67259D01*
X59601Y67908D01*
X58806Y68367D01*
X57920Y68605D01*
D02*
G37*
G36*
X142174Y64627D02*
X129878D01*
X130357Y63911D01*
X131216Y63052D01*
X130357Y62193D01*
X129878Y61477D01*
X142174D01*
X141696Y62193D01*
X140837Y63052D01*
X141696Y63911D01*
X142174Y64627D01*
D02*
G37*
G36*
X98080D02*
X85784D01*
X86262Y63911D01*
X87121Y63052D01*
X86262Y62193D01*
X85784Y61477D01*
X98080D01*
X97601Y62193D01*
X96743Y63052D01*
X97601Y63911D01*
X98080Y64627D01*
D02*
G37*
G36*
X362486Y61652D02*
X361690D01*
X360955Y61347D01*
X360393Y60785D01*
X360088Y60050D01*
Y59254D01*
X360393Y58519D01*
X360955Y57956D01*
X361690Y57652D01*
X362486D01*
X363221Y57956D01*
X363784Y58519D01*
X364088Y59254D01*
Y60050D01*
X363784Y60785D01*
X363221Y61347D01*
X362486Y61652D01*
D02*
G37*
G36*
X58004Y59248D02*
X57961D01*
Y55618D01*
X61590D01*
Y55662D01*
X61309Y56712D01*
X60765Y57654D01*
X59996Y58423D01*
X59055Y58967D01*
X58004Y59248D01*
D02*
G37*
G36*
X56961D02*
X56917D01*
X55866Y58967D01*
X54925Y58423D01*
X54156Y57654D01*
X53612Y56712D01*
X53331Y55662D01*
Y55618D01*
X56961D01*
Y59248D01*
D02*
G37*
G36*
X142174Y53603D02*
X129878D01*
X130357Y52887D01*
X131216Y52029D01*
X130515Y51328D01*
X129656Y52186D01*
X128940Y52665D01*
Y46517D01*
Y40369D01*
X129656Y40847D01*
X130515Y41706D01*
X131373Y40847D01*
X132089Y40369D01*
Y46517D01*
X136026D01*
Y50454D01*
X142174D01*
X141696Y51170D01*
X140837Y52029D01*
X141696Y52887D01*
X142174Y53603D01*
D02*
G37*
G36*
X121066Y52665D02*
X120350Y52186D01*
X119491Y51328D01*
X118632Y52186D01*
X117916Y52665D01*
Y46517D01*
Y40369D01*
X118632Y40847D01*
X119491Y41706D01*
X120350Y40847D01*
X121066Y40369D01*
Y46517D01*
Y52665D01*
D02*
G37*
G36*
X110042D02*
X109326Y52186D01*
X108467Y51328D01*
X107608Y52186D01*
X106893Y52665D01*
Y46517D01*
Y40369D01*
X107608Y40847D01*
X108467Y41706D01*
X109326Y40847D01*
X110042Y40369D01*
Y46517D01*
Y52665D01*
D02*
G37*
G36*
X61590Y54618D02*
X57961D01*
Y50988D01*
X58004D01*
X59055Y51270D01*
X59996Y51813D01*
X60765Y52582D01*
X61309Y53524D01*
X61590Y54574D01*
Y54618D01*
D02*
G37*
G36*
X56961D02*
X53331D01*
Y54574D01*
X53612Y53524D01*
X54156Y52582D01*
X54925Y51813D01*
X55866Y51270D01*
X56917Y50988D01*
X56961D01*
Y54618D01*
D02*
G37*
G36*
X406284Y53852D02*
X405488D01*
X404753Y53548D01*
X404190Y52986D01*
X403886Y52250D01*
Y51455D01*
X404190Y50720D01*
X404753Y50157D01*
X405488Y49853D01*
X406284D01*
X407019Y50157D01*
X407581Y50720D01*
X407886Y51455D01*
Y52250D01*
X407581Y52986D01*
X407019Y53548D01*
X406284Y53852D01*
D02*
G37*
G36*
X673987Y58880D02*
X672470D01*
X670983Y58584D01*
X669581Y58004D01*
X668320Y57161D01*
X667248Y56089D01*
X666405Y54828D01*
X665825Y53427D01*
X665529Y51939D01*
Y50423D01*
X665825Y48935D01*
X666405Y47534D01*
X667248Y46273D01*
X668320Y45201D01*
X669581Y44358D01*
X670983Y43778D01*
X672470Y43482D01*
X673987D01*
X675474Y43778D01*
X676875Y44358D01*
X678136Y45201D01*
X679209Y46273D01*
X680051Y47534D01*
X680632Y48935D01*
X680928Y50423D01*
Y51939D01*
X680632Y53427D01*
X680051Y54828D01*
X679209Y56089D01*
X678136Y57161D01*
X676875Y58004D01*
X675474Y58584D01*
X673987Y58880D01*
D02*
G37*
G36*
X489799Y44492D02*
X489004D01*
X488269Y44188D01*
X487706Y43625D01*
X487402Y42890D01*
Y42094D01*
X487706Y41359D01*
X488269Y40797D01*
X489004Y40492D01*
X489799D01*
X490535Y40797D01*
X491097Y41359D01*
X491402Y42094D01*
Y42890D01*
X491097Y43625D01*
X490535Y44188D01*
X489799Y44492D01*
D02*
G37*
G36*
X239799D02*
X239004D01*
X238269Y44188D01*
X237706Y43625D01*
X237402Y42890D01*
Y42094D01*
X237706Y41359D01*
X238269Y40797D01*
X239004Y40492D01*
X239799D01*
X240535Y40797D01*
X241097Y41359D01*
X241402Y42094D01*
Y42890D01*
X241097Y43625D01*
X240535Y44188D01*
X239799Y44492D01*
D02*
G37*
G36*
X189799D02*
X189004D01*
X188269Y44188D01*
X187706Y43625D01*
X187402Y42890D01*
Y42094D01*
X187706Y41359D01*
X188269Y40797D01*
X189004Y40492D01*
X189799D01*
X190535Y40797D01*
X191097Y41359D01*
X191402Y42094D01*
Y42890D01*
X191097Y43625D01*
X190535Y44188D01*
X189799Y44492D01*
D02*
G37*
G36*
X39799D02*
X39004D01*
X38269Y44188D01*
X37706Y43625D01*
X37402Y42890D01*
Y42094D01*
X37706Y41359D01*
X38269Y40797D01*
X39004Y40492D01*
X39799D01*
X40535Y40797D01*
X41097Y41359D01*
X41402Y42094D01*
Y42890D01*
X41097Y43625D01*
X40535Y44188D01*
X39799Y44492D01*
D02*
G37*
G36*
X142174Y42580D02*
X139963D01*
Y40369D01*
X140679Y40847D01*
X141696Y41864D01*
X142174Y42580D01*
D02*
G37*
G36*
X98080Y53603D02*
X85784D01*
X86262Y52887D01*
X87121Y52029D01*
X86262Y51170D01*
X85784Y50454D01*
X91932D01*
Y46517D01*
X95869D01*
Y40369D01*
X96585Y40847D01*
X97444Y41706D01*
X98303Y40847D01*
X99019Y40369D01*
Y46517D01*
Y52665D01*
X98303Y52186D01*
X97444Y51328D01*
X96743Y52029D01*
X97601Y52887D01*
X98080Y53603D01*
D02*
G37*
G36*
X87995Y42580D02*
X85784D01*
X86262Y41864D01*
X87279Y40847D01*
X87995Y40369D01*
Y42580D01*
D02*
G37*
G36*
X540557Y50977D02*
X538990D01*
X537453Y50672D01*
X536005Y50072D01*
X534702Y49202D01*
X533594Y48093D01*
X532724Y46791D01*
X532124Y45343D01*
X531818Y43806D01*
Y42239D01*
X532124Y40702D01*
X532724Y39254D01*
X533594Y37951D01*
X534702Y36843D01*
X534715Y36835D01*
X534478Y36392D01*
X533531Y36784D01*
X532372Y37014D01*
X532281D01*
Y31514D01*
X537781D01*
Y31605D01*
X537551Y32765D01*
X537098Y33856D01*
X536442Y34839D01*
X535717Y35563D01*
X536005Y35973D01*
X537453Y35373D01*
X538990Y35067D01*
X540557D01*
X542094Y35373D01*
X543541Y35973D01*
X544844Y36843D01*
X545953Y37951D01*
X546823Y39254D01*
X547423Y40702D01*
X547728Y42239D01*
Y43806D01*
X547423Y45343D01*
X546823Y46791D01*
X545953Y48093D01*
X544844Y49202D01*
X543541Y50072D01*
X542094Y50672D01*
X540557Y50977D01*
D02*
G37*
G36*
X197692Y39086D02*
X196896D01*
X196161Y38782D01*
X195598Y38219D01*
X195294Y37484D01*
Y36689D01*
X195598Y35954D01*
X196161Y35391D01*
X196896Y35087D01*
X197692D01*
X198427Y35391D01*
X198990Y35954D01*
X199294Y36689D01*
Y37484D01*
X198990Y38219D01*
X198427Y38782D01*
X197692Y39086D01*
D02*
G37*
G36*
X531281Y37014D02*
X531190D01*
X530031Y36784D01*
X528939Y36332D01*
X527956Y35675D01*
X527121Y34839D01*
X526464Y33856D01*
X526012Y32765D01*
X525781Y31605D01*
Y31514D01*
X531281D01*
Y37014D01*
D02*
G37*
G36*
X593356D02*
X593265D01*
Y31514D01*
X598765D01*
Y31605D01*
X598535Y32765D01*
X598083Y33856D01*
X597426Y34839D01*
X596590Y35675D01*
X595608Y36332D01*
X594516Y36784D01*
X593356Y37014D01*
D02*
G37*
G36*
X585557Y50977D02*
X583990D01*
X582453Y50672D01*
X581005Y50072D01*
X579702Y49202D01*
X578594Y48093D01*
X577724Y46791D01*
X577124Y45343D01*
X576818Y43806D01*
Y42239D01*
X577124Y40702D01*
X577724Y39254D01*
X578594Y37951D01*
X579702Y36843D01*
X581005Y35973D01*
X582453Y35373D01*
X583990Y35067D01*
X585557D01*
X587094Y35373D01*
X588542Y35973D01*
X588829Y35563D01*
X588105Y34839D01*
X587448Y33856D01*
X586996Y32765D01*
X586765Y31605D01*
Y31514D01*
X592266D01*
Y37014D01*
X592174D01*
X591015Y36784D01*
X590069Y36392D01*
X589832Y36835D01*
X589844Y36843D01*
X590952Y37951D01*
X591823Y39254D01*
X592423Y40702D01*
X592728Y42239D01*
Y43806D01*
X592423Y45343D01*
X591823Y46791D01*
X590952Y48093D01*
X589844Y49202D01*
X588542Y50072D01*
X587094Y50672D01*
X585557Y50977D01*
D02*
G37*
G36*
X329532Y33279D02*
X328736D01*
X328001Y32975D01*
X327438Y32412D01*
X327134Y31677D01*
Y30882D01*
X327438Y30147D01*
X328001Y29584D01*
X328736Y29280D01*
X329532D01*
X330267Y29584D01*
X330829Y30147D01*
X331134Y30882D01*
Y31677D01*
X330829Y32412D01*
X330267Y32975D01*
X329532Y33279D01*
D02*
G37*
G36*
X567636Y32624D02*
X566841D01*
X566106Y32320D01*
X565543Y31757D01*
X565239Y31022D01*
Y30227D01*
X565543Y29491D01*
X566106Y28929D01*
X566841Y28624D01*
X567636D01*
X568371Y28929D01*
X568934Y29491D01*
X569239Y30227D01*
Y31022D01*
X568934Y31757D01*
X568371Y32320D01*
X567636Y32624D01*
D02*
G37*
G36*
X335634Y30327D02*
X334838D01*
X334103Y30022D01*
X333541Y29460D01*
X333236Y28725D01*
Y27929D01*
X333541Y27194D01*
X334103Y26631D01*
X334838Y26327D01*
X335634D01*
X336369Y26631D01*
X336932Y27194D01*
X337236Y27929D01*
Y28725D01*
X336932Y29460D01*
X336369Y30022D01*
X335634Y30327D01*
D02*
G37*
G36*
X598765Y30514D02*
X593265D01*
Y25014D01*
X593356D01*
X594516Y25245D01*
X595608Y25697D01*
X596590Y26354D01*
X597426Y27190D01*
X598083Y28172D01*
X598535Y29264D01*
X598765Y30424D01*
Y30514D01*
D02*
G37*
G36*
X592266D02*
X586765D01*
Y30424D01*
X586996Y29264D01*
X587448Y28172D01*
X588105Y27190D01*
X588941Y26354D01*
X589923Y25697D01*
X591015Y25245D01*
X592174Y25014D01*
X592266D01*
Y30514D01*
D02*
G37*
G36*
X537781Y30514D02*
X532281D01*
Y25014D01*
X532372D01*
X533531Y25245D01*
X534623Y25697D01*
X535606Y26354D01*
X536442Y27190D01*
X537098Y28172D01*
X537551Y29264D01*
X537781Y30424D01*
Y30514D01*
D02*
G37*
G36*
X531281D02*
X525781D01*
Y30424D01*
X526012Y29264D01*
X526464Y28172D01*
X527121Y27190D01*
X527956Y26354D01*
X528939Y25697D01*
X530031Y25245D01*
X531190Y25014D01*
X531281D01*
Y30514D01*
D02*
G37*
G36*
X494928Y29748D02*
X494009D01*
X493123Y29510D01*
X492328Y29051D01*
X491678Y28402D01*
X491219Y27607D01*
X490982Y26720D01*
Y25802D01*
X491219Y24916D01*
X491678Y24121D01*
X492328Y23471D01*
X493123Y23012D01*
X494009Y22775D01*
X494928D01*
X495814Y23012D01*
X496609Y23471D01*
X497258Y24121D01*
X497718Y24916D01*
X497955Y25802D01*
Y26720D01*
X497718Y27607D01*
X497258Y28402D01*
X496609Y29051D01*
X495814Y29510D01*
X494928Y29748D01*
D02*
G37*
G36*
X484928D02*
X484009D01*
X483123Y29510D01*
X482328Y29051D01*
X481678Y28402D01*
X481219Y27607D01*
X480982Y26720D01*
Y25802D01*
X481219Y24916D01*
X481678Y24121D01*
X482328Y23471D01*
X483123Y23012D01*
X484009Y22775D01*
X484928D01*
X485814Y23012D01*
X486609Y23471D01*
X487258Y24121D01*
X487717Y24916D01*
X487955Y25802D01*
Y26720D01*
X487717Y27607D01*
X487258Y28402D01*
X486609Y29051D01*
X485814Y29510D01*
X484928Y29748D01*
D02*
G37*
G36*
X474928D02*
X474009D01*
X473123Y29510D01*
X472328Y29051D01*
X471678Y28402D01*
X471219Y27607D01*
X470982Y26720D01*
Y25802D01*
X471219Y24916D01*
X471678Y24121D01*
X472328Y23471D01*
X473123Y23012D01*
X474009Y22775D01*
X474928D01*
X475814Y23012D01*
X476609Y23471D01*
X477258Y24121D01*
X477717Y24916D01*
X477955Y25802D01*
Y26720D01*
X477717Y27607D01*
X477258Y28402D01*
X476609Y29051D01*
X475814Y29510D01*
X474928Y29748D01*
D02*
G37*
G36*
X464927D02*
X464009D01*
X463123Y29510D01*
X462328Y29051D01*
X461679Y28402D01*
X461219Y27607D01*
X460982Y26720D01*
Y25802D01*
X461219Y24916D01*
X461679Y24121D01*
X462328Y23471D01*
X463123Y23012D01*
X464009Y22775D01*
X464927D01*
X465814Y23012D01*
X466609Y23471D01*
X467258Y24121D01*
X467718Y24916D01*
X467955Y25802D01*
Y26720D01*
X467718Y27607D01*
X467258Y28402D01*
X466609Y29051D01*
X465814Y29510D01*
X464927Y29748D01*
D02*
G37*
G36*
X454927D02*
X454009D01*
X453123Y29510D01*
X452328Y29051D01*
X451679Y28402D01*
X451219Y27607D01*
X450982Y26720D01*
Y25802D01*
X451219Y24916D01*
X451679Y24121D01*
X452328Y23471D01*
X453123Y23012D01*
X454009Y22775D01*
X454927D01*
X455814Y23012D01*
X456609Y23471D01*
X457258Y24121D01*
X457718Y24916D01*
X457955Y25802D01*
Y26720D01*
X457718Y27607D01*
X457258Y28402D01*
X456609Y29051D01*
X455814Y29510D01*
X454927Y29748D01*
D02*
G37*
G36*
X444928D02*
X444009D01*
X443123Y29510D01*
X442328Y29051D01*
X441678Y28402D01*
X441219Y27607D01*
X440982Y26720D01*
Y25802D01*
X441219Y24916D01*
X441678Y24121D01*
X442328Y23471D01*
X443123Y23012D01*
X444009Y22775D01*
X444928D01*
X445814Y23012D01*
X446609Y23471D01*
X447258Y24121D01*
X447718Y24916D01*
X447955Y25802D01*
Y26720D01*
X447718Y27607D01*
X447258Y28402D01*
X446609Y29051D01*
X445814Y29510D01*
X444928Y29748D01*
D02*
G37*
G36*
X284743D02*
X283825D01*
X282938Y29510D01*
X282143Y29051D01*
X281494Y28402D01*
X281035Y27607D01*
X280797Y26720D01*
Y25802D01*
X281035Y24916D01*
X281494Y24121D01*
X282143Y23471D01*
X282938Y23012D01*
X283825Y22775D01*
X284743D01*
X285630Y23012D01*
X286425Y23471D01*
X287074Y24121D01*
X287533Y24916D01*
X287771Y25802D01*
Y26720D01*
X287533Y27607D01*
X287074Y28402D01*
X286425Y29051D01*
X285630Y29510D01*
X284743Y29748D01*
D02*
G37*
G36*
X274743D02*
X273825D01*
X272938Y29510D01*
X272143Y29051D01*
X271494Y28402D01*
X271035Y27607D01*
X270797Y26720D01*
Y25802D01*
X271035Y24916D01*
X271494Y24121D01*
X272143Y23471D01*
X272938Y23012D01*
X273825Y22775D01*
X274743D01*
X275630Y23012D01*
X276425Y23471D01*
X277074Y24121D01*
X277533Y24916D01*
X277771Y25802D01*
Y26720D01*
X277533Y27607D01*
X277074Y28402D01*
X276425Y29051D01*
X275630Y29510D01*
X274743Y29748D01*
D02*
G37*
G36*
X264743D02*
X263825D01*
X262938Y29510D01*
X262143Y29051D01*
X261494Y28402D01*
X261035Y27607D01*
X260797Y26720D01*
Y25802D01*
X261035Y24916D01*
X261494Y24121D01*
X262143Y23471D01*
X262938Y23012D01*
X263825Y22775D01*
X264743D01*
X265630Y23012D01*
X266425Y23471D01*
X267074Y24121D01*
X267533Y24916D01*
X267771Y25802D01*
Y26720D01*
X267533Y27607D01*
X267074Y28402D01*
X266425Y29051D01*
X265630Y29510D01*
X264743Y29748D01*
D02*
G37*
G36*
X254743D02*
X253825D01*
X252938Y29510D01*
X252143Y29051D01*
X251494Y28402D01*
X251035Y27607D01*
X250797Y26720D01*
Y25802D01*
X251035Y24916D01*
X251494Y24121D01*
X252143Y23471D01*
X252938Y23012D01*
X253825Y22775D01*
X254743D01*
X255630Y23012D01*
X256425Y23471D01*
X257074Y24121D01*
X257533Y24916D01*
X257771Y25802D01*
Y26720D01*
X257533Y27607D01*
X257074Y28402D01*
X256425Y29051D01*
X255630Y29510D01*
X254743Y29748D01*
D02*
G37*
G36*
X244743D02*
X243825D01*
X242938Y29510D01*
X242143Y29051D01*
X241494Y28402D01*
X241035Y27607D01*
X240797Y26720D01*
Y25802D01*
X241035Y24916D01*
X241494Y24121D01*
X242143Y23471D01*
X242938Y23012D01*
X243825Y22775D01*
X244743D01*
X245630Y23012D01*
X246425Y23471D01*
X247074Y24121D01*
X247533Y24916D01*
X247771Y25802D01*
Y26720D01*
X247533Y27607D01*
X247074Y28402D01*
X246425Y29051D01*
X245630Y29510D01*
X244743Y29748D01*
D02*
G37*
G36*
X234743D02*
X233825D01*
X232938Y29510D01*
X232143Y29051D01*
X231494Y28402D01*
X231035Y27607D01*
X230797Y26720D01*
Y25802D01*
X231035Y24916D01*
X231494Y24121D01*
X232143Y23471D01*
X232938Y23012D01*
X233825Y22775D01*
X234743D01*
X235630Y23012D01*
X236425Y23471D01*
X237074Y24121D01*
X237533Y24916D01*
X237771Y25802D01*
Y26720D01*
X237533Y27607D01*
X237074Y28402D01*
X236425Y29051D01*
X235630Y29510D01*
X234743Y29748D01*
D02*
G37*
G36*
X114931Y31321D02*
X113415D01*
X111927Y31025D01*
X110526Y30445D01*
X109265Y29602D01*
X108193Y28530D01*
X107350Y27269D01*
X106770Y25868D01*
X106474Y24380D01*
Y22864D01*
X106770Y21376D01*
X107350Y19975D01*
X108193Y18714D01*
X109265Y17642D01*
X110526Y16799D01*
X111927Y16219D01*
X113415Y15923D01*
X114931D01*
X116419Y16219D01*
X117820Y16799D01*
X119081Y17642D01*
X120154Y18714D01*
X120996Y19975D01*
X121577Y21376D01*
X121872Y22864D01*
Y24380D01*
X121577Y25868D01*
X120996Y27269D01*
X120154Y28530D01*
X119081Y29602D01*
X117820Y30445D01*
X116419Y31025D01*
X114931Y31321D01*
D02*
G37*
G36*
X494928Y19748D02*
X494009D01*
X493123Y19510D01*
X492328Y19051D01*
X491678Y18402D01*
X491219Y17607D01*
X490982Y16720D01*
Y15802D01*
X491219Y14916D01*
X491678Y14120D01*
X492328Y13471D01*
X493123Y13012D01*
X494009Y12775D01*
X494928D01*
X495814Y13012D01*
X496609Y13471D01*
X497258Y14120D01*
X497718Y14916D01*
X497955Y15802D01*
Y16720D01*
X497718Y17607D01*
X497258Y18402D01*
X496609Y19051D01*
X495814Y19510D01*
X494928Y19748D01*
D02*
G37*
G36*
X484928D02*
X484009D01*
X483123Y19510D01*
X482328Y19051D01*
X481678Y18402D01*
X481219Y17607D01*
X480982Y16720D01*
Y15802D01*
X481219Y14916D01*
X481678Y14120D01*
X482328Y13471D01*
X483123Y13012D01*
X484009Y12775D01*
X484928D01*
X485814Y13012D01*
X486609Y13471D01*
X487258Y14120D01*
X487717Y14916D01*
X487955Y15802D01*
Y16720D01*
X487717Y17607D01*
X487258Y18402D01*
X486609Y19051D01*
X485814Y19510D01*
X484928Y19748D01*
D02*
G37*
G36*
X474928D02*
X474009D01*
X473123Y19510D01*
X472328Y19051D01*
X471678Y18402D01*
X471219Y17607D01*
X470982Y16720D01*
Y15802D01*
X471219Y14916D01*
X471678Y14120D01*
X472328Y13471D01*
X473123Y13012D01*
X474009Y12775D01*
X474928D01*
X475814Y13012D01*
X476609Y13471D01*
X477258Y14120D01*
X477717Y14916D01*
X477955Y15802D01*
Y16720D01*
X477717Y17607D01*
X477258Y18402D01*
X476609Y19051D01*
X475814Y19510D01*
X474928Y19748D01*
D02*
G37*
G36*
X464927D02*
X464009D01*
X463123Y19510D01*
X462328Y19051D01*
X461679Y18402D01*
X461219Y17607D01*
X460982Y16720D01*
Y15802D01*
X461219Y14916D01*
X461679Y14120D01*
X462328Y13471D01*
X463123Y13012D01*
X464009Y12775D01*
X464927D01*
X465814Y13012D01*
X466609Y13471D01*
X467258Y14120D01*
X467718Y14916D01*
X467955Y15802D01*
Y16720D01*
X467718Y17607D01*
X467258Y18402D01*
X466609Y19051D01*
X465814Y19510D01*
X464927Y19748D01*
D02*
G37*
G36*
X454927D02*
X454009D01*
X453123Y19510D01*
X452328Y19051D01*
X451679Y18402D01*
X451219Y17607D01*
X450982Y16720D01*
Y15802D01*
X451219Y14916D01*
X451679Y14120D01*
X452328Y13471D01*
X453123Y13012D01*
X454009Y12775D01*
X454927D01*
X455814Y13012D01*
X456609Y13471D01*
X457258Y14120D01*
X457718Y14916D01*
X457955Y15802D01*
Y16720D01*
X457718Y17607D01*
X457258Y18402D01*
X456609Y19051D01*
X455814Y19510D01*
X454927Y19748D01*
D02*
G37*
G36*
X444928D02*
X444009D01*
X443123Y19510D01*
X442328Y19051D01*
X441678Y18402D01*
X441219Y17607D01*
X440982Y16720D01*
Y15802D01*
X441219Y14916D01*
X441678Y14120D01*
X442328Y13471D01*
X443123Y13012D01*
X444009Y12775D01*
X444928D01*
X445814Y13012D01*
X446609Y13471D01*
X447258Y14120D01*
X447718Y14916D01*
X447955Y15802D01*
Y16720D01*
X447718Y17607D01*
X447258Y18402D01*
X446609Y19051D01*
X445814Y19510D01*
X444928Y19748D01*
D02*
G37*
G36*
X284743D02*
X283825D01*
X282938Y19510D01*
X282143Y19051D01*
X281494Y18402D01*
X281035Y17607D01*
X280797Y16720D01*
Y15802D01*
X281035Y14916D01*
X281494Y14120D01*
X282143Y13471D01*
X282938Y13012D01*
X283825Y12775D01*
X284743D01*
X285630Y13012D01*
X286425Y13471D01*
X287074Y14120D01*
X287533Y14916D01*
X287771Y15802D01*
Y16720D01*
X287533Y17607D01*
X287074Y18402D01*
X286425Y19051D01*
X285630Y19510D01*
X284743Y19748D01*
D02*
G37*
G36*
X274743D02*
X273825D01*
X272938Y19510D01*
X272143Y19051D01*
X271494Y18402D01*
X271035Y17607D01*
X270797Y16720D01*
Y15802D01*
X271035Y14916D01*
X271494Y14120D01*
X272143Y13471D01*
X272938Y13012D01*
X273825Y12775D01*
X274743D01*
X275630Y13012D01*
X276425Y13471D01*
X277074Y14120D01*
X277533Y14916D01*
X277771Y15802D01*
Y16720D01*
X277533Y17607D01*
X277074Y18402D01*
X276425Y19051D01*
X275630Y19510D01*
X274743Y19748D01*
D02*
G37*
G36*
X264743D02*
X263825D01*
X262938Y19510D01*
X262143Y19051D01*
X261494Y18402D01*
X261035Y17607D01*
X260797Y16720D01*
Y15802D01*
X261035Y14916D01*
X261494Y14120D01*
X262143Y13471D01*
X262938Y13012D01*
X263825Y12775D01*
X264743D01*
X265630Y13012D01*
X266425Y13471D01*
X267074Y14120D01*
X267533Y14916D01*
X267771Y15802D01*
Y16720D01*
X267533Y17607D01*
X267074Y18402D01*
X266425Y19051D01*
X265630Y19510D01*
X264743Y19748D01*
D02*
G37*
G36*
X254743D02*
X253825D01*
X252938Y19510D01*
X252143Y19051D01*
X251494Y18402D01*
X251035Y17607D01*
X250797Y16720D01*
Y15802D01*
X251035Y14916D01*
X251494Y14120D01*
X252143Y13471D01*
X252938Y13012D01*
X253825Y12775D01*
X254743D01*
X255630Y13012D01*
X256425Y13471D01*
X257074Y14120D01*
X257533Y14916D01*
X257771Y15802D01*
Y16720D01*
X257533Y17607D01*
X257074Y18402D01*
X256425Y19051D01*
X255630Y19510D01*
X254743Y19748D01*
D02*
G37*
G36*
X244743D02*
X243825D01*
X242938Y19510D01*
X242143Y19051D01*
X241494Y18402D01*
X241035Y17607D01*
X240797Y16720D01*
Y15802D01*
X241035Y14916D01*
X241494Y14120D01*
X242143Y13471D01*
X242938Y13012D01*
X243825Y12775D01*
X244743D01*
X245630Y13012D01*
X246425Y13471D01*
X247074Y14120D01*
X247533Y14916D01*
X247771Y15802D01*
Y16720D01*
X247533Y17607D01*
X247074Y18402D01*
X246425Y19051D01*
X245630Y19510D01*
X244743Y19748D01*
D02*
G37*
G36*
X234743D02*
X233825D01*
X232938Y19510D01*
X232143Y19051D01*
X231494Y18402D01*
X231035Y17607D01*
X230797Y16720D01*
Y15802D01*
X231035Y14916D01*
X231494Y14120D01*
X232143Y13471D01*
X232938Y13012D01*
X233825Y12775D01*
X234743D01*
X235630Y13012D01*
X236425Y13471D01*
X237074Y14120D01*
X237533Y14916D01*
X237771Y15802D01*
Y16720D01*
X237533Y17607D01*
X237074Y18402D01*
X236425Y19051D01*
X235630Y19510D01*
X234743Y19748D01*
D02*
G37*
G36*
X363589Y27912D02*
X362073D01*
X360585Y27616D01*
X359184Y27035D01*
X357923Y26193D01*
X356851Y25120D01*
X356008Y23859D01*
X355428Y22458D01*
X355132Y20971D01*
Y19454D01*
X355428Y17967D01*
X356008Y16566D01*
X356851Y15304D01*
X357923Y14232D01*
X359184Y13389D01*
X360585Y12809D01*
X362073Y12513D01*
X363589D01*
X365077Y12809D01*
X366478Y13389D01*
X367739Y14232D01*
X368811Y15304D01*
X369654Y16566D01*
X370234Y17967D01*
X370530Y19454D01*
Y20971D01*
X370234Y22458D01*
X369654Y23859D01*
X368811Y25120D01*
X367739Y26193D01*
X366478Y27035D01*
X365077Y27616D01*
X363589Y27912D01*
D02*
G37*
G36*
X672811Y17128D02*
X672027D01*
X671271Y16926D01*
X670592Y16534D01*
X670038Y15980D01*
X669647Y15302D01*
X669444Y14545D01*
Y13762D01*
X669647Y13005D01*
X670038Y12327D01*
X670592Y11773D01*
X671271Y11381D01*
X672027Y11179D01*
X672811D01*
X673567Y11381D01*
X674245Y11773D01*
X674799Y12327D01*
X675191Y13005D01*
X675394Y13762D01*
Y14545D01*
X675191Y15302D01*
X674799Y15980D01*
X674245Y16534D01*
X673567Y16926D01*
X672811Y17128D01*
D02*
G37*
G36*
X645669Y45711D02*
X643075Y45541D01*
X640525Y45034D01*
X638064Y44198D01*
X635732Y43048D01*
X633571Y41604D01*
X631616Y39890D01*
X629902Y37935D01*
X628458Y35774D01*
X627308Y33442D01*
X626472Y30981D01*
X625965Y28431D01*
X625795Y25837D01*
X625965Y23243D01*
X626472Y20693D01*
X627308Y18231D01*
X627619Y17602D01*
X627387Y17163D01*
X627298Y17121D01*
X626570Y16926D01*
X625891Y16534D01*
X625338Y15980D01*
X624946Y15302D01*
X624743Y14545D01*
Y13762D01*
X624946Y13005D01*
X625338Y12327D01*
X625891Y11773D01*
X626570Y11381D01*
X627326Y11179D01*
X628110D01*
X628866Y11381D01*
X629545Y11773D01*
X630098Y12327D01*
X630248Y12586D01*
X630860Y12646D01*
X631616Y11784D01*
X633571Y10070D01*
X635732Y8625D01*
X638064Y7476D01*
X640525Y6640D01*
X643075Y6133D01*
X645669Y5963D01*
X648263Y6133D01*
X650813Y6640D01*
X653275Y7476D01*
X655606Y8625D01*
X657768Y10070D01*
X659722Y11784D01*
X661147Y13408D01*
X661699Y13280D01*
X661773Y13005D01*
X662164Y12327D01*
X662718Y11773D01*
X663397Y11381D01*
X664153Y11179D01*
X664936D01*
X665693Y11381D01*
X666371Y11773D01*
X666925Y12327D01*
X667317Y13005D01*
X667520Y13762D01*
Y14545D01*
X667317Y15302D01*
X666925Y15980D01*
X666371Y16534D01*
X665693Y16926D01*
X664936Y17128D01*
X664153D01*
X664027Y17095D01*
X663679Y17519D01*
X664031Y18231D01*
X664866Y20693D01*
X665373Y23243D01*
X665543Y25837D01*
X665373Y28431D01*
X664866Y30981D01*
X664031Y33442D01*
X662881Y35774D01*
X661437Y37935D01*
X659722Y39890D01*
X657768Y41604D01*
X655606Y43048D01*
X653275Y44198D01*
X650813Y45034D01*
X648263Y45541D01*
X645669Y45711D01*
D02*
G37*
G36*
X620236Y17128D02*
X619452D01*
X618696Y16926D01*
X618017Y16534D01*
X617464Y15980D01*
X617072Y15302D01*
X616869Y14545D01*
Y13762D01*
X617072Y13005D01*
X617464Y12327D01*
X618017Y11773D01*
X618696Y11381D01*
X619452Y11179D01*
X620236D01*
X620992Y11381D01*
X621671Y11773D01*
X622225Y12327D01*
X622616Y13005D01*
X622819Y13762D01*
Y14545D01*
X622616Y15302D01*
X622225Y15980D01*
X621671Y16534D01*
X620992Y16926D01*
X620236Y17128D01*
D02*
G37*
G36*
X404309D02*
X403526D01*
X402769Y16926D01*
X402091Y16534D01*
X401537Y15980D01*
X401145Y15302D01*
X400943Y14545D01*
Y13762D01*
X401145Y13005D01*
X401537Y12327D01*
X402091Y11773D01*
X402769Y11381D01*
X403526Y11179D01*
X404309D01*
X405065Y11381D01*
X405744Y11773D01*
X406298Y12327D01*
X406689Y13005D01*
X406892Y13762D01*
Y14545D01*
X406689Y15302D01*
X406298Y15980D01*
X405744Y16534D01*
X405065Y16926D01*
X404309Y17128D01*
D02*
G37*
G36*
X396435D02*
X395652D01*
X394895Y16926D01*
X394217Y16534D01*
X393663Y15980D01*
X393271Y15302D01*
X393069Y14545D01*
Y13762D01*
X393271Y13005D01*
X393663Y12327D01*
X394217Y11773D01*
X394895Y11381D01*
X395652Y11179D01*
X396435D01*
X397192Y11381D01*
X397870Y11773D01*
X398424Y12327D01*
X398815Y13005D01*
X399018Y13762D01*
Y14545D01*
X398815Y15302D01*
X398424Y15980D01*
X397870Y16534D01*
X397192Y16926D01*
X396435Y17128D01*
D02*
G37*
G36*
X26356D02*
X25573D01*
X24816Y16926D01*
X24138Y16534D01*
X23584Y15980D01*
X23192Y15302D01*
X22990Y14545D01*
Y13762D01*
X23192Y13005D01*
X23584Y12327D01*
X24138Y11773D01*
X24816Y11381D01*
X25573Y11179D01*
X26356D01*
X27113Y11381D01*
X27791Y11773D01*
X28345Y12327D01*
X28737Y13005D01*
X28939Y13762D01*
Y14545D01*
X28737Y15302D01*
X28345Y15980D01*
X27791Y16534D01*
X27113Y16926D01*
X26356Y17128D01*
D02*
G37*
G36*
X18482D02*
X17699D01*
X16942Y16926D01*
X16264Y16534D01*
X15710Y15980D01*
X15318Y15302D01*
X15116Y14545D01*
Y13762D01*
X15318Y13005D01*
X15710Y12327D01*
X16264Y11773D01*
X16942Y11381D01*
X17699Y11179D01*
X18482D01*
X19239Y11381D01*
X19917Y11773D01*
X20471Y12327D01*
X20863Y13005D01*
X21065Y13762D01*
Y14545D01*
X20863Y15302D01*
X20471Y15980D01*
X19917Y16534D01*
X19239Y16926D01*
X18482Y17128D01*
D02*
G37*
%LPD*%
G36*
X313610Y462972D02*
X242744D01*
Y619468D01*
X313610D01*
Y462972D01*
D02*
G37*
%LPC*%
G36*
X280925Y610659D02*
X280686Y610595D01*
X279672Y610009D01*
X278845Y609182D01*
X278260Y608168D01*
X278222Y608030D01*
X277722D01*
X277685Y608168D01*
X277100Y609182D01*
X276273Y610009D01*
X275259Y610595D01*
X275020Y610659D01*
Y606453D01*
Y602247D01*
X275259Y602311D01*
X276273Y602896D01*
X277100Y603723D01*
X277685Y604737D01*
X277722Y604876D01*
X278222D01*
X278260Y604737D01*
X278845Y603723D01*
X279672Y602896D01*
X280686Y602311D01*
X280925Y602247D01*
Y606453D01*
Y610659D01*
D02*
G37*
G36*
X298642Y610659D02*
X298402Y610595D01*
X297389Y610009D01*
X296561Y609182D01*
X295976Y608168D01*
X295939Y608030D01*
X295439D01*
X295402Y608168D01*
X294817Y609182D01*
X293989Y610009D01*
X292975Y610595D01*
X292736Y610659D01*
Y606453D01*
Y602247D01*
X292975Y602311D01*
X293989Y602896D01*
X294817Y603723D01*
X295402Y604737D01*
X295439Y604876D01*
X295939D01*
X295976Y604737D01*
X296561Y603723D01*
X297389Y602896D01*
X298402Y602311D01*
X298642Y602247D01*
Y606453D01*
Y610659D01*
D02*
G37*
G36*
X272067Y610659D02*
X271828Y610595D01*
X270814Y610009D01*
X269987Y609182D01*
X269401Y608168D01*
X269364Y608030D01*
X268864D01*
X268827Y608168D01*
X268242Y609182D01*
X267414Y610009D01*
X266401Y610595D01*
X266161Y610659D01*
Y606453D01*
Y602247D01*
X266401Y602311D01*
X267414Y602896D01*
X268242Y603723D01*
X268827Y604737D01*
X268864Y604876D01*
X269364D01*
X269401Y604737D01*
X269987Y603723D01*
X270814Y602896D01*
X271828Y602311D01*
X272067Y602247D01*
Y606453D01*
Y610659D01*
D02*
G37*
G36*
X263209Y610659D02*
X262969Y610595D01*
X261956Y610009D01*
X261128Y609182D01*
X260543Y608168D01*
X260506Y608030D01*
X260006D01*
X259969Y608168D01*
X259384Y609182D01*
X258556Y610009D01*
X257542Y610595D01*
X257303Y610659D01*
Y606453D01*
Y602247D01*
X257542Y602311D01*
X258556Y602896D01*
X259384Y603723D01*
X259969Y604737D01*
X260006Y604876D01*
X260506D01*
X260543Y604737D01*
X261128Y603723D01*
X261956Y602896D01*
X262969Y602311D01*
X263209Y602247D01*
Y606453D01*
Y610659D01*
D02*
G37*
G36*
X254350Y610659D02*
X254111Y610595D01*
X253098Y610009D01*
X252270Y609182D01*
X251685Y608168D01*
X251621Y607929D01*
X254350D01*
Y610659D01*
D02*
G37*
G36*
X301595Y610659D02*
Y607929D01*
X304324D01*
X304260Y608168D01*
X303675Y609182D01*
X302847Y610009D01*
X301834Y610595D01*
X301595Y610659D01*
D02*
G37*
G36*
X304324Y604976D02*
X301595D01*
Y602247D01*
X301834Y602311D01*
X302847Y602896D01*
X303675Y603723D01*
X304260Y604737D01*
X304324Y604976D01*
D02*
G37*
G36*
X283878Y610659D02*
Y606453D01*
Y602247D01*
X284117Y602311D01*
X285131Y602896D01*
X285958Y603723D01*
X286543Y604737D01*
X286581Y604876D01*
X287081D01*
X287118Y604737D01*
X287703Y603723D01*
X288531Y602896D01*
X289544Y602311D01*
X289783Y602247D01*
Y606453D01*
Y610659D01*
X289544Y610595D01*
X288531Y610009D01*
X287703Y609182D01*
X287118Y608168D01*
X287081Y608030D01*
X286581D01*
X286543Y608168D01*
X285958Y609182D01*
X285131Y610009D01*
X284117Y610595D01*
X283878Y610659D01*
D02*
G37*
G36*
X254350Y604976D02*
X251621D01*
X251685Y604737D01*
X252270Y603723D01*
X253098Y602896D01*
X254111Y602311D01*
X254350Y602247D01*
Y604976D01*
D02*
G37*
G36*
X280925Y596879D02*
X280686Y596815D01*
X279672Y596230D01*
X278845Y595402D01*
X278260Y594389D01*
X278222Y594250D01*
X277722D01*
X277685Y594389D01*
X277100Y595402D01*
X276273Y596230D01*
X275259Y596815D01*
X275020Y596879D01*
Y592673D01*
Y588467D01*
X275259Y588531D01*
X276273Y589116D01*
X277100Y589944D01*
X277685Y590957D01*
X277722Y591096D01*
X278222D01*
X278260Y590957D01*
X278845Y589944D01*
X279672Y589116D01*
X280686Y588531D01*
X280925Y588467D01*
Y592673D01*
Y596879D01*
D02*
G37*
G36*
X298642Y596879D02*
X298402Y596815D01*
X297389Y596230D01*
X296561Y595402D01*
X295976Y594389D01*
X295939Y594250D01*
X295439D01*
X295402Y594389D01*
X294817Y595402D01*
X293989Y596230D01*
X292975Y596815D01*
X292736Y596879D01*
Y592673D01*
Y588467D01*
X292975Y588531D01*
X293989Y589116D01*
X294817Y589944D01*
X295402Y590957D01*
X295439Y591096D01*
X295939D01*
X295976Y590957D01*
X296561Y589944D01*
X297389Y589116D01*
X298402Y588531D01*
X298642Y588467D01*
Y592673D01*
Y596879D01*
D02*
G37*
G36*
X272067Y596879D02*
X271828Y596815D01*
X270814Y596230D01*
X269987Y595402D01*
X269401Y594389D01*
X269364Y594250D01*
X268864D01*
X268827Y594389D01*
X268242Y595402D01*
X267414Y596230D01*
X266401Y596815D01*
X266161Y596879D01*
Y592673D01*
Y588467D01*
X266401Y588531D01*
X267414Y589116D01*
X268242Y589944D01*
X268827Y590957D01*
X268864Y591096D01*
X269364D01*
X269401Y590957D01*
X269987Y589944D01*
X270814Y589116D01*
X271828Y588531D01*
X272067Y588467D01*
Y592673D01*
Y596879D01*
D02*
G37*
G36*
X263209Y596879D02*
X262969Y596815D01*
X261956Y596230D01*
X261128Y595402D01*
X260543Y594389D01*
X260506Y594250D01*
X260006D01*
X259969Y594389D01*
X259384Y595402D01*
X258556Y596230D01*
X257542Y596815D01*
X257303Y596879D01*
Y592673D01*
Y588467D01*
X257542Y588531D01*
X258556Y589116D01*
X259384Y589944D01*
X259969Y590957D01*
X260006Y591096D01*
X260506D01*
X260543Y590957D01*
X261128Y589944D01*
X261956Y589116D01*
X262969Y588531D01*
X263209Y588467D01*
Y592673D01*
Y596879D01*
D02*
G37*
G36*
X254350Y596879D02*
X254111Y596815D01*
X253098Y596230D01*
X252270Y595402D01*
X251685Y594389D01*
X251621Y594149D01*
X254350D01*
Y596879D01*
D02*
G37*
G36*
X301595Y596879D02*
Y594149D01*
X304324D01*
X304260Y594389D01*
X303675Y595402D01*
X302847Y596230D01*
X301834Y596815D01*
X301595Y596879D01*
D02*
G37*
G36*
X304324Y591197D02*
X301595D01*
Y588467D01*
X301834Y588531D01*
X302847Y589116D01*
X303675Y589944D01*
X304260Y590957D01*
X304324Y591197D01*
D02*
G37*
G36*
X283878Y596879D02*
Y592673D01*
Y588467D01*
X284117Y588531D01*
X285131Y589116D01*
X285958Y589944D01*
X286543Y590957D01*
X286581Y591096D01*
X287081D01*
X287118Y590957D01*
X287703Y589944D01*
X288531Y589116D01*
X289544Y588531D01*
X289783Y588467D01*
Y592673D01*
Y596879D01*
X289544Y596815D01*
X288531Y596230D01*
X287703Y595402D01*
X287118Y594389D01*
X287081Y594250D01*
X286581D01*
X286543Y594389D01*
X285958Y595402D01*
X285131Y596230D01*
X284117Y596815D01*
X283878Y596879D01*
D02*
G37*
G36*
X254350Y591197D02*
X251621D01*
X251685Y590957D01*
X252270Y589944D01*
X253098Y589116D01*
X254111Y588531D01*
X254350Y588467D01*
Y591197D01*
D02*
G37*
G36*
X296457Y573886D02*
X294861Y573729D01*
X293326Y573263D01*
X291911Y572507D01*
X290671Y571490D01*
X289654Y570250D01*
X288898Y568836D01*
X288432Y567301D01*
X288275Y565705D01*
X288432Y564109D01*
X288898Y562574D01*
X289654Y561159D01*
X290671Y559919D01*
X291911Y558902D01*
X293326Y558146D01*
X294861Y557680D01*
X296457Y557523D01*
X298053Y557680D01*
X299588Y558146D01*
X301002Y558902D01*
X302242Y559919D01*
X303259Y561159D01*
X304015Y562574D01*
X304481Y564109D01*
X304638Y565705D01*
X304481Y567301D01*
X304015Y568836D01*
X303259Y570250D01*
X302242Y571490D01*
X301002Y572507D01*
X299588Y573263D01*
X298053Y573729D01*
X296457Y573886D01*
D02*
G37*
G36*
X282430Y525712D02*
Y517043D01*
X291098D01*
X290730Y518175D01*
X289787Y520027D01*
X288565Y521709D01*
X287095Y523178D01*
X285414Y524400D01*
X283562Y525344D01*
X282430Y525712D01*
D02*
G37*
G36*
X274556Y525712D02*
X273424Y525344D01*
X271572Y524400D01*
X269891Y523178D01*
X268421Y521709D01*
X267199Y520027D01*
X266256Y518175D01*
X265888Y517043D01*
X274556D01*
Y525712D01*
D02*
G37*
G36*
Y509169D02*
X265888D01*
X266256Y508038D01*
X267199Y506186D01*
X268421Y504504D01*
X269891Y503035D01*
X271572Y501813D01*
X273424Y500869D01*
X274556Y500501D01*
Y509169D01*
D02*
G37*
G36*
X291098D02*
X282430D01*
Y500501D01*
X283562Y500869D01*
X285414Y501813D01*
X287095Y503035D01*
X288565Y504504D01*
X289787Y506186D01*
X290730Y508038D01*
X291098Y509169D01*
D02*
G37*
G36*
X282430Y497641D02*
Y488973D01*
X291098D01*
X290730Y490104D01*
X289787Y491957D01*
X288565Y493638D01*
X287095Y495108D01*
X285414Y496329D01*
X283562Y497273D01*
X282430Y497641D01*
D02*
G37*
G36*
X274556Y497641D02*
X273424Y497273D01*
X271572Y496329D01*
X269891Y495108D01*
X268421Y493638D01*
X267199Y491957D01*
X266256Y490104D01*
X265888Y488973D01*
X274556D01*
Y497641D01*
D02*
G37*
G36*
X291098Y481099D02*
X282430D01*
Y472431D01*
X283562Y472798D01*
X285414Y473742D01*
X287095Y474964D01*
X288565Y476433D01*
X289787Y478115D01*
X290730Y479967D01*
X291098Y481099D01*
D02*
G37*
G36*
X274556D02*
X265888D01*
X266256Y479967D01*
X267199Y478115D01*
X268421Y476433D01*
X269891Y474964D01*
X271572Y473742D01*
X273424Y472798D01*
X274556Y472431D01*
Y481099D01*
D02*
G37*
%LPD*%
G36*
X413837Y462972D02*
X342970D01*
Y619468D01*
X413837D01*
Y462972D01*
D02*
G37*
%LPC*%
G36*
X381152Y610659D02*
X380912Y610595D01*
X379899Y610009D01*
X379071Y609182D01*
X378486Y608168D01*
X378449Y608030D01*
X377949D01*
X377912Y608168D01*
X377326Y609182D01*
X376499Y610009D01*
X375485Y610595D01*
X375246Y610659D01*
Y606453D01*
Y602247D01*
X375485Y602311D01*
X376499Y602896D01*
X377326Y603723D01*
X377912Y604737D01*
X377949Y604876D01*
X378449D01*
X378486Y604737D01*
X379071Y603723D01*
X379899Y602896D01*
X380912Y602311D01*
X381152Y602247D01*
Y606453D01*
Y610659D01*
D02*
G37*
G36*
X390010Y610659D02*
X389771Y610595D01*
X388757Y610009D01*
X387929Y609182D01*
X387344Y608168D01*
X387307Y608030D01*
X386807D01*
X386770Y608168D01*
X386185Y609182D01*
X385357Y610009D01*
X384344Y610595D01*
X384104Y610659D01*
Y606453D01*
Y602247D01*
X384344Y602311D01*
X385357Y602896D01*
X386185Y603723D01*
X386770Y604737D01*
X386807Y604876D01*
X387307D01*
X387344Y604737D01*
X387929Y603723D01*
X388757Y602896D01*
X389771Y602311D01*
X390010Y602247D01*
Y606453D01*
Y610659D01*
D02*
G37*
G36*
X372293Y610659D02*
X372054Y610595D01*
X371040Y610009D01*
X370213Y609182D01*
X369628Y608168D01*
X369590Y608030D01*
X369091D01*
X369053Y608168D01*
X368468Y609182D01*
X367641Y610009D01*
X366627Y610595D01*
X366388Y610659D01*
Y606453D01*
Y602247D01*
X366627Y602311D01*
X367641Y602896D01*
X368468Y603723D01*
X369053Y604737D01*
X369091Y604876D01*
X369590D01*
X369628Y604737D01*
X370213Y603723D01*
X371040Y602896D01*
X372054Y602311D01*
X372293Y602247D01*
Y606453D01*
Y610659D01*
D02*
G37*
G36*
X363435Y610659D02*
X363196Y610595D01*
X362182Y610009D01*
X361355Y609182D01*
X360769Y608168D01*
X360732Y608030D01*
X360232D01*
X360195Y608168D01*
X359610Y609182D01*
X358782Y610009D01*
X357769Y610595D01*
X357530Y610659D01*
Y606453D01*
Y602247D01*
X357769Y602311D01*
X358782Y602896D01*
X359610Y603723D01*
X360195Y604737D01*
X360232Y604876D01*
X360732D01*
X360769Y604737D01*
X361355Y603723D01*
X362182Y602896D01*
X363196Y602311D01*
X363435Y602247D01*
Y606453D01*
Y610659D01*
D02*
G37*
G36*
X401821Y610659D02*
Y607929D01*
X404551D01*
X404486Y608168D01*
X403901Y609182D01*
X403074Y610009D01*
X402060Y610595D01*
X401821Y610659D01*
D02*
G37*
G36*
X354577Y610659D02*
X354338Y610595D01*
X353324Y610009D01*
X352496Y609182D01*
X351911Y608168D01*
X351847Y607929D01*
X354577D01*
Y610659D01*
D02*
G37*
G36*
X392963Y610659D02*
Y606453D01*
Y602247D01*
X393202Y602311D01*
X394215Y602896D01*
X395043Y603723D01*
X395628Y604737D01*
X395665Y604876D01*
X396165D01*
X396202Y604737D01*
X396788Y603723D01*
X397615Y602896D01*
X398629Y602311D01*
X398868Y602247D01*
Y606453D01*
Y610659D01*
X398629Y610595D01*
X397615Y610009D01*
X396788Y609182D01*
X396202Y608168D01*
X396165Y608030D01*
X395665D01*
X395628Y608168D01*
X395043Y609182D01*
X394215Y610009D01*
X393202Y610595D01*
X392963Y610659D01*
D02*
G37*
G36*
X404551Y604976D02*
X401821D01*
Y602247D01*
X402060Y602311D01*
X403074Y602896D01*
X403901Y603723D01*
X404486Y604737D01*
X404551Y604976D01*
D02*
G37*
G36*
X354577Y604976D02*
X351847D01*
X351911Y604737D01*
X352496Y603723D01*
X353324Y602896D01*
X354338Y602311D01*
X354577Y602247D01*
Y604976D01*
D02*
G37*
G36*
X381152Y596879D02*
X380912Y596815D01*
X379899Y596230D01*
X379071Y595402D01*
X378486Y594389D01*
X378449Y594250D01*
X377949D01*
X377912Y594389D01*
X377326Y595402D01*
X376499Y596230D01*
X375485Y596815D01*
X375246Y596879D01*
Y592673D01*
Y588467D01*
X375485Y588531D01*
X376499Y589116D01*
X377326Y589944D01*
X377912Y590957D01*
X377949Y591096D01*
X378449D01*
X378486Y590957D01*
X379071Y589944D01*
X379899Y589116D01*
X380912Y588531D01*
X381152Y588467D01*
Y592673D01*
Y596879D01*
D02*
G37*
G36*
X390010D02*
X389771Y596815D01*
X388757Y596230D01*
X387929Y595402D01*
X387344Y594389D01*
X387307Y594250D01*
X386807D01*
X386770Y594389D01*
X386185Y595402D01*
X385357Y596230D01*
X384344Y596815D01*
X384104Y596879D01*
Y592673D01*
Y588467D01*
X384344Y588531D01*
X385357Y589116D01*
X386185Y589944D01*
X386770Y590957D01*
X386807Y591096D01*
X387307D01*
X387344Y590957D01*
X387929Y589944D01*
X388757Y589116D01*
X389771Y588531D01*
X390010Y588467D01*
Y592673D01*
Y596879D01*
D02*
G37*
G36*
X372293Y596879D02*
X372054Y596815D01*
X371040Y596230D01*
X370213Y595402D01*
X369628Y594389D01*
X369590Y594250D01*
X369091D01*
X369053Y594389D01*
X368468Y595402D01*
X367641Y596230D01*
X366627Y596815D01*
X366388Y596879D01*
Y592673D01*
Y588467D01*
X366627Y588531D01*
X367641Y589116D01*
X368468Y589944D01*
X369053Y590957D01*
X369091Y591096D01*
X369590D01*
X369628Y590957D01*
X370213Y589944D01*
X371040Y589116D01*
X372054Y588531D01*
X372293Y588467D01*
Y592673D01*
Y596879D01*
D02*
G37*
G36*
X363435Y596879D02*
X363196Y596815D01*
X362182Y596230D01*
X361355Y595402D01*
X360769Y594389D01*
X360732Y594250D01*
X360232D01*
X360195Y594389D01*
X359610Y595402D01*
X358782Y596230D01*
X357769Y596815D01*
X357530Y596879D01*
Y592673D01*
Y588467D01*
X357769Y588531D01*
X358782Y589116D01*
X359610Y589944D01*
X360195Y590957D01*
X360232Y591096D01*
X360732D01*
X360769Y590957D01*
X361355Y589944D01*
X362182Y589116D01*
X363196Y588531D01*
X363435Y588467D01*
Y592673D01*
Y596879D01*
D02*
G37*
G36*
X401821Y596879D02*
Y594150D01*
X404551D01*
X404486Y594389D01*
X403901Y595402D01*
X403074Y596230D01*
X402060Y596815D01*
X401821Y596879D01*
D02*
G37*
G36*
X354577Y596879D02*
X354338Y596815D01*
X353324Y596230D01*
X352496Y595402D01*
X351911Y594389D01*
X351847Y594149D01*
X354577D01*
Y596879D01*
D02*
G37*
G36*
X392963Y596879D02*
Y592673D01*
Y588467D01*
X393202Y588531D01*
X394215Y589116D01*
X395043Y589944D01*
X395628Y590957D01*
X395665Y591096D01*
X396165D01*
X396202Y590957D01*
X396788Y589944D01*
X397615Y589116D01*
X398629Y588531D01*
X398868Y588467D01*
Y592673D01*
Y596879D01*
X398629Y596815D01*
X397615Y596230D01*
X396788Y595402D01*
X396202Y594389D01*
X396165Y594250D01*
X395665D01*
X395628Y594389D01*
X395043Y595402D01*
X394215Y596230D01*
X393202Y596815D01*
X392963Y596879D01*
D02*
G37*
G36*
X404551Y591197D02*
X401821D01*
Y588467D01*
X402060Y588531D01*
X403074Y589116D01*
X403901Y589944D01*
X404486Y590957D01*
X404551Y591197D01*
D02*
G37*
G36*
X354577Y591197D02*
X351847D01*
X351911Y590957D01*
X352496Y589944D01*
X353324Y589116D01*
X354338Y588531D01*
X354577Y588467D01*
Y591197D01*
D02*
G37*
G36*
X396683Y573886D02*
X395087Y573729D01*
X393552Y573263D01*
X392138Y572507D01*
X390898Y571490D01*
X389880Y570250D01*
X389124Y568836D01*
X388659Y567301D01*
X388502Y565705D01*
X388659Y564109D01*
X389124Y562574D01*
X389880Y561159D01*
X390898Y559919D01*
X392138Y558902D01*
X393552Y558146D01*
X395087Y557680D01*
X396683Y557523D01*
X398279Y557680D01*
X399814Y558146D01*
X401229Y558902D01*
X402468Y559919D01*
X403486Y561159D01*
X404242Y562574D01*
X404707Y564109D01*
X404865Y565705D01*
X404707Y567301D01*
X404242Y568836D01*
X403486Y570250D01*
X402468Y571490D01*
X401229Y572507D01*
X399814Y573263D01*
X398279Y573729D01*
X396683Y573886D01*
D02*
G37*
G36*
X382785Y525712D02*
Y517043D01*
X391453D01*
X391085Y518175D01*
X390141Y520027D01*
X388920Y521709D01*
X387450Y523178D01*
X385769Y524400D01*
X383917Y525344D01*
X382785Y525712D01*
D02*
G37*
G36*
X374911Y525712D02*
X373779Y525344D01*
X371927Y524400D01*
X370246Y523178D01*
X368776Y521709D01*
X367554Y520027D01*
X366611Y518175D01*
X366243Y517043D01*
X374911D01*
Y525712D01*
D02*
G37*
G36*
Y509169D02*
X366243D01*
X366611Y508038D01*
X367554Y506186D01*
X368776Y504504D01*
X370246Y503035D01*
X371927Y501813D01*
X373779Y500869D01*
X374911Y500501D01*
Y509169D01*
D02*
G37*
G36*
X391453D02*
X382785D01*
Y500501D01*
X383917Y500869D01*
X385769Y501813D01*
X387450Y503035D01*
X388920Y504504D01*
X390141Y506186D01*
X391085Y508038D01*
X391453Y509169D01*
D02*
G37*
G36*
X382785Y497641D02*
Y488973D01*
X391453D01*
X391085Y490104D01*
X390141Y491957D01*
X388920Y493638D01*
X387450Y495108D01*
X385769Y496329D01*
X383917Y497273D01*
X382785Y497641D01*
D02*
G37*
G36*
X374911Y497641D02*
X373779Y497273D01*
X371927Y496329D01*
X370246Y495108D01*
X368776Y493638D01*
X367554Y491957D01*
X366611Y490104D01*
X366243Y488973D01*
X374911D01*
Y497641D01*
D02*
G37*
G36*
X391453Y481099D02*
X382785D01*
Y472431D01*
X383917Y472798D01*
X385769Y473742D01*
X387450Y474964D01*
X388920Y476433D01*
X390141Y478115D01*
X391085Y479967D01*
X391453Y481099D01*
D02*
G37*
G36*
X374911D02*
X366243D01*
X366611Y479967D01*
X367554Y478115D01*
X368776Y476433D01*
X370246Y474964D01*
X371927Y473742D01*
X373779Y472798D01*
X374911Y472431D01*
Y481099D01*
D02*
G37*
%LPD*%
G36*
X514063Y462972D02*
X443197D01*
Y619468D01*
X514063D01*
Y462972D01*
D02*
G37*
%LPC*%
G36*
X481378Y610659D02*
X481139Y610595D01*
X480125Y610009D01*
X479297Y609182D01*
X478712Y608168D01*
X478675Y608030D01*
X478175D01*
X478138Y608168D01*
X477553Y609182D01*
X476725Y610009D01*
X475712Y610595D01*
X475472Y610659D01*
Y606453D01*
Y602247D01*
X475712Y602311D01*
X476725Y602896D01*
X477553Y603723D01*
X478138Y604737D01*
X478175Y604876D01*
X478675D01*
X478712Y604737D01*
X479297Y603723D01*
X480125Y602896D01*
X481139Y602311D01*
X481378Y602247D01*
Y606453D01*
Y610659D01*
D02*
G37*
G36*
X490236Y610659D02*
X489997Y610595D01*
X488983Y610009D01*
X488156Y609182D01*
X487571Y608168D01*
X487533Y608030D01*
X487033D01*
X486996Y608168D01*
X486411Y609182D01*
X485583Y610009D01*
X484570Y610595D01*
X484331Y610659D01*
Y606453D01*
Y602247D01*
X484570Y602311D01*
X485583Y602896D01*
X486411Y603723D01*
X486996Y604737D01*
X487033Y604876D01*
X487533D01*
X487571Y604737D01*
X488156Y603723D01*
X488983Y602896D01*
X489997Y602311D01*
X490236Y602247D01*
Y606453D01*
Y610659D01*
D02*
G37*
G36*
X472520Y610659D02*
X472280Y610595D01*
X471267Y610009D01*
X470439Y609182D01*
X469854Y608168D01*
X469817Y608030D01*
X469317D01*
X469280Y608168D01*
X468695Y609182D01*
X467867Y610009D01*
X466853Y610595D01*
X466614Y610659D01*
Y606453D01*
Y602247D01*
X466853Y602311D01*
X467867Y602896D01*
X468695Y603723D01*
X469280Y604737D01*
X469317Y604876D01*
X469817D01*
X469854Y604737D01*
X470439Y603723D01*
X471267Y602896D01*
X472280Y602311D01*
X472520Y602247D01*
Y606453D01*
Y610659D01*
D02*
G37*
G36*
X463661Y610659D02*
X463422Y610595D01*
X462409Y610009D01*
X461581Y609182D01*
X460996Y608168D01*
X460959Y608030D01*
X460459D01*
X460422Y608168D01*
X459836Y609182D01*
X459009Y610009D01*
X457995Y610595D01*
X457756Y610659D01*
Y606453D01*
Y602247D01*
X457995Y602311D01*
X459009Y602896D01*
X459836Y603723D01*
X460422Y604737D01*
X460459Y604876D01*
X460959D01*
X460996Y604737D01*
X461581Y603723D01*
X462409Y602896D01*
X463422Y602311D01*
X463661Y602247D01*
Y606453D01*
Y610659D01*
D02*
G37*
G36*
X454803Y610659D02*
X454564Y610595D01*
X453550Y610009D01*
X452723Y609182D01*
X452138Y608168D01*
X452073Y607929D01*
X454803D01*
Y610659D01*
D02*
G37*
G36*
X502047Y610659D02*
Y607929D01*
X504777D01*
X504713Y608168D01*
X504128Y609182D01*
X503300Y610009D01*
X502286Y610595D01*
X502047Y610659D01*
D02*
G37*
G36*
X454803Y604976D02*
X452073D01*
X452138Y604737D01*
X452723Y603723D01*
X453550Y602896D01*
X454564Y602311D01*
X454803Y602247D01*
Y604976D01*
D02*
G37*
G36*
X493189Y610659D02*
Y606453D01*
Y602247D01*
X493428Y602311D01*
X494442Y602896D01*
X495269Y603723D01*
X495855Y604737D01*
X495892Y604876D01*
X496392D01*
X496429Y604737D01*
X497014Y603723D01*
X497842Y602896D01*
X498855Y602311D01*
X499094Y602247D01*
Y606453D01*
Y610659D01*
X498855Y610595D01*
X497842Y610009D01*
X497014Y609182D01*
X496429Y608168D01*
X496392Y608030D01*
X495892D01*
X495855Y608168D01*
X495269Y609182D01*
X494442Y610009D01*
X493428Y610595D01*
X493189Y610659D01*
D02*
G37*
G36*
X504777Y604976D02*
X502047D01*
Y602247D01*
X502286Y602311D01*
X503300Y602896D01*
X504128Y603723D01*
X504713Y604737D01*
X504777Y604976D01*
D02*
G37*
G36*
X481378Y596879D02*
X481139Y596815D01*
X480125Y596230D01*
X479297Y595402D01*
X478712Y594389D01*
X478675Y594250D01*
X478175D01*
X478138Y594389D01*
X477553Y595402D01*
X476725Y596230D01*
X475712Y596815D01*
X475472Y596879D01*
Y592673D01*
Y588467D01*
X475712Y588531D01*
X476725Y589116D01*
X477553Y589944D01*
X478138Y590957D01*
X478175Y591096D01*
X478675D01*
X478712Y590957D01*
X479297Y589944D01*
X480125Y589116D01*
X481139Y588531D01*
X481378Y588467D01*
Y592673D01*
Y596879D01*
D02*
G37*
G36*
X499094Y596879D02*
X498855Y596815D01*
X497842Y596230D01*
X497014Y595402D01*
X496429Y594389D01*
X496392Y594250D01*
X495892D01*
X495855Y594389D01*
X495269Y595402D01*
X494442Y596230D01*
X493428Y596815D01*
X493189Y596879D01*
Y592673D01*
Y588467D01*
X493428Y588531D01*
X494442Y589116D01*
X495269Y589944D01*
X495855Y590957D01*
X495892Y591096D01*
X496392D01*
X496429Y590957D01*
X497014Y589944D01*
X497842Y589116D01*
X498855Y588531D01*
X499094Y588467D01*
Y592673D01*
Y596879D01*
D02*
G37*
G36*
X490236Y596879D02*
X489997Y596815D01*
X488983Y596230D01*
X488156Y595402D01*
X487571Y594389D01*
X487533Y594250D01*
X487033D01*
X486996Y594389D01*
X486411Y595402D01*
X485583Y596230D01*
X484570Y596815D01*
X484331Y596879D01*
Y592673D01*
Y588467D01*
X484570Y588531D01*
X485583Y589116D01*
X486411Y589944D01*
X486996Y590957D01*
X487033Y591096D01*
X487533D01*
X487571Y590957D01*
X488156Y589944D01*
X488983Y589116D01*
X489997Y588531D01*
X490236Y588467D01*
Y592673D01*
Y596879D01*
D02*
G37*
G36*
X472520Y596879D02*
X472280Y596815D01*
X471267Y596230D01*
X470439Y595402D01*
X469854Y594389D01*
X469817Y594250D01*
X469317D01*
X469280Y594389D01*
X468695Y595402D01*
X467867Y596230D01*
X466853Y596815D01*
X466614Y596879D01*
Y592673D01*
Y588467D01*
X466853Y588531D01*
X467867Y589116D01*
X468695Y589944D01*
X469280Y590957D01*
X469317Y591096D01*
X469817D01*
X469854Y590957D01*
X470439Y589944D01*
X471267Y589116D01*
X472280Y588531D01*
X472520Y588467D01*
Y592673D01*
Y596879D01*
D02*
G37*
G36*
X463661D02*
X463422Y596815D01*
X462409Y596230D01*
X461581Y595402D01*
X460996Y594389D01*
X460959Y594250D01*
X460459D01*
X460422Y594389D01*
X459836Y595402D01*
X459009Y596230D01*
X457995Y596815D01*
X457756Y596879D01*
Y592673D01*
Y588467D01*
X457995Y588531D01*
X459009Y589116D01*
X459836Y589944D01*
X460422Y590957D01*
X460459Y591096D01*
X460959D01*
X460996Y590957D01*
X461581Y589944D01*
X462409Y589116D01*
X463422Y588531D01*
X463661Y588467D01*
Y592673D01*
Y596879D01*
D02*
G37*
G36*
X454803Y596879D02*
X454564Y596815D01*
X453550Y596230D01*
X452723Y595402D01*
X452138Y594389D01*
X452073Y594150D01*
X454803D01*
Y596879D01*
D02*
G37*
G36*
X502047Y596879D02*
Y594150D01*
X504777D01*
X504713Y594389D01*
X504128Y595402D01*
X503300Y596230D01*
X502286Y596815D01*
X502047Y596879D01*
D02*
G37*
G36*
X454803Y591197D02*
X452073D01*
X452138Y590957D01*
X452723Y589944D01*
X453550Y589116D01*
X454564Y588531D01*
X454803Y588467D01*
Y591197D01*
D02*
G37*
G36*
X504777Y591197D02*
X502047D01*
Y588467D01*
X502286Y588531D01*
X503300Y589116D01*
X504128Y589944D01*
X504713Y590957D01*
X504777Y591197D01*
D02*
G37*
G36*
X496909Y573886D02*
X495313Y573729D01*
X493779Y573263D01*
X492364Y572507D01*
X491124Y571490D01*
X490107Y570250D01*
X489351Y568836D01*
X488885Y567301D01*
X488728Y565705D01*
X488885Y564109D01*
X489351Y562574D01*
X490107Y561159D01*
X491124Y559919D01*
X492364Y558902D01*
X493779Y558146D01*
X495313Y557680D01*
X496909Y557523D01*
X498506Y557680D01*
X500040Y558146D01*
X501455Y558902D01*
X502695Y559919D01*
X503712Y561159D01*
X504468Y562574D01*
X504934Y564109D01*
X505091Y565705D01*
X504934Y567301D01*
X504468Y568836D01*
X503712Y570250D01*
X502695Y571490D01*
X501455Y572507D01*
X500040Y573263D01*
X498506Y573729D01*
X496909Y573886D01*
D02*
G37*
G36*
X482945Y525712D02*
Y517043D01*
X491613D01*
X491246Y518175D01*
X490302Y520027D01*
X489080Y521709D01*
X487611Y523178D01*
X485929Y524400D01*
X484077Y525344D01*
X482945Y525712D01*
D02*
G37*
G36*
X475071Y525712D02*
X473940Y525344D01*
X472088Y524400D01*
X470406Y523178D01*
X468936Y521709D01*
X467715Y520027D01*
X466771Y518175D01*
X466403Y517043D01*
X475071D01*
Y525712D01*
D02*
G37*
G36*
Y509169D02*
X466403D01*
X466771Y508038D01*
X467715Y506186D01*
X468936Y504504D01*
X470406Y503035D01*
X472088Y501813D01*
X473940Y500869D01*
X475071Y500501D01*
Y509169D01*
D02*
G37*
G36*
X491613D02*
X482945D01*
Y500501D01*
X484077Y500869D01*
X485929Y501813D01*
X487611Y503035D01*
X489080Y504504D01*
X490302Y506186D01*
X491246Y508038D01*
X491613Y509169D01*
D02*
G37*
G36*
X482945Y497641D02*
Y488973D01*
X491613D01*
X491246Y490104D01*
X490302Y491957D01*
X489080Y493638D01*
X487611Y495108D01*
X485929Y496329D01*
X484077Y497273D01*
X482945Y497641D01*
D02*
G37*
G36*
X475071Y497641D02*
X473940Y497273D01*
X472088Y496329D01*
X470406Y495108D01*
X468936Y493638D01*
X467715Y491957D01*
X466771Y490104D01*
X466403Y488973D01*
X475071D01*
Y497641D01*
D02*
G37*
G36*
X491613Y481099D02*
X482945D01*
Y472431D01*
X484077Y472798D01*
X485929Y473742D01*
X487611Y474964D01*
X489080Y476433D01*
X490302Y478115D01*
X491246Y479967D01*
X491613Y481099D01*
D02*
G37*
G36*
X475071D02*
X466403D01*
X466771Y479967D01*
X467715Y478115D01*
X468936Y476433D01*
X470406Y474964D01*
X472088Y473742D01*
X473940Y472798D01*
X475071Y472431D01*
Y481099D01*
D02*
G37*
%LPD*%
G36*
X209035Y542260D02*
X155886D01*
Y655886D01*
X152704Y659068D01*
X71319D01*
Y682875D01*
X71367Y682992D01*
X209035D01*
X209035Y542260D01*
D02*
G37*
%LPC*%
G36*
X179764Y653244D02*
X179614D01*
Y648807D01*
X184051D01*
Y648957D01*
X183715Y650213D01*
X183065Y651338D01*
X182146Y652258D01*
X181020Y652908D01*
X179764Y653244D01*
D02*
G37*
G36*
X178614D02*
X178464D01*
X177208Y652908D01*
X176083Y652258D01*
X175164Y651338D01*
X174514Y650213D01*
X174177Y648957D01*
Y648807D01*
X178614D01*
Y653244D01*
D02*
G37*
G36*
X184051Y647807D02*
X179614D01*
Y643370D01*
X179764D01*
X181020Y643707D01*
X182146Y644356D01*
X183065Y645276D01*
X183715Y646401D01*
X184051Y647657D01*
Y647807D01*
D02*
G37*
G36*
X178614D02*
X174177D01*
Y647657D01*
X174514Y646401D01*
X175164Y645276D01*
X176083Y644356D01*
X177208Y643707D01*
X178464Y643370D01*
X178614D01*
Y647807D01*
D02*
G37*
G36*
X196575Y606464D02*
Y600413D01*
X202625D01*
X202608Y600502D01*
X201939Y602117D01*
X200968Y603570D01*
X199732Y604806D01*
X198278Y605777D01*
X196663Y606446D01*
X196575Y606464D01*
D02*
G37*
G36*
X191575Y606464D02*
X191486Y606446D01*
X189871Y605777D01*
X188418Y604806D01*
X187182Y603570D01*
X186211Y602117D01*
X185542Y600502D01*
X185524Y600413D01*
X191575D01*
Y606464D01*
D02*
G37*
G36*
X202625Y595413D02*
X196575D01*
Y589363D01*
X196663Y589380D01*
X198278Y590049D01*
X199732Y591020D01*
X200968Y592256D01*
X201939Y593710D01*
X202608Y595325D01*
X202625Y595413D01*
D02*
G37*
G36*
X191575D02*
X185524D01*
X185542Y595325D01*
X186211Y593710D01*
X187182Y592256D01*
X188418Y591020D01*
X189871Y590049D01*
X191486Y589380D01*
X191575Y589363D01*
Y595413D01*
D02*
G37*
%LPD*%
G36*
X151949Y541713D02*
X58289D01*
X58189Y541813D01*
Y588957D01*
X104184D01*
X104250Y588891D01*
Y604705D01*
X151949D01*
Y541713D01*
D02*
G37*
%LPC*%
G36*
X126496Y596621D02*
Y590571D01*
X132547D01*
X132529Y590659D01*
X131860Y592274D01*
X130889Y593728D01*
X129653Y594964D01*
X128200Y595935D01*
X126584Y596604D01*
X126496Y596621D01*
D02*
G37*
G36*
X121496Y596621D02*
X121408Y596604D01*
X119793Y595935D01*
X118339Y594964D01*
X117103Y593728D01*
X116132Y592274D01*
X115463Y590659D01*
X115445Y590571D01*
X121496D01*
Y596621D01*
D02*
G37*
G36*
X132547Y585571D02*
X126496D01*
Y579520D01*
X126584Y579538D01*
X128200Y580207D01*
X129653Y581178D01*
X130889Y582414D01*
X131860Y583867D01*
X132529Y585482D01*
X132547Y585571D01*
D02*
G37*
G36*
X121496D02*
X115445D01*
X115463Y585482D01*
X116132Y583867D01*
X117103Y582414D01*
X118339Y581178D01*
X119793Y580207D01*
X121408Y579538D01*
X121496Y579520D01*
Y585571D01*
D02*
G37*
G36*
X86772Y568821D02*
X86001Y568501D01*
X84870Y567746D01*
X83908Y566784D01*
X83152Y565653D01*
X82849Y564922D01*
X82308D01*
X82005Y565653D01*
X81250Y566784D01*
X80288Y567746D01*
X79157Y568501D01*
X78386Y568821D01*
Y562382D01*
Y555943D01*
X79157Y556262D01*
X80288Y557018D01*
X81250Y557980D01*
X82005Y559111D01*
X82308Y559842D01*
X82849D01*
X83152Y559111D01*
X83908Y557980D01*
X84870Y557018D01*
X86001Y556262D01*
X86772Y555943D01*
Y562382D01*
Y568821D01*
D02*
G37*
G36*
X73386Y568821D02*
X72615Y568501D01*
X71484Y567746D01*
X70522Y566784D01*
X69766Y565653D01*
X69447Y564882D01*
X73386D01*
Y568821D01*
D02*
G37*
G36*
X91772Y568821D02*
Y564882D01*
X95711D01*
X95391Y565653D01*
X94635Y566784D01*
X93674Y567746D01*
X92543Y568501D01*
X91772Y568821D01*
D02*
G37*
G36*
X95711Y559882D02*
X91772D01*
Y555943D01*
X92543Y556262D01*
X93674Y557018D01*
X94635Y557980D01*
X95391Y559111D01*
X95711Y559882D01*
D02*
G37*
G36*
X73386Y559882D02*
X69447D01*
X69766Y559111D01*
X70522Y557980D01*
X71484Y557018D01*
X72615Y556262D01*
X73386Y555943D01*
Y559882D01*
D02*
G37*
G36*
X124725Y563683D02*
X123267D01*
X121860Y563306D01*
X120598Y562578D01*
X119568Y561547D01*
X118839Y560286D01*
X118462Y558878D01*
Y557421D01*
X118839Y556014D01*
X119568Y554752D01*
X120598Y553721D01*
X121860Y552993D01*
X123267Y552616D01*
X124725D01*
X126132Y552993D01*
X127394Y553721D01*
X128424Y554752D01*
X129153Y556014D01*
X129530Y557421D01*
Y558878D01*
X129153Y560286D01*
X128424Y561547D01*
X127394Y562578D01*
X126132Y563306D01*
X124725Y563683D01*
D02*
G37*
%LPD*%
G36*
X189252Y500472D02*
Y417913D01*
X189156Y417818D01*
X188852Y417083D01*
Y416287D01*
X189156Y415552D01*
X189252Y415457D01*
Y410669D01*
X136536D01*
X119665Y427539D01*
X65335D01*
Y525964D01*
X163760D01*
X189252Y500472D01*
D02*
G37*
G36*
X248012Y351089D02*
X139842D01*
Y409241D01*
X186336D01*
X186435Y408741D01*
X186249Y408664D01*
X185686Y408101D01*
X185382Y407366D01*
Y406571D01*
X185686Y405835D01*
X186249Y405273D01*
X186984Y404968D01*
X187780D01*
X188515Y405273D01*
X189077Y405835D01*
X189382Y406571D01*
Y407366D01*
X189077Y408101D01*
X188515Y408664D01*
X188328Y408741D01*
X188428Y409241D01*
X189252D01*
X189798Y409350D01*
X189941Y409445D01*
X248012D01*
Y351089D01*
D02*
G37*
G36*
X313610Y384719D02*
X249439D01*
Y409445D01*
X249390Y409694D01*
Y410669D01*
X248701D01*
X248558Y410764D01*
X248012Y410873D01*
X190728D01*
Y414685D01*
X191250D01*
X191985Y414990D01*
X192548Y415552D01*
X192852Y416287D01*
Y417083D01*
X192548Y417818D01*
X191985Y418381D01*
X191250Y418685D01*
X190728D01*
Y451161D01*
X313610D01*
Y384719D01*
D02*
G37*
%LPC*%
G36*
X137697Y496699D02*
X136981Y496221D01*
X136122Y495362D01*
X135263Y496221D01*
X134547Y496699D01*
Y490551D01*
Y484403D01*
X135263Y484881D01*
X136122Y485740D01*
X136823Y485039D01*
X135964Y484180D01*
X135486Y483464D01*
X147782D01*
X147303Y484180D01*
X146445Y485039D01*
X147303Y485898D01*
X147782Y486614D01*
X141634D01*
Y490551D01*
X137697D01*
Y496699D01*
D02*
G37*
G36*
X126673D02*
X125957Y496221D01*
X125098Y495362D01*
X124240Y496221D01*
X123524Y496699D01*
Y490551D01*
Y484403D01*
X124240Y484881D01*
X125098Y485740D01*
X125957Y484881D01*
X126673Y484403D01*
Y490551D01*
Y496699D01*
D02*
G37*
G36*
X115650D02*
X114934Y496221D01*
X114075Y495362D01*
X113216Y496221D01*
X112500Y496699D01*
Y490551D01*
Y484403D01*
X113216Y484881D01*
X114075Y485740D01*
X114934Y484881D01*
X115650Y484403D01*
Y490551D01*
Y496699D01*
D02*
G37*
G36*
X104626D02*
X103910Y496221D01*
X103051Y495362D01*
X102192Y496221D01*
X101476Y496699D01*
Y490551D01*
X97539D01*
Y486614D01*
X91391D01*
X91870Y485898D01*
X92729Y485039D01*
X91870Y484180D01*
X91391Y483464D01*
X103687D01*
X103209Y484180D01*
X102350Y485039D01*
X103051Y485740D01*
X103910Y484881D01*
X104626Y484403D01*
Y490551D01*
Y496699D01*
D02*
G37*
G36*
X145571D02*
Y494488D01*
X147782D01*
X147303Y495204D01*
X146287Y496221D01*
X145571Y496699D01*
D02*
G37*
G36*
X93602D02*
X92886Y496221D01*
X91870Y495204D01*
X91391Y494488D01*
X93602D01*
Y496699D01*
D02*
G37*
G36*
X147782Y475591D02*
X135486D01*
X135964Y474874D01*
X136823Y474016D01*
X135964Y473157D01*
X135486Y472441D01*
X147782D01*
X147303Y473157D01*
X146445Y474016D01*
X147303Y474874D01*
X147782Y475591D01*
D02*
G37*
G36*
X103687D02*
X91391D01*
X91870Y474874D01*
X92729Y474016D01*
X91870Y473157D01*
X91391Y472441D01*
X103687D01*
X103209Y473157D01*
X102350Y474016D01*
X103209Y474874D01*
X103687Y475591D01*
D02*
G37*
G36*
X147782Y464567D02*
X135486D01*
X135964Y463851D01*
X136823Y462992D01*
X135964Y462133D01*
X135486Y461417D01*
X147782D01*
X147303Y462133D01*
X146445Y462992D01*
X147303Y463851D01*
X147782Y464567D01*
D02*
G37*
G36*
X103687D02*
X91391D01*
X91870Y463851D01*
X92729Y462992D01*
X91870Y462133D01*
X91391Y461417D01*
X103687D01*
X103209Y462133D01*
X102350Y462992D01*
X103209Y463851D01*
X103687Y464567D01*
D02*
G37*
G36*
X147782Y453543D02*
X135486D01*
X135964Y452827D01*
X136823Y451968D01*
X136122Y451267D01*
X135263Y452126D01*
X134547Y452605D01*
Y446457D01*
Y440309D01*
X135263Y440787D01*
X136122Y441646D01*
X136981Y440787D01*
X137697Y440309D01*
Y446457D01*
X141634D01*
Y450394D01*
X147782D01*
X147303Y451110D01*
X146445Y451968D01*
X147303Y452827D01*
X147782Y453543D01*
D02*
G37*
G36*
X126673Y452605D02*
X125957Y452126D01*
X125098Y451267D01*
X124240Y452126D01*
X123524Y452605D01*
Y446457D01*
Y440309D01*
X124240Y440787D01*
X125098Y441646D01*
X125957Y440787D01*
X126673Y440309D01*
Y446457D01*
Y452605D01*
D02*
G37*
G36*
X115650D02*
X114934Y452126D01*
X114075Y451267D01*
X113216Y452126D01*
X112500Y452605D01*
Y446457D01*
Y440309D01*
X113216Y440787D01*
X114075Y441646D01*
X114934Y440787D01*
X115650Y440309D01*
Y446457D01*
Y452605D01*
D02*
G37*
G36*
X147782Y442520D02*
X145571D01*
Y440309D01*
X146287Y440787D01*
X147303Y441804D01*
X147782Y442520D01*
D02*
G37*
G36*
X103687Y453543D02*
X91391D01*
X91870Y452827D01*
X92729Y451968D01*
X91870Y451110D01*
X91391Y450394D01*
X97539D01*
Y446457D01*
X101476D01*
Y440309D01*
X102192Y440787D01*
X103051Y441646D01*
X103910Y440787D01*
X104626Y440309D01*
Y446457D01*
Y452605D01*
X103910Y452126D01*
X103051Y451267D01*
X102350Y451968D01*
X103209Y452827D01*
X103687Y453543D01*
D02*
G37*
G36*
X93602Y442520D02*
X91391D01*
X91870Y441804D01*
X92886Y440787D01*
X93602Y440309D01*
Y442520D01*
D02*
G37*
G36*
X166224Y418685D02*
X165429D01*
X164694Y418381D01*
X164131Y417818D01*
X163827Y417083D01*
Y416287D01*
X164131Y415552D01*
X164694Y414990D01*
X165429Y414685D01*
X166224D01*
X166960Y414990D01*
X167522Y415552D01*
X167827Y416287D01*
Y417083D01*
X167522Y417818D01*
X166960Y418381D01*
X166224Y418685D01*
D02*
G37*
G36*
X217769Y404319D02*
X216973D01*
X216238Y404014D01*
X215676Y403452D01*
X215371Y402717D01*
Y401921D01*
X215676Y401186D01*
X216238Y400623D01*
X216973Y400319D01*
X217769D01*
X218504Y400623D01*
X219067Y401186D01*
X219371Y401921D01*
Y402717D01*
X219067Y403452D01*
X218504Y404014D01*
X217769Y404319D01*
D02*
G37*
G36*
X166224Y404319D02*
X165429D01*
X164694Y404014D01*
X164131Y403452D01*
X163827Y402717D01*
Y401921D01*
X164131Y401186D01*
X164694Y400623D01*
X165429Y400319D01*
X166224D01*
X166960Y400623D01*
X167522Y401186D01*
X167827Y401921D01*
Y402717D01*
X167522Y403452D01*
X166960Y404014D01*
X166224Y404319D01*
D02*
G37*
G36*
X282430Y442641D02*
Y433973D01*
X291098D01*
X290730Y435105D01*
X289787Y436957D01*
X288565Y438638D01*
X287095Y440108D01*
X285414Y441329D01*
X283562Y442273D01*
X282430Y442641D01*
D02*
G37*
G36*
X274556Y442641D02*
X273424Y442273D01*
X271572Y441329D01*
X269891Y440108D01*
X268421Y438638D01*
X267199Y436957D01*
X266256Y435105D01*
X265888Y433973D01*
X274556D01*
Y442641D01*
D02*
G37*
G36*
X291098Y426099D02*
X282430D01*
Y417431D01*
X283562Y417798D01*
X285414Y418742D01*
X287095Y419964D01*
X288565Y421433D01*
X289787Y423115D01*
X290730Y424967D01*
X291098Y426099D01*
D02*
G37*
G36*
X274556D02*
X265888D01*
X266256Y424967D01*
X267199Y423115D01*
X268421Y421433D01*
X269891Y419964D01*
X271572Y418742D01*
X273424Y417798D01*
X274556Y417431D01*
Y426099D01*
D02*
G37*
G36*
X217769Y418685D02*
X216973D01*
X216238Y418381D01*
X215676Y417818D01*
X215371Y417083D01*
Y416287D01*
X215676Y415552D01*
X216238Y414990D01*
X216973Y414685D01*
X217769D01*
X218504Y414990D01*
X219067Y415552D01*
X219371Y416287D01*
Y417083D01*
X219067Y417818D01*
X218504Y418381D01*
X217769Y418685D01*
D02*
G37*
G36*
X290910Y414776D02*
X282430D01*
Y405902D01*
X290910D01*
Y414776D01*
D02*
G37*
G36*
X274556D02*
X266076D01*
Y405902D01*
X274556D01*
Y414776D01*
D02*
G37*
G36*
X290910Y398028D02*
X282430D01*
Y389154D01*
X290910D01*
Y398028D01*
D02*
G37*
G36*
X274556D02*
X266076D01*
Y389154D01*
X274556D01*
Y398028D01*
D02*
G37*
G36*
X595644Y582171D02*
Y578232D01*
X599583D01*
X599263Y579003D01*
X598508Y580134D01*
X597546Y581096D01*
X596415Y581852D01*
X595644Y582171D01*
D02*
G37*
G36*
X590644D02*
X589873Y581852D01*
X588742Y581096D01*
X587780Y580134D01*
X587024Y579003D01*
X586705Y578232D01*
X590644D01*
Y582171D01*
D02*
G37*
G36*
X599583Y573232D02*
X586705D01*
X587024Y572461D01*
X587780Y571330D01*
X588742Y570368D01*
X589873Y569613D01*
X590604Y569310D01*
Y568769D01*
X589873Y568466D01*
X588742Y567710D01*
X587780Y566748D01*
X587024Y565617D01*
X586705Y564846D01*
X599583D01*
X599263Y565617D01*
X598508Y566748D01*
X597546Y567710D01*
X596415Y568466D01*
X595684Y568769D01*
Y569310D01*
X596415Y569613D01*
X597546Y570368D01*
X598508Y571330D01*
X599263Y572461D01*
X599583Y573232D01*
D02*
G37*
G36*
X672532Y560653D02*
X668300D01*
Y559610D01*
X675511D01*
X675022Y559985D01*
X673821Y560483D01*
X672532Y560653D01*
D02*
G37*
G36*
X660426D02*
X656193D01*
X654905Y560483D01*
X653704Y559985D01*
X653214Y559610D01*
X660426D01*
Y560653D01*
D02*
G37*
G36*
X599583Y559846D02*
X595644D01*
Y555907D01*
X596415Y556227D01*
X597546Y556982D01*
X598508Y557944D01*
X599263Y559075D01*
X599583Y559846D01*
D02*
G37*
G36*
X590644D02*
X586705D01*
X587024Y559075D01*
X587780Y557944D01*
X588742Y556982D01*
X589873Y556227D01*
X590644Y555907D01*
Y559846D01*
D02*
G37*
G36*
X675511Y551736D02*
X668300D01*
Y550693D01*
X672532D01*
X673821Y550863D01*
X675022Y551361D01*
X675511Y551736D01*
D02*
G37*
G36*
X660426D02*
X653214D01*
X653704Y551361D01*
X654905Y550863D01*
X656193Y550693D01*
X660426D01*
Y551736D01*
D02*
G37*
G36*
X595644Y477820D02*
Y473881D01*
X599583D01*
X599263Y474652D01*
X598508Y475783D01*
X597546Y476745D01*
X596415Y477501D01*
X595644Y477820D01*
D02*
G37*
G36*
X590644D02*
X589873Y477501D01*
X588742Y476745D01*
X587780Y475783D01*
X587024Y474652D01*
X586705Y473881D01*
X590644D01*
Y477820D01*
D02*
G37*
G36*
X599583Y468882D02*
X586705D01*
X587024Y468111D01*
X587780Y466980D01*
X588742Y466018D01*
X589873Y465262D01*
X590604Y464959D01*
Y464418D01*
X589873Y464115D01*
X588742Y463359D01*
X587780Y462398D01*
X587024Y461267D01*
X586705Y460496D01*
X599583D01*
X599263Y461267D01*
X598508Y462398D01*
X597546Y463359D01*
X596415Y464115D01*
X595684Y464418D01*
Y464959D01*
X596415Y465262D01*
X597546Y466018D01*
X598508Y466980D01*
X599263Y468111D01*
X599583Y468882D01*
D02*
G37*
G36*
X672532Y456302D02*
X668300D01*
Y455260D01*
X675511D01*
X675022Y455635D01*
X673821Y456132D01*
X672532Y456302D01*
D02*
G37*
G36*
X660426D02*
X656193D01*
X654905Y456132D01*
X653704Y455635D01*
X653214Y455260D01*
X660426D01*
Y456302D01*
D02*
G37*
G36*
X599583Y455496D02*
X595644D01*
Y451557D01*
X596415Y451876D01*
X597546Y452632D01*
X598508Y453594D01*
X599263Y454725D01*
X599583Y455496D01*
D02*
G37*
G36*
X590644D02*
X586705D01*
X587024Y454725D01*
X587780Y453594D01*
X588742Y452632D01*
X589873Y451876D01*
X590644Y451557D01*
Y455496D01*
D02*
G37*
G36*
X675511Y447385D02*
X668300D01*
Y446343D01*
X672532D01*
X673821Y446513D01*
X675022Y447010D01*
X675511Y447385D01*
D02*
G37*
G36*
X660426D02*
X653214D01*
X653704Y447010D01*
X654905Y446513D01*
X656193Y446343D01*
X660426D01*
Y447385D01*
D02*
G37*
G36*
X595644Y373470D02*
Y369531D01*
X599583D01*
X599263Y370302D01*
X598508Y371433D01*
X597546Y372395D01*
X596415Y373150D01*
X595644Y373470D01*
D02*
G37*
G36*
X590644D02*
X589873Y373150D01*
X588742Y372395D01*
X587780Y371433D01*
X587024Y370302D01*
X586705Y369531D01*
X590644D01*
Y373470D01*
D02*
G37*
G36*
X599583Y364531D02*
X586705D01*
X587024Y363760D01*
X587780Y362629D01*
X588742Y361667D01*
X589873Y360911D01*
X590604Y360609D01*
Y360067D01*
X589873Y359765D01*
X588742Y359009D01*
X587780Y358047D01*
X587024Y356916D01*
X586705Y356145D01*
X599583D01*
X599263Y356916D01*
X598508Y358047D01*
X597546Y359009D01*
X596415Y359765D01*
X595684Y360067D01*
Y360609D01*
X596415Y360911D01*
X597546Y361667D01*
X598508Y362629D01*
X599263Y363760D01*
X599583Y364531D01*
D02*
G37*
G36*
X672532Y351952D02*
X668300D01*
Y350909D01*
X675511D01*
X675022Y351284D01*
X673821Y351782D01*
X672532Y351952D01*
D02*
G37*
G36*
X660426D02*
X656193D01*
X654905Y351782D01*
X653704Y351284D01*
X653214Y350909D01*
X660426D01*
Y351952D01*
D02*
G37*
G36*
X599583Y351145D02*
X595644D01*
Y347206D01*
X596415Y347526D01*
X597546Y348281D01*
X598508Y349243D01*
X599263Y350374D01*
X599583Y351145D01*
D02*
G37*
G36*
X590644D02*
X586705D01*
X587024Y350374D01*
X587780Y349243D01*
X588742Y348281D01*
X589873Y347526D01*
X590644Y347206D01*
Y351145D01*
D02*
G37*
G36*
X675511Y343035D02*
X668300D01*
Y341992D01*
X672532D01*
X673821Y342162D01*
X675022Y342659D01*
X675511Y343035D01*
D02*
G37*
G36*
X660426D02*
X653214D01*
X653704Y342659D01*
X654905Y342162D01*
X656193Y341992D01*
X660426D01*
Y343035D01*
D02*
G37*
G36*
X595644Y269119D02*
Y265180D01*
X599583D01*
X599263Y265951D01*
X598508Y267082D01*
X597546Y268044D01*
X596415Y268800D01*
X595644Y269119D01*
D02*
G37*
G36*
X590644D02*
X589873Y268800D01*
X588742Y268044D01*
X587780Y267082D01*
X587024Y265951D01*
X586705Y265180D01*
X590644D01*
Y269119D01*
D02*
G37*
G36*
X599583Y260180D02*
X586705D01*
X587024Y259409D01*
X587780Y258278D01*
X588742Y257316D01*
X589873Y256561D01*
X590604Y256258D01*
Y255717D01*
X589873Y255414D01*
X588742Y254658D01*
X587780Y253697D01*
X587024Y252566D01*
X586705Y251795D01*
X599583D01*
X599263Y252566D01*
X598508Y253697D01*
X597546Y254658D01*
X596415Y255414D01*
X595684Y255717D01*
Y256258D01*
X596415Y256561D01*
X597546Y257316D01*
X598508Y258278D01*
X599263Y259409D01*
X599583Y260180D01*
D02*
G37*
G36*
X672532Y247601D02*
X668300D01*
Y246558D01*
X675511D01*
X675022Y246934D01*
X673821Y247431D01*
X672532Y247601D01*
D02*
G37*
G36*
X660426D02*
X656193D01*
X654905Y247431D01*
X653704Y246934D01*
X653214Y246558D01*
X660426D01*
Y247601D01*
D02*
G37*
G36*
X599583Y246795D02*
X595644D01*
Y242856D01*
X596415Y243175D01*
X597546Y243931D01*
X598508Y244893D01*
X599263Y246024D01*
X599583Y246795D01*
D02*
G37*
G36*
X590644D02*
X586705D01*
X587024Y246024D01*
X587780Y244893D01*
X588742Y243931D01*
X589873Y243175D01*
X590644Y242856D01*
Y246795D01*
D02*
G37*
G36*
X675511Y238684D02*
X668300D01*
Y237642D01*
X672532D01*
X673821Y237811D01*
X675022Y238309D01*
X675511Y238684D01*
D02*
G37*
G36*
X660426D02*
X653214D01*
X653704Y238309D01*
X654905Y237811D01*
X656193Y237642D01*
X660426D01*
Y238684D01*
D02*
G37*
G36*
X595644Y164769D02*
Y160830D01*
X599583D01*
X599263Y161601D01*
X598508Y162732D01*
X597546Y163694D01*
X596415Y164449D01*
X595644Y164769D01*
D02*
G37*
G36*
X590644D02*
X589873Y164449D01*
X588742Y163694D01*
X587780Y162732D01*
X587024Y161601D01*
X586705Y160830D01*
X590644D01*
Y164769D01*
D02*
G37*
G36*
X599583Y155830D02*
X586705D01*
X587024Y155059D01*
X587780Y153928D01*
X588742Y152966D01*
X589873Y152210D01*
X590604Y151908D01*
Y151366D01*
X589873Y151064D01*
X588742Y150308D01*
X587780Y149346D01*
X587024Y148215D01*
X586705Y147444D01*
X599583D01*
X599263Y148215D01*
X598508Y149346D01*
X597546Y150308D01*
X596415Y151064D01*
X595684Y151366D01*
Y151908D01*
X596415Y152210D01*
X597546Y152966D01*
X598508Y153928D01*
X599263Y155059D01*
X599583Y155830D01*
D02*
G37*
G36*
X672532Y143250D02*
X668300D01*
Y142208D01*
X675511D01*
X675022Y142583D01*
X673821Y143081D01*
X672532Y143250D01*
D02*
G37*
G36*
X660426D02*
X656193D01*
X654905Y143081D01*
X653704Y142583D01*
X653214Y142208D01*
X660426D01*
Y143250D01*
D02*
G37*
G36*
X599583Y142444D02*
X595644D01*
Y138505D01*
X596415Y138824D01*
X597546Y139580D01*
X598508Y140542D01*
X599263Y141673D01*
X599583Y142444D01*
D02*
G37*
G36*
X590644D02*
X586705D01*
X587024Y141673D01*
X587780Y140542D01*
X588742Y139580D01*
X589873Y138824D01*
X590644Y138505D01*
Y142444D01*
D02*
G37*
G36*
X675511Y134334D02*
X668300D01*
Y133291D01*
X672532D01*
X673821Y133461D01*
X675022Y133958D01*
X675511Y134334D01*
D02*
G37*
G36*
X660426D02*
X653214D01*
X653704Y133958D01*
X654905Y133461D01*
X656193Y133291D01*
X660426D01*
Y134334D01*
D02*
G37*
%LPD*%
D81*
X139413Y206240D02*
D03*
D82*
X57461Y55118D02*
D03*
D83*
X593144Y144944D02*
D03*
Y158330D02*
D03*
Y367031D02*
D03*
Y353645D02*
D03*
Y262680D02*
D03*
Y249295D02*
D03*
Y471382D02*
D03*
Y457996D02*
D03*
Y575732D02*
D03*
Y562346D02*
D03*
X75886Y615531D02*
D03*
X89272D02*
D03*
Y562382D02*
D03*
X75886D02*
D03*
X593144Y666697D02*
D03*
Y680083D02*
D03*
D84*
X664363Y346972D02*
D03*
Y317484D02*
D03*
Y451323D02*
D03*
Y421834D02*
D03*
Y242621D02*
D03*
Y213133D02*
D03*
Y138271D02*
D03*
Y108783D02*
D03*
Y555673D02*
D03*
Y526185D02*
D03*
X29901Y606220D02*
D03*
Y576732D02*
D03*
X664363Y630535D02*
D03*
Y660023D02*
D03*
D87*
X531781Y31014D02*
D03*
X592765D02*
D03*
D88*
X123996Y588071D02*
D03*
X194075Y597913D02*
D03*
D89*
X179114Y648307D02*
D03*
D90*
X278493Y513106D02*
D03*
Y485036D02*
D03*
Y430036D02*
D03*
X378848Y485036D02*
D03*
Y513106D02*
D03*
X479008Y485036D02*
D03*
Y513106D02*
D03*
D91*
X278493Y401965D02*
D03*
D92*
X18090Y404512D02*
D03*
D93*
Y463567D02*
D03*
D94*
X183445Y216909D02*
D03*
D97*
X456280Y592673D02*
D03*
Y606453D02*
D03*
X465138Y592673D02*
D03*
Y606453D02*
D03*
X473996Y592673D02*
D03*
Y606453D02*
D03*
X482854Y592673D02*
D03*
Y606453D02*
D03*
X491713Y592673D02*
D03*
Y606453D02*
D03*
X500571Y592673D02*
D03*
Y606453D02*
D03*
X456280Y635980D02*
D03*
Y649760D02*
D03*
X465138Y635980D02*
D03*
Y649760D02*
D03*
X473996Y635980D02*
D03*
Y649760D02*
D03*
X482854Y635980D02*
D03*
Y649760D02*
D03*
X491713Y635980D02*
D03*
Y649760D02*
D03*
X500571Y635980D02*
D03*
Y649760D02*
D03*
X356053Y592673D02*
D03*
Y606453D02*
D03*
X364911Y592673D02*
D03*
Y606453D02*
D03*
X373770Y592673D02*
D03*
Y606453D02*
D03*
X382628Y592673D02*
D03*
Y606453D02*
D03*
X391486Y592673D02*
D03*
Y606453D02*
D03*
X400345Y592673D02*
D03*
Y606453D02*
D03*
X356053Y635980D02*
D03*
Y649760D02*
D03*
X364911Y635980D02*
D03*
Y649760D02*
D03*
X373770Y635980D02*
D03*
Y649760D02*
D03*
X382628Y635980D02*
D03*
Y649760D02*
D03*
X391486Y635980D02*
D03*
Y649760D02*
D03*
X400345Y635980D02*
D03*
Y649760D02*
D03*
X300118D02*
D03*
Y635980D02*
D03*
X291260Y649760D02*
D03*
Y635980D02*
D03*
X282401Y649760D02*
D03*
Y635980D02*
D03*
X273543Y649760D02*
D03*
Y635980D02*
D03*
X264685Y649760D02*
D03*
Y635980D02*
D03*
X255827Y649760D02*
D03*
Y635980D02*
D03*
X300118Y606453D02*
D03*
Y592673D02*
D03*
X291260Y606453D02*
D03*
Y592673D02*
D03*
X282401Y606453D02*
D03*
Y592673D02*
D03*
X273543Y606453D02*
D03*
Y592673D02*
D03*
X264685Y606453D02*
D03*
Y592673D02*
D03*
X255827Y606453D02*
D03*
Y592673D02*
D03*
D98*
X91932Y90611D02*
D03*
X102955D02*
D03*
X113979D02*
D03*
X125003D02*
D03*
X136026D02*
D03*
Y79588D02*
D03*
Y68564D02*
D03*
Y57540D02*
D03*
Y46517D02*
D03*
X125003D02*
D03*
X113979D02*
D03*
X102955D02*
D03*
X91932D02*
D03*
Y57540D02*
D03*
Y68564D02*
D03*
Y79588D02*
D03*
X97539Y490551D02*
D03*
X108563D02*
D03*
X119587D02*
D03*
X130610D02*
D03*
X141634D02*
D03*
Y479528D02*
D03*
Y468504D02*
D03*
Y457480D02*
D03*
Y446457D02*
D03*
X130610D02*
D03*
X119587D02*
D03*
X108563D02*
D03*
X97539D02*
D03*
Y457480D02*
D03*
Y468504D02*
D03*
Y479528D02*
D03*
D99*
X149502Y403569D02*
D03*
X607461Y70354D02*
D03*
X401635Y130802D02*
D03*
X421689Y122731D02*
D03*
X421630Y117917D02*
D03*
X377142Y81411D02*
D03*
X398183Y75827D02*
D03*
X397524Y62991D02*
D03*
X394626Y61356D02*
D03*
X400022Y65728D02*
D03*
X384784Y61356D02*
D03*
X381476D02*
D03*
Y64664D02*
D03*
Y67971D02*
D03*
Y71279D02*
D03*
Y74586D02*
D03*
X165754Y386051D02*
D03*
X168903D02*
D03*
X162604D02*
D03*
X172197D02*
D03*
X159310D02*
D03*
X156017D02*
D03*
X152723D02*
D03*
X175491D02*
D03*
X178785D02*
D03*
X179874Y393163D02*
D03*
Y389869D02*
D03*
Y396457D02*
D03*
X151706Y389869D02*
D03*
Y396457D02*
D03*
Y393163D02*
D03*
X152796Y400276D02*
D03*
X156089D02*
D03*
X178858D02*
D03*
X175564D02*
D03*
X172270D02*
D03*
X159383D02*
D03*
X168976D02*
D03*
X162677D02*
D03*
X152434Y382757D02*
D03*
X155728D02*
D03*
X159022D02*
D03*
X162315D02*
D03*
X165609D02*
D03*
X168903D02*
D03*
X172197D02*
D03*
X175491D02*
D03*
X178785D02*
D03*
X152434Y379464D02*
D03*
X155728D02*
D03*
X159022D02*
D03*
X162315D02*
D03*
X165609D02*
D03*
X168903D02*
D03*
X172197D02*
D03*
X175491D02*
D03*
X178785D02*
D03*
X152434Y376170D02*
D03*
X155728D02*
D03*
X159022D02*
D03*
X162315D02*
D03*
X165609D02*
D03*
X168903D02*
D03*
X172197D02*
D03*
X175491D02*
D03*
X178785D02*
D03*
X182078Y386051D02*
D03*
Y382757D02*
D03*
Y379464D02*
D03*
Y376170D02*
D03*
X149429D02*
D03*
Y379464D02*
D03*
Y382757D02*
D03*
Y386051D02*
D03*
X148412Y389869D02*
D03*
Y393163D02*
D03*
Y396457D02*
D03*
X149502Y400276D02*
D03*
X183168Y389869D02*
D03*
Y393163D02*
D03*
Y396457D02*
D03*
X182151Y400276D02*
D03*
X152796Y403569D02*
D03*
X156089D02*
D03*
X159383D02*
D03*
X172270D02*
D03*
X175564D02*
D03*
X178858D02*
D03*
X182151D02*
D03*
X217298Y386051D02*
D03*
X220448D02*
D03*
X214149D02*
D03*
X223741D02*
D03*
X210855D02*
D03*
X207561D02*
D03*
X204267D02*
D03*
X227035D02*
D03*
X230329D02*
D03*
X231419Y393163D02*
D03*
Y389870D02*
D03*
Y396457D02*
D03*
X203251Y389870D02*
D03*
Y396457D02*
D03*
Y393163D02*
D03*
X204340Y400276D02*
D03*
X207634D02*
D03*
X230402D02*
D03*
X227108D02*
D03*
X223814D02*
D03*
X210928D02*
D03*
X220521D02*
D03*
X214222D02*
D03*
X203978Y382757D02*
D03*
X207272D02*
D03*
X210566D02*
D03*
X213860D02*
D03*
X217154D02*
D03*
X220448D02*
D03*
X223741D02*
D03*
X227035D02*
D03*
X230329D02*
D03*
X203978Y379464D02*
D03*
X207272D02*
D03*
X210566D02*
D03*
X213860D02*
D03*
X217154D02*
D03*
X220448D02*
D03*
X223741D02*
D03*
X227035D02*
D03*
X230329D02*
D03*
X203978Y376170D02*
D03*
X207272D02*
D03*
X210566D02*
D03*
X213860D02*
D03*
X217154D02*
D03*
X220448D02*
D03*
X223741D02*
D03*
X227035D02*
D03*
X230329D02*
D03*
X233623Y386051D02*
D03*
Y382757D02*
D03*
Y379464D02*
D03*
Y376170D02*
D03*
X200973D02*
D03*
Y379464D02*
D03*
Y382757D02*
D03*
Y386051D02*
D03*
X199957Y389870D02*
D03*
Y393163D02*
D03*
Y396457D02*
D03*
X201046Y400276D02*
D03*
X234712Y389870D02*
D03*
Y393163D02*
D03*
Y396457D02*
D03*
X233696Y400276D02*
D03*
X201046Y403569D02*
D03*
X204340D02*
D03*
X207634D02*
D03*
X210928D02*
D03*
X223814D02*
D03*
X227108D02*
D03*
X230402D02*
D03*
X233696D02*
D03*
X217298Y432953D02*
D03*
X220448D02*
D03*
X214149D02*
D03*
X223741D02*
D03*
X210855D02*
D03*
X207561D02*
D03*
X204267D02*
D03*
X227035D02*
D03*
X230329D02*
D03*
X231419Y425841D02*
D03*
Y429134D02*
D03*
Y422547D02*
D03*
X203251Y429134D02*
D03*
Y422547D02*
D03*
Y425841D02*
D03*
X204340Y418728D02*
D03*
X207634D02*
D03*
X230402D02*
D03*
X227108D02*
D03*
X223814D02*
D03*
X210928D02*
D03*
X220521D02*
D03*
X214222D02*
D03*
X203978Y436247D02*
D03*
X207272D02*
D03*
X210566D02*
D03*
X213860D02*
D03*
X217154D02*
D03*
X220448D02*
D03*
X223741D02*
D03*
X227035D02*
D03*
X230329D02*
D03*
X203978Y439540D02*
D03*
X207272D02*
D03*
X210566D02*
D03*
X213860D02*
D03*
X217154D02*
D03*
X220448D02*
D03*
X223741D02*
D03*
X227035D02*
D03*
X230329D02*
D03*
X203978Y442834D02*
D03*
X207272D02*
D03*
X210566D02*
D03*
X213860D02*
D03*
X217154D02*
D03*
X220448D02*
D03*
X223741D02*
D03*
X227035D02*
D03*
X230329D02*
D03*
X233623Y432953D02*
D03*
Y436247D02*
D03*
Y439540D02*
D03*
Y442834D02*
D03*
X200973D02*
D03*
Y439540D02*
D03*
Y436247D02*
D03*
Y432953D02*
D03*
X199957Y429134D02*
D03*
Y425841D02*
D03*
Y422547D02*
D03*
X201046Y418728D02*
D03*
X234712Y429134D02*
D03*
Y425841D02*
D03*
Y422547D02*
D03*
X233696Y418728D02*
D03*
X201046Y415435D02*
D03*
X204340D02*
D03*
X207634D02*
D03*
X210928D02*
D03*
X223814D02*
D03*
X227108D02*
D03*
X230402D02*
D03*
X233696D02*
D03*
X182151Y415435D02*
D03*
X178858D02*
D03*
X175564D02*
D03*
X172270D02*
D03*
X159383D02*
D03*
X156089D02*
D03*
X152796D02*
D03*
X149502D02*
D03*
X182151Y418728D02*
D03*
X183168Y422547D02*
D03*
Y425841D02*
D03*
Y429134D02*
D03*
X149502Y418728D02*
D03*
X148412Y422547D02*
D03*
Y425841D02*
D03*
Y429134D02*
D03*
X149429Y432953D02*
D03*
Y436246D02*
D03*
Y439540D02*
D03*
Y442834D02*
D03*
X182078D02*
D03*
Y439540D02*
D03*
Y436246D02*
D03*
Y432953D02*
D03*
X178785Y442834D02*
D03*
X175491D02*
D03*
X172197D02*
D03*
X168903D02*
D03*
X165609D02*
D03*
X162315D02*
D03*
X159022D02*
D03*
X155728D02*
D03*
X152434D02*
D03*
X178785Y439540D02*
D03*
X175491D02*
D03*
X172197D02*
D03*
X168903D02*
D03*
X165609D02*
D03*
X162315D02*
D03*
X159022D02*
D03*
X155728D02*
D03*
X152434D02*
D03*
X178785Y436246D02*
D03*
X175491D02*
D03*
X172197D02*
D03*
X168903D02*
D03*
X165609D02*
D03*
X162315D02*
D03*
X159022D02*
D03*
X155728D02*
D03*
X152434D02*
D03*
X162677Y418728D02*
D03*
X168976D02*
D03*
X159383D02*
D03*
X172270D02*
D03*
X175564D02*
D03*
X178858D02*
D03*
X156089D02*
D03*
X152796D02*
D03*
X151706Y425841D02*
D03*
Y422547D02*
D03*
Y429134D02*
D03*
X179874Y422547D02*
D03*
Y429134D02*
D03*
Y425841D02*
D03*
X178785Y432953D02*
D03*
X175491D02*
D03*
X152723D02*
D03*
X156017D02*
D03*
X159310D02*
D03*
X172197D02*
D03*
X162604D02*
D03*
X168903D02*
D03*
X165754D02*
D03*
X60916Y681351D02*
D03*
X194191Y37086D02*
D03*
X204033Y65594D02*
D03*
X272224Y99236D02*
D03*
X567239Y26688D02*
D03*
X330961Y28327D02*
D03*
X324859Y31280D02*
D03*
X224153Y200515D02*
D03*
Y182799D02*
D03*
X253360Y186840D02*
D03*
X253369Y169114D02*
D03*
X391965Y174488D02*
D03*
X378403Y151404D02*
D03*
X333722Y91693D02*
D03*
X314467Y99236D02*
D03*
X290308Y92146D02*
D03*
X382198Y120651D02*
D03*
X385931Y110966D02*
D03*
X400965Y91496D02*
D03*
X406300Y96831D02*
D03*
X395630D02*
D03*
X400965Y102166D02*
D03*
Y96831D02*
D03*
D100*
X514402Y117492D02*
D03*
X564402Y17492D02*
D03*
X189402Y642492D02*
D03*
X164402Y592492D02*
D03*
X614402Y617492D02*
D03*
Y517492D02*
D03*
Y417492D02*
D03*
Y317492D02*
D03*
Y217492D02*
D03*
Y117492D02*
D03*
X639402Y67492D02*
D03*
X614402Y17492D02*
D03*
X564402Y617492D02*
D03*
Y517492D02*
D03*
Y417492D02*
D03*
Y317492D02*
D03*
Y117492D02*
D03*
X589402Y67492D02*
D03*
X539402Y167492D02*
D03*
X514402Y17492D02*
D03*
X464402Y417492D02*
D03*
X489402Y367492D02*
D03*
X464402Y317492D02*
D03*
X489402Y267492D02*
D03*
X464402Y217492D02*
D03*
X489402Y67492D02*
D03*
X439402Y567492D02*
D03*
X414402Y417492D02*
D03*
X439402Y367492D02*
D03*
X414402Y317492D02*
D03*
X439402Y267492D02*
D03*
X414402Y217492D02*
D03*
X364402Y417492D02*
D03*
X389402Y367492D02*
D03*
X364402Y317492D02*
D03*
X389402Y267492D02*
D03*
X364402Y217492D02*
D03*
X339402Y567492D02*
D03*
Y367492D02*
D03*
X314402Y317492D02*
D03*
X339402Y267492D02*
D03*
X314402Y217492D02*
D03*
X339402Y167492D02*
D03*
X314402Y117492D02*
D03*
Y17492D02*
D03*
X289402Y367492D02*
D03*
X264402Y317492D02*
D03*
X289402Y267492D02*
D03*
X264402Y217492D02*
D03*
X289402Y167492D02*
D03*
X214402Y617492D02*
D03*
X239402Y567492D02*
D03*
X214402Y517492D02*
D03*
X239402Y467492D02*
D03*
X214402Y317492D02*
D03*
X239402Y267492D02*
D03*
Y167492D02*
D03*
Y67492D02*
D03*
X164402Y317492D02*
D03*
X189402Y267492D02*
D03*
Y67492D02*
D03*
X114402Y617492D02*
D03*
Y417492D02*
D03*
X64402D02*
D03*
Y117492D02*
D03*
Y17492D02*
D03*
X39402Y567492D02*
D03*
X14402Y517492D02*
D03*
X39402Y467492D02*
D03*
X14402Y417492D02*
D03*
Y117492D02*
D03*
X39402Y67492D02*
D03*
X14402Y17492D02*
D03*
M02*
