M48
;Layer_Color=9474304
;FILE_FORMAT=2:5
INCH,LZ
;TYPE=PLATED
T5F00S00C0.03937
;TYPE=NON_PLATED
%
G90
G05
T05
G00X0656193Y0108783
M15
G01X0672532
M16
G00X0656193Y0138271
M15
G01X0672532
M16
G00X0656193Y0213133
M15
G01X0672532
M16
G00X0656193Y0242621
M15
G01X0672532
M16
G00X0656193Y0317484
M15
G01X0672532
M16
G00X0656193Y0346972
M15
G01X0672532
M16
G00X0656193Y0421834
M15
G01X0672532
M16
G00X0656193Y0451323
M15
G01X0672532
M16
G00X0656193Y0526185
M15
G01X0672532
M16
G00X0021732Y0576732
M15
G01X0038071
M16
G00X0021732Y060622
M15
G01X0038071
M16
G00X0656193Y0630535
M15
G01X0672532
M16
G00X0656193Y0660023
M15
G01X0672532
M16
G00X0656193Y0555673
M15
G01X0672532
M16
M17
M30
