M48
;Layer_Color=9474304
;FILE_FORMAT=2:5
INCH,LZ
;TYPE=PLATED
T2F00S00C0.04016
T3F00S00C0.07480
T4F00S00C0.16929
;TYPE=NON_PLATED
T5F00S00C0.09646
T6F00S00C0.11811
%
T02
X1608927Y1416339
X1600069
Y1430118
X1608927
X1538386
X1529527
X1520669
X1511811
X1502953
X1494094
Y1416339
X1502953
X1511811
X1520669
X1529527
X1538386
X1617785
X1626644
X1635502
X164436
Y1430118
X1635502
X1626644
X1617785
X1706043
X1714902
X172376
X1732618
X1741476
X1750335
Y1416339
X1741476
X1732618
X172376
X1714902
X1706043
Y1459646
X1714902
X172376
X1732618
X1741476
X1750335
Y1473425
X1741476
X1732618
X172376
X1714902
X1706043
X164436
X1635502
X1626644
X1617785
Y1459646
X1626644
X1635502
X164436
X1608927
X1600069
Y1473425
X1608927
X1538386
X1529527
X1520669
X1511811
X1502953
X1494094
Y1459646
X1502953
X1511811
X1520669
X1529527
X1538386
T03
X1138504Y1074035
Y1085059
Y1096083
Y1107106
Y111813
X1149528
X1160551
X1171575
X1182598
Y1107106
Y1096083
Y1085059
Y1074035
X1171575
X1160551
X1149528
X1340276
X1351299
X1362323
X1373347
X138437
Y1085059
Y1096083
Y1107106
Y111813
X1373347
X1362323
X1351299
X1340276
Y1107106
Y1096083
Y1085059
T04
X1728346Y1184134
Y1212205
Y1267205
X1622047
Y1212205
Y1184134
X1515748
Y1212205
Y1267205
X1379131Y1254587
Y1282658
X1294652
Y1254587
X1209966
Y1282658
X1125694
Y1254587
X1041836
Y1282658
X0957357
Y1254587
X0872878
Y1282658
X0789319
Y1254587
Y1337658
Y1365729
X0872878
Y1337658
X0957357
Y1365729
X1041836
Y1337658
X1125694
Y1365729
X1209966
Y1337658
X1294652
Y1365729
X1379131
Y1337658
X1515748Y1295276
X1622047
X1728346
T05
X1534724Y138937
X1640699
X1746673
Y1500394
X1640699
X1682579Y1444882
X1576604
X1534724Y1500394
X147063Y1444882
T06
X1342895Y1481686
X1359962
X1427245
X1275611
X1258544
X1191261
X1174193
X110691
X1089843
X102256
X1005492
X0938209
X0921142
X0853858
X0836791
X0769508
M30
